G75*
%MOIN*%
%OFA0B0*%
%FSLAX25Y25*%
%IPPOS*%
%LPD*%
%AMOC8*
5,1,8,0,0,1.08239X$1,22.5*
%
%ADD10C,0.07500*%
%ADD11C,0.07600*%
%ADD12C,0.05543*%
%ADD13C,0.17000*%
%ADD14C,0.05150*%
%ADD15C,0.07400*%
%ADD16C,0.05200*%
%ADD17OC8,0.07000*%
%ADD18C,0.07000*%
%ADD19R,0.07500X0.07500*%
%ADD20C,0.10630*%
%ADD21C,0.01600*%
%ADD22C,0.03962*%
%ADD23C,0.03200*%
%ADD24C,0.02400*%
%ADD25C,0.04356*%
%ADD26C,0.03569*%
%ADD27C,0.01200*%
%ADD28C,0.01000*%
D10*
X0123000Y0130370D03*
X0123000Y0140370D03*
X0123000Y0150370D03*
X0123000Y0160370D03*
X0123000Y0170370D03*
X0123000Y0180370D03*
X0123000Y0190370D03*
X0123000Y0200370D03*
X0123000Y0210370D03*
X0123000Y0220370D03*
X0123000Y0230370D03*
X0123000Y0240370D03*
X0123000Y0295370D03*
X0113000Y0295370D03*
X0133000Y0295370D03*
X0143000Y0295370D03*
X0153000Y0295370D03*
X0163000Y0295370D03*
X0173000Y0295370D03*
X0183000Y0295370D03*
X0193000Y0295370D03*
X0203000Y0295370D03*
X0193000Y0240370D03*
X0193000Y0230370D03*
X0193000Y0220370D03*
X0193000Y0210370D03*
X0193000Y0200370D03*
X0193000Y0190370D03*
X0193000Y0180370D03*
X0193000Y0170370D03*
X0193000Y0160370D03*
X0193000Y0150370D03*
X0193000Y0140370D03*
X0193000Y0130370D03*
D11*
X0203000Y0130370D03*
X0203000Y0140370D03*
X0203000Y0150370D03*
X0203000Y0160370D03*
X0203000Y0170370D03*
X0203000Y0180370D03*
X0203000Y0190370D03*
X0203000Y0200370D03*
X0203000Y0210370D03*
X0203000Y0220370D03*
X0203000Y0230370D03*
X0203000Y0240370D03*
X0113000Y0240370D03*
X0113000Y0230370D03*
X0113000Y0220370D03*
X0113000Y0210370D03*
X0113000Y0200370D03*
X0113000Y0190370D03*
X0113000Y0180370D03*
X0113000Y0170370D03*
X0113000Y0160370D03*
X0113000Y0150370D03*
X0113000Y0140370D03*
X0113000Y0130370D03*
D12*
X0153079Y0098142D02*
X0153079Y0092598D01*
X0162921Y0092598D02*
X0162921Y0098142D01*
X0270228Y0120370D02*
X0275772Y0120370D01*
X0275772Y0130370D02*
X0270228Y0130370D01*
X0270228Y0140370D02*
X0275772Y0140370D01*
X0275772Y0165449D02*
X0270228Y0165449D01*
X0270228Y0175291D02*
X0275772Y0175291D01*
X0275772Y0200449D02*
X0270228Y0200449D01*
X0270228Y0210291D02*
X0275772Y0210291D01*
X0275772Y0235449D02*
X0270228Y0235449D01*
X0270228Y0245291D02*
X0275772Y0245291D01*
X0275772Y0270449D02*
X0270228Y0270449D01*
X0270228Y0280291D02*
X0275772Y0280291D01*
X0045772Y0280370D02*
X0040228Y0280370D01*
X0040228Y0290370D02*
X0045772Y0290370D01*
X0045772Y0270370D02*
X0040228Y0270370D01*
X0040228Y0245291D02*
X0045772Y0245291D01*
X0045772Y0235449D02*
X0040228Y0235449D01*
X0040228Y0210291D02*
X0045772Y0210291D01*
X0045772Y0200449D02*
X0040228Y0200449D01*
X0040228Y0175291D02*
X0045772Y0175291D01*
X0045772Y0165449D02*
X0040228Y0165449D01*
D13*
X0053000Y0084307D03*
X0053000Y0060685D03*
X0071504Y0072496D03*
D14*
X0053000Y0320528D03*
X0053000Y0340213D03*
D15*
X0123000Y0275370D03*
X0133000Y0275370D03*
X0143000Y0275370D03*
X0153000Y0275370D03*
D16*
X0220400Y0275370D02*
X0225600Y0275370D01*
X0225600Y0285370D02*
X0220400Y0285370D01*
X0220400Y0265370D02*
X0225600Y0265370D01*
X0250400Y0265370D02*
X0255600Y0265370D01*
X0255600Y0275370D02*
X0250400Y0275370D01*
X0250400Y0285370D02*
X0255600Y0285370D01*
X0255600Y0315370D02*
X0250400Y0315370D01*
X0250400Y0325370D02*
X0255600Y0325370D01*
X0255600Y0335370D02*
X0250400Y0335370D01*
X0250400Y0345370D02*
X0255600Y0345370D01*
X0225600Y0345370D02*
X0220400Y0345370D01*
X0220400Y0335370D02*
X0225600Y0335370D01*
X0225600Y0325370D02*
X0220400Y0325370D01*
X0220400Y0315370D02*
X0225600Y0315370D01*
D17*
X0283000Y0307870D03*
D18*
X0273000Y0307870D03*
D19*
X0277843Y0094898D03*
X0268000Y0094898D03*
X0258157Y0094898D03*
X0217843Y0094898D03*
X0208000Y0094898D03*
X0198157Y0094898D03*
D20*
X0189299Y0065370D03*
X0226701Y0065370D03*
X0249299Y0065370D03*
X0286701Y0065370D03*
D21*
X0028033Y0047452D02*
X0025427Y0049530D01*
X0023349Y0052136D01*
X0021903Y0055139D01*
X0021161Y0058389D01*
X0021068Y0060055D01*
X0021068Y0094625D01*
X0021316Y0094625D01*
X0023370Y0095476D01*
X0024941Y0097048D01*
X0025792Y0099101D01*
X0025792Y0103069D01*
X0026693Y0102696D01*
X0029307Y0102696D01*
X0031723Y0103697D01*
X0033571Y0105545D01*
X0034572Y0107961D01*
X0034572Y0110575D01*
X0033571Y0112990D01*
X0031723Y0114839D01*
X0029307Y0115839D01*
X0026693Y0115839D01*
X0025792Y0115466D01*
X0025792Y0122754D01*
X0026693Y0122381D01*
X0029307Y0122381D01*
X0031723Y0123382D01*
X0033571Y0125230D01*
X0034572Y0127646D01*
X0034572Y0130260D01*
X0033571Y0132675D01*
X0031723Y0134524D01*
X0029307Y0135524D01*
X0026693Y0135524D01*
X0025792Y0135151D01*
X0025792Y0139119D01*
X0024941Y0141173D01*
X0023370Y0142745D01*
X0021316Y0143595D01*
X0021068Y0143595D01*
X0021068Y0365370D01*
X0040231Y0365370D01*
X0041334Y0364798D01*
X0046454Y0363735D01*
X0051670Y0364091D01*
X0055268Y0365370D01*
X0260703Y0365370D01*
X0261807Y0364798D01*
X0266926Y0363735D01*
X0272143Y0364091D01*
X0275741Y0365370D01*
X0294932Y0365370D01*
X0294932Y0067748D01*
X0293919Y0070193D01*
X0291524Y0072589D01*
X0288395Y0073885D01*
X0285007Y0073885D01*
X0281877Y0072589D01*
X0279482Y0070193D01*
X0278186Y0067064D01*
X0278186Y0063676D01*
X0279482Y0060547D01*
X0281877Y0058151D01*
X0285007Y0056855D01*
X0288395Y0056855D01*
X0291524Y0058151D01*
X0293919Y0060547D01*
X0294932Y0062992D01*
X0294932Y0040370D01*
X0091023Y0040370D01*
X0090604Y0041382D01*
X0090604Y0041382D01*
X0088146Y0043840D01*
X0088146Y0043840D01*
X0084935Y0045170D01*
X0035953Y0045170D01*
X0034286Y0045264D01*
X0031037Y0046005D01*
X0028033Y0047452D01*
X0026891Y0048363D02*
X0294932Y0048363D01*
X0294932Y0049961D02*
X0025083Y0049961D01*
X0023809Y0051560D02*
X0048210Y0051560D01*
X0048010Y0051656D02*
X0049052Y0051154D01*
X0050144Y0050772D01*
X0051272Y0050515D01*
X0052200Y0050410D01*
X0052200Y0059885D01*
X0053800Y0059885D01*
X0053800Y0050410D01*
X0054728Y0050515D01*
X0055856Y0050772D01*
X0056948Y0051154D01*
X0057990Y0051656D01*
X0058970Y0052272D01*
X0059874Y0052993D01*
X0060692Y0053811D01*
X0061414Y0054715D01*
X0062029Y0055695D01*
X0062531Y0056737D01*
X0062913Y0057829D01*
X0063170Y0058957D01*
X0063275Y0059885D01*
X0053800Y0059885D01*
X0053800Y0061485D01*
X0063275Y0061485D01*
X0063170Y0062413D01*
X0062913Y0063541D01*
X0062531Y0064633D01*
X0062029Y0065675D01*
X0061414Y0066655D01*
X0060692Y0067559D01*
X0059874Y0068377D01*
X0058970Y0069099D01*
X0057990Y0069714D01*
X0056948Y0070216D01*
X0055856Y0070598D01*
X0054728Y0070855D01*
X0053800Y0070960D01*
X0053800Y0061485D01*
X0052200Y0061485D01*
X0052200Y0059885D01*
X0042725Y0059885D01*
X0042830Y0058957D01*
X0043087Y0057829D01*
X0043469Y0056737D01*
X0043971Y0055695D01*
X0044586Y0054715D01*
X0045308Y0053811D01*
X0046126Y0052993D01*
X0047030Y0052272D01*
X0048010Y0051656D01*
X0045960Y0053158D02*
X0022857Y0053158D01*
X0022087Y0054757D02*
X0044560Y0054757D01*
X0043653Y0056355D02*
X0021625Y0056355D01*
X0021261Y0057954D02*
X0043059Y0057954D01*
X0042762Y0059552D02*
X0021096Y0059552D01*
X0021068Y0061151D02*
X0052200Y0061151D01*
X0052200Y0061485D02*
X0042725Y0061485D01*
X0042830Y0062413D01*
X0043087Y0063541D01*
X0043469Y0064633D01*
X0043971Y0065675D01*
X0044586Y0066655D01*
X0045308Y0067559D01*
X0046126Y0068377D01*
X0047030Y0069099D01*
X0048010Y0069714D01*
X0049052Y0070216D01*
X0050144Y0070598D01*
X0051272Y0070855D01*
X0052200Y0070960D01*
X0052200Y0061485D01*
X0052200Y0062749D02*
X0053800Y0062749D01*
X0053800Y0061151D02*
X0181830Y0061151D01*
X0182081Y0060547D02*
X0184476Y0058151D01*
X0187605Y0056855D01*
X0190993Y0056855D01*
X0194123Y0058151D01*
X0196518Y0060547D01*
X0197814Y0063676D01*
X0197814Y0067064D01*
X0196518Y0070193D01*
X0194123Y0072589D01*
X0190993Y0073885D01*
X0187605Y0073885D01*
X0184476Y0072589D01*
X0182081Y0070193D01*
X0180784Y0067064D01*
X0180784Y0063676D01*
X0182081Y0060547D01*
X0183075Y0059552D02*
X0063238Y0059552D01*
X0062941Y0057954D02*
X0184953Y0057954D01*
X0181168Y0062749D02*
X0074835Y0062749D01*
X0074360Y0062583D02*
X0075452Y0062965D01*
X0076494Y0063467D01*
X0077474Y0064083D01*
X0078378Y0064804D01*
X0079196Y0065622D01*
X0079917Y0066526D01*
X0080533Y0067506D01*
X0081035Y0068548D01*
X0081417Y0069640D01*
X0081674Y0070768D01*
X0081779Y0071696D01*
X0072304Y0071696D01*
X0072304Y0073296D01*
X0081779Y0073296D01*
X0081674Y0074224D01*
X0081417Y0075352D01*
X0081035Y0076444D01*
X0080533Y0077486D01*
X0079917Y0078466D01*
X0079196Y0079370D01*
X0078378Y0080188D01*
X0077474Y0080910D01*
X0076494Y0081525D01*
X0075452Y0082027D01*
X0074360Y0082409D01*
X0073232Y0082667D01*
X0072304Y0082771D01*
X0072304Y0073296D01*
X0070704Y0073296D01*
X0070704Y0071696D01*
X0072304Y0071696D01*
X0072304Y0062221D01*
X0073232Y0062326D01*
X0074360Y0062583D01*
X0072304Y0062749D02*
X0070704Y0062749D01*
X0070704Y0062221D02*
X0070704Y0071696D01*
X0061229Y0071696D01*
X0061333Y0070768D01*
X0061591Y0069640D01*
X0061973Y0068548D01*
X0062475Y0067506D01*
X0063090Y0066526D01*
X0063812Y0065622D01*
X0064630Y0064804D01*
X0065534Y0064083D01*
X0066514Y0063467D01*
X0067556Y0062965D01*
X0068648Y0062583D01*
X0069776Y0062326D01*
X0070704Y0062221D01*
X0070704Y0064348D02*
X0072304Y0064348D01*
X0072304Y0065946D02*
X0070704Y0065946D01*
X0070704Y0067545D02*
X0072304Y0067545D01*
X0072304Y0069143D02*
X0070704Y0069143D01*
X0070704Y0070742D02*
X0072304Y0070742D01*
X0072304Y0072340D02*
X0184227Y0072340D01*
X0182629Y0070742D02*
X0081668Y0070742D01*
X0081243Y0069143D02*
X0181646Y0069143D01*
X0180983Y0067545D02*
X0080552Y0067545D01*
X0079455Y0065946D02*
X0180784Y0065946D01*
X0180784Y0064348D02*
X0077806Y0064348D01*
X0070704Y0072340D02*
X0021068Y0072340D01*
X0021068Y0070742D02*
X0050774Y0070742D01*
X0052200Y0070742D02*
X0053800Y0070742D01*
X0055226Y0070742D02*
X0061339Y0070742D01*
X0061765Y0069143D02*
X0058899Y0069143D01*
X0060704Y0067545D02*
X0062456Y0067545D01*
X0061859Y0065946D02*
X0063553Y0065946D01*
X0062631Y0064348D02*
X0065202Y0064348D01*
X0063094Y0062749D02*
X0068173Y0062749D01*
X0062347Y0056355D02*
X0294932Y0056355D01*
X0294932Y0054757D02*
X0061439Y0054757D01*
X0060040Y0053158D02*
X0294932Y0053158D01*
X0294932Y0051560D02*
X0057790Y0051560D01*
X0053800Y0051560D02*
X0052200Y0051560D01*
X0052200Y0053158D02*
X0053800Y0053158D01*
X0053800Y0054757D02*
X0052200Y0054757D01*
X0052200Y0056355D02*
X0053800Y0056355D01*
X0053800Y0057954D02*
X0052200Y0057954D01*
X0052200Y0059552D02*
X0053800Y0059552D01*
X0053800Y0064348D02*
X0052200Y0064348D01*
X0052200Y0065946D02*
X0053800Y0065946D01*
X0053800Y0067545D02*
X0052200Y0067545D01*
X0052200Y0069143D02*
X0053800Y0069143D01*
X0054540Y0072607D02*
X0057516Y0073404D01*
X0060184Y0074945D01*
X0062242Y0077003D01*
X0061973Y0076444D01*
X0061591Y0075352D01*
X0061333Y0074224D01*
X0061229Y0073296D01*
X0070704Y0073296D01*
X0070704Y0082771D01*
X0069776Y0082667D01*
X0068648Y0082409D01*
X0067556Y0082027D01*
X0066514Y0081525D01*
X0065534Y0080910D01*
X0064630Y0080188D01*
X0063812Y0079370D01*
X0063261Y0078680D01*
X0063903Y0079791D01*
X0064700Y0082767D01*
X0064700Y0085847D01*
X0063903Y0088823D01*
X0062362Y0091491D01*
X0060184Y0093669D01*
X0057516Y0095210D01*
X0054540Y0096007D01*
X0051460Y0096007D01*
X0048484Y0095210D01*
X0045816Y0093669D01*
X0043638Y0091491D01*
X0042097Y0088823D01*
X0041300Y0085847D01*
X0041300Y0082767D01*
X0042097Y0079791D01*
X0043638Y0077123D01*
X0045816Y0074945D01*
X0048484Y0073404D01*
X0051460Y0072607D01*
X0054540Y0072607D01*
X0058442Y0073939D02*
X0061301Y0073939D01*
X0061656Y0075537D02*
X0060777Y0075537D01*
X0063293Y0078734D02*
X0063305Y0078734D01*
X0064048Y0080333D02*
X0064811Y0080333D01*
X0064476Y0081931D02*
X0067358Y0081931D01*
X0064700Y0083530D02*
X0294932Y0083530D01*
X0294932Y0085128D02*
X0064700Y0085128D01*
X0064464Y0086727D02*
X0151649Y0086727D01*
X0151891Y0086627D02*
X0154267Y0086627D01*
X0156461Y0087536D01*
X0158141Y0089216D01*
X0158757Y0090702D01*
X0159011Y0090202D01*
X0159434Y0089620D01*
X0159943Y0089111D01*
X0160525Y0088688D01*
X0161166Y0088362D01*
X0161851Y0088139D01*
X0162561Y0088027D01*
X0162835Y0088027D01*
X0162835Y0095284D01*
X0163007Y0095284D01*
X0163007Y0088027D01*
X0163281Y0088027D01*
X0163992Y0088139D01*
X0164676Y0088362D01*
X0165317Y0088688D01*
X0165899Y0089111D01*
X0166408Y0089620D01*
X0166831Y0090202D01*
X0167158Y0090844D01*
X0167380Y0091528D01*
X0167493Y0092239D01*
X0167493Y0095284D01*
X0163007Y0095284D01*
X0163007Y0095456D01*
X0162835Y0095456D01*
X0162835Y0102713D01*
X0162561Y0102713D01*
X0161851Y0102601D01*
X0161166Y0102378D01*
X0160525Y0102052D01*
X0159943Y0101629D01*
X0159434Y0101120D01*
X0159011Y0100538D01*
X0158757Y0100038D01*
X0158141Y0101524D01*
X0156461Y0103204D01*
X0154267Y0104113D01*
X0151891Y0104113D01*
X0149696Y0103204D01*
X0148016Y0101524D01*
X0147107Y0099330D01*
X0147107Y0091411D01*
X0148016Y0089216D01*
X0149696Y0087536D01*
X0151891Y0086627D01*
X0154508Y0086727D02*
X0294932Y0086727D01*
X0294932Y0088325D02*
X0273299Y0088325D01*
X0273563Y0088435D02*
X0274463Y0089335D01*
X0274468Y0089348D01*
X0277658Y0089348D01*
X0277658Y0094713D01*
X0278027Y0094713D01*
X0278027Y0089348D01*
X0281829Y0089348D01*
X0282287Y0089470D01*
X0282698Y0089707D01*
X0283033Y0090042D01*
X0283270Y0090453D01*
X0283393Y0090911D01*
X0283393Y0094713D01*
X0278027Y0094713D01*
X0278027Y0095082D01*
X0283393Y0095082D01*
X0283393Y0098885D01*
X0283270Y0099342D01*
X0283033Y0099753D01*
X0282698Y0100088D01*
X0282287Y0100325D01*
X0281829Y0100448D01*
X0278027Y0100448D01*
X0278027Y0095082D01*
X0277658Y0095082D01*
X0277658Y0100448D01*
X0274468Y0100448D01*
X0274463Y0100460D01*
X0273563Y0101360D01*
X0272387Y0101848D01*
X0263613Y0101848D01*
X0263079Y0101626D01*
X0262544Y0101848D01*
X0253771Y0101848D01*
X0252595Y0101360D01*
X0251695Y0100460D01*
X0251207Y0099284D01*
X0251207Y0090511D01*
X0251695Y0089335D01*
X0252595Y0088435D01*
X0253771Y0087948D01*
X0262544Y0087948D01*
X0263079Y0088169D01*
X0263613Y0087948D01*
X0272387Y0087948D01*
X0273563Y0088435D01*
X0277658Y0089924D02*
X0278027Y0089924D01*
X0278027Y0091522D02*
X0277658Y0091522D01*
X0277658Y0093121D02*
X0278027Y0093121D01*
X0278027Y0094719D02*
X0294932Y0094719D01*
X0294932Y0093121D02*
X0283393Y0093121D01*
X0283393Y0091522D02*
X0294932Y0091522D01*
X0294932Y0089924D02*
X0282914Y0089924D01*
X0283393Y0096318D02*
X0294932Y0096318D01*
X0294932Y0097916D02*
X0283393Y0097916D01*
X0283170Y0099515D02*
X0294932Y0099515D01*
X0294932Y0101114D02*
X0273810Y0101114D01*
X0277658Y0099515D02*
X0278027Y0099515D01*
X0278027Y0097916D02*
X0277658Y0097916D01*
X0277658Y0096318D02*
X0278027Y0096318D01*
X0294932Y0102712D02*
X0196586Y0102712D01*
X0196531Y0102689D02*
X0198435Y0103478D01*
X0199892Y0104935D01*
X0200681Y0106839D01*
X0200681Y0108901D01*
X0199892Y0110805D01*
X0198435Y0112262D01*
X0196531Y0113051D01*
X0195551Y0113051D01*
X0190681Y0117922D01*
X0190681Y0118901D01*
X0189892Y0120805D01*
X0188435Y0122262D01*
X0186531Y0123051D01*
X0184469Y0123051D01*
X0182565Y0122262D01*
X0181700Y0121397D01*
X0181700Y0125259D01*
X0183435Y0125978D01*
X0184892Y0127435D01*
X0185681Y0129339D01*
X0185681Y0131401D01*
X0184892Y0133305D01*
X0183435Y0134762D01*
X0181531Y0135551D01*
X0179469Y0135551D01*
X0177565Y0134762D01*
X0176108Y0133305D01*
X0175319Y0131401D01*
X0175319Y0130422D01*
X0174863Y0129966D01*
X0174300Y0128606D01*
X0174300Y0117134D01*
X0174863Y0115774D01*
X0175904Y0114733D01*
X0183234Y0107403D01*
X0182889Y0106571D01*
X0170484Y0120748D01*
X0170484Y0121362D01*
X0169725Y0123193D01*
X0168323Y0124596D01*
X0166491Y0125354D01*
X0164509Y0125354D01*
X0162677Y0124596D01*
X0161275Y0123193D01*
X0160516Y0121362D01*
X0160516Y0119379D01*
X0161275Y0117547D01*
X0162677Y0116145D01*
X0164509Y0115386D01*
X0164546Y0115386D01*
X0178016Y0099992D01*
X0178016Y0099379D01*
X0178775Y0097547D01*
X0180177Y0096145D01*
X0182009Y0095386D01*
X0183991Y0095386D01*
X0185823Y0096145D01*
X0187225Y0097547D01*
X0187984Y0099379D01*
X0187984Y0100189D01*
X0189031Y0100189D01*
X0190935Y0100978D01*
X0192392Y0102435D01*
X0192786Y0103386D01*
X0194469Y0102689D01*
X0196531Y0102689D01*
X0194414Y0102712D02*
X0192507Y0102712D01*
X0192595Y0101360D02*
X0191695Y0100460D01*
X0191207Y0099284D01*
X0191207Y0090511D01*
X0191695Y0089335D01*
X0192595Y0088435D01*
X0193771Y0087948D01*
X0202544Y0087948D01*
X0203079Y0088169D01*
X0203613Y0087948D01*
X0212387Y0087948D01*
X0213563Y0088435D01*
X0214463Y0089335D01*
X0214468Y0089348D01*
X0217658Y0089348D01*
X0217658Y0094713D01*
X0218027Y0094713D01*
X0218027Y0089348D01*
X0221829Y0089348D01*
X0222287Y0089470D01*
X0222698Y0089707D01*
X0223033Y0090042D01*
X0223270Y0090453D01*
X0223393Y0090911D01*
X0223393Y0094713D01*
X0218027Y0094713D01*
X0218027Y0095082D01*
X0223393Y0095082D01*
X0223393Y0098885D01*
X0223270Y0099342D01*
X0223033Y0099753D01*
X0222698Y0100088D01*
X0222287Y0100325D01*
X0221829Y0100448D01*
X0218027Y0100448D01*
X0218027Y0095082D01*
X0217658Y0095082D01*
X0217658Y0100448D01*
X0214468Y0100448D01*
X0214463Y0100460D01*
X0213563Y0101360D01*
X0212387Y0101848D01*
X0203613Y0101848D01*
X0203079Y0101626D01*
X0202544Y0101848D01*
X0193771Y0101848D01*
X0192595Y0101360D01*
X0192348Y0101114D02*
X0191071Y0101114D01*
X0191303Y0099515D02*
X0187984Y0099515D01*
X0187379Y0097916D02*
X0191207Y0097916D01*
X0191207Y0096318D02*
X0185997Y0096318D01*
X0183000Y0100370D02*
X0165500Y0120370D01*
X0163873Y0125091D02*
X0127550Y0125091D01*
X0126937Y0124478D02*
X0128892Y0126433D01*
X0129950Y0128988D01*
X0129950Y0131753D01*
X0128892Y0134307D01*
X0127829Y0135370D01*
X0128892Y0136433D01*
X0129950Y0138988D01*
X0129950Y0141753D01*
X0128892Y0144307D01*
X0127829Y0145370D01*
X0128892Y0146433D01*
X0129950Y0148988D01*
X0129950Y0151753D01*
X0128892Y0154307D01*
X0126937Y0156262D01*
X0126798Y0156319D01*
X0127233Y0156754D01*
X0127747Y0157461D01*
X0128143Y0158240D01*
X0128413Y0159070D01*
X0128550Y0159933D01*
X0128550Y0160170D01*
X0123200Y0160170D01*
X0123200Y0160570D01*
X0128550Y0160570D01*
X0128550Y0160807D01*
X0128413Y0161670D01*
X0128143Y0162501D01*
X0127747Y0163279D01*
X0127233Y0163986D01*
X0126798Y0164421D01*
X0126937Y0164478D01*
X0128892Y0166433D01*
X0129950Y0168988D01*
X0129950Y0171753D01*
X0128892Y0174307D01*
X0127829Y0175370D01*
X0128892Y0176433D01*
X0129950Y0178988D01*
X0129950Y0181753D01*
X0128892Y0184307D01*
X0127829Y0185370D01*
X0128892Y0186433D01*
X0129950Y0188988D01*
X0129950Y0191753D01*
X0128892Y0194307D01*
X0127829Y0195370D01*
X0128892Y0196433D01*
X0129950Y0198988D01*
X0129950Y0201753D01*
X0128892Y0204307D01*
X0127829Y0205370D01*
X0128892Y0206433D01*
X0129950Y0208988D01*
X0129950Y0211753D01*
X0128892Y0214307D01*
X0127829Y0215370D01*
X0128892Y0216433D01*
X0129950Y0218988D01*
X0129950Y0221753D01*
X0128892Y0224307D01*
X0127829Y0225370D01*
X0128892Y0226433D01*
X0129950Y0228988D01*
X0129950Y0231753D01*
X0129114Y0233770D01*
X0166916Y0233770D01*
X0168239Y0234318D01*
X0169252Y0235331D01*
X0169800Y0236654D01*
X0169800Y0256086D01*
X0169252Y0257409D01*
X0168239Y0258422D01*
X0166916Y0258970D01*
X0123128Y0258970D01*
X0122541Y0259012D01*
X0122416Y0258970D01*
X0122284Y0258970D01*
X0121740Y0258745D01*
X0121182Y0258559D01*
X0121083Y0258472D01*
X0120961Y0258422D01*
X0120545Y0258006D01*
X0120100Y0257621D01*
X0120041Y0257503D01*
X0119948Y0257409D01*
X0119723Y0256866D01*
X0115041Y0247503D01*
X0114948Y0247409D01*
X0114853Y0247179D01*
X0114392Y0247370D01*
X0111608Y0247370D01*
X0109300Y0246414D01*
X0109300Y0246858D01*
X0108530Y0249732D01*
X0107042Y0252308D01*
X0104938Y0254412D01*
X0102362Y0255900D01*
X0099488Y0256670D01*
X0096512Y0256670D01*
X0093638Y0255900D01*
X0091062Y0254412D01*
X0088958Y0252308D01*
X0087470Y0249732D01*
X0086700Y0246858D01*
X0086700Y0243882D01*
X0087470Y0241008D01*
X0088958Y0238432D01*
X0091062Y0236328D01*
X0093638Y0234840D01*
X0096512Y0234070D01*
X0099488Y0234070D01*
X0102362Y0234840D01*
X0104938Y0236328D01*
X0106465Y0237855D01*
X0107066Y0236405D01*
X0108101Y0235370D01*
X0107066Y0234335D01*
X0106000Y0231762D01*
X0106000Y0228978D01*
X0107066Y0226405D01*
X0108101Y0225370D01*
X0107066Y0224335D01*
X0106000Y0221762D01*
X0106000Y0218978D01*
X0107066Y0216405D01*
X0108101Y0215370D01*
X0107066Y0214335D01*
X0106000Y0211762D01*
X0106000Y0208978D01*
X0107066Y0206405D01*
X0108101Y0205370D01*
X0107066Y0204335D01*
X0106000Y0201762D01*
X0106000Y0198978D01*
X0107066Y0196405D01*
X0108101Y0195370D01*
X0107066Y0194335D01*
X0106000Y0191762D01*
X0106000Y0188978D01*
X0107066Y0186405D01*
X0108101Y0185370D01*
X0107066Y0184335D01*
X0106000Y0181762D01*
X0106000Y0178978D01*
X0107066Y0176405D01*
X0108101Y0175370D01*
X0107066Y0174335D01*
X0106000Y0171762D01*
X0106000Y0168978D01*
X0107066Y0166405D01*
X0109035Y0164436D01*
X0109114Y0164403D01*
X0108729Y0164018D01*
X0108210Y0163305D01*
X0107810Y0162520D01*
X0107538Y0161681D01*
X0107400Y0160811D01*
X0107400Y0160560D01*
X0112800Y0160570D01*
X0112800Y0160170D01*
X0107400Y0160160D01*
X0107400Y0159929D01*
X0107538Y0159059D01*
X0107810Y0158220D01*
X0108210Y0157435D01*
X0108729Y0156722D01*
X0109114Y0156337D01*
X0109035Y0156304D01*
X0107066Y0154335D01*
X0106000Y0151762D01*
X0106000Y0148978D01*
X0107066Y0146405D01*
X0108101Y0145370D01*
X0107066Y0144335D01*
X0106000Y0141762D01*
X0106000Y0138978D01*
X0107066Y0136405D01*
X0108101Y0135370D01*
X0107066Y0134335D01*
X0106465Y0132885D01*
X0104938Y0134412D01*
X0102362Y0135900D01*
X0099488Y0136670D01*
X0096512Y0136670D01*
X0093638Y0135900D01*
X0091062Y0134412D01*
X0088958Y0132308D01*
X0087470Y0129732D01*
X0086700Y0126858D01*
X0086700Y0123882D01*
X0087470Y0121008D01*
X0088958Y0118432D01*
X0091062Y0116328D01*
X0093638Y0114840D01*
X0096512Y0114070D01*
X0099488Y0114070D01*
X0102362Y0114840D01*
X0104938Y0116328D01*
X0107042Y0118432D01*
X0108530Y0121008D01*
X0109300Y0123882D01*
X0109300Y0124326D01*
X0111608Y0123370D01*
X0114392Y0123370D01*
X0116965Y0124436D01*
X0118035Y0125506D01*
X0119063Y0124478D01*
X0121618Y0123420D01*
X0124382Y0123420D01*
X0126937Y0124478D01*
X0124558Y0123493D02*
X0161574Y0123493D01*
X0160736Y0121894D02*
X0108767Y0121894D01*
X0109196Y0123493D02*
X0111312Y0123493D01*
X0114688Y0123493D02*
X0121442Y0123493D01*
X0118450Y0125091D02*
X0117621Y0125091D01*
X0108118Y0120296D02*
X0160516Y0120296D01*
X0160798Y0118697D02*
X0107195Y0118697D01*
X0105709Y0117099D02*
X0161723Y0117099D01*
X0164233Y0115500D02*
X0103505Y0115500D01*
X0092495Y0115500D02*
X0089154Y0115500D01*
X0089031Y0115551D02*
X0086969Y0115551D01*
X0085084Y0114770D01*
X0082125Y0114770D01*
X0080508Y0114100D01*
X0068283Y0101875D01*
X0062773Y0107385D01*
X0062392Y0108305D01*
X0060935Y0109762D01*
X0059031Y0110551D01*
X0056969Y0110551D01*
X0055065Y0109762D01*
X0053608Y0108305D01*
X0052819Y0106401D01*
X0052819Y0104339D01*
X0053608Y0102435D01*
X0055065Y0100978D01*
X0055985Y0100597D01*
X0063227Y0093355D01*
X0063608Y0092435D01*
X0065065Y0090978D01*
X0066969Y0090189D01*
X0069031Y0090189D01*
X0070935Y0090978D01*
X0072392Y0092435D01*
X0073173Y0094321D01*
X0084823Y0105970D01*
X0085084Y0105970D01*
X0086969Y0105189D01*
X0089031Y0105189D01*
X0090935Y0105978D01*
X0092392Y0107435D01*
X0093181Y0109339D01*
X0093181Y0111401D01*
X0092392Y0113305D01*
X0090935Y0114762D01*
X0089031Y0115551D01*
X0090291Y0117099D02*
X0047056Y0117099D01*
X0047392Y0117435D02*
X0048181Y0119339D01*
X0048181Y0121401D01*
X0047400Y0123286D01*
X0047400Y0142454D01*
X0048181Y0144339D01*
X0048181Y0146401D01*
X0047392Y0148305D01*
X0045935Y0149762D01*
X0044031Y0150551D01*
X0041969Y0150551D01*
X0040065Y0149762D01*
X0038608Y0148305D01*
X0037819Y0146401D01*
X0037819Y0144339D01*
X0038600Y0142454D01*
X0038600Y0123286D01*
X0037819Y0121401D01*
X0037819Y0119339D01*
X0038608Y0117435D01*
X0040065Y0115978D01*
X0041969Y0115189D01*
X0044031Y0115189D01*
X0045935Y0115978D01*
X0047392Y0117435D01*
X0047915Y0118697D02*
X0088805Y0118697D01*
X0087882Y0120296D02*
X0048181Y0120296D01*
X0047977Y0121894D02*
X0087233Y0121894D01*
X0086804Y0123493D02*
X0047400Y0123493D01*
X0047400Y0125091D02*
X0086700Y0125091D01*
X0086700Y0126690D02*
X0047400Y0126690D01*
X0047400Y0128288D02*
X0087083Y0128288D01*
X0087560Y0129887D02*
X0047400Y0129887D01*
X0047400Y0131485D02*
X0088482Y0131485D01*
X0089733Y0133084D02*
X0047400Y0133084D01*
X0047400Y0134682D02*
X0091529Y0134682D01*
X0095059Y0136281D02*
X0047400Y0136281D01*
X0047400Y0137879D02*
X0106455Y0137879D01*
X0106000Y0139478D02*
X0047400Y0139478D01*
X0047400Y0141076D02*
X0106000Y0141076D01*
X0106378Y0142675D02*
X0047492Y0142675D01*
X0048154Y0144273D02*
X0107040Y0144273D01*
X0107599Y0145872D02*
X0048181Y0145872D01*
X0047738Y0147470D02*
X0106624Y0147470D01*
X0106000Y0149069D02*
X0046628Y0149069D01*
X0039372Y0149069D02*
X0021068Y0149069D01*
X0021068Y0150667D02*
X0106000Y0150667D01*
X0106209Y0152266D02*
X0021068Y0152266D01*
X0021068Y0153864D02*
X0106871Y0153864D01*
X0108193Y0155463D02*
X0021068Y0155463D01*
X0021068Y0157061D02*
X0108482Y0157061D01*
X0107667Y0158660D02*
X0021068Y0158660D01*
X0021068Y0160258D02*
X0037154Y0160258D01*
X0036846Y0160386D02*
X0039041Y0159477D01*
X0046959Y0159477D01*
X0049154Y0160386D01*
X0050834Y0162066D01*
X0051743Y0164261D01*
X0051743Y0166637D01*
X0050834Y0168831D01*
X0049296Y0170370D01*
X0050834Y0171909D01*
X0051743Y0174103D01*
X0051743Y0176479D01*
X0050834Y0178674D01*
X0049154Y0180354D01*
X0046959Y0181263D01*
X0039041Y0181263D01*
X0036846Y0180354D01*
X0035166Y0178674D01*
X0034257Y0176479D01*
X0034257Y0174103D01*
X0035166Y0171909D01*
X0036704Y0170370D01*
X0035166Y0168831D01*
X0034257Y0166637D01*
X0034257Y0164261D01*
X0035166Y0162066D01*
X0036846Y0160386D01*
X0035375Y0161857D02*
X0021068Y0161857D01*
X0021068Y0163455D02*
X0034590Y0163455D01*
X0034257Y0165054D02*
X0021068Y0165054D01*
X0021068Y0166652D02*
X0034263Y0166652D01*
X0034925Y0168251D02*
X0021068Y0168251D01*
X0021068Y0169849D02*
X0036184Y0169849D01*
X0035626Y0171448D02*
X0021068Y0171448D01*
X0021068Y0173047D02*
X0034695Y0173047D01*
X0034257Y0174645D02*
X0021068Y0174645D01*
X0021068Y0176244D02*
X0034257Y0176244D01*
X0034821Y0177842D02*
X0021068Y0177842D01*
X0021068Y0179441D02*
X0035932Y0179441D01*
X0038500Y0181039D02*
X0021068Y0181039D01*
X0021068Y0182638D02*
X0106362Y0182638D01*
X0106000Y0181039D02*
X0047500Y0181039D01*
X0050068Y0179441D02*
X0106000Y0179441D01*
X0106470Y0177842D02*
X0051179Y0177842D01*
X0051743Y0176244D02*
X0107227Y0176244D01*
X0107375Y0174645D02*
X0051743Y0174645D01*
X0051305Y0173047D02*
X0106532Y0173047D01*
X0106000Y0171448D02*
X0050374Y0171448D01*
X0049816Y0169849D02*
X0106000Y0169849D01*
X0106301Y0168251D02*
X0051075Y0168251D01*
X0051737Y0166652D02*
X0106963Y0166652D01*
X0108417Y0165054D02*
X0051743Y0165054D01*
X0051410Y0163455D02*
X0108320Y0163455D01*
X0107595Y0161857D02*
X0050625Y0161857D01*
X0048846Y0160258D02*
X0112800Y0160258D01*
X0113200Y0160258D02*
X0122800Y0160258D01*
X0122800Y0160170D02*
X0118600Y0160170D01*
X0118600Y0160180D01*
X0113200Y0160170D01*
X0113200Y0160570D01*
X0117450Y0160578D01*
X0117450Y0160570D01*
X0122800Y0160570D01*
X0122800Y0160170D01*
X0123200Y0160258D02*
X0186050Y0160258D01*
X0186050Y0158988D02*
X0187108Y0156433D01*
X0188171Y0155370D01*
X0187108Y0154307D01*
X0186050Y0151753D01*
X0186050Y0148988D01*
X0187108Y0146433D01*
X0189063Y0144478D01*
X0189202Y0144421D01*
X0188767Y0143986D01*
X0188253Y0143279D01*
X0187857Y0142501D01*
X0187587Y0141670D01*
X0187450Y0140807D01*
X0187450Y0140570D01*
X0192800Y0140570D01*
X0192800Y0140170D01*
X0187450Y0140170D01*
X0187450Y0139933D01*
X0187587Y0139070D01*
X0187857Y0138240D01*
X0188253Y0137461D01*
X0188767Y0136754D01*
X0189202Y0136319D01*
X0189063Y0136262D01*
X0187108Y0134307D01*
X0186050Y0131753D01*
X0186050Y0128988D01*
X0187108Y0126433D01*
X0189063Y0124478D01*
X0191618Y0123420D01*
X0194382Y0123420D01*
X0196937Y0124478D01*
X0197965Y0125506D01*
X0199035Y0124436D01*
X0201608Y0123370D01*
X0204392Y0123370D01*
X0206700Y0124326D01*
X0206700Y0123882D01*
X0207470Y0121008D01*
X0208958Y0118432D01*
X0211062Y0116328D01*
X0213638Y0114840D01*
X0216512Y0114070D01*
X0219488Y0114070D01*
X0222362Y0114840D01*
X0224938Y0116328D01*
X0227042Y0118432D01*
X0228530Y0121008D01*
X0229300Y0123882D01*
X0229300Y0126858D01*
X0228530Y0129732D01*
X0227042Y0132308D01*
X0224938Y0134412D01*
X0222362Y0135900D01*
X0219488Y0136670D01*
X0216512Y0136670D01*
X0213638Y0135900D01*
X0211062Y0134412D01*
X0209535Y0132885D01*
X0208934Y0134335D01*
X0206965Y0136304D01*
X0206886Y0136337D01*
X0207271Y0136722D01*
X0207790Y0137435D01*
X0208190Y0138220D01*
X0208462Y0139059D01*
X0208600Y0139929D01*
X0208600Y0140180D01*
X0203200Y0140170D01*
X0203200Y0140570D01*
X0208600Y0140580D01*
X0208600Y0140811D01*
X0208462Y0141681D01*
X0208190Y0142520D01*
X0207790Y0143305D01*
X0207271Y0144018D01*
X0206886Y0144403D01*
X0206965Y0144436D01*
X0208934Y0146405D01*
X0210000Y0148978D01*
X0210000Y0151762D01*
X0208934Y0154335D01*
X0207899Y0155370D01*
X0208934Y0156405D01*
X0210000Y0158978D01*
X0210000Y0161762D01*
X0208934Y0164335D01*
X0207899Y0165370D01*
X0208934Y0166405D01*
X0210000Y0168978D01*
X0210000Y0171762D01*
X0208934Y0174335D01*
X0207899Y0175370D01*
X0208934Y0176405D01*
X0210000Y0178978D01*
X0210000Y0181762D01*
X0208934Y0184335D01*
X0207899Y0185370D01*
X0208934Y0186405D01*
X0210000Y0188978D01*
X0210000Y0191762D01*
X0208934Y0194335D01*
X0207899Y0195370D01*
X0208934Y0196405D01*
X0210000Y0198978D01*
X0210000Y0201762D01*
X0208934Y0204335D01*
X0207899Y0205370D01*
X0208934Y0206405D01*
X0210000Y0208978D01*
X0210000Y0211762D01*
X0208934Y0214335D01*
X0207899Y0215370D01*
X0208934Y0216405D01*
X0210000Y0218978D01*
X0210000Y0221762D01*
X0208934Y0224335D01*
X0207899Y0225370D01*
X0208934Y0226405D01*
X0210000Y0228978D01*
X0210000Y0231762D01*
X0208934Y0234335D01*
X0207899Y0235370D01*
X0208934Y0236405D01*
X0209535Y0237855D01*
X0211062Y0236328D01*
X0213638Y0234840D01*
X0216512Y0234070D01*
X0219488Y0234070D01*
X0222362Y0234840D01*
X0224938Y0236328D01*
X0227042Y0238432D01*
X0228530Y0241008D01*
X0229300Y0243882D01*
X0229300Y0246858D01*
X0228530Y0249732D01*
X0227042Y0252308D01*
X0224938Y0254412D01*
X0222362Y0255900D01*
X0219488Y0256670D01*
X0216512Y0256670D01*
X0213638Y0255900D01*
X0211062Y0254412D01*
X0208958Y0252308D01*
X0207470Y0249732D01*
X0206700Y0246858D01*
X0206700Y0246414D01*
X0204392Y0247370D01*
X0201608Y0247370D01*
X0199035Y0246304D01*
X0197965Y0245234D01*
X0196937Y0246262D01*
X0194382Y0247320D01*
X0191618Y0247320D01*
X0189063Y0246262D01*
X0187108Y0244307D01*
X0186050Y0241753D01*
X0186050Y0238988D01*
X0187108Y0236433D01*
X0188171Y0235370D01*
X0187108Y0234307D01*
X0186050Y0231753D01*
X0186050Y0229647D01*
X0185935Y0229762D01*
X0184031Y0230551D01*
X0181969Y0230551D01*
X0180065Y0229762D01*
X0179473Y0229170D01*
X0169027Y0229170D01*
X0168435Y0229762D01*
X0166531Y0230551D01*
X0164469Y0230551D01*
X0162565Y0229762D01*
X0161108Y0228305D01*
X0160319Y0226401D01*
X0160319Y0224339D01*
X0161108Y0222435D01*
X0162565Y0220978D01*
X0164469Y0220189D01*
X0166531Y0220189D01*
X0168435Y0220978D01*
X0169027Y0221570D01*
X0179473Y0221570D01*
X0180065Y0220978D01*
X0181969Y0220189D01*
X0184031Y0220189D01*
X0185935Y0220978D01*
X0186050Y0221093D01*
X0186050Y0218988D01*
X0187108Y0216433D01*
X0188171Y0215370D01*
X0187108Y0214307D01*
X0186050Y0211753D01*
X0186050Y0208988D01*
X0187108Y0206433D01*
X0188171Y0205370D01*
X0187108Y0204307D01*
X0186050Y0201753D01*
X0186050Y0198988D01*
X0187108Y0196433D01*
X0188171Y0195370D01*
X0187108Y0194307D01*
X0186050Y0191753D01*
X0186050Y0188988D01*
X0187108Y0186433D01*
X0188171Y0185370D01*
X0187108Y0184307D01*
X0186050Y0181753D01*
X0186050Y0178988D01*
X0187108Y0176433D01*
X0188171Y0175370D01*
X0187108Y0174307D01*
X0186050Y0171753D01*
X0186050Y0168988D01*
X0187108Y0166433D01*
X0188171Y0165370D01*
X0187108Y0164307D01*
X0186050Y0161753D01*
X0186050Y0158988D01*
X0186186Y0158660D02*
X0128280Y0158660D01*
X0127456Y0157061D02*
X0186848Y0157061D01*
X0188078Y0155463D02*
X0127736Y0155463D01*
X0129075Y0153864D02*
X0186925Y0153864D01*
X0186263Y0152266D02*
X0129737Y0152266D01*
X0129950Y0150667D02*
X0186050Y0150667D01*
X0186050Y0149069D02*
X0129950Y0149069D01*
X0129322Y0147470D02*
X0186678Y0147470D01*
X0187669Y0145872D02*
X0128331Y0145872D01*
X0128906Y0144273D02*
X0189054Y0144273D01*
X0187945Y0142675D02*
X0129568Y0142675D01*
X0129950Y0141076D02*
X0187493Y0141076D01*
X0187522Y0139478D02*
X0129950Y0139478D01*
X0129491Y0137879D02*
X0188040Y0137879D01*
X0189108Y0136281D02*
X0128739Y0136281D01*
X0128517Y0134682D02*
X0177485Y0134682D01*
X0176016Y0133084D02*
X0129399Y0133084D01*
X0129950Y0131485D02*
X0175354Y0131485D01*
X0174830Y0129887D02*
X0129950Y0129887D01*
X0129660Y0128288D02*
X0174300Y0128288D01*
X0174300Y0126690D02*
X0128998Y0126690D01*
X0149204Y0102712D02*
X0081564Y0102712D01*
X0079966Y0101114D02*
X0147846Y0101114D01*
X0147184Y0099515D02*
X0078367Y0099515D01*
X0076769Y0097916D02*
X0147107Y0097916D01*
X0147107Y0096318D02*
X0075170Y0096318D01*
X0073572Y0094719D02*
X0147107Y0094719D01*
X0147107Y0093121D02*
X0072676Y0093121D01*
X0071480Y0091522D02*
X0147107Y0091522D01*
X0147723Y0089924D02*
X0063267Y0089924D01*
X0064036Y0088325D02*
X0148907Y0088325D01*
X0157251Y0088325D02*
X0161278Y0088325D01*
X0162835Y0088325D02*
X0163007Y0088325D01*
X0164564Y0088325D02*
X0192859Y0088325D01*
X0191451Y0089924D02*
X0166629Y0089924D01*
X0167379Y0091522D02*
X0191207Y0091522D01*
X0191207Y0093121D02*
X0167493Y0093121D01*
X0167493Y0094719D02*
X0191207Y0094719D01*
X0180003Y0096318D02*
X0167493Y0096318D01*
X0167493Y0095456D02*
X0167493Y0098502D01*
X0167380Y0099212D01*
X0167158Y0099897D01*
X0166831Y0100538D01*
X0166408Y0101120D01*
X0165899Y0101629D01*
X0165317Y0102052D01*
X0164676Y0102378D01*
X0163992Y0102601D01*
X0163281Y0102713D01*
X0163007Y0102713D01*
X0163007Y0095456D01*
X0167493Y0095456D01*
X0167493Y0097916D02*
X0178621Y0097916D01*
X0178016Y0099515D02*
X0167282Y0099515D01*
X0166413Y0101114D02*
X0177034Y0101114D01*
X0175636Y0102712D02*
X0163290Y0102712D01*
X0163007Y0102712D02*
X0162835Y0102712D01*
X0162553Y0102712D02*
X0156954Y0102712D01*
X0158311Y0101114D02*
X0159430Y0101114D01*
X0162835Y0101114D02*
X0163007Y0101114D01*
X0163007Y0099515D02*
X0162835Y0099515D01*
X0162835Y0097916D02*
X0163007Y0097916D01*
X0163007Y0096318D02*
X0162835Y0096318D01*
X0162835Y0094719D02*
X0163007Y0094719D01*
X0163007Y0093121D02*
X0162835Y0093121D01*
X0162835Y0091522D02*
X0163007Y0091522D01*
X0163007Y0089924D02*
X0162835Y0089924D01*
X0159214Y0089924D02*
X0158435Y0089924D01*
X0174237Y0104311D02*
X0083163Y0104311D01*
X0084761Y0105909D02*
X0085231Y0105909D01*
X0090769Y0105909D02*
X0172838Y0105909D01*
X0171440Y0107508D02*
X0092422Y0107508D01*
X0093084Y0109106D02*
X0170041Y0109106D01*
X0168642Y0110705D02*
X0093181Y0110705D01*
X0092807Y0112303D02*
X0167244Y0112303D01*
X0165845Y0113902D02*
X0091796Y0113902D01*
X0086846Y0115500D02*
X0044782Y0115500D01*
X0041218Y0115500D02*
X0030126Y0115500D01*
X0032660Y0113902D02*
X0080309Y0113902D01*
X0078710Y0112303D02*
X0033856Y0112303D01*
X0034518Y0110705D02*
X0077112Y0110705D01*
X0075513Y0109106D02*
X0061591Y0109106D01*
X0062723Y0107508D02*
X0073915Y0107508D01*
X0072316Y0105909D02*
X0064249Y0105909D01*
X0065848Y0104311D02*
X0070718Y0104311D01*
X0069119Y0102712D02*
X0067446Y0102712D01*
X0061862Y0094719D02*
X0058365Y0094719D01*
X0060264Y0096318D02*
X0024212Y0096318D01*
X0024941Y0097048D02*
X0024941Y0097048D01*
X0025301Y0097916D02*
X0058665Y0097916D01*
X0057067Y0099515D02*
X0025792Y0099515D01*
X0025792Y0101114D02*
X0054929Y0101114D01*
X0053493Y0102712D02*
X0029346Y0102712D01*
X0026654Y0102712D02*
X0025792Y0102712D01*
X0032337Y0104311D02*
X0052831Y0104311D01*
X0052819Y0105909D02*
X0033722Y0105909D01*
X0034384Y0107508D02*
X0053277Y0107508D01*
X0054409Y0109106D02*
X0034572Y0109106D01*
X0038944Y0117099D02*
X0025792Y0117099D01*
X0025792Y0118697D02*
X0038085Y0118697D01*
X0037819Y0120296D02*
X0025792Y0120296D01*
X0025792Y0121894D02*
X0038023Y0121894D01*
X0038600Y0123493D02*
X0031834Y0123493D01*
X0033432Y0125091D02*
X0038600Y0125091D01*
X0038600Y0126690D02*
X0034176Y0126690D01*
X0034572Y0128288D02*
X0038600Y0128288D01*
X0038600Y0129887D02*
X0034572Y0129887D01*
X0034064Y0131485D02*
X0038600Y0131485D01*
X0038600Y0133084D02*
X0033163Y0133084D01*
X0031340Y0134682D02*
X0038600Y0134682D01*
X0038600Y0136281D02*
X0025792Y0136281D01*
X0025792Y0137879D02*
X0038600Y0137879D01*
X0038600Y0139478D02*
X0025644Y0139478D01*
X0024981Y0141076D02*
X0038600Y0141076D01*
X0038508Y0142675D02*
X0023440Y0142675D01*
X0023370Y0142745D02*
X0023370Y0142745D01*
X0024941Y0141173D02*
X0024941Y0141173D01*
X0021068Y0144273D02*
X0037846Y0144273D01*
X0037819Y0145872D02*
X0021068Y0145872D01*
X0021068Y0147470D02*
X0038262Y0147470D01*
X0025874Y0115500D02*
X0025792Y0115500D01*
X0023370Y0095476D02*
X0023370Y0095476D01*
X0021544Y0094719D02*
X0047635Y0094719D01*
X0045268Y0093121D02*
X0021068Y0093121D01*
X0021068Y0091522D02*
X0043669Y0091522D01*
X0042733Y0089924D02*
X0021068Y0089924D01*
X0021068Y0088325D02*
X0041964Y0088325D01*
X0041536Y0086727D02*
X0021068Y0086727D01*
X0021068Y0085128D02*
X0041300Y0085128D01*
X0041300Y0083530D02*
X0021068Y0083530D01*
X0021068Y0081931D02*
X0041524Y0081931D01*
X0041952Y0080333D02*
X0021068Y0080333D01*
X0021068Y0078734D02*
X0042707Y0078734D01*
X0043630Y0077136D02*
X0021068Y0077136D01*
X0021068Y0075537D02*
X0045223Y0075537D01*
X0047558Y0073939D02*
X0021068Y0073939D01*
X0021068Y0069143D02*
X0047101Y0069143D01*
X0045296Y0067545D02*
X0021068Y0067545D01*
X0021068Y0065946D02*
X0044141Y0065946D01*
X0043369Y0064348D02*
X0021068Y0064348D01*
X0021068Y0062749D02*
X0042906Y0062749D01*
X0029461Y0046764D02*
X0294932Y0046764D01*
X0294932Y0045166D02*
X0084945Y0045166D01*
X0088419Y0043567D02*
X0294932Y0043567D01*
X0294932Y0041969D02*
X0090017Y0041969D01*
X0091023Y0040370D02*
X0294932Y0040370D01*
X0294932Y0057954D02*
X0291047Y0057954D01*
X0292925Y0059552D02*
X0294932Y0059552D01*
X0294932Y0061151D02*
X0294170Y0061151D01*
X0294832Y0062749D02*
X0294932Y0062749D01*
X0294932Y0069143D02*
X0294354Y0069143D01*
X0294932Y0070742D02*
X0293371Y0070742D01*
X0294932Y0072340D02*
X0291773Y0072340D01*
X0294932Y0073939D02*
X0081707Y0073939D01*
X0081352Y0075537D02*
X0294932Y0075537D01*
X0294932Y0077136D02*
X0080702Y0077136D01*
X0079703Y0078734D02*
X0294932Y0078734D01*
X0294932Y0080333D02*
X0078197Y0080333D01*
X0075650Y0081931D02*
X0294932Y0081931D01*
X0281629Y0072340D02*
X0254371Y0072340D01*
X0254123Y0072589D02*
X0250993Y0073885D01*
X0247605Y0073885D01*
X0244476Y0072589D01*
X0242081Y0070193D01*
X0240784Y0067064D01*
X0240784Y0063676D01*
X0242081Y0060547D01*
X0244476Y0058151D01*
X0247605Y0056855D01*
X0250993Y0056855D01*
X0254123Y0058151D01*
X0256518Y0060547D01*
X0257814Y0063676D01*
X0257814Y0067064D01*
X0256518Y0070193D01*
X0254123Y0072589D01*
X0255969Y0070742D02*
X0280031Y0070742D01*
X0279047Y0069143D02*
X0256953Y0069143D01*
X0257615Y0067545D02*
X0278385Y0067545D01*
X0278186Y0065946D02*
X0257814Y0065946D01*
X0257814Y0064348D02*
X0278186Y0064348D01*
X0278570Y0062749D02*
X0257430Y0062749D01*
X0256768Y0061151D02*
X0279232Y0061151D01*
X0280477Y0059552D02*
X0255523Y0059552D01*
X0253645Y0057954D02*
X0282355Y0057954D01*
X0252859Y0088325D02*
X0213299Y0088325D01*
X0217658Y0089924D02*
X0218027Y0089924D01*
X0218027Y0091522D02*
X0217658Y0091522D01*
X0217658Y0093121D02*
X0218027Y0093121D01*
X0218027Y0094719D02*
X0251207Y0094719D01*
X0251207Y0093121D02*
X0223393Y0093121D01*
X0223393Y0091522D02*
X0251207Y0091522D01*
X0251451Y0089924D02*
X0222914Y0089924D01*
X0223393Y0096318D02*
X0251207Y0096318D01*
X0251207Y0097916D02*
X0223393Y0097916D01*
X0223170Y0099515D02*
X0251303Y0099515D01*
X0252348Y0101114D02*
X0213810Y0101114D01*
X0217658Y0099515D02*
X0218027Y0099515D01*
X0218027Y0097916D02*
X0217658Y0097916D01*
X0217658Y0096318D02*
X0218027Y0096318D01*
X0223505Y0115500D02*
X0294932Y0115500D01*
X0294932Y0113902D02*
X0194701Y0113902D01*
X0193103Y0115500D02*
X0212495Y0115500D01*
X0210291Y0117099D02*
X0191504Y0117099D01*
X0190681Y0118697D02*
X0208805Y0118697D01*
X0207882Y0120296D02*
X0190103Y0120296D01*
X0188803Y0121894D02*
X0207233Y0121894D01*
X0206804Y0123493D02*
X0204688Y0123493D01*
X0201312Y0123493D02*
X0194558Y0123493D01*
X0191442Y0123493D02*
X0181700Y0123493D01*
X0181700Y0125091D02*
X0188450Y0125091D01*
X0187002Y0126690D02*
X0184147Y0126690D01*
X0185246Y0128288D02*
X0186340Y0128288D01*
X0186050Y0129887D02*
X0185681Y0129887D01*
X0185646Y0131485D02*
X0186050Y0131485D01*
X0186601Y0133084D02*
X0184984Y0133084D01*
X0183515Y0134682D02*
X0187483Y0134682D01*
X0193200Y0140170D02*
X0193200Y0140570D01*
X0197400Y0140570D01*
X0197400Y0140560D01*
X0202800Y0140570D01*
X0202800Y0140170D01*
X0198550Y0140162D01*
X0198550Y0140170D01*
X0193200Y0140170D01*
X0206989Y0136281D02*
X0215059Y0136281D01*
X0211529Y0134682D02*
X0208587Y0134682D01*
X0209453Y0133084D02*
X0209733Y0133084D01*
X0208016Y0137879D02*
X0264796Y0137879D01*
X0265166Y0136987D02*
X0264257Y0139182D01*
X0264257Y0141558D01*
X0265166Y0143753D01*
X0266846Y0145433D01*
X0269041Y0146342D01*
X0276959Y0146342D01*
X0279154Y0145433D01*
X0280834Y0143753D01*
X0281743Y0141558D01*
X0281743Y0139182D01*
X0280834Y0136987D01*
X0279217Y0135370D01*
X0280834Y0133753D01*
X0281743Y0131558D01*
X0281743Y0129182D01*
X0280834Y0126987D01*
X0279154Y0125308D01*
X0277491Y0124618D01*
X0277527Y0124607D01*
X0278168Y0124280D01*
X0278750Y0123857D01*
X0279259Y0123348D01*
X0279682Y0122766D01*
X0280008Y0122125D01*
X0280231Y0121441D01*
X0280343Y0120730D01*
X0280343Y0120456D01*
X0273086Y0120456D01*
X0273086Y0120284D01*
X0273086Y0115798D01*
X0276131Y0115798D01*
X0276842Y0115911D01*
X0277527Y0116133D01*
X0278168Y0116460D01*
X0278750Y0116883D01*
X0279259Y0117392D01*
X0279682Y0117974D01*
X0280008Y0118615D01*
X0280231Y0119300D01*
X0280343Y0120010D01*
X0280343Y0120284D01*
X0273086Y0120284D01*
X0272914Y0120284D01*
X0272914Y0115798D01*
X0269869Y0115798D01*
X0269158Y0115911D01*
X0268473Y0116133D01*
X0267832Y0116460D01*
X0267250Y0116883D01*
X0266741Y0117392D01*
X0266318Y0117974D01*
X0265992Y0118615D01*
X0265769Y0119300D01*
X0265657Y0120010D01*
X0265657Y0120284D01*
X0272914Y0120284D01*
X0272914Y0120456D01*
X0265657Y0120456D01*
X0265657Y0120730D01*
X0265769Y0121441D01*
X0265992Y0122125D01*
X0266318Y0122766D01*
X0266741Y0123348D01*
X0267250Y0123857D01*
X0267832Y0124280D01*
X0268473Y0124607D01*
X0268509Y0124618D01*
X0266846Y0125308D01*
X0265166Y0126987D01*
X0264257Y0129182D01*
X0264257Y0131558D01*
X0265166Y0133753D01*
X0266783Y0135370D01*
X0265166Y0136987D01*
X0265872Y0136281D02*
X0220941Y0136281D01*
X0224471Y0134682D02*
X0266095Y0134682D01*
X0264889Y0133084D02*
X0226267Y0133084D01*
X0227518Y0131485D02*
X0264257Y0131485D01*
X0264257Y0129887D02*
X0228440Y0129887D01*
X0228917Y0128288D02*
X0264627Y0128288D01*
X0265464Y0126690D02*
X0229300Y0126690D01*
X0229300Y0125091D02*
X0267368Y0125091D01*
X0266886Y0123493D02*
X0229196Y0123493D01*
X0228767Y0121894D02*
X0265917Y0121894D01*
X0265965Y0118697D02*
X0227195Y0118697D01*
X0228118Y0120296D02*
X0272914Y0120296D01*
X0273086Y0120296D02*
X0294932Y0120296D01*
X0294932Y0121894D02*
X0280083Y0121894D01*
X0279114Y0123493D02*
X0294932Y0123493D01*
X0294932Y0125091D02*
X0278632Y0125091D01*
X0280536Y0126690D02*
X0294932Y0126690D01*
X0294932Y0128288D02*
X0281373Y0128288D01*
X0281743Y0129887D02*
X0294932Y0129887D01*
X0294932Y0131485D02*
X0281743Y0131485D01*
X0281111Y0133084D02*
X0294932Y0133084D01*
X0294932Y0134682D02*
X0279905Y0134682D01*
X0280128Y0136281D02*
X0294932Y0136281D01*
X0294932Y0137879D02*
X0281204Y0137879D01*
X0281743Y0139478D02*
X0294932Y0139478D01*
X0294932Y0141076D02*
X0281743Y0141076D01*
X0281281Y0142675D02*
X0294932Y0142675D01*
X0294932Y0144273D02*
X0280314Y0144273D01*
X0278094Y0145872D02*
X0294932Y0145872D01*
X0294932Y0147470D02*
X0209376Y0147470D01*
X0210000Y0149069D02*
X0294932Y0149069D01*
X0294932Y0150667D02*
X0210000Y0150667D01*
X0209791Y0152266D02*
X0294932Y0152266D01*
X0294932Y0153864D02*
X0209129Y0153864D01*
X0207992Y0155463D02*
X0294932Y0155463D01*
X0294932Y0157061D02*
X0209206Y0157061D01*
X0209868Y0158660D02*
X0294932Y0158660D01*
X0294932Y0160258D02*
X0278846Y0160258D01*
X0279154Y0160386D02*
X0280834Y0162066D01*
X0281743Y0164261D01*
X0281743Y0166637D01*
X0280834Y0168831D01*
X0279296Y0170370D01*
X0280834Y0171909D01*
X0281743Y0174103D01*
X0281743Y0176479D01*
X0280834Y0178674D01*
X0279154Y0180354D01*
X0276959Y0181263D01*
X0269041Y0181263D01*
X0266846Y0180354D01*
X0265166Y0178674D01*
X0264257Y0176479D01*
X0264257Y0174103D01*
X0265166Y0171909D01*
X0266704Y0170370D01*
X0265166Y0168831D01*
X0264257Y0166637D01*
X0264257Y0164261D01*
X0265166Y0162066D01*
X0266846Y0160386D01*
X0269041Y0159477D01*
X0276959Y0159477D01*
X0279154Y0160386D01*
X0280625Y0161857D02*
X0294932Y0161857D01*
X0294932Y0163455D02*
X0281410Y0163455D01*
X0281743Y0165054D02*
X0294932Y0165054D01*
X0294932Y0166652D02*
X0281737Y0166652D01*
X0281075Y0168251D02*
X0294932Y0168251D01*
X0294932Y0169849D02*
X0279816Y0169849D01*
X0280373Y0171448D02*
X0294932Y0171448D01*
X0294932Y0173047D02*
X0281305Y0173047D01*
X0281743Y0174645D02*
X0294932Y0174645D01*
X0294932Y0176244D02*
X0281743Y0176244D01*
X0281179Y0177842D02*
X0294932Y0177842D01*
X0294932Y0179441D02*
X0280068Y0179441D01*
X0277500Y0181039D02*
X0294932Y0181039D01*
X0294932Y0182638D02*
X0209637Y0182638D01*
X0210000Y0181039D02*
X0268500Y0181039D01*
X0265932Y0179441D02*
X0210000Y0179441D01*
X0209530Y0177842D02*
X0264821Y0177842D01*
X0264257Y0176244D02*
X0208773Y0176244D01*
X0208625Y0174645D02*
X0264257Y0174645D01*
X0264695Y0173047D02*
X0209468Y0173047D01*
X0210000Y0171448D02*
X0265626Y0171448D01*
X0266184Y0169849D02*
X0210000Y0169849D01*
X0209699Y0168251D02*
X0264925Y0168251D01*
X0264263Y0166652D02*
X0209037Y0166652D01*
X0208216Y0165054D02*
X0264257Y0165054D01*
X0264590Y0163455D02*
X0209299Y0163455D01*
X0209961Y0161857D02*
X0265375Y0161857D01*
X0267154Y0160258D02*
X0210000Y0160258D01*
X0208401Y0145872D02*
X0267906Y0145872D01*
X0265686Y0144273D02*
X0207016Y0144273D01*
X0208111Y0142675D02*
X0264719Y0142675D01*
X0264257Y0141076D02*
X0208558Y0141076D01*
X0208528Y0139478D02*
X0264257Y0139478D01*
X0272914Y0118697D02*
X0273086Y0118697D01*
X0273086Y0117099D02*
X0272914Y0117099D01*
X0267034Y0117099D02*
X0225709Y0117099D01*
X0200596Y0109106D02*
X0294932Y0109106D01*
X0294932Y0107508D02*
X0200681Y0107508D01*
X0200296Y0105909D02*
X0294932Y0105909D01*
X0294932Y0104311D02*
X0199268Y0104311D01*
X0199934Y0110705D02*
X0294932Y0110705D01*
X0294932Y0112303D02*
X0198337Y0112303D01*
X0198379Y0125091D02*
X0197550Y0125091D01*
X0182197Y0121894D02*
X0181700Y0121894D01*
X0175137Y0115500D02*
X0175076Y0115500D01*
X0174315Y0117099D02*
X0173678Y0117099D01*
X0174300Y0118697D02*
X0172279Y0118697D01*
X0170880Y0120296D02*
X0174300Y0120296D01*
X0174300Y0121894D02*
X0170264Y0121894D01*
X0169426Y0123493D02*
X0174300Y0123493D01*
X0174300Y0125091D02*
X0167127Y0125091D01*
X0176475Y0113902D02*
X0176736Y0113902D01*
X0177874Y0112303D02*
X0178334Y0112303D01*
X0179272Y0110705D02*
X0179933Y0110705D01*
X0180671Y0109106D02*
X0181531Y0109106D01*
X0182070Y0107508D02*
X0183130Y0107508D01*
X0194371Y0072340D02*
X0221629Y0072340D01*
X0221877Y0072589D02*
X0219482Y0070193D01*
X0218186Y0067064D01*
X0218186Y0063676D01*
X0219482Y0060547D01*
X0221877Y0058151D01*
X0225007Y0056855D01*
X0228395Y0056855D01*
X0231524Y0058151D01*
X0233919Y0060547D01*
X0235216Y0063676D01*
X0235216Y0067064D01*
X0233919Y0070193D01*
X0231524Y0072589D01*
X0228395Y0073885D01*
X0225007Y0073885D01*
X0221877Y0072589D01*
X0220031Y0070742D02*
X0195969Y0070742D01*
X0196953Y0069143D02*
X0219047Y0069143D01*
X0218385Y0067545D02*
X0197615Y0067545D01*
X0197814Y0065946D02*
X0218186Y0065946D01*
X0218186Y0064348D02*
X0197814Y0064348D01*
X0197430Y0062749D02*
X0218570Y0062749D01*
X0219232Y0061151D02*
X0196768Y0061151D01*
X0195523Y0059552D02*
X0220477Y0059552D01*
X0222355Y0057954D02*
X0193645Y0057954D01*
X0231047Y0057954D02*
X0244953Y0057954D01*
X0243075Y0059552D02*
X0232925Y0059552D01*
X0234170Y0061151D02*
X0241830Y0061151D01*
X0241168Y0062749D02*
X0234832Y0062749D01*
X0235216Y0064348D02*
X0240784Y0064348D01*
X0240784Y0065946D02*
X0235216Y0065946D01*
X0235017Y0067545D02*
X0240983Y0067545D01*
X0241646Y0069143D02*
X0234354Y0069143D01*
X0233371Y0070742D02*
X0242629Y0070742D01*
X0244227Y0072340D02*
X0231773Y0072340D01*
X0278965Y0117099D02*
X0294932Y0117099D01*
X0294932Y0118697D02*
X0280035Y0118697D01*
X0294932Y0184236D02*
X0208975Y0184236D01*
X0208364Y0185835D02*
X0294932Y0185835D01*
X0294932Y0187433D02*
X0209360Y0187433D01*
X0210000Y0189032D02*
X0294932Y0189032D01*
X0294932Y0190630D02*
X0210000Y0190630D01*
X0209807Y0192229D02*
X0294932Y0192229D01*
X0294932Y0193827D02*
X0209145Y0193827D01*
X0207955Y0195426D02*
X0266806Y0195426D01*
X0266846Y0195386D02*
X0269041Y0194477D01*
X0276959Y0194477D01*
X0279154Y0195386D01*
X0280834Y0197066D01*
X0281743Y0199261D01*
X0281743Y0201637D01*
X0280834Y0203831D01*
X0279154Y0205511D01*
X0277668Y0206127D01*
X0278168Y0206381D01*
X0278750Y0206804D01*
X0279259Y0207313D01*
X0279682Y0207895D01*
X0280008Y0208536D01*
X0280231Y0209221D01*
X0280343Y0209932D01*
X0280343Y0210205D01*
X0273086Y0210205D01*
X0273086Y0210377D01*
X0280343Y0210377D01*
X0280343Y0210651D01*
X0280231Y0211362D01*
X0280008Y0212046D01*
X0279682Y0212687D01*
X0279259Y0213270D01*
X0278750Y0213778D01*
X0278168Y0214201D01*
X0277527Y0214528D01*
X0276842Y0214750D01*
X0276131Y0214863D01*
X0273086Y0214863D01*
X0273086Y0210377D01*
X0272914Y0210377D01*
X0272914Y0210205D01*
X0265657Y0210205D01*
X0265657Y0209932D01*
X0265769Y0209221D01*
X0265992Y0208536D01*
X0266318Y0207895D01*
X0266741Y0207313D01*
X0267250Y0206804D01*
X0267832Y0206381D01*
X0268332Y0206127D01*
X0266846Y0205511D01*
X0265166Y0203831D01*
X0264257Y0201637D01*
X0264257Y0199261D01*
X0265166Y0197066D01*
X0266846Y0195386D01*
X0265208Y0197024D02*
X0209191Y0197024D01*
X0209853Y0198623D02*
X0264521Y0198623D01*
X0264257Y0200221D02*
X0210000Y0200221D01*
X0209976Y0201820D02*
X0264333Y0201820D01*
X0264995Y0203418D02*
X0209314Y0203418D01*
X0208253Y0205017D02*
X0266351Y0205017D01*
X0267510Y0206615D02*
X0209021Y0206615D01*
X0209684Y0208214D02*
X0266156Y0208214D01*
X0265676Y0209812D02*
X0210000Y0209812D01*
X0210000Y0211411D02*
X0265785Y0211411D01*
X0265769Y0211362D02*
X0265657Y0210651D01*
X0265657Y0210377D01*
X0272914Y0210377D01*
X0272914Y0214863D01*
X0269869Y0214863D01*
X0269158Y0214750D01*
X0268473Y0214528D01*
X0267832Y0214201D01*
X0267250Y0213778D01*
X0266741Y0213270D01*
X0266318Y0212687D01*
X0265992Y0212046D01*
X0265769Y0211362D01*
X0266552Y0213009D02*
X0209484Y0213009D01*
X0208662Y0214608D02*
X0268719Y0214608D01*
X0272914Y0214608D02*
X0273086Y0214608D01*
X0273086Y0213009D02*
X0272914Y0213009D01*
X0272914Y0211411D02*
X0273086Y0211411D01*
X0277281Y0214608D02*
X0294932Y0214608D01*
X0294932Y0216206D02*
X0208736Y0216206D01*
X0209514Y0217805D02*
X0294932Y0217805D01*
X0294932Y0219403D02*
X0210000Y0219403D01*
X0210000Y0221002D02*
X0294932Y0221002D01*
X0294932Y0222600D02*
X0209653Y0222600D01*
X0208991Y0224199D02*
X0294932Y0224199D01*
X0294932Y0225797D02*
X0208327Y0225797D01*
X0209345Y0227396D02*
X0294932Y0227396D01*
X0294932Y0228994D02*
X0210000Y0228994D01*
X0210000Y0230593D02*
X0266639Y0230593D01*
X0266846Y0230386D02*
X0269041Y0229477D01*
X0276959Y0229477D01*
X0279154Y0230386D01*
X0280834Y0232066D01*
X0281743Y0234261D01*
X0281743Y0236637D01*
X0280834Y0238831D01*
X0279296Y0240370D01*
X0280834Y0241909D01*
X0281743Y0244103D01*
X0281743Y0246479D01*
X0280834Y0248674D01*
X0279154Y0250354D01*
X0276959Y0251263D01*
X0269041Y0251263D01*
X0266846Y0250354D01*
X0265166Y0248674D01*
X0264257Y0246479D01*
X0264257Y0244103D01*
X0265166Y0241909D01*
X0266704Y0240370D01*
X0265166Y0238831D01*
X0264257Y0236637D01*
X0264257Y0234261D01*
X0265166Y0232066D01*
X0266846Y0230386D01*
X0265114Y0232191D02*
X0209822Y0232191D01*
X0209160Y0233790D02*
X0264452Y0233790D01*
X0264257Y0235388D02*
X0223311Y0235388D01*
X0225598Y0236987D02*
X0264402Y0236987D01*
X0265064Y0238585D02*
X0227131Y0238585D01*
X0228054Y0240184D02*
X0266518Y0240184D01*
X0265292Y0241783D02*
X0228737Y0241783D01*
X0229166Y0243381D02*
X0264556Y0243381D01*
X0264257Y0244980D02*
X0229300Y0244980D01*
X0229300Y0246578D02*
X0264298Y0246578D01*
X0264960Y0248177D02*
X0228947Y0248177D01*
X0228505Y0249775D02*
X0266267Y0249775D01*
X0258885Y0260453D02*
X0256754Y0259570D01*
X0249246Y0259570D01*
X0247115Y0260453D01*
X0245483Y0262085D01*
X0244600Y0264216D01*
X0244600Y0266524D01*
X0245483Y0268656D01*
X0247115Y0270287D01*
X0247315Y0270370D01*
X0247115Y0270453D01*
X0245483Y0272085D01*
X0244600Y0274216D01*
X0244600Y0276524D01*
X0245483Y0278656D01*
X0247115Y0280287D01*
X0247315Y0280370D01*
X0247115Y0280453D01*
X0245483Y0282085D01*
X0244600Y0284216D01*
X0244600Y0286524D01*
X0245483Y0288656D01*
X0247115Y0290287D01*
X0249246Y0291170D01*
X0256754Y0291170D01*
X0258885Y0290287D01*
X0260517Y0288656D01*
X0261400Y0286524D01*
X0261400Y0284216D01*
X0260517Y0282085D01*
X0258885Y0280453D01*
X0258685Y0280370D01*
X0258885Y0280287D01*
X0260517Y0278656D01*
X0261400Y0276524D01*
X0261400Y0274216D01*
X0260517Y0272085D01*
X0258885Y0270453D01*
X0258685Y0270370D01*
X0258885Y0270287D01*
X0260517Y0268656D01*
X0261400Y0266524D01*
X0261400Y0264216D01*
X0260517Y0262085D01*
X0258885Y0260453D01*
X0259397Y0260965D02*
X0294932Y0260965D01*
X0294932Y0262563D02*
X0260715Y0262563D01*
X0261377Y0264162D02*
X0294932Y0264162D01*
X0294932Y0265760D02*
X0279528Y0265760D01*
X0279154Y0265386D02*
X0280834Y0267066D01*
X0281743Y0269261D01*
X0281743Y0271637D01*
X0280834Y0273831D01*
X0279296Y0275370D01*
X0280834Y0276909D01*
X0281743Y0279103D01*
X0281743Y0281479D01*
X0280834Y0283674D01*
X0279154Y0285354D01*
X0276959Y0286263D01*
X0269041Y0286263D01*
X0266846Y0285354D01*
X0265166Y0283674D01*
X0264257Y0281479D01*
X0264257Y0279103D01*
X0265166Y0276909D01*
X0266704Y0275370D01*
X0265166Y0273831D01*
X0264257Y0271637D01*
X0264257Y0269261D01*
X0265166Y0267066D01*
X0266846Y0265386D01*
X0269041Y0264477D01*
X0276959Y0264477D01*
X0279154Y0265386D01*
X0280955Y0267359D02*
X0294932Y0267359D01*
X0294932Y0268957D02*
X0281617Y0268957D01*
X0281743Y0270556D02*
X0294932Y0270556D01*
X0294932Y0272154D02*
X0281529Y0272154D01*
X0280867Y0273753D02*
X0294932Y0273753D01*
X0294932Y0275351D02*
X0279314Y0275351D01*
X0280851Y0276950D02*
X0294932Y0276950D01*
X0294932Y0278548D02*
X0281513Y0278548D01*
X0281743Y0280147D02*
X0294932Y0280147D01*
X0294932Y0281745D02*
X0281633Y0281745D01*
X0280971Y0283344D02*
X0294932Y0283344D01*
X0294932Y0284942D02*
X0279566Y0284942D01*
X0266434Y0284942D02*
X0261400Y0284942D01*
X0261393Y0286541D02*
X0294932Y0286541D01*
X0294932Y0288139D02*
X0260731Y0288139D01*
X0259435Y0289738D02*
X0294932Y0289738D01*
X0294932Y0291336D02*
X0241700Y0291336D01*
X0241700Y0289738D02*
X0246565Y0289738D01*
X0245269Y0288139D02*
X0241700Y0288139D01*
X0241700Y0286541D02*
X0244607Y0286541D01*
X0244600Y0284942D02*
X0241700Y0284942D01*
X0241700Y0283997D02*
X0241700Y0316743D01*
X0242392Y0317435D01*
X0243181Y0319339D01*
X0243181Y0321401D01*
X0242392Y0323305D01*
X0240935Y0324762D01*
X0239031Y0325551D01*
X0236969Y0325551D01*
X0235065Y0324762D01*
X0233608Y0323305D01*
X0232819Y0321401D01*
X0232819Y0319339D01*
X0233608Y0317435D01*
X0234300Y0316743D01*
X0234300Y0283997D01*
X0233608Y0283305D01*
X0232819Y0281401D01*
X0232819Y0279339D01*
X0233608Y0277435D01*
X0235065Y0275978D01*
X0236969Y0275189D01*
X0239031Y0275189D01*
X0240935Y0275978D01*
X0242392Y0277435D01*
X0243181Y0279339D01*
X0243181Y0281401D01*
X0242392Y0283305D01*
X0241700Y0283997D01*
X0242353Y0283344D02*
X0244961Y0283344D01*
X0245822Y0281745D02*
X0243038Y0281745D01*
X0243181Y0280147D02*
X0246974Y0280147D01*
X0245439Y0278548D02*
X0242853Y0278548D01*
X0241907Y0276950D02*
X0244776Y0276950D01*
X0244600Y0275351D02*
X0239422Y0275351D01*
X0236578Y0275351D02*
X0231400Y0275351D01*
X0231400Y0274216D02*
X0231400Y0276524D01*
X0230517Y0278656D01*
X0228885Y0280287D01*
X0228685Y0280370D01*
X0228885Y0280453D01*
X0230517Y0282085D01*
X0231400Y0284216D01*
X0231400Y0286524D01*
X0230517Y0288656D01*
X0228885Y0290287D01*
X0226754Y0291170D01*
X0219246Y0291170D01*
X0217115Y0290287D01*
X0215483Y0288656D01*
X0214600Y0286524D01*
X0214600Y0284216D01*
X0215483Y0282085D01*
X0217115Y0280453D01*
X0217315Y0280370D01*
X0217115Y0280287D01*
X0215483Y0278656D01*
X0214600Y0276524D01*
X0214600Y0274216D01*
X0215483Y0272085D01*
X0217115Y0270453D01*
X0219177Y0269599D01*
X0218711Y0269448D01*
X0218094Y0269133D01*
X0217534Y0268726D01*
X0217044Y0268236D01*
X0216637Y0267676D01*
X0216322Y0267059D01*
X0216108Y0266400D01*
X0216000Y0265716D01*
X0216000Y0265370D01*
X0216000Y0265024D01*
X0216108Y0264340D01*
X0216322Y0263681D01*
X0216637Y0263064D01*
X0217044Y0262504D01*
X0217534Y0262014D01*
X0218094Y0261607D01*
X0218711Y0261292D01*
X0219370Y0261078D01*
X0220054Y0260970D01*
X0223000Y0260970D01*
X0225946Y0260970D01*
X0226630Y0261078D01*
X0227289Y0261292D01*
X0227906Y0261607D01*
X0228466Y0262014D01*
X0228956Y0262504D01*
X0229363Y0263064D01*
X0229678Y0263681D01*
X0229892Y0264340D01*
X0230000Y0265024D01*
X0230000Y0265370D01*
X0223000Y0265370D01*
X0223000Y0260970D01*
X0223000Y0265370D01*
X0223000Y0265370D01*
X0223000Y0265370D01*
X0216000Y0265370D01*
X0223000Y0265370D01*
X0223000Y0265370D01*
X0230000Y0265370D01*
X0230000Y0265716D01*
X0229892Y0266400D01*
X0229678Y0267059D01*
X0229363Y0267676D01*
X0228956Y0268236D01*
X0228466Y0268726D01*
X0227906Y0269133D01*
X0227289Y0269448D01*
X0226823Y0269599D01*
X0228885Y0270453D01*
X0230517Y0272085D01*
X0231400Y0274216D01*
X0231208Y0273753D02*
X0244792Y0273753D01*
X0245454Y0272154D02*
X0230546Y0272154D01*
X0228988Y0270556D02*
X0247012Y0270556D01*
X0245785Y0268957D02*
X0228148Y0268957D01*
X0229525Y0267359D02*
X0244946Y0267359D01*
X0244600Y0265760D02*
X0229993Y0265760D01*
X0229834Y0264162D02*
X0244623Y0264162D01*
X0245285Y0262563D02*
X0228999Y0262563D01*
X0223000Y0262563D02*
X0223000Y0262563D01*
X0223000Y0264162D02*
X0223000Y0264162D01*
X0217001Y0262563D02*
X0180158Y0262563D01*
X0180059Y0262324D02*
X0180878Y0264300D01*
X0180878Y0266440D01*
X0180059Y0268416D01*
X0179900Y0268576D01*
X0179900Y0278745D01*
X0179230Y0280362D01*
X0178378Y0281215D01*
X0178378Y0281440D01*
X0177559Y0283416D01*
X0176046Y0284929D01*
X0174070Y0285748D01*
X0171930Y0285748D01*
X0169954Y0284929D01*
X0168441Y0283416D01*
X0167622Y0281440D01*
X0167622Y0279300D01*
X0168441Y0277324D01*
X0169954Y0275811D01*
X0171100Y0275336D01*
X0171100Y0268576D01*
X0170941Y0268416D01*
X0170122Y0266440D01*
X0170122Y0264300D01*
X0170941Y0262324D01*
X0172454Y0260811D01*
X0174430Y0259992D01*
X0176570Y0259992D01*
X0178546Y0260811D01*
X0180059Y0262324D01*
X0178700Y0260965D02*
X0246603Y0260965D01*
X0261400Y0265760D02*
X0266472Y0265760D01*
X0265045Y0267359D02*
X0261054Y0267359D01*
X0260215Y0268957D02*
X0264383Y0268957D01*
X0264257Y0270556D02*
X0258988Y0270556D01*
X0260546Y0272154D02*
X0264471Y0272154D01*
X0265133Y0273753D02*
X0261208Y0273753D01*
X0261400Y0275351D02*
X0266686Y0275351D01*
X0265149Y0276950D02*
X0261224Y0276950D01*
X0260561Y0278548D02*
X0264487Y0278548D01*
X0264257Y0280147D02*
X0259026Y0280147D01*
X0260178Y0281745D02*
X0264367Y0281745D01*
X0265029Y0283344D02*
X0261039Y0283344D01*
X0269205Y0302190D02*
X0271667Y0301170D01*
X0274333Y0301170D01*
X0276795Y0302190D01*
X0278680Y0304075D01*
X0278862Y0304513D01*
X0280805Y0302570D01*
X0283000Y0302570D01*
X0285195Y0302570D01*
X0288300Y0305675D01*
X0288300Y0307870D01*
X0283000Y0307870D01*
X0283000Y0302570D01*
X0283000Y0307870D01*
X0283000Y0307870D01*
X0283000Y0307870D01*
X0288300Y0307870D01*
X0288300Y0310065D01*
X0285195Y0313170D01*
X0283000Y0313170D01*
X0283000Y0307870D01*
X0283000Y0307870D01*
X0283000Y0313170D01*
X0280805Y0313170D01*
X0278862Y0311227D01*
X0278680Y0311665D01*
X0276795Y0313550D01*
X0274333Y0314570D01*
X0271667Y0314570D01*
X0269205Y0313550D01*
X0267320Y0311665D01*
X0266300Y0309203D01*
X0266300Y0306537D01*
X0267320Y0304075D01*
X0269205Y0302190D01*
X0268869Y0302526D02*
X0241700Y0302526D01*
X0241700Y0304124D02*
X0267299Y0304124D01*
X0266637Y0305723D02*
X0241700Y0305723D01*
X0241700Y0307321D02*
X0266300Y0307321D01*
X0266300Y0308920D02*
X0241700Y0308920D01*
X0241700Y0310518D02*
X0247049Y0310518D01*
X0247115Y0310453D02*
X0249246Y0309570D01*
X0256754Y0309570D01*
X0258885Y0310453D01*
X0260517Y0312085D01*
X0261400Y0314216D01*
X0261400Y0316524D01*
X0260517Y0318656D01*
X0258885Y0320287D01*
X0258685Y0320370D01*
X0258885Y0320453D01*
X0260517Y0322085D01*
X0261400Y0324216D01*
X0261400Y0326524D01*
X0260517Y0328656D01*
X0258885Y0330287D01*
X0258685Y0330370D01*
X0258885Y0330453D01*
X0260517Y0332085D01*
X0261400Y0334216D01*
X0261400Y0336524D01*
X0260517Y0338656D01*
X0258885Y0340287D01*
X0256823Y0341141D01*
X0257289Y0341292D01*
X0257906Y0341607D01*
X0258466Y0342014D01*
X0258956Y0342504D01*
X0259363Y0343064D01*
X0259678Y0343681D01*
X0259892Y0344340D01*
X0260000Y0345024D01*
X0260000Y0345370D01*
X0253000Y0345370D01*
X0253000Y0345370D01*
X0246000Y0345370D01*
X0246000Y0345024D01*
X0246108Y0344340D01*
X0246322Y0343681D01*
X0246637Y0343064D01*
X0247044Y0342504D01*
X0247534Y0342014D01*
X0248094Y0341607D01*
X0248711Y0341292D01*
X0249177Y0341141D01*
X0247115Y0340287D01*
X0245483Y0338656D01*
X0244600Y0336524D01*
X0244600Y0334216D01*
X0245483Y0332085D01*
X0247115Y0330453D01*
X0247315Y0330370D01*
X0247115Y0330287D01*
X0245483Y0328656D01*
X0244600Y0326524D01*
X0244600Y0324216D01*
X0245483Y0322085D01*
X0247115Y0320453D01*
X0247315Y0320370D01*
X0247115Y0320287D01*
X0245483Y0318656D01*
X0244600Y0316524D01*
X0244600Y0314216D01*
X0245483Y0312085D01*
X0247115Y0310453D01*
X0245470Y0312117D02*
X0241700Y0312117D01*
X0241700Y0313716D02*
X0244807Y0313716D01*
X0244600Y0315314D02*
X0241700Y0315314D01*
X0241870Y0316913D02*
X0244761Y0316913D01*
X0245423Y0318511D02*
X0242838Y0318511D01*
X0243181Y0320110D02*
X0246937Y0320110D01*
X0245860Y0321708D02*
X0243054Y0321708D01*
X0242391Y0323307D02*
X0244977Y0323307D01*
X0244600Y0324905D02*
X0240590Y0324905D01*
X0244600Y0326504D02*
X0231400Y0326504D01*
X0231400Y0326524D02*
X0230517Y0328656D01*
X0228885Y0330287D01*
X0228685Y0330370D01*
X0228885Y0330453D01*
X0230517Y0332085D01*
X0231400Y0334216D01*
X0231400Y0336524D01*
X0230517Y0338656D01*
X0228885Y0340287D01*
X0228685Y0340370D01*
X0228885Y0340453D01*
X0230517Y0342085D01*
X0231400Y0344216D01*
X0231400Y0346524D01*
X0230517Y0348656D01*
X0228885Y0350287D01*
X0226754Y0351170D01*
X0219246Y0351170D01*
X0217115Y0350287D01*
X0215483Y0348656D01*
X0214600Y0346524D01*
X0214600Y0344216D01*
X0215483Y0342085D01*
X0217115Y0340453D01*
X0217315Y0340370D01*
X0217115Y0340287D01*
X0215483Y0338656D01*
X0214600Y0336524D01*
X0214600Y0334216D01*
X0215483Y0332085D01*
X0217115Y0330453D01*
X0217315Y0330370D01*
X0217115Y0330287D01*
X0215483Y0328656D01*
X0214600Y0326524D01*
X0214600Y0324216D01*
X0215483Y0322085D01*
X0217115Y0320453D01*
X0217315Y0320370D01*
X0217115Y0320287D01*
X0216598Y0319770D01*
X0211206Y0319770D01*
X0211046Y0319929D01*
X0209070Y0320748D01*
X0206930Y0320748D01*
X0204954Y0319929D01*
X0203441Y0318416D01*
X0202622Y0316440D01*
X0202622Y0314300D01*
X0203441Y0312324D01*
X0204954Y0310811D01*
X0206930Y0309992D01*
X0209070Y0309992D01*
X0211046Y0310811D01*
X0211206Y0310970D01*
X0216598Y0310970D01*
X0217115Y0310453D01*
X0219000Y0309672D01*
X0219000Y0304574D01*
X0219609Y0303104D01*
X0220734Y0301979D01*
X0220734Y0301979D01*
X0222819Y0299894D01*
X0222819Y0299339D01*
X0223608Y0297435D01*
X0225065Y0295978D01*
X0226969Y0295189D01*
X0229031Y0295189D01*
X0230935Y0295978D01*
X0232392Y0297435D01*
X0233181Y0299339D01*
X0233181Y0301401D01*
X0232392Y0303305D01*
X0230935Y0304762D01*
X0229031Y0305551D01*
X0228476Y0305551D01*
X0227000Y0307027D01*
X0227000Y0309672D01*
X0228885Y0310453D01*
X0230517Y0312085D01*
X0231400Y0314216D01*
X0231400Y0316524D01*
X0230517Y0318656D01*
X0228885Y0320287D01*
X0228685Y0320370D01*
X0228885Y0320453D01*
X0230517Y0322085D01*
X0231400Y0324216D01*
X0231400Y0326524D01*
X0231400Y0324905D02*
X0235410Y0324905D01*
X0233609Y0323307D02*
X0231023Y0323307D01*
X0230140Y0321708D02*
X0232946Y0321708D01*
X0232819Y0320110D02*
X0229063Y0320110D01*
X0230577Y0318511D02*
X0233162Y0318511D01*
X0234130Y0316913D02*
X0231239Y0316913D01*
X0231400Y0315314D02*
X0234300Y0315314D01*
X0234300Y0313716D02*
X0231193Y0313716D01*
X0230530Y0312117D02*
X0234300Y0312117D01*
X0234300Y0310518D02*
X0228951Y0310518D01*
X0227000Y0308920D02*
X0234300Y0308920D01*
X0234300Y0307321D02*
X0227000Y0307321D01*
X0228304Y0305723D02*
X0234300Y0305723D01*
X0234300Y0304124D02*
X0231573Y0304124D01*
X0232715Y0302526D02*
X0234300Y0302526D01*
X0234300Y0300927D02*
X0233181Y0300927D01*
X0233177Y0299329D02*
X0234300Y0299329D01*
X0234300Y0297730D02*
X0232515Y0297730D01*
X0231089Y0296132D02*
X0234300Y0296132D01*
X0234300Y0294533D02*
X0209950Y0294533D01*
X0209950Y0293988D02*
X0209950Y0296753D01*
X0208892Y0299307D01*
X0206937Y0301262D01*
X0204382Y0302320D01*
X0201618Y0302320D01*
X0199063Y0301262D01*
X0198000Y0300199D01*
X0196937Y0301262D01*
X0194382Y0302320D01*
X0191618Y0302320D01*
X0189063Y0301262D01*
X0188000Y0300199D01*
X0186937Y0301262D01*
X0184382Y0302320D01*
X0181618Y0302320D01*
X0179063Y0301262D01*
X0178000Y0300199D01*
X0176937Y0301262D01*
X0174382Y0302320D01*
X0171618Y0302320D01*
X0169063Y0301262D01*
X0168000Y0300199D01*
X0166937Y0301262D01*
X0164382Y0302320D01*
X0161618Y0302320D01*
X0159063Y0301262D01*
X0158000Y0300199D01*
X0156937Y0301262D01*
X0154382Y0302320D01*
X0151618Y0302320D01*
X0149063Y0301262D01*
X0148000Y0300199D01*
X0146937Y0301262D01*
X0144382Y0302320D01*
X0141618Y0302320D01*
X0139063Y0301262D01*
X0138000Y0300199D01*
X0136937Y0301262D01*
X0134382Y0302320D01*
X0131618Y0302320D01*
X0129063Y0301262D01*
X0127108Y0299307D01*
X0127051Y0299168D01*
X0126616Y0299603D01*
X0125909Y0300117D01*
X0125130Y0300513D01*
X0124300Y0300783D01*
X0123437Y0300920D01*
X0123200Y0300920D01*
X0123200Y0295570D01*
X0122800Y0295570D01*
X0122800Y0300920D01*
X0122563Y0300920D01*
X0121700Y0300783D01*
X0120870Y0300513D01*
X0120091Y0300117D01*
X0119384Y0299603D01*
X0118949Y0299168D01*
X0118892Y0299307D01*
X0116937Y0301262D01*
X0114382Y0302320D01*
X0111618Y0302320D01*
X0109063Y0301262D01*
X0107108Y0299307D01*
X0106050Y0296753D01*
X0106050Y0293988D01*
X0107108Y0291433D01*
X0109063Y0289478D01*
X0111618Y0288420D01*
X0114382Y0288420D01*
X0116937Y0289478D01*
X0118892Y0291433D01*
X0118949Y0291572D01*
X0119384Y0291137D01*
X0120091Y0290623D01*
X0120870Y0290227D01*
X0121700Y0289957D01*
X0122563Y0289820D01*
X0122800Y0289820D01*
X0122800Y0295170D01*
X0123200Y0295170D01*
X0123200Y0289820D01*
X0123437Y0289820D01*
X0124300Y0289957D01*
X0125130Y0290227D01*
X0125909Y0290623D01*
X0126616Y0291137D01*
X0127051Y0291572D01*
X0127108Y0291433D01*
X0127793Y0290748D01*
X0126930Y0290748D01*
X0124954Y0289929D01*
X0123441Y0288416D01*
X0122622Y0286440D01*
X0122622Y0284300D01*
X0123441Y0282324D01*
X0123494Y0282270D01*
X0121627Y0282270D01*
X0119091Y0281220D01*
X0117150Y0279279D01*
X0116100Y0276743D01*
X0116100Y0273998D01*
X0117150Y0271462D01*
X0119091Y0269521D01*
X0121627Y0268470D01*
X0124372Y0268470D01*
X0126909Y0269521D01*
X0128000Y0270612D01*
X0129091Y0269521D01*
X0131627Y0268470D01*
X0134372Y0268470D01*
X0136909Y0269521D01*
X0138000Y0270612D01*
X0139091Y0269521D01*
X0141627Y0268470D01*
X0144372Y0268470D01*
X0146909Y0269521D01*
X0148850Y0271462D01*
X0148932Y0271660D01*
X0149417Y0271175D01*
X0150117Y0270666D01*
X0150889Y0270273D01*
X0151712Y0270006D01*
X0152567Y0269870D01*
X0152800Y0269870D01*
X0152800Y0275170D01*
X0153200Y0275170D01*
X0153200Y0269870D01*
X0153433Y0269870D01*
X0154288Y0270006D01*
X0155111Y0270273D01*
X0155883Y0270666D01*
X0156583Y0271175D01*
X0157195Y0271787D01*
X0157704Y0272487D01*
X0158097Y0273259D01*
X0158365Y0274082D01*
X0158500Y0274937D01*
X0158500Y0275170D01*
X0153200Y0275170D01*
X0153200Y0275570D01*
X0158500Y0275570D01*
X0158500Y0275803D01*
X0158365Y0276658D01*
X0158097Y0277481D01*
X0157704Y0278253D01*
X0157195Y0278953D01*
X0156583Y0279565D01*
X0155883Y0280074D01*
X0155111Y0280467D01*
X0154288Y0280735D01*
X0153433Y0280870D01*
X0153200Y0280870D01*
X0153200Y0275570D01*
X0152800Y0275570D01*
X0152800Y0280870D01*
X0152567Y0280870D01*
X0151712Y0280735D01*
X0150889Y0280467D01*
X0150117Y0280074D01*
X0149417Y0279565D01*
X0148932Y0279080D01*
X0148850Y0279279D01*
X0148136Y0279992D01*
X0149070Y0279992D01*
X0151046Y0280811D01*
X0152559Y0282324D01*
X0153378Y0284300D01*
X0153378Y0286440D01*
X0152559Y0288416D01*
X0152556Y0288420D01*
X0154382Y0288420D01*
X0156937Y0289478D01*
X0158000Y0290541D01*
X0159063Y0289478D01*
X0161618Y0288420D01*
X0164382Y0288420D01*
X0166937Y0289478D01*
X0168000Y0290541D01*
X0169063Y0289478D01*
X0171618Y0288420D01*
X0174382Y0288420D01*
X0176937Y0289478D01*
X0178000Y0290541D01*
X0179063Y0289478D01*
X0181618Y0288420D01*
X0184382Y0288420D01*
X0186937Y0289478D01*
X0188000Y0290541D01*
X0189063Y0289478D01*
X0191618Y0288420D01*
X0194382Y0288420D01*
X0196937Y0289478D01*
X0198000Y0290541D01*
X0199063Y0289478D01*
X0201618Y0288420D01*
X0204382Y0288420D01*
X0206937Y0289478D01*
X0208892Y0291433D01*
X0209950Y0293988D01*
X0209514Y0292935D02*
X0234300Y0292935D01*
X0234300Y0291336D02*
X0208795Y0291336D01*
X0207197Y0289738D02*
X0216565Y0289738D01*
X0215269Y0288139D02*
X0152674Y0288139D01*
X0153336Y0286541D02*
X0214607Y0286541D01*
X0214600Y0284942D02*
X0176015Y0284942D01*
X0177589Y0283344D02*
X0214961Y0283344D01*
X0215822Y0281745D02*
X0178251Y0281745D01*
X0179319Y0280147D02*
X0216974Y0280147D01*
X0215439Y0278548D02*
X0179900Y0278548D01*
X0179900Y0276950D02*
X0214776Y0276950D01*
X0214600Y0275351D02*
X0179900Y0275351D01*
X0179900Y0273753D02*
X0214792Y0273753D01*
X0215454Y0272154D02*
X0179900Y0272154D01*
X0179900Y0270556D02*
X0217012Y0270556D01*
X0217852Y0268957D02*
X0179900Y0268957D01*
X0180497Y0267359D02*
X0216475Y0267359D01*
X0216007Y0265760D02*
X0180878Y0265760D01*
X0180820Y0264162D02*
X0216166Y0264162D01*
X0214643Y0256169D02*
X0169766Y0256169D01*
X0169800Y0254571D02*
X0211336Y0254571D01*
X0209621Y0252972D02*
X0169800Y0252972D01*
X0169800Y0251374D02*
X0208418Y0251374D01*
X0207495Y0249775D02*
X0169800Y0249775D01*
X0169800Y0248177D02*
X0207053Y0248177D01*
X0206700Y0246578D02*
X0206304Y0246578D01*
X0199695Y0246578D02*
X0196174Y0246578D01*
X0189826Y0246578D02*
X0169800Y0246578D01*
X0169800Y0244980D02*
X0187781Y0244980D01*
X0186725Y0243381D02*
X0169800Y0243381D01*
X0169800Y0241783D02*
X0186062Y0241783D01*
X0186050Y0240184D02*
X0169800Y0240184D01*
X0169800Y0238585D02*
X0186217Y0238585D01*
X0186879Y0236987D02*
X0169800Y0236987D01*
X0169276Y0235388D02*
X0188153Y0235388D01*
X0186894Y0233790D02*
X0166964Y0233790D01*
X0161797Y0228994D02*
X0129950Y0228994D01*
X0129950Y0230593D02*
X0186050Y0230593D01*
X0186232Y0232191D02*
X0129768Y0232191D01*
X0129291Y0227396D02*
X0160731Y0227396D01*
X0160319Y0225797D02*
X0128256Y0225797D01*
X0128937Y0224199D02*
X0160377Y0224199D01*
X0161039Y0222600D02*
X0129599Y0222600D01*
X0129950Y0221002D02*
X0162541Y0221002D01*
X0168459Y0221002D02*
X0180041Y0221002D01*
X0185959Y0221002D02*
X0186050Y0221002D01*
X0186050Y0219403D02*
X0129950Y0219403D01*
X0129460Y0217805D02*
X0186540Y0217805D01*
X0187335Y0216206D02*
X0128665Y0216206D01*
X0128591Y0214608D02*
X0187409Y0214608D01*
X0186571Y0213009D02*
X0129429Y0213009D01*
X0129950Y0211411D02*
X0186050Y0211411D01*
X0186050Y0209812D02*
X0129950Y0209812D01*
X0129629Y0208214D02*
X0186371Y0208214D01*
X0187033Y0206615D02*
X0128967Y0206615D01*
X0128182Y0205017D02*
X0187818Y0205017D01*
X0186740Y0203418D02*
X0129260Y0203418D01*
X0129922Y0201820D02*
X0186078Y0201820D01*
X0186050Y0200221D02*
X0129950Y0200221D01*
X0129799Y0198623D02*
X0186201Y0198623D01*
X0186863Y0197024D02*
X0129137Y0197024D01*
X0127884Y0195426D02*
X0188116Y0195426D01*
X0186909Y0193827D02*
X0129091Y0193827D01*
X0129753Y0192229D02*
X0186247Y0192229D01*
X0186050Y0190630D02*
X0129950Y0190630D01*
X0129950Y0189032D02*
X0186050Y0189032D01*
X0186694Y0187433D02*
X0129306Y0187433D01*
X0128293Y0185835D02*
X0187707Y0185835D01*
X0187079Y0184236D02*
X0128921Y0184236D01*
X0129583Y0182638D02*
X0186417Y0182638D01*
X0186050Y0181039D02*
X0129950Y0181039D01*
X0129950Y0179441D02*
X0186050Y0179441D01*
X0186525Y0177842D02*
X0129475Y0177842D01*
X0128702Y0176244D02*
X0187298Y0176244D01*
X0187446Y0174645D02*
X0128554Y0174645D01*
X0129414Y0173047D02*
X0186586Y0173047D01*
X0186050Y0171448D02*
X0129950Y0171448D01*
X0129950Y0169849D02*
X0186050Y0169849D01*
X0186355Y0168251D02*
X0129645Y0168251D01*
X0128983Y0166652D02*
X0187017Y0166652D01*
X0187855Y0165054D02*
X0127513Y0165054D01*
X0127619Y0163455D02*
X0186755Y0163455D01*
X0186093Y0161857D02*
X0128352Y0161857D01*
X0107636Y0185835D02*
X0021068Y0185835D01*
X0021068Y0187433D02*
X0106640Y0187433D01*
X0106000Y0189032D02*
X0021068Y0189032D01*
X0021068Y0190630D02*
X0106000Y0190630D01*
X0106193Y0192229D02*
X0021068Y0192229D01*
X0021068Y0193827D02*
X0106855Y0193827D01*
X0108045Y0195426D02*
X0049194Y0195426D01*
X0049154Y0195386D02*
X0050834Y0197066D01*
X0051743Y0199261D01*
X0051743Y0201637D01*
X0050834Y0203831D01*
X0049296Y0205370D01*
X0050834Y0206909D01*
X0051743Y0209103D01*
X0051743Y0211479D01*
X0050834Y0213674D01*
X0049154Y0215354D01*
X0046959Y0216263D01*
X0039041Y0216263D01*
X0036846Y0215354D01*
X0035166Y0213674D01*
X0034257Y0211479D01*
X0034257Y0209103D01*
X0035166Y0206909D01*
X0036704Y0205370D01*
X0035166Y0203831D01*
X0034257Y0201637D01*
X0034257Y0199261D01*
X0035166Y0197066D01*
X0036846Y0195386D01*
X0039041Y0194477D01*
X0046959Y0194477D01*
X0049154Y0195386D01*
X0050792Y0197024D02*
X0106809Y0197024D01*
X0106147Y0198623D02*
X0051479Y0198623D01*
X0051743Y0200221D02*
X0106000Y0200221D01*
X0106024Y0201820D02*
X0051667Y0201820D01*
X0051005Y0203418D02*
X0106686Y0203418D01*
X0107747Y0205017D02*
X0049649Y0205017D01*
X0050541Y0206615D02*
X0106979Y0206615D01*
X0106316Y0208214D02*
X0051375Y0208214D01*
X0051743Y0209812D02*
X0106000Y0209812D01*
X0106000Y0211411D02*
X0051743Y0211411D01*
X0051109Y0213009D02*
X0106516Y0213009D01*
X0107338Y0214608D02*
X0049900Y0214608D01*
X0047096Y0216206D02*
X0107264Y0216206D01*
X0106486Y0217805D02*
X0021068Y0217805D01*
X0021068Y0219403D02*
X0106000Y0219403D01*
X0106000Y0221002D02*
X0021068Y0221002D01*
X0021068Y0222600D02*
X0106347Y0222600D01*
X0107009Y0224199D02*
X0021068Y0224199D01*
X0021068Y0225797D02*
X0107673Y0225797D01*
X0106655Y0227396D02*
X0021068Y0227396D01*
X0021068Y0228994D02*
X0106000Y0228994D01*
X0106000Y0230593D02*
X0049361Y0230593D01*
X0049154Y0230386D02*
X0050834Y0232066D01*
X0051743Y0234261D01*
X0051743Y0236637D01*
X0050834Y0238831D01*
X0049296Y0240370D01*
X0050834Y0241909D01*
X0051743Y0244103D01*
X0051743Y0246479D01*
X0050834Y0248674D01*
X0049154Y0250354D01*
X0046959Y0251263D01*
X0039041Y0251263D01*
X0036846Y0250354D01*
X0035166Y0248674D01*
X0034257Y0246479D01*
X0034257Y0244103D01*
X0035166Y0241909D01*
X0036704Y0240370D01*
X0035166Y0238831D01*
X0034257Y0236637D01*
X0034257Y0234261D01*
X0035166Y0232066D01*
X0036846Y0230386D01*
X0039041Y0229477D01*
X0046959Y0229477D01*
X0049154Y0230386D01*
X0050886Y0232191D02*
X0106178Y0232191D01*
X0106840Y0233790D02*
X0051548Y0233790D01*
X0051743Y0235388D02*
X0092689Y0235388D01*
X0090402Y0236987D02*
X0051598Y0236987D01*
X0050936Y0238585D02*
X0088869Y0238585D01*
X0087946Y0240184D02*
X0049482Y0240184D01*
X0050708Y0241783D02*
X0087263Y0241783D01*
X0086834Y0243381D02*
X0051444Y0243381D01*
X0051743Y0244980D02*
X0086700Y0244980D01*
X0086700Y0246578D02*
X0051702Y0246578D01*
X0051040Y0248177D02*
X0087053Y0248177D01*
X0087495Y0249775D02*
X0049733Y0249775D01*
X0036267Y0249775D02*
X0021068Y0249775D01*
X0021068Y0248177D02*
X0034960Y0248177D01*
X0034298Y0246578D02*
X0021068Y0246578D01*
X0021068Y0244980D02*
X0034257Y0244980D01*
X0034556Y0243381D02*
X0021068Y0243381D01*
X0021068Y0241783D02*
X0035292Y0241783D01*
X0036518Y0240184D02*
X0021068Y0240184D01*
X0021068Y0238585D02*
X0035064Y0238585D01*
X0034402Y0236987D02*
X0021068Y0236987D01*
X0021068Y0235388D02*
X0034257Y0235388D01*
X0034452Y0233790D02*
X0021068Y0233790D01*
X0021068Y0232191D02*
X0035114Y0232191D01*
X0036639Y0230593D02*
X0021068Y0230593D01*
X0021068Y0216206D02*
X0038904Y0216206D01*
X0036100Y0214608D02*
X0021068Y0214608D01*
X0021068Y0213009D02*
X0034891Y0213009D01*
X0034257Y0211411D02*
X0021068Y0211411D01*
X0021068Y0209812D02*
X0034257Y0209812D01*
X0034625Y0208214D02*
X0021068Y0208214D01*
X0021068Y0206615D02*
X0035459Y0206615D01*
X0036351Y0205017D02*
X0021068Y0205017D01*
X0021068Y0203418D02*
X0034995Y0203418D01*
X0034333Y0201820D02*
X0021068Y0201820D01*
X0021068Y0200221D02*
X0034257Y0200221D01*
X0034521Y0198623D02*
X0021068Y0198623D01*
X0021068Y0197024D02*
X0035208Y0197024D01*
X0036806Y0195426D02*
X0021068Y0195426D01*
X0021068Y0184236D02*
X0107025Y0184236D01*
X0107190Y0136281D02*
X0100941Y0136281D01*
X0104471Y0134682D02*
X0107413Y0134682D01*
X0106547Y0133084D02*
X0106267Y0133084D01*
X0064520Y0091522D02*
X0062331Y0091522D01*
X0063324Y0093121D02*
X0060732Y0093121D01*
X0070704Y0081931D02*
X0072304Y0081931D01*
X0072304Y0080333D02*
X0070704Y0080333D01*
X0070704Y0078734D02*
X0072304Y0078734D01*
X0072304Y0077136D02*
X0070704Y0077136D01*
X0070704Y0075537D02*
X0072304Y0075537D01*
X0072304Y0073939D02*
X0070704Y0073939D01*
X0103311Y0235388D02*
X0108082Y0235388D01*
X0106825Y0236987D02*
X0105597Y0236987D01*
X0109300Y0246578D02*
X0109696Y0246578D01*
X0108947Y0248177D02*
X0115378Y0248177D01*
X0116178Y0249775D02*
X0108505Y0249775D01*
X0107582Y0251374D02*
X0116977Y0251374D01*
X0117776Y0252972D02*
X0106379Y0252972D01*
X0104664Y0254571D02*
X0118575Y0254571D01*
X0119375Y0256169D02*
X0101357Y0256169D01*
X0094643Y0256169D02*
X0079356Y0256169D01*
X0078875Y0255970D02*
X0080492Y0256640D01*
X0083845Y0259992D01*
X0084070Y0259992D01*
X0086046Y0260811D01*
X0087559Y0262324D01*
X0088378Y0264300D01*
X0088378Y0266440D01*
X0087559Y0268416D01*
X0086046Y0269929D01*
X0084070Y0270748D01*
X0081930Y0270748D01*
X0079954Y0269929D01*
X0078441Y0268416D01*
X0077622Y0266440D01*
X0077622Y0266215D01*
X0076177Y0264770D01*
X0071206Y0264770D01*
X0071046Y0264929D01*
X0069468Y0265583D01*
X0070823Y0266145D01*
X0072225Y0267547D01*
X0072984Y0269379D01*
X0072984Y0269980D01*
X0075890Y0272886D01*
X0076491Y0272886D01*
X0078323Y0273645D01*
X0079725Y0275047D01*
X0080484Y0276879D01*
X0080484Y0278862D01*
X0079725Y0280693D01*
X0078323Y0282096D01*
X0076491Y0282854D01*
X0074509Y0282854D01*
X0072677Y0282096D01*
X0071275Y0280693D01*
X0070516Y0278862D01*
X0070516Y0278260D01*
X0067610Y0275354D01*
X0067009Y0275354D01*
X0065177Y0274596D01*
X0063775Y0273193D01*
X0063016Y0271362D01*
X0063016Y0269379D01*
X0063775Y0267547D01*
X0065177Y0266145D01*
X0066532Y0265583D01*
X0064954Y0264929D01*
X0063441Y0263416D01*
X0062622Y0261440D01*
X0062622Y0259300D01*
X0063441Y0257324D01*
X0064954Y0255811D01*
X0066930Y0254992D01*
X0069070Y0254992D01*
X0071046Y0255811D01*
X0071206Y0255970D01*
X0078875Y0255970D01*
X0081620Y0257768D02*
X0120270Y0257768D01*
X0120451Y0268957D02*
X0087018Y0268957D01*
X0087997Y0267359D02*
X0170503Y0267359D01*
X0170122Y0265760D02*
X0088378Y0265760D01*
X0088320Y0264162D02*
X0170179Y0264162D01*
X0170842Y0262563D02*
X0087658Y0262563D01*
X0086200Y0260965D02*
X0172300Y0260965D01*
X0168894Y0257768D02*
X0294932Y0257768D01*
X0294932Y0259366D02*
X0083219Y0259366D01*
X0077168Y0265760D02*
X0069895Y0265760D01*
X0072037Y0267359D02*
X0078003Y0267359D01*
X0078982Y0268957D02*
X0072810Y0268957D01*
X0073560Y0270556D02*
X0081466Y0270556D01*
X0084534Y0270556D02*
X0118056Y0270556D01*
X0116864Y0272154D02*
X0075158Y0272154D01*
X0078431Y0273753D02*
X0116201Y0273753D01*
X0116100Y0275351D02*
X0079852Y0275351D01*
X0080484Y0276950D02*
X0116186Y0276950D01*
X0116848Y0278548D02*
X0080484Y0278548D01*
X0079952Y0280147D02*
X0118019Y0280147D01*
X0120361Y0281745D02*
X0078674Y0281745D01*
X0072326Y0281745D02*
X0051666Y0281745D01*
X0051743Y0281558D02*
X0050834Y0283753D01*
X0049154Y0285433D01*
X0047491Y0286122D01*
X0047527Y0286133D01*
X0048168Y0286460D01*
X0048750Y0286883D01*
X0049259Y0287392D01*
X0049682Y0287974D01*
X0050008Y0288615D01*
X0050231Y0289300D01*
X0050343Y0290010D01*
X0050343Y0290284D01*
X0043086Y0290284D01*
X0043086Y0290456D01*
X0050343Y0290456D01*
X0050343Y0290730D01*
X0050231Y0291441D01*
X0050008Y0292125D01*
X0049682Y0292766D01*
X0049259Y0293348D01*
X0048750Y0293857D01*
X0048168Y0294280D01*
X0047527Y0294607D01*
X0046842Y0294829D01*
X0046131Y0294942D01*
X0043086Y0294942D01*
X0043086Y0290456D01*
X0042914Y0290456D01*
X0042914Y0290284D01*
X0035657Y0290284D01*
X0035657Y0290010D01*
X0035769Y0289300D01*
X0035992Y0288615D01*
X0036318Y0287974D01*
X0036741Y0287392D01*
X0037250Y0286883D01*
X0037832Y0286460D01*
X0038473Y0286133D01*
X0038509Y0286122D01*
X0036846Y0285433D01*
X0035166Y0283753D01*
X0034257Y0281558D01*
X0034257Y0279182D01*
X0035166Y0276987D01*
X0036783Y0275370D01*
X0035166Y0273753D01*
X0034257Y0271558D01*
X0034257Y0269182D01*
X0035166Y0266987D01*
X0036846Y0265308D01*
X0039041Y0264398D01*
X0046959Y0264398D01*
X0049154Y0265308D01*
X0050834Y0266987D01*
X0051743Y0269182D01*
X0051743Y0271558D01*
X0050834Y0273753D01*
X0049217Y0275370D01*
X0050834Y0276987D01*
X0051743Y0279182D01*
X0051743Y0281558D01*
X0051743Y0280147D02*
X0071048Y0280147D01*
X0070516Y0278548D02*
X0051481Y0278548D01*
X0050797Y0276950D02*
X0069206Y0276950D01*
X0067001Y0275351D02*
X0049236Y0275351D01*
X0050834Y0273753D02*
X0064334Y0273753D01*
X0063344Y0272154D02*
X0051496Y0272154D01*
X0051743Y0270556D02*
X0063016Y0270556D01*
X0063190Y0268957D02*
X0051650Y0268957D01*
X0050988Y0267359D02*
X0063963Y0267359D01*
X0066105Y0265760D02*
X0049607Y0265760D01*
X0036393Y0265760D02*
X0021068Y0265760D01*
X0021068Y0264162D02*
X0064186Y0264162D01*
X0063087Y0262563D02*
X0021068Y0262563D01*
X0021068Y0260965D02*
X0062622Y0260965D01*
X0062622Y0259366D02*
X0021068Y0259366D01*
X0021068Y0257768D02*
X0063257Y0257768D01*
X0064595Y0256169D02*
X0021068Y0256169D01*
X0021068Y0254571D02*
X0091336Y0254571D01*
X0089621Y0252972D02*
X0021068Y0252972D01*
X0021068Y0251374D02*
X0088418Y0251374D01*
X0108803Y0289738D02*
X0050300Y0289738D01*
X0050247Y0291336D02*
X0107205Y0291336D01*
X0106486Y0292935D02*
X0049559Y0292935D01*
X0047671Y0294533D02*
X0106050Y0294533D01*
X0106050Y0296132D02*
X0021068Y0296132D01*
X0021068Y0297730D02*
X0106455Y0297730D01*
X0107130Y0299329D02*
X0021068Y0299329D01*
X0021068Y0300927D02*
X0108729Y0300927D01*
X0117271Y0300927D02*
X0128729Y0300927D01*
X0127130Y0299329D02*
X0126890Y0299329D01*
X0123200Y0299329D02*
X0122800Y0299329D01*
X0122800Y0297730D02*
X0123200Y0297730D01*
X0123200Y0296132D02*
X0122800Y0296132D01*
X0122800Y0294533D02*
X0123200Y0294533D01*
X0123200Y0292935D02*
X0122800Y0292935D01*
X0122800Y0291336D02*
X0123200Y0291336D01*
X0124762Y0289738D02*
X0117197Y0289738D01*
X0118795Y0291336D02*
X0119185Y0291336D01*
X0123326Y0288139D02*
X0049766Y0288139D01*
X0048279Y0286541D02*
X0122664Y0286541D01*
X0122622Y0284942D02*
X0049645Y0284942D01*
X0051004Y0283344D02*
X0123018Y0283344D01*
X0126815Y0291336D02*
X0127205Y0291336D01*
X0119110Y0299329D02*
X0118870Y0299329D01*
X0137271Y0300927D02*
X0138729Y0300927D01*
X0147271Y0300927D02*
X0148729Y0300927D01*
X0157271Y0300927D02*
X0158729Y0300927D01*
X0167271Y0300927D02*
X0168729Y0300927D01*
X0177271Y0300927D02*
X0178729Y0300927D01*
X0187271Y0300927D02*
X0188729Y0300927D01*
X0197271Y0300927D02*
X0198729Y0300927D01*
X0207271Y0300927D02*
X0221786Y0300927D01*
X0222823Y0299329D02*
X0208870Y0299329D01*
X0209545Y0297730D02*
X0223485Y0297730D01*
X0224911Y0296132D02*
X0209950Y0296132D01*
X0220187Y0302526D02*
X0021068Y0302526D01*
X0021068Y0304124D02*
X0219186Y0304124D01*
X0219000Y0305723D02*
X0021068Y0305723D01*
X0021068Y0307321D02*
X0219000Y0307321D01*
X0219000Y0308920D02*
X0021068Y0308920D01*
X0021068Y0310518D02*
X0205659Y0310518D01*
X0203647Y0312117D02*
X0021068Y0312117D01*
X0021068Y0313716D02*
X0202864Y0313716D01*
X0202622Y0315314D02*
X0055504Y0315314D01*
X0056271Y0315632D02*
X0057896Y0317256D01*
X0058775Y0319379D01*
X0058775Y0321676D01*
X0057896Y0323799D01*
X0056271Y0325423D01*
X0054149Y0326302D01*
X0051851Y0326302D01*
X0049729Y0325423D01*
X0048104Y0323799D01*
X0047225Y0321676D01*
X0047225Y0319379D01*
X0048104Y0317256D01*
X0049729Y0315632D01*
X0051851Y0314753D01*
X0054149Y0314753D01*
X0056271Y0315632D01*
X0057552Y0316913D02*
X0202818Y0316913D01*
X0203535Y0318511D02*
X0058415Y0318511D01*
X0058775Y0320110D02*
X0205389Y0320110D01*
X0210611Y0320110D02*
X0216937Y0320110D01*
X0215860Y0321708D02*
X0058762Y0321708D01*
X0058099Y0323307D02*
X0214977Y0323307D01*
X0214600Y0324905D02*
X0056789Y0324905D01*
X0049211Y0324905D02*
X0021068Y0324905D01*
X0021068Y0323307D02*
X0047901Y0323307D01*
X0047238Y0321708D02*
X0021068Y0321708D01*
X0021068Y0320110D02*
X0047225Y0320110D01*
X0047585Y0318511D02*
X0021068Y0318511D01*
X0021068Y0316913D02*
X0048448Y0316913D01*
X0050496Y0315314D02*
X0021068Y0315314D01*
X0021068Y0326504D02*
X0214600Y0326504D01*
X0215254Y0328102D02*
X0021068Y0328102D01*
X0021068Y0329701D02*
X0216528Y0329701D01*
X0216268Y0331299D02*
X0199842Y0331299D01*
X0199619Y0331239D02*
X0202442Y0331996D01*
X0204973Y0333457D01*
X0207039Y0335523D01*
X0208500Y0338054D01*
X0209257Y0340877D01*
X0209257Y0343800D01*
X0208500Y0346623D01*
X0207039Y0349154D01*
X0204973Y0351220D01*
X0202442Y0352681D01*
X0199619Y0353438D01*
X0196696Y0353438D01*
X0193873Y0352681D01*
X0191342Y0351220D01*
X0189276Y0349154D01*
X0187815Y0346623D01*
X0187058Y0343800D01*
X0187058Y0340877D01*
X0187815Y0338054D01*
X0189276Y0335523D01*
X0191342Y0333457D01*
X0193873Y0331996D01*
X0196696Y0331239D01*
X0199619Y0331239D01*
X0196473Y0331299D02*
X0119527Y0331299D01*
X0119304Y0331239D02*
X0122127Y0331996D01*
X0124658Y0333457D01*
X0126724Y0335523D01*
X0128185Y0338054D01*
X0128942Y0340877D01*
X0128942Y0343800D01*
X0128185Y0346623D01*
X0126724Y0349154D01*
X0124658Y0351220D01*
X0122127Y0352681D01*
X0119304Y0353438D01*
X0116381Y0353438D01*
X0113558Y0352681D01*
X0111027Y0351220D01*
X0108961Y0349154D01*
X0107500Y0346623D01*
X0106743Y0343800D01*
X0106743Y0340877D01*
X0107500Y0338054D01*
X0108961Y0335523D01*
X0111027Y0333457D01*
X0113558Y0331996D01*
X0116381Y0331239D01*
X0119304Y0331239D01*
X0116158Y0331299D02*
X0021068Y0331299D01*
X0021068Y0332898D02*
X0111996Y0332898D01*
X0109988Y0334496D02*
X0054290Y0334496D01*
X0054149Y0334438D02*
X0056271Y0335317D01*
X0057896Y0336941D01*
X0058775Y0339064D01*
X0058775Y0341361D01*
X0057896Y0343484D01*
X0056271Y0345108D01*
X0054149Y0345987D01*
X0051851Y0345987D01*
X0049729Y0345108D01*
X0048104Y0343484D01*
X0047225Y0341361D01*
X0047225Y0339064D01*
X0048104Y0336941D01*
X0049729Y0335317D01*
X0051851Y0334438D01*
X0054149Y0334438D01*
X0051710Y0334496D02*
X0021068Y0334496D01*
X0021068Y0336095D02*
X0048951Y0336095D01*
X0047793Y0337693D02*
X0021068Y0337693D01*
X0021068Y0339292D02*
X0047225Y0339292D01*
X0047225Y0340890D02*
X0021068Y0340890D01*
X0021068Y0342489D02*
X0047692Y0342489D01*
X0048708Y0344087D02*
X0021068Y0344087D01*
X0021068Y0345686D02*
X0051123Y0345686D01*
X0054877Y0345686D02*
X0107249Y0345686D01*
X0106820Y0344087D02*
X0057292Y0344087D01*
X0058308Y0342489D02*
X0106743Y0342489D01*
X0106743Y0340890D02*
X0058775Y0340890D01*
X0058775Y0339292D02*
X0107168Y0339292D01*
X0107708Y0337693D02*
X0058207Y0337693D01*
X0057049Y0336095D02*
X0108631Y0336095D01*
X0107882Y0347284D02*
X0021068Y0347284D01*
X0021068Y0348883D02*
X0108805Y0348883D01*
X0110289Y0350481D02*
X0021068Y0350481D01*
X0021068Y0352080D02*
X0112516Y0352080D01*
X0123169Y0352080D02*
X0192831Y0352080D01*
X0190604Y0350481D02*
X0125396Y0350481D01*
X0126880Y0348883D02*
X0189120Y0348883D01*
X0188197Y0347284D02*
X0127803Y0347284D01*
X0128436Y0345686D02*
X0187564Y0345686D01*
X0187135Y0344087D02*
X0128865Y0344087D01*
X0128942Y0342489D02*
X0187058Y0342489D01*
X0187058Y0340890D02*
X0128942Y0340890D01*
X0128517Y0339292D02*
X0187483Y0339292D01*
X0188023Y0337693D02*
X0127977Y0337693D01*
X0127054Y0336095D02*
X0188946Y0336095D01*
X0190303Y0334496D02*
X0125697Y0334496D01*
X0123689Y0332898D02*
X0192311Y0332898D01*
X0204004Y0332898D02*
X0215146Y0332898D01*
X0214600Y0334496D02*
X0206012Y0334496D01*
X0207369Y0336095D02*
X0214600Y0336095D01*
X0215084Y0337693D02*
X0208292Y0337693D01*
X0208832Y0339292D02*
X0216119Y0339292D01*
X0216677Y0340890D02*
X0209257Y0340890D01*
X0209257Y0342489D02*
X0215316Y0342489D01*
X0214653Y0344087D02*
X0209180Y0344087D01*
X0208751Y0345686D02*
X0214600Y0345686D01*
X0214915Y0347284D02*
X0208118Y0347284D01*
X0207195Y0348883D02*
X0215710Y0348883D01*
X0217583Y0350481D02*
X0205711Y0350481D01*
X0203484Y0352080D02*
X0294932Y0352080D01*
X0294932Y0353678D02*
X0021068Y0353678D01*
X0021068Y0355277D02*
X0294932Y0355277D01*
X0294932Y0356875D02*
X0021068Y0356875D01*
X0021068Y0358474D02*
X0294932Y0358474D01*
X0294932Y0360072D02*
X0021068Y0360072D01*
X0021068Y0361671D02*
X0294932Y0361671D01*
X0294932Y0363269D02*
X0021068Y0363269D01*
X0021068Y0364868D02*
X0041200Y0364868D01*
X0041334Y0364798D02*
X0041334Y0364798D01*
X0046454Y0363735D02*
X0046454Y0363735D01*
X0051670Y0364091D02*
X0051670Y0364091D01*
X0053855Y0364868D02*
X0261672Y0364868D01*
X0261807Y0364798D02*
X0261807Y0364798D01*
X0266926Y0363735D02*
X0266926Y0363735D01*
X0272143Y0364091D02*
X0272143Y0364091D01*
X0274327Y0364868D02*
X0294932Y0364868D01*
X0294932Y0350481D02*
X0228417Y0350481D01*
X0230290Y0348883D02*
X0247749Y0348883D01*
X0247534Y0348726D02*
X0247044Y0348236D01*
X0246637Y0347676D01*
X0246322Y0347059D01*
X0246108Y0346400D01*
X0246000Y0345716D01*
X0246000Y0345370D01*
X0253000Y0345370D01*
X0253000Y0345370D01*
X0260000Y0345370D01*
X0260000Y0345716D01*
X0259892Y0346400D01*
X0259678Y0347059D01*
X0259363Y0347676D01*
X0258956Y0348236D01*
X0258466Y0348726D01*
X0257906Y0349133D01*
X0257289Y0349448D01*
X0256630Y0349662D01*
X0255946Y0349770D01*
X0253000Y0349770D01*
X0253000Y0345370D01*
X0253000Y0345370D01*
X0253000Y0349770D01*
X0250054Y0349770D01*
X0249370Y0349662D01*
X0248711Y0349448D01*
X0248094Y0349133D01*
X0247534Y0348726D01*
X0246437Y0347284D02*
X0231085Y0347284D01*
X0231400Y0345686D02*
X0246000Y0345686D01*
X0246190Y0344087D02*
X0231346Y0344087D01*
X0230684Y0342489D02*
X0247059Y0342489D01*
X0248571Y0340890D02*
X0229323Y0340890D01*
X0229881Y0339292D02*
X0246119Y0339292D01*
X0245084Y0337693D02*
X0230916Y0337693D01*
X0231400Y0336095D02*
X0244600Y0336095D01*
X0244600Y0334496D02*
X0231400Y0334496D01*
X0230854Y0332898D02*
X0245146Y0332898D01*
X0246268Y0331299D02*
X0229731Y0331299D01*
X0229472Y0329701D02*
X0246528Y0329701D01*
X0245254Y0328102D02*
X0230746Y0328102D01*
X0223000Y0315370D02*
X0223000Y0305370D01*
X0228000Y0300370D01*
X0229435Y0289738D02*
X0234300Y0289738D01*
X0234300Y0288139D02*
X0230731Y0288139D01*
X0231393Y0286541D02*
X0234300Y0286541D01*
X0234300Y0284942D02*
X0231400Y0284942D01*
X0231039Y0283344D02*
X0233647Y0283344D01*
X0232962Y0281745D02*
X0230178Y0281745D01*
X0229026Y0280147D02*
X0232819Y0280147D01*
X0233147Y0278548D02*
X0230561Y0278548D01*
X0231224Y0276950D02*
X0234093Y0276950D01*
X0241700Y0292935D02*
X0294932Y0292935D01*
X0294932Y0294533D02*
X0241700Y0294533D01*
X0241700Y0296132D02*
X0294932Y0296132D01*
X0294932Y0297730D02*
X0241700Y0297730D01*
X0241700Y0299329D02*
X0294932Y0299329D01*
X0294932Y0300927D02*
X0241700Y0300927D01*
X0258951Y0310518D02*
X0266845Y0310518D01*
X0267772Y0312117D02*
X0260530Y0312117D01*
X0261193Y0313716D02*
X0269604Y0313716D01*
X0276396Y0313716D02*
X0294932Y0313716D01*
X0294932Y0315314D02*
X0261400Y0315314D01*
X0261239Y0316913D02*
X0294932Y0316913D01*
X0294932Y0318511D02*
X0260577Y0318511D01*
X0259063Y0320110D02*
X0294932Y0320110D01*
X0294932Y0321708D02*
X0260140Y0321708D01*
X0261023Y0323307D02*
X0294932Y0323307D01*
X0294932Y0324905D02*
X0261400Y0324905D01*
X0261400Y0326504D02*
X0294932Y0326504D01*
X0294932Y0328102D02*
X0260746Y0328102D01*
X0259472Y0329701D02*
X0294932Y0329701D01*
X0294932Y0331299D02*
X0259731Y0331299D01*
X0260854Y0332898D02*
X0294932Y0332898D01*
X0294932Y0334496D02*
X0261400Y0334496D01*
X0261400Y0336095D02*
X0294932Y0336095D01*
X0294932Y0337693D02*
X0260916Y0337693D01*
X0259881Y0339292D02*
X0294932Y0339292D01*
X0294932Y0340890D02*
X0257429Y0340890D01*
X0258941Y0342489D02*
X0294932Y0342489D01*
X0294932Y0344087D02*
X0259810Y0344087D01*
X0260000Y0345686D02*
X0294932Y0345686D01*
X0294932Y0347284D02*
X0259563Y0347284D01*
X0258251Y0348883D02*
X0294932Y0348883D01*
X0294932Y0312117D02*
X0286248Y0312117D01*
X0287847Y0310518D02*
X0294932Y0310518D01*
X0294932Y0308920D02*
X0288300Y0308920D01*
X0288300Y0307321D02*
X0294932Y0307321D01*
X0294932Y0305723D02*
X0288300Y0305723D01*
X0286750Y0304124D02*
X0294932Y0304124D01*
X0294932Y0302526D02*
X0277131Y0302526D01*
X0278701Y0304124D02*
X0279250Y0304124D01*
X0283000Y0304124D02*
X0283000Y0304124D01*
X0283000Y0305723D02*
X0283000Y0305723D01*
X0283000Y0307321D02*
X0283000Y0307321D01*
X0283000Y0308920D02*
X0283000Y0308920D01*
X0283000Y0310518D02*
X0283000Y0310518D01*
X0283000Y0312117D02*
X0283000Y0312117D01*
X0279752Y0312117D02*
X0278228Y0312117D01*
X0253000Y0345686D02*
X0253000Y0345686D01*
X0253000Y0347284D02*
X0253000Y0347284D01*
X0253000Y0348883D02*
X0253000Y0348883D01*
X0217049Y0310518D02*
X0210341Y0310518D01*
X0198803Y0289738D02*
X0197197Y0289738D01*
X0188803Y0289738D02*
X0187197Y0289738D01*
X0178803Y0289738D02*
X0177197Y0289738D01*
X0168803Y0289738D02*
X0167197Y0289738D01*
X0169985Y0284942D02*
X0153378Y0284942D01*
X0152982Y0283344D02*
X0168411Y0283344D01*
X0167749Y0281745D02*
X0151981Y0281745D01*
X0152800Y0280147D02*
X0153200Y0280147D01*
X0153200Y0278548D02*
X0152800Y0278548D01*
X0152800Y0276950D02*
X0153200Y0276950D01*
X0153200Y0275351D02*
X0171063Y0275351D01*
X0171100Y0273753D02*
X0158258Y0273753D01*
X0157462Y0272154D02*
X0171100Y0272154D01*
X0171100Y0270556D02*
X0155666Y0270556D01*
X0153200Y0270556D02*
X0152800Y0270556D01*
X0152800Y0272154D02*
X0153200Y0272154D01*
X0153200Y0273753D02*
X0152800Y0273753D01*
X0150334Y0270556D02*
X0147944Y0270556D01*
X0145548Y0268957D02*
X0171100Y0268957D01*
X0168815Y0276950D02*
X0158270Y0276950D01*
X0157489Y0278548D02*
X0167934Y0278548D01*
X0167622Y0280147D02*
X0155740Y0280147D01*
X0150260Y0280147D02*
X0149443Y0280147D01*
X0157197Y0289738D02*
X0158803Y0289738D01*
X0140451Y0268957D02*
X0135548Y0268957D01*
X0137944Y0270556D02*
X0138056Y0270556D01*
X0130451Y0268957D02*
X0125548Y0268957D01*
X0127944Y0270556D02*
X0128056Y0270556D01*
X0207918Y0235388D02*
X0212689Y0235388D01*
X0210402Y0236987D02*
X0209175Y0236987D01*
X0221357Y0256169D02*
X0294932Y0256169D01*
X0294932Y0254571D02*
X0224664Y0254571D01*
X0226379Y0252972D02*
X0294932Y0252972D01*
X0294932Y0251374D02*
X0227582Y0251374D01*
X0278490Y0206615D02*
X0294932Y0206615D01*
X0294932Y0205017D02*
X0279649Y0205017D01*
X0281005Y0203418D02*
X0294932Y0203418D01*
X0294932Y0201820D02*
X0281667Y0201820D01*
X0281743Y0200221D02*
X0294932Y0200221D01*
X0294932Y0198623D02*
X0281479Y0198623D01*
X0280792Y0197024D02*
X0294932Y0197024D01*
X0294932Y0195426D02*
X0279194Y0195426D01*
X0279844Y0208214D02*
X0294932Y0208214D01*
X0294932Y0209812D02*
X0280324Y0209812D01*
X0280215Y0211411D02*
X0294932Y0211411D01*
X0294932Y0213009D02*
X0279448Y0213009D01*
X0279361Y0230593D02*
X0294932Y0230593D01*
X0294932Y0232191D02*
X0280886Y0232191D01*
X0281548Y0233790D02*
X0294932Y0233790D01*
X0294932Y0235388D02*
X0281743Y0235388D01*
X0281598Y0236987D02*
X0294932Y0236987D01*
X0294932Y0238585D02*
X0280936Y0238585D01*
X0279482Y0240184D02*
X0294932Y0240184D01*
X0294932Y0241783D02*
X0280708Y0241783D01*
X0281444Y0243381D02*
X0294932Y0243381D01*
X0294932Y0244980D02*
X0281743Y0244980D01*
X0281702Y0246578D02*
X0294932Y0246578D01*
X0294932Y0248177D02*
X0281040Y0248177D01*
X0279733Y0249775D02*
X0294932Y0249775D01*
X0043086Y0291336D02*
X0042914Y0291336D01*
X0042914Y0290456D02*
X0042914Y0294942D01*
X0039869Y0294942D01*
X0039158Y0294829D01*
X0038473Y0294607D01*
X0037832Y0294280D01*
X0037250Y0293857D01*
X0036741Y0293348D01*
X0036318Y0292766D01*
X0035992Y0292125D01*
X0035769Y0291441D01*
X0035657Y0290730D01*
X0035657Y0290456D01*
X0042914Y0290456D01*
X0042914Y0292935D02*
X0043086Y0292935D01*
X0043086Y0294533D02*
X0042914Y0294533D01*
X0038329Y0294533D02*
X0021068Y0294533D01*
X0021068Y0292935D02*
X0036441Y0292935D01*
X0035753Y0291336D02*
X0021068Y0291336D01*
X0021068Y0289738D02*
X0035700Y0289738D01*
X0036234Y0288139D02*
X0021068Y0288139D01*
X0021068Y0286541D02*
X0037721Y0286541D01*
X0036355Y0284942D02*
X0021068Y0284942D01*
X0021068Y0283344D02*
X0034996Y0283344D01*
X0034334Y0281745D02*
X0021068Y0281745D01*
X0021068Y0280147D02*
X0034257Y0280147D01*
X0034519Y0278548D02*
X0021068Y0278548D01*
X0021068Y0276950D02*
X0035203Y0276950D01*
X0036764Y0275351D02*
X0021068Y0275351D01*
X0021068Y0273753D02*
X0035166Y0273753D01*
X0034504Y0272154D02*
X0021068Y0272154D01*
X0021068Y0270556D02*
X0034257Y0270556D01*
X0034350Y0268957D02*
X0021068Y0268957D01*
X0021068Y0267359D02*
X0035012Y0267359D01*
D22*
X0053000Y0222870D03*
X0053000Y0187870D03*
X0053000Y0152870D03*
X0043000Y0145370D03*
X0043000Y0120370D03*
X0058000Y0105370D03*
X0068000Y0095370D03*
X0088000Y0110370D03*
X0070500Y0125370D03*
X0128000Y0062870D03*
X0098000Y0052870D03*
X0180500Y0130370D03*
X0185500Y0117870D03*
X0188000Y0105370D03*
X0195500Y0107870D03*
X0230500Y0167870D03*
X0223000Y0190370D03*
X0225500Y0207870D03*
X0243000Y0245370D03*
X0238000Y0280370D03*
X0228000Y0300370D03*
X0238000Y0320370D03*
X0248000Y0300370D03*
X0278000Y0352870D03*
X0288000Y0352870D03*
X0268000Y0355370D03*
X0183000Y0225370D03*
X0165500Y0225370D03*
X0093000Y0317870D03*
X0080500Y0295370D03*
D23*
X0058000Y0105370D02*
X0068000Y0095370D01*
D24*
X0083000Y0110370D01*
X0088000Y0110370D01*
X0043000Y0120370D02*
X0043000Y0145370D01*
X0068000Y0260370D02*
X0078000Y0260370D01*
X0083000Y0265370D01*
X0128000Y0285370D02*
X0148000Y0285370D01*
X0173000Y0280370D02*
X0175500Y0277870D01*
X0175500Y0265370D01*
X0208000Y0315370D02*
X0223000Y0315370D01*
D25*
X0208000Y0315370D03*
X0173000Y0280370D03*
X0175500Y0265370D03*
X0148000Y0285370D03*
X0128000Y0285370D03*
X0083000Y0265370D03*
X0068000Y0260370D03*
D26*
X0068000Y0270370D03*
X0075500Y0277870D03*
X0165500Y0120370D03*
X0183000Y0100370D03*
D27*
X0183000Y0225370D02*
X0165500Y0225370D01*
X0075500Y0277870D02*
X0068000Y0270370D01*
D28*
X0180500Y0130370D02*
X0178000Y0127870D01*
X0178000Y0117870D01*
X0188000Y0107870D01*
X0188000Y0105370D01*
X0195500Y0107870D02*
X0185500Y0117870D01*
X0238000Y0280370D02*
X0238000Y0320370D01*
M02*
