G75*
%MOIN*%
%OFA0B0*%
%FSLAX25Y25*%
%IPPOS*%
%LPD*%
%AMOC8*
5,1,8,0,0,1.08239X$1,22.5*
%
%ADD10C,0.00000*%
D10*
X0035953Y0040370D02*
X0083197Y0040370D01*
X0083321Y0040368D01*
X0083444Y0040362D01*
X0083568Y0040353D01*
X0083690Y0040339D01*
X0083813Y0040322D01*
X0083935Y0040300D01*
X0084056Y0040275D01*
X0084176Y0040246D01*
X0084295Y0040214D01*
X0084414Y0040177D01*
X0084531Y0040137D01*
X0084646Y0040094D01*
X0084761Y0040046D01*
X0084873Y0039995D01*
X0084984Y0039941D01*
X0085094Y0039883D01*
X0085201Y0039822D01*
X0085307Y0039757D01*
X0085410Y0039689D01*
X0085511Y0039618D01*
X0085610Y0039544D01*
X0085707Y0039467D01*
X0085801Y0039386D01*
X0085892Y0039303D01*
X0085981Y0039217D01*
X0086067Y0039128D01*
X0086150Y0039037D01*
X0086231Y0038943D01*
X0086308Y0038846D01*
X0086382Y0038747D01*
X0086453Y0038646D01*
X0086521Y0038543D01*
X0086586Y0038437D01*
X0086647Y0038330D01*
X0086705Y0038220D01*
X0086759Y0038109D01*
X0086810Y0037997D01*
X0086858Y0037882D01*
X0086901Y0037767D01*
X0086941Y0037650D01*
X0086978Y0037531D01*
X0087010Y0037412D01*
X0087039Y0037292D01*
X0087064Y0037171D01*
X0087086Y0037049D01*
X0087103Y0036926D01*
X0087117Y0036804D01*
X0087126Y0036680D01*
X0087132Y0036557D01*
X0087134Y0036433D01*
X0087134Y0020685D01*
X0087140Y0020209D01*
X0087157Y0019734D01*
X0087186Y0019259D01*
X0087226Y0018785D01*
X0087278Y0018312D01*
X0087341Y0017841D01*
X0087415Y0017371D01*
X0087501Y0016903D01*
X0087598Y0016437D01*
X0087706Y0015974D01*
X0087825Y0015514D01*
X0087956Y0015056D01*
X0088097Y0014602D01*
X0088250Y0014151D01*
X0088413Y0013705D01*
X0088587Y0013262D01*
X0088772Y0012824D01*
X0088967Y0012390D01*
X0089173Y0011961D01*
X0089389Y0011537D01*
X0089615Y0011118D01*
X0089851Y0010705D01*
X0090097Y0010298D01*
X0090353Y0009897D01*
X0090619Y0009503D01*
X0090894Y0009114D01*
X0091178Y0008733D01*
X0091471Y0008359D01*
X0091773Y0007991D01*
X0092085Y0007631D01*
X0092404Y0007279D01*
X0092732Y0006935D01*
X0093069Y0006598D01*
X0093413Y0006270D01*
X0093765Y0005951D01*
X0094125Y0005639D01*
X0094493Y0005337D01*
X0094867Y0005044D01*
X0095248Y0004760D01*
X0095637Y0004485D01*
X0096031Y0004219D01*
X0096432Y0003963D01*
X0096839Y0003717D01*
X0097252Y0003481D01*
X0097671Y0003255D01*
X0098095Y0003039D01*
X0098524Y0002833D01*
X0098958Y0002638D01*
X0099396Y0002453D01*
X0099839Y0002279D01*
X0100285Y0002116D01*
X0100736Y0001963D01*
X0101190Y0001822D01*
X0101648Y0001691D01*
X0102108Y0001572D01*
X0102571Y0001464D01*
X0103037Y0001367D01*
X0103505Y0001281D01*
X0103975Y0001207D01*
X0104446Y0001144D01*
X0104919Y0001092D01*
X0105393Y0001052D01*
X0105868Y0001023D01*
X0106343Y0001006D01*
X0106819Y0001000D01*
X0142252Y0001000D01*
X0142376Y0001002D01*
X0142499Y0001008D01*
X0142623Y0001017D01*
X0142745Y0001031D01*
X0142868Y0001048D01*
X0142990Y0001070D01*
X0143111Y0001095D01*
X0143231Y0001124D01*
X0143350Y0001156D01*
X0143469Y0001193D01*
X0143586Y0001233D01*
X0143701Y0001276D01*
X0143816Y0001324D01*
X0143928Y0001375D01*
X0144039Y0001429D01*
X0144149Y0001487D01*
X0144256Y0001548D01*
X0144362Y0001613D01*
X0144465Y0001681D01*
X0144566Y0001752D01*
X0144665Y0001826D01*
X0144762Y0001903D01*
X0144856Y0001984D01*
X0144947Y0002067D01*
X0145036Y0002153D01*
X0145122Y0002242D01*
X0145205Y0002333D01*
X0145286Y0002427D01*
X0145363Y0002524D01*
X0145437Y0002623D01*
X0145508Y0002724D01*
X0145576Y0002827D01*
X0145641Y0002933D01*
X0145702Y0003040D01*
X0145760Y0003150D01*
X0145814Y0003261D01*
X0145865Y0003373D01*
X0145913Y0003488D01*
X0145956Y0003603D01*
X0145996Y0003720D01*
X0146033Y0003839D01*
X0146065Y0003958D01*
X0146094Y0004078D01*
X0146119Y0004199D01*
X0146141Y0004321D01*
X0146158Y0004444D01*
X0146172Y0004566D01*
X0146181Y0004690D01*
X0146187Y0004813D01*
X0146189Y0004937D01*
X0146189Y0024622D01*
X0146191Y0024746D01*
X0146197Y0024869D01*
X0146206Y0024993D01*
X0146220Y0025115D01*
X0146237Y0025238D01*
X0146259Y0025360D01*
X0146284Y0025481D01*
X0146313Y0025601D01*
X0146345Y0025720D01*
X0146382Y0025839D01*
X0146422Y0025956D01*
X0146465Y0026071D01*
X0146513Y0026186D01*
X0146564Y0026298D01*
X0146618Y0026409D01*
X0146676Y0026519D01*
X0146737Y0026626D01*
X0146802Y0026732D01*
X0146870Y0026835D01*
X0146941Y0026936D01*
X0147015Y0027035D01*
X0147092Y0027132D01*
X0147173Y0027226D01*
X0147256Y0027317D01*
X0147342Y0027406D01*
X0147431Y0027492D01*
X0147522Y0027575D01*
X0147616Y0027656D01*
X0147713Y0027733D01*
X0147812Y0027807D01*
X0147913Y0027878D01*
X0148016Y0027946D01*
X0148122Y0028011D01*
X0148229Y0028072D01*
X0148339Y0028130D01*
X0148450Y0028184D01*
X0148562Y0028235D01*
X0148677Y0028283D01*
X0148792Y0028326D01*
X0148909Y0028366D01*
X0149028Y0028403D01*
X0149147Y0028435D01*
X0149267Y0028464D01*
X0149388Y0028489D01*
X0149510Y0028511D01*
X0149633Y0028528D01*
X0149755Y0028542D01*
X0149879Y0028551D01*
X0150002Y0028557D01*
X0150126Y0028559D01*
X0165874Y0028559D01*
X0165998Y0028557D01*
X0166121Y0028551D01*
X0166245Y0028542D01*
X0166367Y0028528D01*
X0166490Y0028511D01*
X0166612Y0028489D01*
X0166733Y0028464D01*
X0166853Y0028435D01*
X0166972Y0028403D01*
X0167091Y0028366D01*
X0167208Y0028326D01*
X0167323Y0028283D01*
X0167438Y0028235D01*
X0167550Y0028184D01*
X0167661Y0028130D01*
X0167771Y0028072D01*
X0167878Y0028011D01*
X0167984Y0027946D01*
X0168087Y0027878D01*
X0168188Y0027807D01*
X0168287Y0027733D01*
X0168384Y0027656D01*
X0168478Y0027575D01*
X0168569Y0027492D01*
X0168658Y0027406D01*
X0168744Y0027317D01*
X0168827Y0027226D01*
X0168908Y0027132D01*
X0168985Y0027035D01*
X0169059Y0026936D01*
X0169130Y0026835D01*
X0169198Y0026732D01*
X0169263Y0026626D01*
X0169324Y0026519D01*
X0169382Y0026409D01*
X0169436Y0026298D01*
X0169487Y0026186D01*
X0169535Y0026071D01*
X0169578Y0025956D01*
X0169618Y0025839D01*
X0169655Y0025720D01*
X0169687Y0025601D01*
X0169716Y0025481D01*
X0169741Y0025360D01*
X0169763Y0025238D01*
X0169780Y0025115D01*
X0169794Y0024993D01*
X0169803Y0024869D01*
X0169809Y0024746D01*
X0169811Y0024622D01*
X0169811Y0004937D01*
X0169813Y0004813D01*
X0169819Y0004690D01*
X0169828Y0004566D01*
X0169842Y0004444D01*
X0169859Y0004321D01*
X0169881Y0004199D01*
X0169906Y0004078D01*
X0169935Y0003958D01*
X0169967Y0003839D01*
X0170004Y0003720D01*
X0170044Y0003603D01*
X0170087Y0003488D01*
X0170135Y0003373D01*
X0170186Y0003261D01*
X0170240Y0003150D01*
X0170298Y0003040D01*
X0170359Y0002933D01*
X0170424Y0002827D01*
X0170492Y0002724D01*
X0170563Y0002623D01*
X0170637Y0002524D01*
X0170714Y0002427D01*
X0170795Y0002333D01*
X0170878Y0002242D01*
X0170964Y0002153D01*
X0171053Y0002067D01*
X0171144Y0001984D01*
X0171238Y0001903D01*
X0171335Y0001826D01*
X0171434Y0001752D01*
X0171535Y0001681D01*
X0171638Y0001613D01*
X0171744Y0001548D01*
X0171851Y0001487D01*
X0171961Y0001429D01*
X0172072Y0001375D01*
X0172184Y0001324D01*
X0172299Y0001276D01*
X0172414Y0001233D01*
X0172531Y0001193D01*
X0172650Y0001156D01*
X0172769Y0001124D01*
X0172889Y0001095D01*
X0173010Y0001070D01*
X0173132Y0001048D01*
X0173255Y0001031D01*
X0173377Y0001017D01*
X0173501Y0001008D01*
X0173624Y0001002D01*
X0173748Y0001000D01*
X0270205Y0001000D01*
X0261937Y0020685D02*
X0261939Y0020843D01*
X0261945Y0021001D01*
X0261955Y0021159D01*
X0261969Y0021317D01*
X0261987Y0021474D01*
X0262008Y0021631D01*
X0262034Y0021787D01*
X0262064Y0021943D01*
X0262097Y0022098D01*
X0262135Y0022251D01*
X0262176Y0022404D01*
X0262221Y0022556D01*
X0262270Y0022707D01*
X0262323Y0022856D01*
X0262379Y0023004D01*
X0262439Y0023150D01*
X0262503Y0023295D01*
X0262571Y0023438D01*
X0262642Y0023580D01*
X0262716Y0023720D01*
X0262794Y0023857D01*
X0262876Y0023993D01*
X0262960Y0024127D01*
X0263049Y0024258D01*
X0263140Y0024387D01*
X0263235Y0024514D01*
X0263332Y0024639D01*
X0263433Y0024761D01*
X0263537Y0024880D01*
X0263644Y0024997D01*
X0263754Y0025111D01*
X0263867Y0025222D01*
X0263982Y0025331D01*
X0264100Y0025436D01*
X0264221Y0025538D01*
X0264344Y0025638D01*
X0264470Y0025734D01*
X0264598Y0025827D01*
X0264728Y0025917D01*
X0264861Y0026003D01*
X0264996Y0026087D01*
X0265132Y0026166D01*
X0265271Y0026243D01*
X0265412Y0026315D01*
X0265554Y0026385D01*
X0265698Y0026450D01*
X0265844Y0026512D01*
X0265991Y0026570D01*
X0266140Y0026625D01*
X0266290Y0026676D01*
X0266441Y0026723D01*
X0266593Y0026766D01*
X0266746Y0026805D01*
X0266901Y0026841D01*
X0267056Y0026872D01*
X0267212Y0026900D01*
X0267368Y0026924D01*
X0267525Y0026944D01*
X0267683Y0026960D01*
X0267840Y0026972D01*
X0267999Y0026980D01*
X0268157Y0026984D01*
X0268315Y0026984D01*
X0268473Y0026980D01*
X0268632Y0026972D01*
X0268789Y0026960D01*
X0268947Y0026944D01*
X0269104Y0026924D01*
X0269260Y0026900D01*
X0269416Y0026872D01*
X0269571Y0026841D01*
X0269726Y0026805D01*
X0269879Y0026766D01*
X0270031Y0026723D01*
X0270182Y0026676D01*
X0270332Y0026625D01*
X0270481Y0026570D01*
X0270628Y0026512D01*
X0270774Y0026450D01*
X0270918Y0026385D01*
X0271060Y0026315D01*
X0271201Y0026243D01*
X0271340Y0026166D01*
X0271476Y0026087D01*
X0271611Y0026003D01*
X0271744Y0025917D01*
X0271874Y0025827D01*
X0272002Y0025734D01*
X0272128Y0025638D01*
X0272251Y0025538D01*
X0272372Y0025436D01*
X0272490Y0025331D01*
X0272605Y0025222D01*
X0272718Y0025111D01*
X0272828Y0024997D01*
X0272935Y0024880D01*
X0273039Y0024761D01*
X0273140Y0024639D01*
X0273237Y0024514D01*
X0273332Y0024387D01*
X0273423Y0024258D01*
X0273512Y0024127D01*
X0273596Y0023993D01*
X0273678Y0023857D01*
X0273756Y0023720D01*
X0273830Y0023580D01*
X0273901Y0023438D01*
X0273969Y0023295D01*
X0274033Y0023150D01*
X0274093Y0023004D01*
X0274149Y0022856D01*
X0274202Y0022707D01*
X0274251Y0022556D01*
X0274296Y0022404D01*
X0274337Y0022251D01*
X0274375Y0022098D01*
X0274408Y0021943D01*
X0274438Y0021787D01*
X0274464Y0021631D01*
X0274485Y0021474D01*
X0274503Y0021317D01*
X0274517Y0021159D01*
X0274527Y0021001D01*
X0274533Y0020843D01*
X0274535Y0020685D01*
X0274533Y0020527D01*
X0274527Y0020369D01*
X0274517Y0020211D01*
X0274503Y0020053D01*
X0274485Y0019896D01*
X0274464Y0019739D01*
X0274438Y0019583D01*
X0274408Y0019427D01*
X0274375Y0019272D01*
X0274337Y0019119D01*
X0274296Y0018966D01*
X0274251Y0018814D01*
X0274202Y0018663D01*
X0274149Y0018514D01*
X0274093Y0018366D01*
X0274033Y0018220D01*
X0273969Y0018075D01*
X0273901Y0017932D01*
X0273830Y0017790D01*
X0273756Y0017650D01*
X0273678Y0017513D01*
X0273596Y0017377D01*
X0273512Y0017243D01*
X0273423Y0017112D01*
X0273332Y0016983D01*
X0273237Y0016856D01*
X0273140Y0016731D01*
X0273039Y0016609D01*
X0272935Y0016490D01*
X0272828Y0016373D01*
X0272718Y0016259D01*
X0272605Y0016148D01*
X0272490Y0016039D01*
X0272372Y0015934D01*
X0272251Y0015832D01*
X0272128Y0015732D01*
X0272002Y0015636D01*
X0271874Y0015543D01*
X0271744Y0015453D01*
X0271611Y0015367D01*
X0271476Y0015283D01*
X0271340Y0015204D01*
X0271201Y0015127D01*
X0271060Y0015055D01*
X0270918Y0014985D01*
X0270774Y0014920D01*
X0270628Y0014858D01*
X0270481Y0014800D01*
X0270332Y0014745D01*
X0270182Y0014694D01*
X0270031Y0014647D01*
X0269879Y0014604D01*
X0269726Y0014565D01*
X0269571Y0014529D01*
X0269416Y0014498D01*
X0269260Y0014470D01*
X0269104Y0014446D01*
X0268947Y0014426D01*
X0268789Y0014410D01*
X0268632Y0014398D01*
X0268473Y0014390D01*
X0268315Y0014386D01*
X0268157Y0014386D01*
X0267999Y0014390D01*
X0267840Y0014398D01*
X0267683Y0014410D01*
X0267525Y0014426D01*
X0267368Y0014446D01*
X0267212Y0014470D01*
X0267056Y0014498D01*
X0266901Y0014529D01*
X0266746Y0014565D01*
X0266593Y0014604D01*
X0266441Y0014647D01*
X0266290Y0014694D01*
X0266140Y0014745D01*
X0265991Y0014800D01*
X0265844Y0014858D01*
X0265698Y0014920D01*
X0265554Y0014985D01*
X0265412Y0015055D01*
X0265271Y0015127D01*
X0265132Y0015204D01*
X0264996Y0015283D01*
X0264861Y0015367D01*
X0264728Y0015453D01*
X0264598Y0015543D01*
X0264470Y0015636D01*
X0264344Y0015732D01*
X0264221Y0015832D01*
X0264100Y0015934D01*
X0263982Y0016039D01*
X0263867Y0016148D01*
X0263754Y0016259D01*
X0263644Y0016373D01*
X0263537Y0016490D01*
X0263433Y0016609D01*
X0263332Y0016731D01*
X0263235Y0016856D01*
X0263140Y0016983D01*
X0263049Y0017112D01*
X0262960Y0017243D01*
X0262876Y0017377D01*
X0262794Y0017513D01*
X0262716Y0017650D01*
X0262642Y0017790D01*
X0262571Y0017932D01*
X0262503Y0018075D01*
X0262439Y0018220D01*
X0262379Y0018366D01*
X0262323Y0018514D01*
X0262270Y0018663D01*
X0262221Y0018814D01*
X0262176Y0018966D01*
X0262135Y0019119D01*
X0262097Y0019272D01*
X0262064Y0019427D01*
X0262034Y0019583D01*
X0262008Y0019739D01*
X0261987Y0019896D01*
X0261969Y0020053D01*
X0261955Y0020211D01*
X0261945Y0020369D01*
X0261939Y0020527D01*
X0261937Y0020685D01*
X0270205Y0001000D02*
X0270919Y0001009D01*
X0271632Y0001034D01*
X0272344Y0001078D01*
X0273055Y0001138D01*
X0273764Y0001215D01*
X0274471Y0001310D01*
X0275176Y0001421D01*
X0275878Y0001550D01*
X0276577Y0001696D01*
X0277272Y0001858D01*
X0277962Y0002037D01*
X0278648Y0002233D01*
X0279330Y0002445D01*
X0280006Y0002674D01*
X0280676Y0002919D01*
X0281340Y0003180D01*
X0281997Y0003457D01*
X0282648Y0003750D01*
X0283292Y0004058D01*
X0283927Y0004382D01*
X0284555Y0004721D01*
X0285175Y0005076D01*
X0285785Y0005445D01*
X0286387Y0005829D01*
X0286979Y0006227D01*
X0287561Y0006639D01*
X0288133Y0007066D01*
X0288695Y0007506D01*
X0289246Y0007959D01*
X0289786Y0008426D01*
X0290314Y0008906D01*
X0290831Y0009398D01*
X0291335Y0009902D01*
X0291827Y0010419D01*
X0292307Y0010947D01*
X0292774Y0011487D01*
X0293227Y0012038D01*
X0293667Y0012600D01*
X0294094Y0013172D01*
X0294506Y0013754D01*
X0294904Y0014346D01*
X0295288Y0014948D01*
X0295657Y0015558D01*
X0296012Y0016178D01*
X0296351Y0016806D01*
X0296675Y0017441D01*
X0296983Y0018085D01*
X0297276Y0018736D01*
X0297553Y0019393D01*
X0297814Y0020057D01*
X0298059Y0020727D01*
X0298288Y0021403D01*
X0298500Y0022085D01*
X0298696Y0022771D01*
X0298875Y0023461D01*
X0299037Y0024156D01*
X0299183Y0024855D01*
X0299312Y0025557D01*
X0299423Y0026262D01*
X0299518Y0026969D01*
X0299595Y0027678D01*
X0299655Y0028389D01*
X0299699Y0029101D01*
X0299724Y0029814D01*
X0299733Y0030528D01*
X0299732Y0030528D02*
X0299732Y0373047D01*
X0299733Y0373047D02*
X0299724Y0373761D01*
X0299699Y0374474D01*
X0299655Y0375186D01*
X0299595Y0375897D01*
X0299518Y0376606D01*
X0299423Y0377313D01*
X0299312Y0378018D01*
X0299183Y0378720D01*
X0299037Y0379419D01*
X0298875Y0380114D01*
X0298696Y0380804D01*
X0298500Y0381490D01*
X0298288Y0382172D01*
X0298059Y0382848D01*
X0297814Y0383518D01*
X0297553Y0384182D01*
X0297276Y0384839D01*
X0296983Y0385490D01*
X0296675Y0386134D01*
X0296351Y0386769D01*
X0296012Y0387397D01*
X0295657Y0388017D01*
X0295288Y0388627D01*
X0294904Y0389229D01*
X0294506Y0389821D01*
X0294094Y0390403D01*
X0293667Y0390975D01*
X0293227Y0391537D01*
X0292774Y0392088D01*
X0292307Y0392628D01*
X0291827Y0393156D01*
X0291335Y0393673D01*
X0290831Y0394177D01*
X0290314Y0394669D01*
X0289786Y0395149D01*
X0289246Y0395616D01*
X0288695Y0396069D01*
X0288133Y0396509D01*
X0287561Y0396936D01*
X0286979Y0397348D01*
X0286387Y0397746D01*
X0285785Y0398130D01*
X0285175Y0398499D01*
X0284555Y0398854D01*
X0283927Y0399193D01*
X0283292Y0399517D01*
X0282648Y0399825D01*
X0281997Y0400118D01*
X0281340Y0400395D01*
X0280676Y0400656D01*
X0280006Y0400901D01*
X0279330Y0401130D01*
X0278648Y0401342D01*
X0277962Y0401538D01*
X0277272Y0401717D01*
X0276577Y0401879D01*
X0275878Y0402025D01*
X0275176Y0402154D01*
X0274471Y0402265D01*
X0273764Y0402360D01*
X0273055Y0402437D01*
X0272344Y0402497D01*
X0271632Y0402541D01*
X0270919Y0402566D01*
X0270205Y0402575D01*
X0045795Y0402575D01*
X0041465Y0382890D02*
X0041467Y0383048D01*
X0041473Y0383206D01*
X0041483Y0383364D01*
X0041497Y0383522D01*
X0041515Y0383679D01*
X0041536Y0383836D01*
X0041562Y0383992D01*
X0041592Y0384148D01*
X0041625Y0384303D01*
X0041663Y0384456D01*
X0041704Y0384609D01*
X0041749Y0384761D01*
X0041798Y0384912D01*
X0041851Y0385061D01*
X0041907Y0385209D01*
X0041967Y0385355D01*
X0042031Y0385500D01*
X0042099Y0385643D01*
X0042170Y0385785D01*
X0042244Y0385925D01*
X0042322Y0386062D01*
X0042404Y0386198D01*
X0042488Y0386332D01*
X0042577Y0386463D01*
X0042668Y0386592D01*
X0042763Y0386719D01*
X0042860Y0386844D01*
X0042961Y0386966D01*
X0043065Y0387085D01*
X0043172Y0387202D01*
X0043282Y0387316D01*
X0043395Y0387427D01*
X0043510Y0387536D01*
X0043628Y0387641D01*
X0043749Y0387743D01*
X0043872Y0387843D01*
X0043998Y0387939D01*
X0044126Y0388032D01*
X0044256Y0388122D01*
X0044389Y0388208D01*
X0044524Y0388292D01*
X0044660Y0388371D01*
X0044799Y0388448D01*
X0044940Y0388520D01*
X0045082Y0388590D01*
X0045226Y0388655D01*
X0045372Y0388717D01*
X0045519Y0388775D01*
X0045668Y0388830D01*
X0045818Y0388881D01*
X0045969Y0388928D01*
X0046121Y0388971D01*
X0046274Y0389010D01*
X0046429Y0389046D01*
X0046584Y0389077D01*
X0046740Y0389105D01*
X0046896Y0389129D01*
X0047053Y0389149D01*
X0047211Y0389165D01*
X0047368Y0389177D01*
X0047527Y0389185D01*
X0047685Y0389189D01*
X0047843Y0389189D01*
X0048001Y0389185D01*
X0048160Y0389177D01*
X0048317Y0389165D01*
X0048475Y0389149D01*
X0048632Y0389129D01*
X0048788Y0389105D01*
X0048944Y0389077D01*
X0049099Y0389046D01*
X0049254Y0389010D01*
X0049407Y0388971D01*
X0049559Y0388928D01*
X0049710Y0388881D01*
X0049860Y0388830D01*
X0050009Y0388775D01*
X0050156Y0388717D01*
X0050302Y0388655D01*
X0050446Y0388590D01*
X0050588Y0388520D01*
X0050729Y0388448D01*
X0050868Y0388371D01*
X0051004Y0388292D01*
X0051139Y0388208D01*
X0051272Y0388122D01*
X0051402Y0388032D01*
X0051530Y0387939D01*
X0051656Y0387843D01*
X0051779Y0387743D01*
X0051900Y0387641D01*
X0052018Y0387536D01*
X0052133Y0387427D01*
X0052246Y0387316D01*
X0052356Y0387202D01*
X0052463Y0387085D01*
X0052567Y0386966D01*
X0052668Y0386844D01*
X0052765Y0386719D01*
X0052860Y0386592D01*
X0052951Y0386463D01*
X0053040Y0386332D01*
X0053124Y0386198D01*
X0053206Y0386062D01*
X0053284Y0385925D01*
X0053358Y0385785D01*
X0053429Y0385643D01*
X0053497Y0385500D01*
X0053561Y0385355D01*
X0053621Y0385209D01*
X0053677Y0385061D01*
X0053730Y0384912D01*
X0053779Y0384761D01*
X0053824Y0384609D01*
X0053865Y0384456D01*
X0053903Y0384303D01*
X0053936Y0384148D01*
X0053966Y0383992D01*
X0053992Y0383836D01*
X0054013Y0383679D01*
X0054031Y0383522D01*
X0054045Y0383364D01*
X0054055Y0383206D01*
X0054061Y0383048D01*
X0054063Y0382890D01*
X0054061Y0382732D01*
X0054055Y0382574D01*
X0054045Y0382416D01*
X0054031Y0382258D01*
X0054013Y0382101D01*
X0053992Y0381944D01*
X0053966Y0381788D01*
X0053936Y0381632D01*
X0053903Y0381477D01*
X0053865Y0381324D01*
X0053824Y0381171D01*
X0053779Y0381019D01*
X0053730Y0380868D01*
X0053677Y0380719D01*
X0053621Y0380571D01*
X0053561Y0380425D01*
X0053497Y0380280D01*
X0053429Y0380137D01*
X0053358Y0379995D01*
X0053284Y0379855D01*
X0053206Y0379718D01*
X0053124Y0379582D01*
X0053040Y0379448D01*
X0052951Y0379317D01*
X0052860Y0379188D01*
X0052765Y0379061D01*
X0052668Y0378936D01*
X0052567Y0378814D01*
X0052463Y0378695D01*
X0052356Y0378578D01*
X0052246Y0378464D01*
X0052133Y0378353D01*
X0052018Y0378244D01*
X0051900Y0378139D01*
X0051779Y0378037D01*
X0051656Y0377937D01*
X0051530Y0377841D01*
X0051402Y0377748D01*
X0051272Y0377658D01*
X0051139Y0377572D01*
X0051004Y0377488D01*
X0050868Y0377409D01*
X0050729Y0377332D01*
X0050588Y0377260D01*
X0050446Y0377190D01*
X0050302Y0377125D01*
X0050156Y0377063D01*
X0050009Y0377005D01*
X0049860Y0376950D01*
X0049710Y0376899D01*
X0049559Y0376852D01*
X0049407Y0376809D01*
X0049254Y0376770D01*
X0049099Y0376734D01*
X0048944Y0376703D01*
X0048788Y0376675D01*
X0048632Y0376651D01*
X0048475Y0376631D01*
X0048317Y0376615D01*
X0048160Y0376603D01*
X0048001Y0376595D01*
X0047843Y0376591D01*
X0047685Y0376591D01*
X0047527Y0376595D01*
X0047368Y0376603D01*
X0047211Y0376615D01*
X0047053Y0376631D01*
X0046896Y0376651D01*
X0046740Y0376675D01*
X0046584Y0376703D01*
X0046429Y0376734D01*
X0046274Y0376770D01*
X0046121Y0376809D01*
X0045969Y0376852D01*
X0045818Y0376899D01*
X0045668Y0376950D01*
X0045519Y0377005D01*
X0045372Y0377063D01*
X0045226Y0377125D01*
X0045082Y0377190D01*
X0044940Y0377260D01*
X0044799Y0377332D01*
X0044660Y0377409D01*
X0044524Y0377488D01*
X0044389Y0377572D01*
X0044256Y0377658D01*
X0044126Y0377748D01*
X0043998Y0377841D01*
X0043872Y0377937D01*
X0043749Y0378037D01*
X0043628Y0378139D01*
X0043510Y0378244D01*
X0043395Y0378353D01*
X0043282Y0378464D01*
X0043172Y0378578D01*
X0043065Y0378695D01*
X0042961Y0378814D01*
X0042860Y0378936D01*
X0042763Y0379061D01*
X0042668Y0379188D01*
X0042577Y0379317D01*
X0042488Y0379448D01*
X0042404Y0379582D01*
X0042322Y0379718D01*
X0042244Y0379855D01*
X0042170Y0379995D01*
X0042099Y0380137D01*
X0042031Y0380280D01*
X0041967Y0380425D01*
X0041907Y0380571D01*
X0041851Y0380719D01*
X0041798Y0380868D01*
X0041749Y0381019D01*
X0041704Y0381171D01*
X0041663Y0381324D01*
X0041625Y0381477D01*
X0041592Y0381632D01*
X0041562Y0381788D01*
X0041536Y0381944D01*
X0041515Y0382101D01*
X0041497Y0382258D01*
X0041483Y0382416D01*
X0041473Y0382574D01*
X0041467Y0382732D01*
X0041465Y0382890D01*
X0045795Y0402575D02*
X0045081Y0402566D01*
X0044368Y0402541D01*
X0043656Y0402497D01*
X0042945Y0402437D01*
X0042236Y0402360D01*
X0041529Y0402265D01*
X0040824Y0402154D01*
X0040122Y0402025D01*
X0039423Y0401879D01*
X0038728Y0401717D01*
X0038038Y0401538D01*
X0037352Y0401342D01*
X0036670Y0401130D01*
X0035994Y0400901D01*
X0035324Y0400656D01*
X0034660Y0400395D01*
X0034003Y0400118D01*
X0033352Y0399825D01*
X0032708Y0399517D01*
X0032073Y0399193D01*
X0031445Y0398854D01*
X0030825Y0398499D01*
X0030215Y0398130D01*
X0029613Y0397746D01*
X0029021Y0397348D01*
X0028439Y0396936D01*
X0027867Y0396509D01*
X0027305Y0396069D01*
X0026754Y0395616D01*
X0026214Y0395149D01*
X0025686Y0394669D01*
X0025169Y0394177D01*
X0024665Y0393673D01*
X0024173Y0393156D01*
X0023693Y0392628D01*
X0023226Y0392088D01*
X0022773Y0391537D01*
X0022333Y0390975D01*
X0021906Y0390403D01*
X0021494Y0389821D01*
X0021096Y0389229D01*
X0020712Y0388627D01*
X0020343Y0388017D01*
X0019988Y0387397D01*
X0019649Y0386769D01*
X0019325Y0386134D01*
X0019017Y0385490D01*
X0018724Y0384839D01*
X0018447Y0384182D01*
X0018186Y0383518D01*
X0017941Y0382848D01*
X0017712Y0382172D01*
X0017500Y0381490D01*
X0017304Y0380804D01*
X0017125Y0380114D01*
X0016963Y0379419D01*
X0016817Y0378720D01*
X0016688Y0378018D01*
X0016577Y0377313D01*
X0016482Y0376606D01*
X0016405Y0375897D01*
X0016345Y0375186D01*
X0016301Y0374474D01*
X0016276Y0373761D01*
X0016267Y0373047D01*
X0016268Y0373047D02*
X0016268Y0142732D01*
X0016270Y0142608D01*
X0016276Y0142485D01*
X0016285Y0142361D01*
X0016299Y0142239D01*
X0016316Y0142116D01*
X0016338Y0141994D01*
X0016363Y0141873D01*
X0016392Y0141753D01*
X0016424Y0141634D01*
X0016461Y0141515D01*
X0016501Y0141398D01*
X0016544Y0141283D01*
X0016592Y0141168D01*
X0016643Y0141056D01*
X0016697Y0140945D01*
X0016755Y0140835D01*
X0016816Y0140728D01*
X0016881Y0140622D01*
X0016949Y0140519D01*
X0017020Y0140418D01*
X0017094Y0140319D01*
X0017171Y0140222D01*
X0017252Y0140128D01*
X0017335Y0140037D01*
X0017421Y0139948D01*
X0017510Y0139862D01*
X0017601Y0139779D01*
X0017695Y0139698D01*
X0017792Y0139621D01*
X0017891Y0139547D01*
X0017992Y0139476D01*
X0018095Y0139408D01*
X0018201Y0139343D01*
X0018308Y0139282D01*
X0018418Y0139224D01*
X0018529Y0139170D01*
X0018641Y0139119D01*
X0018756Y0139071D01*
X0018871Y0139028D01*
X0018988Y0138988D01*
X0019107Y0138951D01*
X0019226Y0138919D01*
X0019346Y0138890D01*
X0019467Y0138865D01*
X0019589Y0138843D01*
X0019712Y0138826D01*
X0019834Y0138812D01*
X0019958Y0138803D01*
X0020081Y0138797D01*
X0020205Y0138795D01*
X0020259Y0138793D01*
X0020312Y0138788D01*
X0020365Y0138779D01*
X0020417Y0138766D01*
X0020469Y0138750D01*
X0020519Y0138730D01*
X0020567Y0138707D01*
X0020614Y0138680D01*
X0020659Y0138651D01*
X0020702Y0138618D01*
X0020742Y0138583D01*
X0020780Y0138545D01*
X0020815Y0138505D01*
X0020848Y0138462D01*
X0020877Y0138417D01*
X0020904Y0138370D01*
X0020927Y0138322D01*
X0020947Y0138272D01*
X0020963Y0138220D01*
X0020976Y0138168D01*
X0020985Y0138115D01*
X0020990Y0138062D01*
X0020992Y0138008D01*
X0020992Y0100213D01*
X0020990Y0100159D01*
X0020985Y0100106D01*
X0020976Y0100053D01*
X0020963Y0100001D01*
X0020947Y0099949D01*
X0020927Y0099899D01*
X0020904Y0099851D01*
X0020877Y0099804D01*
X0020848Y0099759D01*
X0020815Y0099716D01*
X0020780Y0099676D01*
X0020742Y0099638D01*
X0020702Y0099603D01*
X0020659Y0099570D01*
X0020614Y0099541D01*
X0020567Y0099514D01*
X0020519Y0099491D01*
X0020469Y0099471D01*
X0020417Y0099455D01*
X0020365Y0099442D01*
X0020312Y0099433D01*
X0020259Y0099428D01*
X0020205Y0099426D01*
X0020205Y0099425D02*
X0020081Y0099423D01*
X0019958Y0099417D01*
X0019834Y0099408D01*
X0019712Y0099394D01*
X0019589Y0099377D01*
X0019467Y0099355D01*
X0019346Y0099330D01*
X0019226Y0099301D01*
X0019107Y0099269D01*
X0018988Y0099232D01*
X0018871Y0099192D01*
X0018756Y0099149D01*
X0018641Y0099101D01*
X0018529Y0099050D01*
X0018418Y0098996D01*
X0018308Y0098938D01*
X0018201Y0098877D01*
X0018095Y0098812D01*
X0017992Y0098744D01*
X0017891Y0098673D01*
X0017792Y0098599D01*
X0017695Y0098522D01*
X0017601Y0098441D01*
X0017510Y0098358D01*
X0017421Y0098272D01*
X0017335Y0098183D01*
X0017252Y0098092D01*
X0017171Y0097998D01*
X0017094Y0097901D01*
X0017020Y0097802D01*
X0016949Y0097701D01*
X0016881Y0097598D01*
X0016816Y0097492D01*
X0016755Y0097385D01*
X0016697Y0097275D01*
X0016643Y0097164D01*
X0016592Y0097052D01*
X0016544Y0096937D01*
X0016501Y0096822D01*
X0016461Y0096705D01*
X0016424Y0096586D01*
X0016392Y0096467D01*
X0016363Y0096347D01*
X0016338Y0096226D01*
X0016316Y0096104D01*
X0016299Y0095981D01*
X0016285Y0095859D01*
X0016276Y0095735D01*
X0016270Y0095612D01*
X0016268Y0095488D01*
X0016268Y0060055D01*
X0016274Y0059579D01*
X0016291Y0059104D01*
X0016320Y0058629D01*
X0016360Y0058155D01*
X0016412Y0057682D01*
X0016475Y0057211D01*
X0016549Y0056741D01*
X0016635Y0056273D01*
X0016732Y0055807D01*
X0016840Y0055344D01*
X0016959Y0054884D01*
X0017090Y0054426D01*
X0017231Y0053972D01*
X0017384Y0053521D01*
X0017547Y0053075D01*
X0017721Y0052632D01*
X0017906Y0052194D01*
X0018101Y0051760D01*
X0018307Y0051331D01*
X0018523Y0050907D01*
X0018749Y0050488D01*
X0018985Y0050075D01*
X0019231Y0049668D01*
X0019487Y0049267D01*
X0019753Y0048873D01*
X0020028Y0048484D01*
X0020312Y0048103D01*
X0020605Y0047729D01*
X0020907Y0047361D01*
X0021219Y0047001D01*
X0021538Y0046649D01*
X0021866Y0046305D01*
X0022203Y0045968D01*
X0022547Y0045640D01*
X0022899Y0045321D01*
X0023259Y0045009D01*
X0023627Y0044707D01*
X0024001Y0044414D01*
X0024382Y0044130D01*
X0024771Y0043855D01*
X0025165Y0043589D01*
X0025566Y0043333D01*
X0025973Y0043087D01*
X0026386Y0042851D01*
X0026805Y0042625D01*
X0027229Y0042409D01*
X0027658Y0042203D01*
X0028092Y0042008D01*
X0028530Y0041823D01*
X0028973Y0041649D01*
X0029419Y0041486D01*
X0029870Y0041333D01*
X0030324Y0041192D01*
X0030782Y0041061D01*
X0031242Y0040942D01*
X0031705Y0040834D01*
X0032171Y0040737D01*
X0032639Y0040651D01*
X0033109Y0040577D01*
X0033580Y0040514D01*
X0034053Y0040462D01*
X0034527Y0040422D01*
X0035002Y0040393D01*
X0035477Y0040376D01*
X0035953Y0040370D01*
X0026228Y0109268D02*
X0026230Y0109352D01*
X0026236Y0109435D01*
X0026246Y0109518D01*
X0026260Y0109601D01*
X0026277Y0109683D01*
X0026299Y0109764D01*
X0026324Y0109843D01*
X0026353Y0109922D01*
X0026386Y0109999D01*
X0026422Y0110074D01*
X0026462Y0110148D01*
X0026505Y0110220D01*
X0026552Y0110289D01*
X0026602Y0110356D01*
X0026655Y0110421D01*
X0026711Y0110483D01*
X0026769Y0110543D01*
X0026831Y0110600D01*
X0026895Y0110653D01*
X0026962Y0110704D01*
X0027031Y0110751D01*
X0027102Y0110796D01*
X0027175Y0110836D01*
X0027250Y0110873D01*
X0027327Y0110907D01*
X0027405Y0110937D01*
X0027484Y0110963D01*
X0027565Y0110986D01*
X0027647Y0111004D01*
X0027729Y0111019D01*
X0027812Y0111030D01*
X0027895Y0111037D01*
X0027979Y0111040D01*
X0028063Y0111039D01*
X0028146Y0111034D01*
X0028230Y0111025D01*
X0028312Y0111012D01*
X0028394Y0110996D01*
X0028475Y0110975D01*
X0028556Y0110951D01*
X0028634Y0110923D01*
X0028712Y0110891D01*
X0028788Y0110855D01*
X0028862Y0110816D01*
X0028934Y0110774D01*
X0029004Y0110728D01*
X0029072Y0110679D01*
X0029137Y0110627D01*
X0029200Y0110572D01*
X0029260Y0110514D01*
X0029318Y0110453D01*
X0029372Y0110389D01*
X0029424Y0110323D01*
X0029472Y0110255D01*
X0029517Y0110184D01*
X0029558Y0110111D01*
X0029597Y0110037D01*
X0029631Y0109961D01*
X0029662Y0109883D01*
X0029689Y0109804D01*
X0029713Y0109723D01*
X0029732Y0109642D01*
X0029748Y0109560D01*
X0029760Y0109477D01*
X0029768Y0109393D01*
X0029772Y0109310D01*
X0029772Y0109226D01*
X0029768Y0109143D01*
X0029760Y0109059D01*
X0029748Y0108976D01*
X0029732Y0108894D01*
X0029713Y0108813D01*
X0029689Y0108732D01*
X0029662Y0108653D01*
X0029631Y0108575D01*
X0029597Y0108499D01*
X0029558Y0108425D01*
X0029517Y0108352D01*
X0029472Y0108281D01*
X0029424Y0108213D01*
X0029372Y0108147D01*
X0029318Y0108083D01*
X0029260Y0108022D01*
X0029200Y0107964D01*
X0029137Y0107909D01*
X0029072Y0107857D01*
X0029004Y0107808D01*
X0028934Y0107762D01*
X0028862Y0107720D01*
X0028788Y0107681D01*
X0028712Y0107645D01*
X0028634Y0107613D01*
X0028556Y0107585D01*
X0028475Y0107561D01*
X0028394Y0107540D01*
X0028312Y0107524D01*
X0028230Y0107511D01*
X0028146Y0107502D01*
X0028063Y0107497D01*
X0027979Y0107496D01*
X0027895Y0107499D01*
X0027812Y0107506D01*
X0027729Y0107517D01*
X0027647Y0107532D01*
X0027565Y0107550D01*
X0027484Y0107573D01*
X0027405Y0107599D01*
X0027327Y0107629D01*
X0027250Y0107663D01*
X0027175Y0107700D01*
X0027102Y0107740D01*
X0027031Y0107785D01*
X0026962Y0107832D01*
X0026895Y0107883D01*
X0026831Y0107936D01*
X0026769Y0107993D01*
X0026711Y0108053D01*
X0026655Y0108115D01*
X0026602Y0108180D01*
X0026552Y0108247D01*
X0026505Y0108316D01*
X0026462Y0108388D01*
X0026422Y0108462D01*
X0026386Y0108537D01*
X0026353Y0108614D01*
X0026324Y0108693D01*
X0026299Y0108772D01*
X0026277Y0108853D01*
X0026260Y0108935D01*
X0026246Y0109018D01*
X0026236Y0109101D01*
X0026230Y0109184D01*
X0026228Y0109268D01*
X0026228Y0128953D02*
X0026230Y0129037D01*
X0026236Y0129120D01*
X0026246Y0129203D01*
X0026260Y0129286D01*
X0026277Y0129368D01*
X0026299Y0129449D01*
X0026324Y0129528D01*
X0026353Y0129607D01*
X0026386Y0129684D01*
X0026422Y0129759D01*
X0026462Y0129833D01*
X0026505Y0129905D01*
X0026552Y0129974D01*
X0026602Y0130041D01*
X0026655Y0130106D01*
X0026711Y0130168D01*
X0026769Y0130228D01*
X0026831Y0130285D01*
X0026895Y0130338D01*
X0026962Y0130389D01*
X0027031Y0130436D01*
X0027102Y0130481D01*
X0027175Y0130521D01*
X0027250Y0130558D01*
X0027327Y0130592D01*
X0027405Y0130622D01*
X0027484Y0130648D01*
X0027565Y0130671D01*
X0027647Y0130689D01*
X0027729Y0130704D01*
X0027812Y0130715D01*
X0027895Y0130722D01*
X0027979Y0130725D01*
X0028063Y0130724D01*
X0028146Y0130719D01*
X0028230Y0130710D01*
X0028312Y0130697D01*
X0028394Y0130681D01*
X0028475Y0130660D01*
X0028556Y0130636D01*
X0028634Y0130608D01*
X0028712Y0130576D01*
X0028788Y0130540D01*
X0028862Y0130501D01*
X0028934Y0130459D01*
X0029004Y0130413D01*
X0029072Y0130364D01*
X0029137Y0130312D01*
X0029200Y0130257D01*
X0029260Y0130199D01*
X0029318Y0130138D01*
X0029372Y0130074D01*
X0029424Y0130008D01*
X0029472Y0129940D01*
X0029517Y0129869D01*
X0029558Y0129796D01*
X0029597Y0129722D01*
X0029631Y0129646D01*
X0029662Y0129568D01*
X0029689Y0129489D01*
X0029713Y0129408D01*
X0029732Y0129327D01*
X0029748Y0129245D01*
X0029760Y0129162D01*
X0029768Y0129078D01*
X0029772Y0128995D01*
X0029772Y0128911D01*
X0029768Y0128828D01*
X0029760Y0128744D01*
X0029748Y0128661D01*
X0029732Y0128579D01*
X0029713Y0128498D01*
X0029689Y0128417D01*
X0029662Y0128338D01*
X0029631Y0128260D01*
X0029597Y0128184D01*
X0029558Y0128110D01*
X0029517Y0128037D01*
X0029472Y0127966D01*
X0029424Y0127898D01*
X0029372Y0127832D01*
X0029318Y0127768D01*
X0029260Y0127707D01*
X0029200Y0127649D01*
X0029137Y0127594D01*
X0029072Y0127542D01*
X0029004Y0127493D01*
X0028934Y0127447D01*
X0028862Y0127405D01*
X0028788Y0127366D01*
X0028712Y0127330D01*
X0028634Y0127298D01*
X0028556Y0127270D01*
X0028475Y0127246D01*
X0028394Y0127225D01*
X0028312Y0127209D01*
X0028230Y0127196D01*
X0028146Y0127187D01*
X0028063Y0127182D01*
X0027979Y0127181D01*
X0027895Y0127184D01*
X0027812Y0127191D01*
X0027729Y0127202D01*
X0027647Y0127217D01*
X0027565Y0127235D01*
X0027484Y0127258D01*
X0027405Y0127284D01*
X0027327Y0127314D01*
X0027250Y0127348D01*
X0027175Y0127385D01*
X0027102Y0127425D01*
X0027031Y0127470D01*
X0026962Y0127517D01*
X0026895Y0127568D01*
X0026831Y0127621D01*
X0026769Y0127678D01*
X0026711Y0127738D01*
X0026655Y0127800D01*
X0026602Y0127865D01*
X0026552Y0127932D01*
X0026505Y0128001D01*
X0026462Y0128073D01*
X0026422Y0128147D01*
X0026386Y0128222D01*
X0026353Y0128299D01*
X0026324Y0128378D01*
X0026299Y0128457D01*
X0026277Y0128538D01*
X0026260Y0128620D01*
X0026246Y0128703D01*
X0026236Y0128786D01*
X0026230Y0128869D01*
X0026228Y0128953D01*
X0091500Y0125370D02*
X0091502Y0125531D01*
X0091508Y0125691D01*
X0091518Y0125852D01*
X0091532Y0126012D01*
X0091550Y0126172D01*
X0091571Y0126331D01*
X0091597Y0126490D01*
X0091627Y0126648D01*
X0091660Y0126805D01*
X0091698Y0126962D01*
X0091739Y0127117D01*
X0091784Y0127271D01*
X0091833Y0127424D01*
X0091886Y0127576D01*
X0091942Y0127727D01*
X0092003Y0127876D01*
X0092066Y0128024D01*
X0092134Y0128170D01*
X0092205Y0128314D01*
X0092279Y0128456D01*
X0092357Y0128597D01*
X0092439Y0128735D01*
X0092524Y0128872D01*
X0092612Y0129006D01*
X0092704Y0129138D01*
X0092799Y0129268D01*
X0092897Y0129396D01*
X0092998Y0129521D01*
X0093102Y0129643D01*
X0093209Y0129763D01*
X0093319Y0129880D01*
X0093432Y0129995D01*
X0093548Y0130106D01*
X0093667Y0130215D01*
X0093788Y0130320D01*
X0093912Y0130423D01*
X0094038Y0130523D01*
X0094166Y0130619D01*
X0094297Y0130712D01*
X0094431Y0130802D01*
X0094566Y0130889D01*
X0094704Y0130972D01*
X0094843Y0131052D01*
X0094985Y0131128D01*
X0095128Y0131201D01*
X0095273Y0131270D01*
X0095420Y0131336D01*
X0095568Y0131398D01*
X0095718Y0131456D01*
X0095869Y0131511D01*
X0096022Y0131562D01*
X0096176Y0131609D01*
X0096331Y0131652D01*
X0096487Y0131691D01*
X0096643Y0131727D01*
X0096801Y0131758D01*
X0096959Y0131786D01*
X0097118Y0131810D01*
X0097278Y0131830D01*
X0097438Y0131846D01*
X0097598Y0131858D01*
X0097759Y0131866D01*
X0097920Y0131870D01*
X0098080Y0131870D01*
X0098241Y0131866D01*
X0098402Y0131858D01*
X0098562Y0131846D01*
X0098722Y0131830D01*
X0098882Y0131810D01*
X0099041Y0131786D01*
X0099199Y0131758D01*
X0099357Y0131727D01*
X0099513Y0131691D01*
X0099669Y0131652D01*
X0099824Y0131609D01*
X0099978Y0131562D01*
X0100131Y0131511D01*
X0100282Y0131456D01*
X0100432Y0131398D01*
X0100580Y0131336D01*
X0100727Y0131270D01*
X0100872Y0131201D01*
X0101015Y0131128D01*
X0101157Y0131052D01*
X0101296Y0130972D01*
X0101434Y0130889D01*
X0101569Y0130802D01*
X0101703Y0130712D01*
X0101834Y0130619D01*
X0101962Y0130523D01*
X0102088Y0130423D01*
X0102212Y0130320D01*
X0102333Y0130215D01*
X0102452Y0130106D01*
X0102568Y0129995D01*
X0102681Y0129880D01*
X0102791Y0129763D01*
X0102898Y0129643D01*
X0103002Y0129521D01*
X0103103Y0129396D01*
X0103201Y0129268D01*
X0103296Y0129138D01*
X0103388Y0129006D01*
X0103476Y0128872D01*
X0103561Y0128735D01*
X0103643Y0128597D01*
X0103721Y0128456D01*
X0103795Y0128314D01*
X0103866Y0128170D01*
X0103934Y0128024D01*
X0103997Y0127876D01*
X0104058Y0127727D01*
X0104114Y0127576D01*
X0104167Y0127424D01*
X0104216Y0127271D01*
X0104261Y0127117D01*
X0104302Y0126962D01*
X0104340Y0126805D01*
X0104373Y0126648D01*
X0104403Y0126490D01*
X0104429Y0126331D01*
X0104450Y0126172D01*
X0104468Y0126012D01*
X0104482Y0125852D01*
X0104492Y0125691D01*
X0104498Y0125531D01*
X0104500Y0125370D01*
X0104498Y0125209D01*
X0104492Y0125049D01*
X0104482Y0124888D01*
X0104468Y0124728D01*
X0104450Y0124568D01*
X0104429Y0124409D01*
X0104403Y0124250D01*
X0104373Y0124092D01*
X0104340Y0123935D01*
X0104302Y0123778D01*
X0104261Y0123623D01*
X0104216Y0123469D01*
X0104167Y0123316D01*
X0104114Y0123164D01*
X0104058Y0123013D01*
X0103997Y0122864D01*
X0103934Y0122716D01*
X0103866Y0122570D01*
X0103795Y0122426D01*
X0103721Y0122284D01*
X0103643Y0122143D01*
X0103561Y0122005D01*
X0103476Y0121868D01*
X0103388Y0121734D01*
X0103296Y0121602D01*
X0103201Y0121472D01*
X0103103Y0121344D01*
X0103002Y0121219D01*
X0102898Y0121097D01*
X0102791Y0120977D01*
X0102681Y0120860D01*
X0102568Y0120745D01*
X0102452Y0120634D01*
X0102333Y0120525D01*
X0102212Y0120420D01*
X0102088Y0120317D01*
X0101962Y0120217D01*
X0101834Y0120121D01*
X0101703Y0120028D01*
X0101569Y0119938D01*
X0101434Y0119851D01*
X0101296Y0119768D01*
X0101157Y0119688D01*
X0101015Y0119612D01*
X0100872Y0119539D01*
X0100727Y0119470D01*
X0100580Y0119404D01*
X0100432Y0119342D01*
X0100282Y0119284D01*
X0100131Y0119229D01*
X0099978Y0119178D01*
X0099824Y0119131D01*
X0099669Y0119088D01*
X0099513Y0119049D01*
X0099357Y0119013D01*
X0099199Y0118982D01*
X0099041Y0118954D01*
X0098882Y0118930D01*
X0098722Y0118910D01*
X0098562Y0118894D01*
X0098402Y0118882D01*
X0098241Y0118874D01*
X0098080Y0118870D01*
X0097920Y0118870D01*
X0097759Y0118874D01*
X0097598Y0118882D01*
X0097438Y0118894D01*
X0097278Y0118910D01*
X0097118Y0118930D01*
X0096959Y0118954D01*
X0096801Y0118982D01*
X0096643Y0119013D01*
X0096487Y0119049D01*
X0096331Y0119088D01*
X0096176Y0119131D01*
X0096022Y0119178D01*
X0095869Y0119229D01*
X0095718Y0119284D01*
X0095568Y0119342D01*
X0095420Y0119404D01*
X0095273Y0119470D01*
X0095128Y0119539D01*
X0094985Y0119612D01*
X0094843Y0119688D01*
X0094704Y0119768D01*
X0094566Y0119851D01*
X0094431Y0119938D01*
X0094297Y0120028D01*
X0094166Y0120121D01*
X0094038Y0120217D01*
X0093912Y0120317D01*
X0093788Y0120420D01*
X0093667Y0120525D01*
X0093548Y0120634D01*
X0093432Y0120745D01*
X0093319Y0120860D01*
X0093209Y0120977D01*
X0093102Y0121097D01*
X0092998Y0121219D01*
X0092897Y0121344D01*
X0092799Y0121472D01*
X0092704Y0121602D01*
X0092612Y0121734D01*
X0092524Y0121868D01*
X0092439Y0122005D01*
X0092357Y0122143D01*
X0092279Y0122284D01*
X0092205Y0122426D01*
X0092134Y0122570D01*
X0092066Y0122716D01*
X0092003Y0122864D01*
X0091942Y0123013D01*
X0091886Y0123164D01*
X0091833Y0123316D01*
X0091784Y0123469D01*
X0091739Y0123623D01*
X0091698Y0123778D01*
X0091660Y0123935D01*
X0091627Y0124092D01*
X0091597Y0124250D01*
X0091571Y0124409D01*
X0091550Y0124568D01*
X0091532Y0124728D01*
X0091518Y0124888D01*
X0091508Y0125049D01*
X0091502Y0125209D01*
X0091500Y0125370D01*
X0112331Y0020685D02*
X0112333Y0020843D01*
X0112339Y0021001D01*
X0112349Y0021159D01*
X0112363Y0021317D01*
X0112381Y0021474D01*
X0112402Y0021631D01*
X0112428Y0021787D01*
X0112458Y0021943D01*
X0112491Y0022098D01*
X0112529Y0022251D01*
X0112570Y0022404D01*
X0112615Y0022556D01*
X0112664Y0022707D01*
X0112717Y0022856D01*
X0112773Y0023004D01*
X0112833Y0023150D01*
X0112897Y0023295D01*
X0112965Y0023438D01*
X0113036Y0023580D01*
X0113110Y0023720D01*
X0113188Y0023857D01*
X0113270Y0023993D01*
X0113354Y0024127D01*
X0113443Y0024258D01*
X0113534Y0024387D01*
X0113629Y0024514D01*
X0113726Y0024639D01*
X0113827Y0024761D01*
X0113931Y0024880D01*
X0114038Y0024997D01*
X0114148Y0025111D01*
X0114261Y0025222D01*
X0114376Y0025331D01*
X0114494Y0025436D01*
X0114615Y0025538D01*
X0114738Y0025638D01*
X0114864Y0025734D01*
X0114992Y0025827D01*
X0115122Y0025917D01*
X0115255Y0026003D01*
X0115390Y0026087D01*
X0115526Y0026166D01*
X0115665Y0026243D01*
X0115806Y0026315D01*
X0115948Y0026385D01*
X0116092Y0026450D01*
X0116238Y0026512D01*
X0116385Y0026570D01*
X0116534Y0026625D01*
X0116684Y0026676D01*
X0116835Y0026723D01*
X0116987Y0026766D01*
X0117140Y0026805D01*
X0117295Y0026841D01*
X0117450Y0026872D01*
X0117606Y0026900D01*
X0117762Y0026924D01*
X0117919Y0026944D01*
X0118077Y0026960D01*
X0118234Y0026972D01*
X0118393Y0026980D01*
X0118551Y0026984D01*
X0118709Y0026984D01*
X0118867Y0026980D01*
X0119026Y0026972D01*
X0119183Y0026960D01*
X0119341Y0026944D01*
X0119498Y0026924D01*
X0119654Y0026900D01*
X0119810Y0026872D01*
X0119965Y0026841D01*
X0120120Y0026805D01*
X0120273Y0026766D01*
X0120425Y0026723D01*
X0120576Y0026676D01*
X0120726Y0026625D01*
X0120875Y0026570D01*
X0121022Y0026512D01*
X0121168Y0026450D01*
X0121312Y0026385D01*
X0121454Y0026315D01*
X0121595Y0026243D01*
X0121734Y0026166D01*
X0121870Y0026087D01*
X0122005Y0026003D01*
X0122138Y0025917D01*
X0122268Y0025827D01*
X0122396Y0025734D01*
X0122522Y0025638D01*
X0122645Y0025538D01*
X0122766Y0025436D01*
X0122884Y0025331D01*
X0122999Y0025222D01*
X0123112Y0025111D01*
X0123222Y0024997D01*
X0123329Y0024880D01*
X0123433Y0024761D01*
X0123534Y0024639D01*
X0123631Y0024514D01*
X0123726Y0024387D01*
X0123817Y0024258D01*
X0123906Y0024127D01*
X0123990Y0023993D01*
X0124072Y0023857D01*
X0124150Y0023720D01*
X0124224Y0023580D01*
X0124295Y0023438D01*
X0124363Y0023295D01*
X0124427Y0023150D01*
X0124487Y0023004D01*
X0124543Y0022856D01*
X0124596Y0022707D01*
X0124645Y0022556D01*
X0124690Y0022404D01*
X0124731Y0022251D01*
X0124769Y0022098D01*
X0124802Y0021943D01*
X0124832Y0021787D01*
X0124858Y0021631D01*
X0124879Y0021474D01*
X0124897Y0021317D01*
X0124911Y0021159D01*
X0124921Y0021001D01*
X0124927Y0020843D01*
X0124929Y0020685D01*
X0124927Y0020527D01*
X0124921Y0020369D01*
X0124911Y0020211D01*
X0124897Y0020053D01*
X0124879Y0019896D01*
X0124858Y0019739D01*
X0124832Y0019583D01*
X0124802Y0019427D01*
X0124769Y0019272D01*
X0124731Y0019119D01*
X0124690Y0018966D01*
X0124645Y0018814D01*
X0124596Y0018663D01*
X0124543Y0018514D01*
X0124487Y0018366D01*
X0124427Y0018220D01*
X0124363Y0018075D01*
X0124295Y0017932D01*
X0124224Y0017790D01*
X0124150Y0017650D01*
X0124072Y0017513D01*
X0123990Y0017377D01*
X0123906Y0017243D01*
X0123817Y0017112D01*
X0123726Y0016983D01*
X0123631Y0016856D01*
X0123534Y0016731D01*
X0123433Y0016609D01*
X0123329Y0016490D01*
X0123222Y0016373D01*
X0123112Y0016259D01*
X0122999Y0016148D01*
X0122884Y0016039D01*
X0122766Y0015934D01*
X0122645Y0015832D01*
X0122522Y0015732D01*
X0122396Y0015636D01*
X0122268Y0015543D01*
X0122138Y0015453D01*
X0122005Y0015367D01*
X0121870Y0015283D01*
X0121734Y0015204D01*
X0121595Y0015127D01*
X0121454Y0015055D01*
X0121312Y0014985D01*
X0121168Y0014920D01*
X0121022Y0014858D01*
X0120875Y0014800D01*
X0120726Y0014745D01*
X0120576Y0014694D01*
X0120425Y0014647D01*
X0120273Y0014604D01*
X0120120Y0014565D01*
X0119965Y0014529D01*
X0119810Y0014498D01*
X0119654Y0014470D01*
X0119498Y0014446D01*
X0119341Y0014426D01*
X0119183Y0014410D01*
X0119026Y0014398D01*
X0118867Y0014390D01*
X0118709Y0014386D01*
X0118551Y0014386D01*
X0118393Y0014390D01*
X0118234Y0014398D01*
X0118077Y0014410D01*
X0117919Y0014426D01*
X0117762Y0014446D01*
X0117606Y0014470D01*
X0117450Y0014498D01*
X0117295Y0014529D01*
X0117140Y0014565D01*
X0116987Y0014604D01*
X0116835Y0014647D01*
X0116684Y0014694D01*
X0116534Y0014745D01*
X0116385Y0014800D01*
X0116238Y0014858D01*
X0116092Y0014920D01*
X0115948Y0014985D01*
X0115806Y0015055D01*
X0115665Y0015127D01*
X0115526Y0015204D01*
X0115390Y0015283D01*
X0115255Y0015367D01*
X0115122Y0015453D01*
X0114992Y0015543D01*
X0114864Y0015636D01*
X0114738Y0015732D01*
X0114615Y0015832D01*
X0114494Y0015934D01*
X0114376Y0016039D01*
X0114261Y0016148D01*
X0114148Y0016259D01*
X0114038Y0016373D01*
X0113931Y0016490D01*
X0113827Y0016609D01*
X0113726Y0016731D01*
X0113629Y0016856D01*
X0113534Y0016983D01*
X0113443Y0017112D01*
X0113354Y0017243D01*
X0113270Y0017377D01*
X0113188Y0017513D01*
X0113110Y0017650D01*
X0113036Y0017790D01*
X0112965Y0017932D01*
X0112897Y0018075D01*
X0112833Y0018220D01*
X0112773Y0018366D01*
X0112717Y0018514D01*
X0112664Y0018663D01*
X0112615Y0018814D01*
X0112570Y0018966D01*
X0112529Y0019119D01*
X0112491Y0019272D01*
X0112458Y0019427D01*
X0112428Y0019583D01*
X0112402Y0019739D01*
X0112381Y0019896D01*
X0112363Y0020053D01*
X0112349Y0020211D01*
X0112339Y0020369D01*
X0112333Y0020527D01*
X0112331Y0020685D01*
X0211500Y0125370D02*
X0211502Y0125531D01*
X0211508Y0125691D01*
X0211518Y0125852D01*
X0211532Y0126012D01*
X0211550Y0126172D01*
X0211571Y0126331D01*
X0211597Y0126490D01*
X0211627Y0126648D01*
X0211660Y0126805D01*
X0211698Y0126962D01*
X0211739Y0127117D01*
X0211784Y0127271D01*
X0211833Y0127424D01*
X0211886Y0127576D01*
X0211942Y0127727D01*
X0212003Y0127876D01*
X0212066Y0128024D01*
X0212134Y0128170D01*
X0212205Y0128314D01*
X0212279Y0128456D01*
X0212357Y0128597D01*
X0212439Y0128735D01*
X0212524Y0128872D01*
X0212612Y0129006D01*
X0212704Y0129138D01*
X0212799Y0129268D01*
X0212897Y0129396D01*
X0212998Y0129521D01*
X0213102Y0129643D01*
X0213209Y0129763D01*
X0213319Y0129880D01*
X0213432Y0129995D01*
X0213548Y0130106D01*
X0213667Y0130215D01*
X0213788Y0130320D01*
X0213912Y0130423D01*
X0214038Y0130523D01*
X0214166Y0130619D01*
X0214297Y0130712D01*
X0214431Y0130802D01*
X0214566Y0130889D01*
X0214704Y0130972D01*
X0214843Y0131052D01*
X0214985Y0131128D01*
X0215128Y0131201D01*
X0215273Y0131270D01*
X0215420Y0131336D01*
X0215568Y0131398D01*
X0215718Y0131456D01*
X0215869Y0131511D01*
X0216022Y0131562D01*
X0216176Y0131609D01*
X0216331Y0131652D01*
X0216487Y0131691D01*
X0216643Y0131727D01*
X0216801Y0131758D01*
X0216959Y0131786D01*
X0217118Y0131810D01*
X0217278Y0131830D01*
X0217438Y0131846D01*
X0217598Y0131858D01*
X0217759Y0131866D01*
X0217920Y0131870D01*
X0218080Y0131870D01*
X0218241Y0131866D01*
X0218402Y0131858D01*
X0218562Y0131846D01*
X0218722Y0131830D01*
X0218882Y0131810D01*
X0219041Y0131786D01*
X0219199Y0131758D01*
X0219357Y0131727D01*
X0219513Y0131691D01*
X0219669Y0131652D01*
X0219824Y0131609D01*
X0219978Y0131562D01*
X0220131Y0131511D01*
X0220282Y0131456D01*
X0220432Y0131398D01*
X0220580Y0131336D01*
X0220727Y0131270D01*
X0220872Y0131201D01*
X0221015Y0131128D01*
X0221157Y0131052D01*
X0221296Y0130972D01*
X0221434Y0130889D01*
X0221569Y0130802D01*
X0221703Y0130712D01*
X0221834Y0130619D01*
X0221962Y0130523D01*
X0222088Y0130423D01*
X0222212Y0130320D01*
X0222333Y0130215D01*
X0222452Y0130106D01*
X0222568Y0129995D01*
X0222681Y0129880D01*
X0222791Y0129763D01*
X0222898Y0129643D01*
X0223002Y0129521D01*
X0223103Y0129396D01*
X0223201Y0129268D01*
X0223296Y0129138D01*
X0223388Y0129006D01*
X0223476Y0128872D01*
X0223561Y0128735D01*
X0223643Y0128597D01*
X0223721Y0128456D01*
X0223795Y0128314D01*
X0223866Y0128170D01*
X0223934Y0128024D01*
X0223997Y0127876D01*
X0224058Y0127727D01*
X0224114Y0127576D01*
X0224167Y0127424D01*
X0224216Y0127271D01*
X0224261Y0127117D01*
X0224302Y0126962D01*
X0224340Y0126805D01*
X0224373Y0126648D01*
X0224403Y0126490D01*
X0224429Y0126331D01*
X0224450Y0126172D01*
X0224468Y0126012D01*
X0224482Y0125852D01*
X0224492Y0125691D01*
X0224498Y0125531D01*
X0224500Y0125370D01*
X0224498Y0125209D01*
X0224492Y0125049D01*
X0224482Y0124888D01*
X0224468Y0124728D01*
X0224450Y0124568D01*
X0224429Y0124409D01*
X0224403Y0124250D01*
X0224373Y0124092D01*
X0224340Y0123935D01*
X0224302Y0123778D01*
X0224261Y0123623D01*
X0224216Y0123469D01*
X0224167Y0123316D01*
X0224114Y0123164D01*
X0224058Y0123013D01*
X0223997Y0122864D01*
X0223934Y0122716D01*
X0223866Y0122570D01*
X0223795Y0122426D01*
X0223721Y0122284D01*
X0223643Y0122143D01*
X0223561Y0122005D01*
X0223476Y0121868D01*
X0223388Y0121734D01*
X0223296Y0121602D01*
X0223201Y0121472D01*
X0223103Y0121344D01*
X0223002Y0121219D01*
X0222898Y0121097D01*
X0222791Y0120977D01*
X0222681Y0120860D01*
X0222568Y0120745D01*
X0222452Y0120634D01*
X0222333Y0120525D01*
X0222212Y0120420D01*
X0222088Y0120317D01*
X0221962Y0120217D01*
X0221834Y0120121D01*
X0221703Y0120028D01*
X0221569Y0119938D01*
X0221434Y0119851D01*
X0221296Y0119768D01*
X0221157Y0119688D01*
X0221015Y0119612D01*
X0220872Y0119539D01*
X0220727Y0119470D01*
X0220580Y0119404D01*
X0220432Y0119342D01*
X0220282Y0119284D01*
X0220131Y0119229D01*
X0219978Y0119178D01*
X0219824Y0119131D01*
X0219669Y0119088D01*
X0219513Y0119049D01*
X0219357Y0119013D01*
X0219199Y0118982D01*
X0219041Y0118954D01*
X0218882Y0118930D01*
X0218722Y0118910D01*
X0218562Y0118894D01*
X0218402Y0118882D01*
X0218241Y0118874D01*
X0218080Y0118870D01*
X0217920Y0118870D01*
X0217759Y0118874D01*
X0217598Y0118882D01*
X0217438Y0118894D01*
X0217278Y0118910D01*
X0217118Y0118930D01*
X0216959Y0118954D01*
X0216801Y0118982D01*
X0216643Y0119013D01*
X0216487Y0119049D01*
X0216331Y0119088D01*
X0216176Y0119131D01*
X0216022Y0119178D01*
X0215869Y0119229D01*
X0215718Y0119284D01*
X0215568Y0119342D01*
X0215420Y0119404D01*
X0215273Y0119470D01*
X0215128Y0119539D01*
X0214985Y0119612D01*
X0214843Y0119688D01*
X0214704Y0119768D01*
X0214566Y0119851D01*
X0214431Y0119938D01*
X0214297Y0120028D01*
X0214166Y0120121D01*
X0214038Y0120217D01*
X0213912Y0120317D01*
X0213788Y0120420D01*
X0213667Y0120525D01*
X0213548Y0120634D01*
X0213432Y0120745D01*
X0213319Y0120860D01*
X0213209Y0120977D01*
X0213102Y0121097D01*
X0212998Y0121219D01*
X0212897Y0121344D01*
X0212799Y0121472D01*
X0212704Y0121602D01*
X0212612Y0121734D01*
X0212524Y0121868D01*
X0212439Y0122005D01*
X0212357Y0122143D01*
X0212279Y0122284D01*
X0212205Y0122426D01*
X0212134Y0122570D01*
X0212066Y0122716D01*
X0212003Y0122864D01*
X0211942Y0123013D01*
X0211886Y0123164D01*
X0211833Y0123316D01*
X0211784Y0123469D01*
X0211739Y0123623D01*
X0211698Y0123778D01*
X0211660Y0123935D01*
X0211627Y0124092D01*
X0211597Y0124250D01*
X0211571Y0124409D01*
X0211550Y0124568D01*
X0211532Y0124728D01*
X0211518Y0124888D01*
X0211508Y0125049D01*
X0211502Y0125209D01*
X0211500Y0125370D01*
X0211500Y0245370D02*
X0211502Y0245531D01*
X0211508Y0245691D01*
X0211518Y0245852D01*
X0211532Y0246012D01*
X0211550Y0246172D01*
X0211571Y0246331D01*
X0211597Y0246490D01*
X0211627Y0246648D01*
X0211660Y0246805D01*
X0211698Y0246962D01*
X0211739Y0247117D01*
X0211784Y0247271D01*
X0211833Y0247424D01*
X0211886Y0247576D01*
X0211942Y0247727D01*
X0212003Y0247876D01*
X0212066Y0248024D01*
X0212134Y0248170D01*
X0212205Y0248314D01*
X0212279Y0248456D01*
X0212357Y0248597D01*
X0212439Y0248735D01*
X0212524Y0248872D01*
X0212612Y0249006D01*
X0212704Y0249138D01*
X0212799Y0249268D01*
X0212897Y0249396D01*
X0212998Y0249521D01*
X0213102Y0249643D01*
X0213209Y0249763D01*
X0213319Y0249880D01*
X0213432Y0249995D01*
X0213548Y0250106D01*
X0213667Y0250215D01*
X0213788Y0250320D01*
X0213912Y0250423D01*
X0214038Y0250523D01*
X0214166Y0250619D01*
X0214297Y0250712D01*
X0214431Y0250802D01*
X0214566Y0250889D01*
X0214704Y0250972D01*
X0214843Y0251052D01*
X0214985Y0251128D01*
X0215128Y0251201D01*
X0215273Y0251270D01*
X0215420Y0251336D01*
X0215568Y0251398D01*
X0215718Y0251456D01*
X0215869Y0251511D01*
X0216022Y0251562D01*
X0216176Y0251609D01*
X0216331Y0251652D01*
X0216487Y0251691D01*
X0216643Y0251727D01*
X0216801Y0251758D01*
X0216959Y0251786D01*
X0217118Y0251810D01*
X0217278Y0251830D01*
X0217438Y0251846D01*
X0217598Y0251858D01*
X0217759Y0251866D01*
X0217920Y0251870D01*
X0218080Y0251870D01*
X0218241Y0251866D01*
X0218402Y0251858D01*
X0218562Y0251846D01*
X0218722Y0251830D01*
X0218882Y0251810D01*
X0219041Y0251786D01*
X0219199Y0251758D01*
X0219357Y0251727D01*
X0219513Y0251691D01*
X0219669Y0251652D01*
X0219824Y0251609D01*
X0219978Y0251562D01*
X0220131Y0251511D01*
X0220282Y0251456D01*
X0220432Y0251398D01*
X0220580Y0251336D01*
X0220727Y0251270D01*
X0220872Y0251201D01*
X0221015Y0251128D01*
X0221157Y0251052D01*
X0221296Y0250972D01*
X0221434Y0250889D01*
X0221569Y0250802D01*
X0221703Y0250712D01*
X0221834Y0250619D01*
X0221962Y0250523D01*
X0222088Y0250423D01*
X0222212Y0250320D01*
X0222333Y0250215D01*
X0222452Y0250106D01*
X0222568Y0249995D01*
X0222681Y0249880D01*
X0222791Y0249763D01*
X0222898Y0249643D01*
X0223002Y0249521D01*
X0223103Y0249396D01*
X0223201Y0249268D01*
X0223296Y0249138D01*
X0223388Y0249006D01*
X0223476Y0248872D01*
X0223561Y0248735D01*
X0223643Y0248597D01*
X0223721Y0248456D01*
X0223795Y0248314D01*
X0223866Y0248170D01*
X0223934Y0248024D01*
X0223997Y0247876D01*
X0224058Y0247727D01*
X0224114Y0247576D01*
X0224167Y0247424D01*
X0224216Y0247271D01*
X0224261Y0247117D01*
X0224302Y0246962D01*
X0224340Y0246805D01*
X0224373Y0246648D01*
X0224403Y0246490D01*
X0224429Y0246331D01*
X0224450Y0246172D01*
X0224468Y0246012D01*
X0224482Y0245852D01*
X0224492Y0245691D01*
X0224498Y0245531D01*
X0224500Y0245370D01*
X0224498Y0245209D01*
X0224492Y0245049D01*
X0224482Y0244888D01*
X0224468Y0244728D01*
X0224450Y0244568D01*
X0224429Y0244409D01*
X0224403Y0244250D01*
X0224373Y0244092D01*
X0224340Y0243935D01*
X0224302Y0243778D01*
X0224261Y0243623D01*
X0224216Y0243469D01*
X0224167Y0243316D01*
X0224114Y0243164D01*
X0224058Y0243013D01*
X0223997Y0242864D01*
X0223934Y0242716D01*
X0223866Y0242570D01*
X0223795Y0242426D01*
X0223721Y0242284D01*
X0223643Y0242143D01*
X0223561Y0242005D01*
X0223476Y0241868D01*
X0223388Y0241734D01*
X0223296Y0241602D01*
X0223201Y0241472D01*
X0223103Y0241344D01*
X0223002Y0241219D01*
X0222898Y0241097D01*
X0222791Y0240977D01*
X0222681Y0240860D01*
X0222568Y0240745D01*
X0222452Y0240634D01*
X0222333Y0240525D01*
X0222212Y0240420D01*
X0222088Y0240317D01*
X0221962Y0240217D01*
X0221834Y0240121D01*
X0221703Y0240028D01*
X0221569Y0239938D01*
X0221434Y0239851D01*
X0221296Y0239768D01*
X0221157Y0239688D01*
X0221015Y0239612D01*
X0220872Y0239539D01*
X0220727Y0239470D01*
X0220580Y0239404D01*
X0220432Y0239342D01*
X0220282Y0239284D01*
X0220131Y0239229D01*
X0219978Y0239178D01*
X0219824Y0239131D01*
X0219669Y0239088D01*
X0219513Y0239049D01*
X0219357Y0239013D01*
X0219199Y0238982D01*
X0219041Y0238954D01*
X0218882Y0238930D01*
X0218722Y0238910D01*
X0218562Y0238894D01*
X0218402Y0238882D01*
X0218241Y0238874D01*
X0218080Y0238870D01*
X0217920Y0238870D01*
X0217759Y0238874D01*
X0217598Y0238882D01*
X0217438Y0238894D01*
X0217278Y0238910D01*
X0217118Y0238930D01*
X0216959Y0238954D01*
X0216801Y0238982D01*
X0216643Y0239013D01*
X0216487Y0239049D01*
X0216331Y0239088D01*
X0216176Y0239131D01*
X0216022Y0239178D01*
X0215869Y0239229D01*
X0215718Y0239284D01*
X0215568Y0239342D01*
X0215420Y0239404D01*
X0215273Y0239470D01*
X0215128Y0239539D01*
X0214985Y0239612D01*
X0214843Y0239688D01*
X0214704Y0239768D01*
X0214566Y0239851D01*
X0214431Y0239938D01*
X0214297Y0240028D01*
X0214166Y0240121D01*
X0214038Y0240217D01*
X0213912Y0240317D01*
X0213788Y0240420D01*
X0213667Y0240525D01*
X0213548Y0240634D01*
X0213432Y0240745D01*
X0213319Y0240860D01*
X0213209Y0240977D01*
X0213102Y0241097D01*
X0212998Y0241219D01*
X0212897Y0241344D01*
X0212799Y0241472D01*
X0212704Y0241602D01*
X0212612Y0241734D01*
X0212524Y0241868D01*
X0212439Y0242005D01*
X0212357Y0242143D01*
X0212279Y0242284D01*
X0212205Y0242426D01*
X0212134Y0242570D01*
X0212066Y0242716D01*
X0212003Y0242864D01*
X0211942Y0243013D01*
X0211886Y0243164D01*
X0211833Y0243316D01*
X0211784Y0243469D01*
X0211739Y0243623D01*
X0211698Y0243778D01*
X0211660Y0243935D01*
X0211627Y0244092D01*
X0211597Y0244250D01*
X0211571Y0244409D01*
X0211550Y0244568D01*
X0211532Y0244728D01*
X0211518Y0244888D01*
X0211508Y0245049D01*
X0211502Y0245209D01*
X0211500Y0245370D01*
X0191858Y0342339D02*
X0191860Y0342497D01*
X0191866Y0342655D01*
X0191876Y0342813D01*
X0191890Y0342971D01*
X0191908Y0343128D01*
X0191929Y0343285D01*
X0191955Y0343441D01*
X0191985Y0343597D01*
X0192018Y0343752D01*
X0192056Y0343905D01*
X0192097Y0344058D01*
X0192142Y0344210D01*
X0192191Y0344361D01*
X0192244Y0344510D01*
X0192300Y0344658D01*
X0192360Y0344804D01*
X0192424Y0344949D01*
X0192492Y0345092D01*
X0192563Y0345234D01*
X0192637Y0345374D01*
X0192715Y0345511D01*
X0192797Y0345647D01*
X0192881Y0345781D01*
X0192970Y0345912D01*
X0193061Y0346041D01*
X0193156Y0346168D01*
X0193253Y0346293D01*
X0193354Y0346415D01*
X0193458Y0346534D01*
X0193565Y0346651D01*
X0193675Y0346765D01*
X0193788Y0346876D01*
X0193903Y0346985D01*
X0194021Y0347090D01*
X0194142Y0347192D01*
X0194265Y0347292D01*
X0194391Y0347388D01*
X0194519Y0347481D01*
X0194649Y0347571D01*
X0194782Y0347657D01*
X0194917Y0347741D01*
X0195053Y0347820D01*
X0195192Y0347897D01*
X0195333Y0347969D01*
X0195475Y0348039D01*
X0195619Y0348104D01*
X0195765Y0348166D01*
X0195912Y0348224D01*
X0196061Y0348279D01*
X0196211Y0348330D01*
X0196362Y0348377D01*
X0196514Y0348420D01*
X0196667Y0348459D01*
X0196822Y0348495D01*
X0196977Y0348526D01*
X0197133Y0348554D01*
X0197289Y0348578D01*
X0197446Y0348598D01*
X0197604Y0348614D01*
X0197761Y0348626D01*
X0197920Y0348634D01*
X0198078Y0348638D01*
X0198236Y0348638D01*
X0198394Y0348634D01*
X0198553Y0348626D01*
X0198710Y0348614D01*
X0198868Y0348598D01*
X0199025Y0348578D01*
X0199181Y0348554D01*
X0199337Y0348526D01*
X0199492Y0348495D01*
X0199647Y0348459D01*
X0199800Y0348420D01*
X0199952Y0348377D01*
X0200103Y0348330D01*
X0200253Y0348279D01*
X0200402Y0348224D01*
X0200549Y0348166D01*
X0200695Y0348104D01*
X0200839Y0348039D01*
X0200981Y0347969D01*
X0201122Y0347897D01*
X0201261Y0347820D01*
X0201397Y0347741D01*
X0201532Y0347657D01*
X0201665Y0347571D01*
X0201795Y0347481D01*
X0201923Y0347388D01*
X0202049Y0347292D01*
X0202172Y0347192D01*
X0202293Y0347090D01*
X0202411Y0346985D01*
X0202526Y0346876D01*
X0202639Y0346765D01*
X0202749Y0346651D01*
X0202856Y0346534D01*
X0202960Y0346415D01*
X0203061Y0346293D01*
X0203158Y0346168D01*
X0203253Y0346041D01*
X0203344Y0345912D01*
X0203433Y0345781D01*
X0203517Y0345647D01*
X0203599Y0345511D01*
X0203677Y0345374D01*
X0203751Y0345234D01*
X0203822Y0345092D01*
X0203890Y0344949D01*
X0203954Y0344804D01*
X0204014Y0344658D01*
X0204070Y0344510D01*
X0204123Y0344361D01*
X0204172Y0344210D01*
X0204217Y0344058D01*
X0204258Y0343905D01*
X0204296Y0343752D01*
X0204329Y0343597D01*
X0204359Y0343441D01*
X0204385Y0343285D01*
X0204406Y0343128D01*
X0204424Y0342971D01*
X0204438Y0342813D01*
X0204448Y0342655D01*
X0204454Y0342497D01*
X0204456Y0342339D01*
X0204454Y0342181D01*
X0204448Y0342023D01*
X0204438Y0341865D01*
X0204424Y0341707D01*
X0204406Y0341550D01*
X0204385Y0341393D01*
X0204359Y0341237D01*
X0204329Y0341081D01*
X0204296Y0340926D01*
X0204258Y0340773D01*
X0204217Y0340620D01*
X0204172Y0340468D01*
X0204123Y0340317D01*
X0204070Y0340168D01*
X0204014Y0340020D01*
X0203954Y0339874D01*
X0203890Y0339729D01*
X0203822Y0339586D01*
X0203751Y0339444D01*
X0203677Y0339304D01*
X0203599Y0339167D01*
X0203517Y0339031D01*
X0203433Y0338897D01*
X0203344Y0338766D01*
X0203253Y0338637D01*
X0203158Y0338510D01*
X0203061Y0338385D01*
X0202960Y0338263D01*
X0202856Y0338144D01*
X0202749Y0338027D01*
X0202639Y0337913D01*
X0202526Y0337802D01*
X0202411Y0337693D01*
X0202293Y0337588D01*
X0202172Y0337486D01*
X0202049Y0337386D01*
X0201923Y0337290D01*
X0201795Y0337197D01*
X0201665Y0337107D01*
X0201532Y0337021D01*
X0201397Y0336937D01*
X0201261Y0336858D01*
X0201122Y0336781D01*
X0200981Y0336709D01*
X0200839Y0336639D01*
X0200695Y0336574D01*
X0200549Y0336512D01*
X0200402Y0336454D01*
X0200253Y0336399D01*
X0200103Y0336348D01*
X0199952Y0336301D01*
X0199800Y0336258D01*
X0199647Y0336219D01*
X0199492Y0336183D01*
X0199337Y0336152D01*
X0199181Y0336124D01*
X0199025Y0336100D01*
X0198868Y0336080D01*
X0198710Y0336064D01*
X0198553Y0336052D01*
X0198394Y0336044D01*
X0198236Y0336040D01*
X0198078Y0336040D01*
X0197920Y0336044D01*
X0197761Y0336052D01*
X0197604Y0336064D01*
X0197446Y0336080D01*
X0197289Y0336100D01*
X0197133Y0336124D01*
X0196977Y0336152D01*
X0196822Y0336183D01*
X0196667Y0336219D01*
X0196514Y0336258D01*
X0196362Y0336301D01*
X0196211Y0336348D01*
X0196061Y0336399D01*
X0195912Y0336454D01*
X0195765Y0336512D01*
X0195619Y0336574D01*
X0195475Y0336639D01*
X0195333Y0336709D01*
X0195192Y0336781D01*
X0195053Y0336858D01*
X0194917Y0336937D01*
X0194782Y0337021D01*
X0194649Y0337107D01*
X0194519Y0337197D01*
X0194391Y0337290D01*
X0194265Y0337386D01*
X0194142Y0337486D01*
X0194021Y0337588D01*
X0193903Y0337693D01*
X0193788Y0337802D01*
X0193675Y0337913D01*
X0193565Y0338027D01*
X0193458Y0338144D01*
X0193354Y0338263D01*
X0193253Y0338385D01*
X0193156Y0338510D01*
X0193061Y0338637D01*
X0192970Y0338766D01*
X0192881Y0338897D01*
X0192797Y0339031D01*
X0192715Y0339167D01*
X0192637Y0339304D01*
X0192563Y0339444D01*
X0192492Y0339586D01*
X0192424Y0339729D01*
X0192360Y0339874D01*
X0192300Y0340020D01*
X0192244Y0340168D01*
X0192191Y0340317D01*
X0192142Y0340468D01*
X0192097Y0340620D01*
X0192056Y0340773D01*
X0192018Y0340926D01*
X0191985Y0341081D01*
X0191955Y0341237D01*
X0191929Y0341393D01*
X0191908Y0341550D01*
X0191890Y0341707D01*
X0191876Y0341865D01*
X0191866Y0342023D01*
X0191860Y0342181D01*
X0191858Y0342339D01*
X0111544Y0342339D02*
X0111546Y0342497D01*
X0111552Y0342655D01*
X0111562Y0342813D01*
X0111576Y0342971D01*
X0111594Y0343128D01*
X0111615Y0343285D01*
X0111641Y0343441D01*
X0111671Y0343597D01*
X0111704Y0343752D01*
X0111742Y0343905D01*
X0111783Y0344058D01*
X0111828Y0344210D01*
X0111877Y0344361D01*
X0111930Y0344510D01*
X0111986Y0344658D01*
X0112046Y0344804D01*
X0112110Y0344949D01*
X0112178Y0345092D01*
X0112249Y0345234D01*
X0112323Y0345374D01*
X0112401Y0345511D01*
X0112483Y0345647D01*
X0112567Y0345781D01*
X0112656Y0345912D01*
X0112747Y0346041D01*
X0112842Y0346168D01*
X0112939Y0346293D01*
X0113040Y0346415D01*
X0113144Y0346534D01*
X0113251Y0346651D01*
X0113361Y0346765D01*
X0113474Y0346876D01*
X0113589Y0346985D01*
X0113707Y0347090D01*
X0113828Y0347192D01*
X0113951Y0347292D01*
X0114077Y0347388D01*
X0114205Y0347481D01*
X0114335Y0347571D01*
X0114468Y0347657D01*
X0114603Y0347741D01*
X0114739Y0347820D01*
X0114878Y0347897D01*
X0115019Y0347969D01*
X0115161Y0348039D01*
X0115305Y0348104D01*
X0115451Y0348166D01*
X0115598Y0348224D01*
X0115747Y0348279D01*
X0115897Y0348330D01*
X0116048Y0348377D01*
X0116200Y0348420D01*
X0116353Y0348459D01*
X0116508Y0348495D01*
X0116663Y0348526D01*
X0116819Y0348554D01*
X0116975Y0348578D01*
X0117132Y0348598D01*
X0117290Y0348614D01*
X0117447Y0348626D01*
X0117606Y0348634D01*
X0117764Y0348638D01*
X0117922Y0348638D01*
X0118080Y0348634D01*
X0118239Y0348626D01*
X0118396Y0348614D01*
X0118554Y0348598D01*
X0118711Y0348578D01*
X0118867Y0348554D01*
X0119023Y0348526D01*
X0119178Y0348495D01*
X0119333Y0348459D01*
X0119486Y0348420D01*
X0119638Y0348377D01*
X0119789Y0348330D01*
X0119939Y0348279D01*
X0120088Y0348224D01*
X0120235Y0348166D01*
X0120381Y0348104D01*
X0120525Y0348039D01*
X0120667Y0347969D01*
X0120808Y0347897D01*
X0120947Y0347820D01*
X0121083Y0347741D01*
X0121218Y0347657D01*
X0121351Y0347571D01*
X0121481Y0347481D01*
X0121609Y0347388D01*
X0121735Y0347292D01*
X0121858Y0347192D01*
X0121979Y0347090D01*
X0122097Y0346985D01*
X0122212Y0346876D01*
X0122325Y0346765D01*
X0122435Y0346651D01*
X0122542Y0346534D01*
X0122646Y0346415D01*
X0122747Y0346293D01*
X0122844Y0346168D01*
X0122939Y0346041D01*
X0123030Y0345912D01*
X0123119Y0345781D01*
X0123203Y0345647D01*
X0123285Y0345511D01*
X0123363Y0345374D01*
X0123437Y0345234D01*
X0123508Y0345092D01*
X0123576Y0344949D01*
X0123640Y0344804D01*
X0123700Y0344658D01*
X0123756Y0344510D01*
X0123809Y0344361D01*
X0123858Y0344210D01*
X0123903Y0344058D01*
X0123944Y0343905D01*
X0123982Y0343752D01*
X0124015Y0343597D01*
X0124045Y0343441D01*
X0124071Y0343285D01*
X0124092Y0343128D01*
X0124110Y0342971D01*
X0124124Y0342813D01*
X0124134Y0342655D01*
X0124140Y0342497D01*
X0124142Y0342339D01*
X0124140Y0342181D01*
X0124134Y0342023D01*
X0124124Y0341865D01*
X0124110Y0341707D01*
X0124092Y0341550D01*
X0124071Y0341393D01*
X0124045Y0341237D01*
X0124015Y0341081D01*
X0123982Y0340926D01*
X0123944Y0340773D01*
X0123903Y0340620D01*
X0123858Y0340468D01*
X0123809Y0340317D01*
X0123756Y0340168D01*
X0123700Y0340020D01*
X0123640Y0339874D01*
X0123576Y0339729D01*
X0123508Y0339586D01*
X0123437Y0339444D01*
X0123363Y0339304D01*
X0123285Y0339167D01*
X0123203Y0339031D01*
X0123119Y0338897D01*
X0123030Y0338766D01*
X0122939Y0338637D01*
X0122844Y0338510D01*
X0122747Y0338385D01*
X0122646Y0338263D01*
X0122542Y0338144D01*
X0122435Y0338027D01*
X0122325Y0337913D01*
X0122212Y0337802D01*
X0122097Y0337693D01*
X0121979Y0337588D01*
X0121858Y0337486D01*
X0121735Y0337386D01*
X0121609Y0337290D01*
X0121481Y0337197D01*
X0121351Y0337107D01*
X0121218Y0337021D01*
X0121083Y0336937D01*
X0120947Y0336858D01*
X0120808Y0336781D01*
X0120667Y0336709D01*
X0120525Y0336639D01*
X0120381Y0336574D01*
X0120235Y0336512D01*
X0120088Y0336454D01*
X0119939Y0336399D01*
X0119789Y0336348D01*
X0119638Y0336301D01*
X0119486Y0336258D01*
X0119333Y0336219D01*
X0119178Y0336183D01*
X0119023Y0336152D01*
X0118867Y0336124D01*
X0118711Y0336100D01*
X0118554Y0336080D01*
X0118396Y0336064D01*
X0118239Y0336052D01*
X0118080Y0336044D01*
X0117922Y0336040D01*
X0117764Y0336040D01*
X0117606Y0336044D01*
X0117447Y0336052D01*
X0117290Y0336064D01*
X0117132Y0336080D01*
X0116975Y0336100D01*
X0116819Y0336124D01*
X0116663Y0336152D01*
X0116508Y0336183D01*
X0116353Y0336219D01*
X0116200Y0336258D01*
X0116048Y0336301D01*
X0115897Y0336348D01*
X0115747Y0336399D01*
X0115598Y0336454D01*
X0115451Y0336512D01*
X0115305Y0336574D01*
X0115161Y0336639D01*
X0115019Y0336709D01*
X0114878Y0336781D01*
X0114739Y0336858D01*
X0114603Y0336937D01*
X0114468Y0337021D01*
X0114335Y0337107D01*
X0114205Y0337197D01*
X0114077Y0337290D01*
X0113951Y0337386D01*
X0113828Y0337486D01*
X0113707Y0337588D01*
X0113589Y0337693D01*
X0113474Y0337802D01*
X0113361Y0337913D01*
X0113251Y0338027D01*
X0113144Y0338144D01*
X0113040Y0338263D01*
X0112939Y0338385D01*
X0112842Y0338510D01*
X0112747Y0338637D01*
X0112656Y0338766D01*
X0112567Y0338897D01*
X0112483Y0339031D01*
X0112401Y0339167D01*
X0112323Y0339304D01*
X0112249Y0339444D01*
X0112178Y0339586D01*
X0112110Y0339729D01*
X0112046Y0339874D01*
X0111986Y0340020D01*
X0111930Y0340168D01*
X0111877Y0340317D01*
X0111828Y0340468D01*
X0111783Y0340620D01*
X0111742Y0340773D01*
X0111704Y0340926D01*
X0111671Y0341081D01*
X0111641Y0341237D01*
X0111615Y0341393D01*
X0111594Y0341550D01*
X0111576Y0341707D01*
X0111562Y0341865D01*
X0111552Y0342023D01*
X0111546Y0342181D01*
X0111544Y0342339D01*
X0091500Y0245370D02*
X0091502Y0245531D01*
X0091508Y0245691D01*
X0091518Y0245852D01*
X0091532Y0246012D01*
X0091550Y0246172D01*
X0091571Y0246331D01*
X0091597Y0246490D01*
X0091627Y0246648D01*
X0091660Y0246805D01*
X0091698Y0246962D01*
X0091739Y0247117D01*
X0091784Y0247271D01*
X0091833Y0247424D01*
X0091886Y0247576D01*
X0091942Y0247727D01*
X0092003Y0247876D01*
X0092066Y0248024D01*
X0092134Y0248170D01*
X0092205Y0248314D01*
X0092279Y0248456D01*
X0092357Y0248597D01*
X0092439Y0248735D01*
X0092524Y0248872D01*
X0092612Y0249006D01*
X0092704Y0249138D01*
X0092799Y0249268D01*
X0092897Y0249396D01*
X0092998Y0249521D01*
X0093102Y0249643D01*
X0093209Y0249763D01*
X0093319Y0249880D01*
X0093432Y0249995D01*
X0093548Y0250106D01*
X0093667Y0250215D01*
X0093788Y0250320D01*
X0093912Y0250423D01*
X0094038Y0250523D01*
X0094166Y0250619D01*
X0094297Y0250712D01*
X0094431Y0250802D01*
X0094566Y0250889D01*
X0094704Y0250972D01*
X0094843Y0251052D01*
X0094985Y0251128D01*
X0095128Y0251201D01*
X0095273Y0251270D01*
X0095420Y0251336D01*
X0095568Y0251398D01*
X0095718Y0251456D01*
X0095869Y0251511D01*
X0096022Y0251562D01*
X0096176Y0251609D01*
X0096331Y0251652D01*
X0096487Y0251691D01*
X0096643Y0251727D01*
X0096801Y0251758D01*
X0096959Y0251786D01*
X0097118Y0251810D01*
X0097278Y0251830D01*
X0097438Y0251846D01*
X0097598Y0251858D01*
X0097759Y0251866D01*
X0097920Y0251870D01*
X0098080Y0251870D01*
X0098241Y0251866D01*
X0098402Y0251858D01*
X0098562Y0251846D01*
X0098722Y0251830D01*
X0098882Y0251810D01*
X0099041Y0251786D01*
X0099199Y0251758D01*
X0099357Y0251727D01*
X0099513Y0251691D01*
X0099669Y0251652D01*
X0099824Y0251609D01*
X0099978Y0251562D01*
X0100131Y0251511D01*
X0100282Y0251456D01*
X0100432Y0251398D01*
X0100580Y0251336D01*
X0100727Y0251270D01*
X0100872Y0251201D01*
X0101015Y0251128D01*
X0101157Y0251052D01*
X0101296Y0250972D01*
X0101434Y0250889D01*
X0101569Y0250802D01*
X0101703Y0250712D01*
X0101834Y0250619D01*
X0101962Y0250523D01*
X0102088Y0250423D01*
X0102212Y0250320D01*
X0102333Y0250215D01*
X0102452Y0250106D01*
X0102568Y0249995D01*
X0102681Y0249880D01*
X0102791Y0249763D01*
X0102898Y0249643D01*
X0103002Y0249521D01*
X0103103Y0249396D01*
X0103201Y0249268D01*
X0103296Y0249138D01*
X0103388Y0249006D01*
X0103476Y0248872D01*
X0103561Y0248735D01*
X0103643Y0248597D01*
X0103721Y0248456D01*
X0103795Y0248314D01*
X0103866Y0248170D01*
X0103934Y0248024D01*
X0103997Y0247876D01*
X0104058Y0247727D01*
X0104114Y0247576D01*
X0104167Y0247424D01*
X0104216Y0247271D01*
X0104261Y0247117D01*
X0104302Y0246962D01*
X0104340Y0246805D01*
X0104373Y0246648D01*
X0104403Y0246490D01*
X0104429Y0246331D01*
X0104450Y0246172D01*
X0104468Y0246012D01*
X0104482Y0245852D01*
X0104492Y0245691D01*
X0104498Y0245531D01*
X0104500Y0245370D01*
X0104498Y0245209D01*
X0104492Y0245049D01*
X0104482Y0244888D01*
X0104468Y0244728D01*
X0104450Y0244568D01*
X0104429Y0244409D01*
X0104403Y0244250D01*
X0104373Y0244092D01*
X0104340Y0243935D01*
X0104302Y0243778D01*
X0104261Y0243623D01*
X0104216Y0243469D01*
X0104167Y0243316D01*
X0104114Y0243164D01*
X0104058Y0243013D01*
X0103997Y0242864D01*
X0103934Y0242716D01*
X0103866Y0242570D01*
X0103795Y0242426D01*
X0103721Y0242284D01*
X0103643Y0242143D01*
X0103561Y0242005D01*
X0103476Y0241868D01*
X0103388Y0241734D01*
X0103296Y0241602D01*
X0103201Y0241472D01*
X0103103Y0241344D01*
X0103002Y0241219D01*
X0102898Y0241097D01*
X0102791Y0240977D01*
X0102681Y0240860D01*
X0102568Y0240745D01*
X0102452Y0240634D01*
X0102333Y0240525D01*
X0102212Y0240420D01*
X0102088Y0240317D01*
X0101962Y0240217D01*
X0101834Y0240121D01*
X0101703Y0240028D01*
X0101569Y0239938D01*
X0101434Y0239851D01*
X0101296Y0239768D01*
X0101157Y0239688D01*
X0101015Y0239612D01*
X0100872Y0239539D01*
X0100727Y0239470D01*
X0100580Y0239404D01*
X0100432Y0239342D01*
X0100282Y0239284D01*
X0100131Y0239229D01*
X0099978Y0239178D01*
X0099824Y0239131D01*
X0099669Y0239088D01*
X0099513Y0239049D01*
X0099357Y0239013D01*
X0099199Y0238982D01*
X0099041Y0238954D01*
X0098882Y0238930D01*
X0098722Y0238910D01*
X0098562Y0238894D01*
X0098402Y0238882D01*
X0098241Y0238874D01*
X0098080Y0238870D01*
X0097920Y0238870D01*
X0097759Y0238874D01*
X0097598Y0238882D01*
X0097438Y0238894D01*
X0097278Y0238910D01*
X0097118Y0238930D01*
X0096959Y0238954D01*
X0096801Y0238982D01*
X0096643Y0239013D01*
X0096487Y0239049D01*
X0096331Y0239088D01*
X0096176Y0239131D01*
X0096022Y0239178D01*
X0095869Y0239229D01*
X0095718Y0239284D01*
X0095568Y0239342D01*
X0095420Y0239404D01*
X0095273Y0239470D01*
X0095128Y0239539D01*
X0094985Y0239612D01*
X0094843Y0239688D01*
X0094704Y0239768D01*
X0094566Y0239851D01*
X0094431Y0239938D01*
X0094297Y0240028D01*
X0094166Y0240121D01*
X0094038Y0240217D01*
X0093912Y0240317D01*
X0093788Y0240420D01*
X0093667Y0240525D01*
X0093548Y0240634D01*
X0093432Y0240745D01*
X0093319Y0240860D01*
X0093209Y0240977D01*
X0093102Y0241097D01*
X0092998Y0241219D01*
X0092897Y0241344D01*
X0092799Y0241472D01*
X0092704Y0241602D01*
X0092612Y0241734D01*
X0092524Y0241868D01*
X0092439Y0242005D01*
X0092357Y0242143D01*
X0092279Y0242284D01*
X0092205Y0242426D01*
X0092134Y0242570D01*
X0092066Y0242716D01*
X0092003Y0242864D01*
X0091942Y0243013D01*
X0091886Y0243164D01*
X0091833Y0243316D01*
X0091784Y0243469D01*
X0091739Y0243623D01*
X0091698Y0243778D01*
X0091660Y0243935D01*
X0091627Y0244092D01*
X0091597Y0244250D01*
X0091571Y0244409D01*
X0091550Y0244568D01*
X0091532Y0244728D01*
X0091518Y0244888D01*
X0091508Y0245049D01*
X0091502Y0245209D01*
X0091500Y0245370D01*
X0261937Y0382890D02*
X0261939Y0383048D01*
X0261945Y0383206D01*
X0261955Y0383364D01*
X0261969Y0383522D01*
X0261987Y0383679D01*
X0262008Y0383836D01*
X0262034Y0383992D01*
X0262064Y0384148D01*
X0262097Y0384303D01*
X0262135Y0384456D01*
X0262176Y0384609D01*
X0262221Y0384761D01*
X0262270Y0384912D01*
X0262323Y0385061D01*
X0262379Y0385209D01*
X0262439Y0385355D01*
X0262503Y0385500D01*
X0262571Y0385643D01*
X0262642Y0385785D01*
X0262716Y0385925D01*
X0262794Y0386062D01*
X0262876Y0386198D01*
X0262960Y0386332D01*
X0263049Y0386463D01*
X0263140Y0386592D01*
X0263235Y0386719D01*
X0263332Y0386844D01*
X0263433Y0386966D01*
X0263537Y0387085D01*
X0263644Y0387202D01*
X0263754Y0387316D01*
X0263867Y0387427D01*
X0263982Y0387536D01*
X0264100Y0387641D01*
X0264221Y0387743D01*
X0264344Y0387843D01*
X0264470Y0387939D01*
X0264598Y0388032D01*
X0264728Y0388122D01*
X0264861Y0388208D01*
X0264996Y0388292D01*
X0265132Y0388371D01*
X0265271Y0388448D01*
X0265412Y0388520D01*
X0265554Y0388590D01*
X0265698Y0388655D01*
X0265844Y0388717D01*
X0265991Y0388775D01*
X0266140Y0388830D01*
X0266290Y0388881D01*
X0266441Y0388928D01*
X0266593Y0388971D01*
X0266746Y0389010D01*
X0266901Y0389046D01*
X0267056Y0389077D01*
X0267212Y0389105D01*
X0267368Y0389129D01*
X0267525Y0389149D01*
X0267683Y0389165D01*
X0267840Y0389177D01*
X0267999Y0389185D01*
X0268157Y0389189D01*
X0268315Y0389189D01*
X0268473Y0389185D01*
X0268632Y0389177D01*
X0268789Y0389165D01*
X0268947Y0389149D01*
X0269104Y0389129D01*
X0269260Y0389105D01*
X0269416Y0389077D01*
X0269571Y0389046D01*
X0269726Y0389010D01*
X0269879Y0388971D01*
X0270031Y0388928D01*
X0270182Y0388881D01*
X0270332Y0388830D01*
X0270481Y0388775D01*
X0270628Y0388717D01*
X0270774Y0388655D01*
X0270918Y0388590D01*
X0271060Y0388520D01*
X0271201Y0388448D01*
X0271340Y0388371D01*
X0271476Y0388292D01*
X0271611Y0388208D01*
X0271744Y0388122D01*
X0271874Y0388032D01*
X0272002Y0387939D01*
X0272128Y0387843D01*
X0272251Y0387743D01*
X0272372Y0387641D01*
X0272490Y0387536D01*
X0272605Y0387427D01*
X0272718Y0387316D01*
X0272828Y0387202D01*
X0272935Y0387085D01*
X0273039Y0386966D01*
X0273140Y0386844D01*
X0273237Y0386719D01*
X0273332Y0386592D01*
X0273423Y0386463D01*
X0273512Y0386332D01*
X0273596Y0386198D01*
X0273678Y0386062D01*
X0273756Y0385925D01*
X0273830Y0385785D01*
X0273901Y0385643D01*
X0273969Y0385500D01*
X0274033Y0385355D01*
X0274093Y0385209D01*
X0274149Y0385061D01*
X0274202Y0384912D01*
X0274251Y0384761D01*
X0274296Y0384609D01*
X0274337Y0384456D01*
X0274375Y0384303D01*
X0274408Y0384148D01*
X0274438Y0383992D01*
X0274464Y0383836D01*
X0274485Y0383679D01*
X0274503Y0383522D01*
X0274517Y0383364D01*
X0274527Y0383206D01*
X0274533Y0383048D01*
X0274535Y0382890D01*
X0274533Y0382732D01*
X0274527Y0382574D01*
X0274517Y0382416D01*
X0274503Y0382258D01*
X0274485Y0382101D01*
X0274464Y0381944D01*
X0274438Y0381788D01*
X0274408Y0381632D01*
X0274375Y0381477D01*
X0274337Y0381324D01*
X0274296Y0381171D01*
X0274251Y0381019D01*
X0274202Y0380868D01*
X0274149Y0380719D01*
X0274093Y0380571D01*
X0274033Y0380425D01*
X0273969Y0380280D01*
X0273901Y0380137D01*
X0273830Y0379995D01*
X0273756Y0379855D01*
X0273678Y0379718D01*
X0273596Y0379582D01*
X0273512Y0379448D01*
X0273423Y0379317D01*
X0273332Y0379188D01*
X0273237Y0379061D01*
X0273140Y0378936D01*
X0273039Y0378814D01*
X0272935Y0378695D01*
X0272828Y0378578D01*
X0272718Y0378464D01*
X0272605Y0378353D01*
X0272490Y0378244D01*
X0272372Y0378139D01*
X0272251Y0378037D01*
X0272128Y0377937D01*
X0272002Y0377841D01*
X0271874Y0377748D01*
X0271744Y0377658D01*
X0271611Y0377572D01*
X0271476Y0377488D01*
X0271340Y0377409D01*
X0271201Y0377332D01*
X0271060Y0377260D01*
X0270918Y0377190D01*
X0270774Y0377125D01*
X0270628Y0377063D01*
X0270481Y0377005D01*
X0270332Y0376950D01*
X0270182Y0376899D01*
X0270031Y0376852D01*
X0269879Y0376809D01*
X0269726Y0376770D01*
X0269571Y0376734D01*
X0269416Y0376703D01*
X0269260Y0376675D01*
X0269104Y0376651D01*
X0268947Y0376631D01*
X0268789Y0376615D01*
X0268632Y0376603D01*
X0268473Y0376595D01*
X0268315Y0376591D01*
X0268157Y0376591D01*
X0267999Y0376595D01*
X0267840Y0376603D01*
X0267683Y0376615D01*
X0267525Y0376631D01*
X0267368Y0376651D01*
X0267212Y0376675D01*
X0267056Y0376703D01*
X0266901Y0376734D01*
X0266746Y0376770D01*
X0266593Y0376809D01*
X0266441Y0376852D01*
X0266290Y0376899D01*
X0266140Y0376950D01*
X0265991Y0377005D01*
X0265844Y0377063D01*
X0265698Y0377125D01*
X0265554Y0377190D01*
X0265412Y0377260D01*
X0265271Y0377332D01*
X0265132Y0377409D01*
X0264996Y0377488D01*
X0264861Y0377572D01*
X0264728Y0377658D01*
X0264598Y0377748D01*
X0264470Y0377841D01*
X0264344Y0377937D01*
X0264221Y0378037D01*
X0264100Y0378139D01*
X0263982Y0378244D01*
X0263867Y0378353D01*
X0263754Y0378464D01*
X0263644Y0378578D01*
X0263537Y0378695D01*
X0263433Y0378814D01*
X0263332Y0378936D01*
X0263235Y0379061D01*
X0263140Y0379188D01*
X0263049Y0379317D01*
X0262960Y0379448D01*
X0262876Y0379582D01*
X0262794Y0379718D01*
X0262716Y0379855D01*
X0262642Y0379995D01*
X0262571Y0380137D01*
X0262503Y0380280D01*
X0262439Y0380425D01*
X0262379Y0380571D01*
X0262323Y0380719D01*
X0262270Y0380868D01*
X0262221Y0381019D01*
X0262176Y0381171D01*
X0262135Y0381324D01*
X0262097Y0381477D01*
X0262064Y0381632D01*
X0262034Y0381788D01*
X0262008Y0381944D01*
X0261987Y0382101D01*
X0261969Y0382258D01*
X0261955Y0382416D01*
X0261945Y0382574D01*
X0261939Y0382732D01*
X0261937Y0382890D01*
M02*
