G75*
%MOIN*%
%OFA0B0*%
%FSLAX25Y25*%
%IPPOS*%
%LPD*%
%AMOC8*
5,1,8,0,0,1.08239X$1,22.5*
%
%ADD10C,0.08300*%
%ADD11C,0.08400*%
%ADD12C,0.13800*%
%ADD13C,0.06343*%
%ADD14C,0.04343*%
%ADD15C,0.17800*%
%ADD16C,0.13398*%
%ADD17C,0.05950*%
%ADD18C,0.08200*%
%ADD19C,0.06000*%
%ADD20OC8,0.07800*%
%ADD21C,0.07800*%
%ADD22R,0.08300X0.08300*%
%ADD23C,0.11430*%
%ADD24C,0.04762*%
%ADD25C,0.05156*%
%ADD26C,0.04369*%
D10*
X0123000Y0130370D03*
X0123000Y0140370D03*
X0123000Y0150370D03*
X0123000Y0160370D03*
X0123000Y0170370D03*
X0123000Y0180370D03*
X0123000Y0190370D03*
X0123000Y0200370D03*
X0123000Y0210370D03*
X0123000Y0220370D03*
X0123000Y0230370D03*
X0123000Y0240370D03*
X0123000Y0295370D03*
X0113000Y0295370D03*
X0133000Y0295370D03*
X0143000Y0295370D03*
X0153000Y0295370D03*
X0163000Y0295370D03*
X0173000Y0295370D03*
X0183000Y0295370D03*
X0193000Y0295370D03*
X0203000Y0295370D03*
X0193000Y0240370D03*
X0193000Y0230370D03*
X0193000Y0220370D03*
X0193000Y0210370D03*
X0193000Y0200370D03*
X0193000Y0190370D03*
X0193000Y0180370D03*
X0193000Y0170370D03*
X0193000Y0160370D03*
X0193000Y0150370D03*
X0193000Y0140370D03*
X0193000Y0130370D03*
D11*
X0203000Y0130370D03*
X0203000Y0140370D03*
X0203000Y0150370D03*
X0203000Y0160370D03*
X0203000Y0170370D03*
X0203000Y0180370D03*
X0203000Y0190370D03*
X0203000Y0200370D03*
X0203000Y0210370D03*
X0203000Y0220370D03*
X0203000Y0230370D03*
X0203000Y0240370D03*
X0113000Y0240370D03*
X0113000Y0230370D03*
X0113000Y0220370D03*
X0113000Y0210370D03*
X0113000Y0200370D03*
X0113000Y0190370D03*
X0113000Y0180370D03*
X0113000Y0170370D03*
X0113000Y0160370D03*
X0113000Y0150370D03*
X0113000Y0140370D03*
X0113000Y0130370D03*
D12*
X0098000Y0125370D03*
X0098000Y0245370D03*
X0218000Y0245370D03*
X0218000Y0125370D03*
D13*
X0270228Y0120370D02*
X0275772Y0120370D01*
X0275772Y0130370D02*
X0270228Y0130370D01*
X0270228Y0140370D02*
X0275772Y0140370D01*
X0275772Y0165449D02*
X0270228Y0165449D01*
X0270228Y0175291D02*
X0275772Y0175291D01*
X0275772Y0200449D02*
X0270228Y0200449D01*
X0270228Y0210291D02*
X0275772Y0210291D01*
X0275772Y0235449D02*
X0270228Y0235449D01*
X0270228Y0245291D02*
X0275772Y0245291D01*
X0275772Y0270449D02*
X0270228Y0270449D01*
X0270228Y0280291D02*
X0275772Y0280291D01*
X0162921Y0098142D02*
X0162921Y0092598D01*
X0153079Y0092598D02*
X0153079Y0098142D01*
X0045772Y0165449D02*
X0040228Y0165449D01*
X0040228Y0175291D02*
X0045772Y0175291D01*
X0045772Y0200449D02*
X0040228Y0200449D01*
X0040228Y0210291D02*
X0045772Y0210291D01*
X0045772Y0235449D02*
X0040228Y0235449D01*
X0040228Y0245291D02*
X0045772Y0245291D01*
X0045772Y0270370D02*
X0040228Y0270370D01*
X0040228Y0280370D02*
X0045772Y0280370D01*
X0045772Y0290370D02*
X0040228Y0290370D01*
D14*
X0028000Y0128953D03*
X0028000Y0109268D03*
D15*
X0053000Y0060685D03*
X0053000Y0084307D03*
X0071504Y0072496D03*
D16*
X0118630Y0020685D03*
X0268236Y0020685D03*
X0198157Y0342339D03*
X0268236Y0382890D03*
X0117843Y0342339D03*
X0047764Y0382890D03*
D17*
X0053000Y0340213D03*
X0053000Y0320528D03*
D18*
X0123000Y0275370D03*
X0133000Y0275370D03*
X0143000Y0275370D03*
X0153000Y0275370D03*
D19*
X0220400Y0275370D02*
X0225600Y0275370D01*
X0225600Y0285370D02*
X0220400Y0285370D01*
X0220400Y0265370D02*
X0225600Y0265370D01*
X0250400Y0265370D02*
X0255600Y0265370D01*
X0255600Y0275370D02*
X0250400Y0275370D01*
X0250400Y0285370D02*
X0255600Y0285370D01*
X0255600Y0315370D02*
X0250400Y0315370D01*
X0250400Y0325370D02*
X0255600Y0325370D01*
X0255600Y0335370D02*
X0250400Y0335370D01*
X0250400Y0345370D02*
X0255600Y0345370D01*
X0225600Y0345370D02*
X0220400Y0345370D01*
X0220400Y0335370D02*
X0225600Y0335370D01*
X0225600Y0325370D02*
X0220400Y0325370D01*
X0220400Y0315370D02*
X0225600Y0315370D01*
D20*
X0283000Y0307870D03*
D21*
X0273000Y0307870D03*
D22*
X0277843Y0094898D03*
X0268000Y0094898D03*
X0258157Y0094898D03*
X0217843Y0094898D03*
X0208000Y0094898D03*
X0198157Y0094898D03*
D23*
X0189299Y0065370D03*
X0226701Y0065370D03*
X0249299Y0065370D03*
X0286701Y0065370D03*
D24*
X0230500Y0167870D03*
X0223000Y0190370D03*
X0225500Y0207870D03*
X0243000Y0245370D03*
X0238000Y0280370D03*
X0228000Y0300370D03*
X0238000Y0320370D03*
X0248000Y0300370D03*
X0278000Y0352870D03*
X0288000Y0352870D03*
X0268000Y0355370D03*
X0183000Y0225370D03*
X0165500Y0225370D03*
X0180500Y0130370D03*
X0185500Y0117870D03*
X0188000Y0105370D03*
X0195500Y0107870D03*
X0128000Y0062870D03*
X0098000Y0052870D03*
X0068000Y0095370D03*
X0058000Y0105370D03*
X0043000Y0120370D03*
X0043000Y0145370D03*
X0053000Y0152870D03*
X0070500Y0125370D03*
X0088000Y0110370D03*
X0053000Y0187870D03*
X0053000Y0222870D03*
X0080500Y0295370D03*
X0093000Y0317870D03*
D25*
X0128000Y0285370D03*
X0148000Y0285370D03*
X0173000Y0280370D03*
X0175500Y0265370D03*
X0208000Y0315370D03*
X0083000Y0265370D03*
X0068000Y0260370D03*
D26*
X0068000Y0270370D03*
X0075500Y0277870D03*
X0165500Y0120370D03*
X0183000Y0100370D03*
M02*
