G75*
%MOIN*%
%OFA0B0*%
%FSLAX25Y25*%
%IPPOS*%
%LPD*%
%AMOC8*
5,1,8,0,0,1.08239X$1,22.5*
%
%ADD10C,0.00800*%
%ADD11C,0.01000*%
%ADD12C,0.00600*%
%ADD13C,0.00500*%
%ADD14C,0.00400*%
%ADD15R,0.00787X0.03937*%
%ADD16C,0.00700*%
%ADD17C,0.00300*%
%ADD18R,0.03937X0.00787*%
D10*
X0035283Y0042181D02*
X0070717Y0042181D01*
X0070717Y0063047D01*
X0070717Y0081551D02*
X0070717Y0084307D01*
X0062449Y0084307D01*
X0043551Y0084307D02*
X0035283Y0084307D01*
X0035283Y0042181D01*
X0059181Y0113795D02*
X0056819Y0115370D01*
X0059181Y0116945D01*
X0059181Y0113795D01*
X0058787Y0114583D02*
X0057606Y0115370D01*
X0058787Y0116157D01*
X0058787Y0114583D01*
X0058787Y0114632D02*
X0058714Y0114632D01*
X0058787Y0115430D02*
X0057696Y0115430D01*
X0111819Y0100370D02*
X0114181Y0098795D01*
X0114181Y0101945D01*
X0111819Y0100370D01*
X0112606Y0100370D02*
X0113787Y0099583D01*
X0113787Y0101157D01*
X0112606Y0100370D01*
X0112774Y0100258D02*
X0113787Y0100258D01*
X0113787Y0101057D02*
X0113637Y0101057D01*
X0118000Y0115370D02*
X0118000Y0245370D01*
X0118000Y0237370D01*
X0123000Y0255370D02*
X0193000Y0255370D01*
X0198000Y0245370D01*
X0198000Y0115370D01*
X0118000Y0115370D01*
X0113669Y0057181D02*
X0113669Y0055370D01*
X0112449Y0054450D01*
X0113669Y0053559D02*
X0113669Y0055370D01*
X0113609Y0055470D02*
X0112449Y0056230D01*
X0111937Y0020685D02*
X0111939Y0020849D01*
X0111945Y0021013D01*
X0111955Y0021177D01*
X0111969Y0021341D01*
X0111987Y0021504D01*
X0112009Y0021667D01*
X0112036Y0021829D01*
X0112066Y0021991D01*
X0112100Y0022151D01*
X0112138Y0022311D01*
X0112179Y0022470D01*
X0112225Y0022628D01*
X0112275Y0022784D01*
X0112328Y0022940D01*
X0112385Y0023094D01*
X0112446Y0023246D01*
X0112511Y0023397D01*
X0112580Y0023547D01*
X0112652Y0023694D01*
X0112727Y0023840D01*
X0112807Y0023984D01*
X0112889Y0024126D01*
X0112975Y0024266D01*
X0113065Y0024403D01*
X0113158Y0024539D01*
X0113254Y0024672D01*
X0113354Y0024803D01*
X0113456Y0024931D01*
X0113562Y0025057D01*
X0113671Y0025180D01*
X0113783Y0025300D01*
X0113897Y0025418D01*
X0114015Y0025532D01*
X0114135Y0025644D01*
X0114258Y0025753D01*
X0114384Y0025859D01*
X0114512Y0025961D01*
X0114643Y0026061D01*
X0114776Y0026157D01*
X0114912Y0026250D01*
X0115049Y0026340D01*
X0115189Y0026426D01*
X0115331Y0026508D01*
X0115475Y0026588D01*
X0115621Y0026663D01*
X0115768Y0026735D01*
X0115918Y0026804D01*
X0116069Y0026869D01*
X0116221Y0026930D01*
X0116375Y0026987D01*
X0116531Y0027040D01*
X0116687Y0027090D01*
X0116845Y0027136D01*
X0117004Y0027177D01*
X0117164Y0027215D01*
X0117324Y0027249D01*
X0117486Y0027279D01*
X0117648Y0027306D01*
X0117811Y0027328D01*
X0117974Y0027346D01*
X0118138Y0027360D01*
X0118302Y0027370D01*
X0118466Y0027376D01*
X0118630Y0027378D01*
X0118794Y0027376D01*
X0118958Y0027370D01*
X0119122Y0027360D01*
X0119286Y0027346D01*
X0119449Y0027328D01*
X0119612Y0027306D01*
X0119774Y0027279D01*
X0119936Y0027249D01*
X0120096Y0027215D01*
X0120256Y0027177D01*
X0120415Y0027136D01*
X0120573Y0027090D01*
X0120729Y0027040D01*
X0120885Y0026987D01*
X0121039Y0026930D01*
X0121191Y0026869D01*
X0121342Y0026804D01*
X0121492Y0026735D01*
X0121639Y0026663D01*
X0121785Y0026588D01*
X0121929Y0026508D01*
X0122071Y0026426D01*
X0122211Y0026340D01*
X0122348Y0026250D01*
X0122484Y0026157D01*
X0122617Y0026061D01*
X0122748Y0025961D01*
X0122876Y0025859D01*
X0123002Y0025753D01*
X0123125Y0025644D01*
X0123245Y0025532D01*
X0123363Y0025418D01*
X0123477Y0025300D01*
X0123589Y0025180D01*
X0123698Y0025057D01*
X0123804Y0024931D01*
X0123906Y0024803D01*
X0124006Y0024672D01*
X0124102Y0024539D01*
X0124195Y0024403D01*
X0124285Y0024266D01*
X0124371Y0024126D01*
X0124453Y0023984D01*
X0124533Y0023840D01*
X0124608Y0023694D01*
X0124680Y0023547D01*
X0124749Y0023397D01*
X0124814Y0023246D01*
X0124875Y0023094D01*
X0124932Y0022940D01*
X0124985Y0022784D01*
X0125035Y0022628D01*
X0125081Y0022470D01*
X0125122Y0022311D01*
X0125160Y0022151D01*
X0125194Y0021991D01*
X0125224Y0021829D01*
X0125251Y0021667D01*
X0125273Y0021504D01*
X0125291Y0021341D01*
X0125305Y0021177D01*
X0125315Y0021013D01*
X0125321Y0020849D01*
X0125323Y0020685D01*
X0125321Y0020521D01*
X0125315Y0020357D01*
X0125305Y0020193D01*
X0125291Y0020029D01*
X0125273Y0019866D01*
X0125251Y0019703D01*
X0125224Y0019541D01*
X0125194Y0019379D01*
X0125160Y0019219D01*
X0125122Y0019059D01*
X0125081Y0018900D01*
X0125035Y0018742D01*
X0124985Y0018586D01*
X0124932Y0018430D01*
X0124875Y0018276D01*
X0124814Y0018124D01*
X0124749Y0017973D01*
X0124680Y0017823D01*
X0124608Y0017676D01*
X0124533Y0017530D01*
X0124453Y0017386D01*
X0124371Y0017244D01*
X0124285Y0017104D01*
X0124195Y0016967D01*
X0124102Y0016831D01*
X0124006Y0016698D01*
X0123906Y0016567D01*
X0123804Y0016439D01*
X0123698Y0016313D01*
X0123589Y0016190D01*
X0123477Y0016070D01*
X0123363Y0015952D01*
X0123245Y0015838D01*
X0123125Y0015726D01*
X0123002Y0015617D01*
X0122876Y0015511D01*
X0122748Y0015409D01*
X0122617Y0015309D01*
X0122484Y0015213D01*
X0122348Y0015120D01*
X0122211Y0015030D01*
X0122071Y0014944D01*
X0121929Y0014862D01*
X0121785Y0014782D01*
X0121639Y0014707D01*
X0121492Y0014635D01*
X0121342Y0014566D01*
X0121191Y0014501D01*
X0121039Y0014440D01*
X0120885Y0014383D01*
X0120729Y0014330D01*
X0120573Y0014280D01*
X0120415Y0014234D01*
X0120256Y0014193D01*
X0120096Y0014155D01*
X0119936Y0014121D01*
X0119774Y0014091D01*
X0119612Y0014064D01*
X0119449Y0014042D01*
X0119286Y0014024D01*
X0119122Y0014010D01*
X0118958Y0014000D01*
X0118794Y0013994D01*
X0118630Y0013992D01*
X0118466Y0013994D01*
X0118302Y0014000D01*
X0118138Y0014010D01*
X0117974Y0014024D01*
X0117811Y0014042D01*
X0117648Y0014064D01*
X0117486Y0014091D01*
X0117324Y0014121D01*
X0117164Y0014155D01*
X0117004Y0014193D01*
X0116845Y0014234D01*
X0116687Y0014280D01*
X0116531Y0014330D01*
X0116375Y0014383D01*
X0116221Y0014440D01*
X0116069Y0014501D01*
X0115918Y0014566D01*
X0115768Y0014635D01*
X0115621Y0014707D01*
X0115475Y0014782D01*
X0115331Y0014862D01*
X0115189Y0014944D01*
X0115049Y0015030D01*
X0114912Y0015120D01*
X0114776Y0015213D01*
X0114643Y0015309D01*
X0114512Y0015409D01*
X0114384Y0015511D01*
X0114258Y0015617D01*
X0114135Y0015726D01*
X0114015Y0015838D01*
X0113897Y0015952D01*
X0113783Y0016070D01*
X0113671Y0016190D01*
X0113562Y0016313D01*
X0113456Y0016439D01*
X0113354Y0016567D01*
X0113254Y0016698D01*
X0113158Y0016831D01*
X0113065Y0016967D01*
X0112975Y0017104D01*
X0112889Y0017244D01*
X0112807Y0017386D01*
X0112727Y0017530D01*
X0112652Y0017676D01*
X0112580Y0017823D01*
X0112511Y0017973D01*
X0112446Y0018124D01*
X0112385Y0018276D01*
X0112328Y0018430D01*
X0112275Y0018586D01*
X0112225Y0018742D01*
X0112179Y0018900D01*
X0112138Y0019059D01*
X0112100Y0019219D01*
X0112066Y0019379D01*
X0112036Y0019541D01*
X0112009Y0019703D01*
X0111987Y0019866D01*
X0111969Y0020029D01*
X0111955Y0020193D01*
X0111945Y0020357D01*
X0111939Y0020521D01*
X0111937Y0020685D01*
X0231819Y0198795D02*
X0231819Y0201945D01*
X0234181Y0200370D01*
X0231819Y0198795D01*
X0232213Y0199583D02*
X0232213Y0201157D01*
X0233394Y0200370D01*
X0232213Y0199583D01*
X0232213Y0200072D02*
X0232947Y0200072D01*
X0232643Y0200871D02*
X0232213Y0200871D01*
X0158000Y0272870D02*
X0158000Y0277870D01*
X0155500Y0280370D01*
X0150500Y0280370D01*
X0148000Y0277870D01*
X0145500Y0280370D01*
X0140500Y0280370D01*
X0138000Y0277870D01*
X0135500Y0280370D01*
X0130500Y0280370D01*
X0128000Y0277870D01*
X0125500Y0280370D01*
X0120500Y0280370D01*
X0118000Y0277870D01*
X0118000Y0272870D01*
X0120500Y0270370D01*
X0125500Y0270370D01*
X0128000Y0272870D01*
X0130500Y0270370D01*
X0135500Y0270370D01*
X0138000Y0272870D01*
X0140500Y0270370D01*
X0145500Y0270370D01*
X0148000Y0272870D01*
X0150500Y0270370D01*
X0155500Y0270370D01*
X0158000Y0272870D01*
X0266425Y0341551D02*
X0269575Y0341551D01*
X0268000Y0339189D01*
X0266425Y0341551D01*
X0267213Y0341157D02*
X0268787Y0341157D01*
X0268000Y0339976D01*
X0267213Y0341157D01*
X0267577Y0340610D02*
X0268423Y0340610D01*
X0261543Y0382890D02*
X0261545Y0383054D01*
X0261551Y0383218D01*
X0261561Y0383382D01*
X0261575Y0383546D01*
X0261593Y0383709D01*
X0261615Y0383872D01*
X0261642Y0384034D01*
X0261672Y0384196D01*
X0261706Y0384356D01*
X0261744Y0384516D01*
X0261785Y0384675D01*
X0261831Y0384833D01*
X0261881Y0384989D01*
X0261934Y0385145D01*
X0261991Y0385299D01*
X0262052Y0385451D01*
X0262117Y0385602D01*
X0262186Y0385752D01*
X0262258Y0385899D01*
X0262333Y0386045D01*
X0262413Y0386189D01*
X0262495Y0386331D01*
X0262581Y0386471D01*
X0262671Y0386608D01*
X0262764Y0386744D01*
X0262860Y0386877D01*
X0262960Y0387008D01*
X0263062Y0387136D01*
X0263168Y0387262D01*
X0263277Y0387385D01*
X0263389Y0387505D01*
X0263503Y0387623D01*
X0263621Y0387737D01*
X0263741Y0387849D01*
X0263864Y0387958D01*
X0263990Y0388064D01*
X0264118Y0388166D01*
X0264249Y0388266D01*
X0264382Y0388362D01*
X0264518Y0388455D01*
X0264655Y0388545D01*
X0264795Y0388631D01*
X0264937Y0388713D01*
X0265081Y0388793D01*
X0265227Y0388868D01*
X0265374Y0388940D01*
X0265524Y0389009D01*
X0265675Y0389074D01*
X0265827Y0389135D01*
X0265981Y0389192D01*
X0266137Y0389245D01*
X0266293Y0389295D01*
X0266451Y0389341D01*
X0266610Y0389382D01*
X0266770Y0389420D01*
X0266930Y0389454D01*
X0267092Y0389484D01*
X0267254Y0389511D01*
X0267417Y0389533D01*
X0267580Y0389551D01*
X0267744Y0389565D01*
X0267908Y0389575D01*
X0268072Y0389581D01*
X0268236Y0389583D01*
X0268400Y0389581D01*
X0268564Y0389575D01*
X0268728Y0389565D01*
X0268892Y0389551D01*
X0269055Y0389533D01*
X0269218Y0389511D01*
X0269380Y0389484D01*
X0269542Y0389454D01*
X0269702Y0389420D01*
X0269862Y0389382D01*
X0270021Y0389341D01*
X0270179Y0389295D01*
X0270335Y0389245D01*
X0270491Y0389192D01*
X0270645Y0389135D01*
X0270797Y0389074D01*
X0270948Y0389009D01*
X0271098Y0388940D01*
X0271245Y0388868D01*
X0271391Y0388793D01*
X0271535Y0388713D01*
X0271677Y0388631D01*
X0271817Y0388545D01*
X0271954Y0388455D01*
X0272090Y0388362D01*
X0272223Y0388266D01*
X0272354Y0388166D01*
X0272482Y0388064D01*
X0272608Y0387958D01*
X0272731Y0387849D01*
X0272851Y0387737D01*
X0272969Y0387623D01*
X0273083Y0387505D01*
X0273195Y0387385D01*
X0273304Y0387262D01*
X0273410Y0387136D01*
X0273512Y0387008D01*
X0273612Y0386877D01*
X0273708Y0386744D01*
X0273801Y0386608D01*
X0273891Y0386471D01*
X0273977Y0386331D01*
X0274059Y0386189D01*
X0274139Y0386045D01*
X0274214Y0385899D01*
X0274286Y0385752D01*
X0274355Y0385602D01*
X0274420Y0385451D01*
X0274481Y0385299D01*
X0274538Y0385145D01*
X0274591Y0384989D01*
X0274641Y0384833D01*
X0274687Y0384675D01*
X0274728Y0384516D01*
X0274766Y0384356D01*
X0274800Y0384196D01*
X0274830Y0384034D01*
X0274857Y0383872D01*
X0274879Y0383709D01*
X0274897Y0383546D01*
X0274911Y0383382D01*
X0274921Y0383218D01*
X0274927Y0383054D01*
X0274929Y0382890D01*
X0274927Y0382726D01*
X0274921Y0382562D01*
X0274911Y0382398D01*
X0274897Y0382234D01*
X0274879Y0382071D01*
X0274857Y0381908D01*
X0274830Y0381746D01*
X0274800Y0381584D01*
X0274766Y0381424D01*
X0274728Y0381264D01*
X0274687Y0381105D01*
X0274641Y0380947D01*
X0274591Y0380791D01*
X0274538Y0380635D01*
X0274481Y0380481D01*
X0274420Y0380329D01*
X0274355Y0380178D01*
X0274286Y0380028D01*
X0274214Y0379881D01*
X0274139Y0379735D01*
X0274059Y0379591D01*
X0273977Y0379449D01*
X0273891Y0379309D01*
X0273801Y0379172D01*
X0273708Y0379036D01*
X0273612Y0378903D01*
X0273512Y0378772D01*
X0273410Y0378644D01*
X0273304Y0378518D01*
X0273195Y0378395D01*
X0273083Y0378275D01*
X0272969Y0378157D01*
X0272851Y0378043D01*
X0272731Y0377931D01*
X0272608Y0377822D01*
X0272482Y0377716D01*
X0272354Y0377614D01*
X0272223Y0377514D01*
X0272090Y0377418D01*
X0271954Y0377325D01*
X0271817Y0377235D01*
X0271677Y0377149D01*
X0271535Y0377067D01*
X0271391Y0376987D01*
X0271245Y0376912D01*
X0271098Y0376840D01*
X0270948Y0376771D01*
X0270797Y0376706D01*
X0270645Y0376645D01*
X0270491Y0376588D01*
X0270335Y0376535D01*
X0270179Y0376485D01*
X0270021Y0376439D01*
X0269862Y0376398D01*
X0269702Y0376360D01*
X0269542Y0376326D01*
X0269380Y0376296D01*
X0269218Y0376269D01*
X0269055Y0376247D01*
X0268892Y0376229D01*
X0268728Y0376215D01*
X0268564Y0376205D01*
X0268400Y0376199D01*
X0268236Y0376197D01*
X0268072Y0376199D01*
X0267908Y0376205D01*
X0267744Y0376215D01*
X0267580Y0376229D01*
X0267417Y0376247D01*
X0267254Y0376269D01*
X0267092Y0376296D01*
X0266930Y0376326D01*
X0266770Y0376360D01*
X0266610Y0376398D01*
X0266451Y0376439D01*
X0266293Y0376485D01*
X0266137Y0376535D01*
X0265981Y0376588D01*
X0265827Y0376645D01*
X0265675Y0376706D01*
X0265524Y0376771D01*
X0265374Y0376840D01*
X0265227Y0376912D01*
X0265081Y0376987D01*
X0264937Y0377067D01*
X0264795Y0377149D01*
X0264655Y0377235D01*
X0264518Y0377325D01*
X0264382Y0377418D01*
X0264249Y0377514D01*
X0264118Y0377614D01*
X0263990Y0377716D01*
X0263864Y0377822D01*
X0263741Y0377931D01*
X0263621Y0378043D01*
X0263503Y0378157D01*
X0263389Y0378275D01*
X0263277Y0378395D01*
X0263168Y0378518D01*
X0263062Y0378644D01*
X0262960Y0378772D01*
X0262860Y0378903D01*
X0262764Y0379036D01*
X0262671Y0379172D01*
X0262581Y0379309D01*
X0262495Y0379449D01*
X0262413Y0379591D01*
X0262333Y0379735D01*
X0262258Y0379881D01*
X0262186Y0380028D01*
X0262117Y0380178D01*
X0262052Y0380329D01*
X0261991Y0380481D01*
X0261934Y0380635D01*
X0261881Y0380791D01*
X0261831Y0380947D01*
X0261785Y0381105D01*
X0261744Y0381264D01*
X0261706Y0381424D01*
X0261672Y0381584D01*
X0261642Y0381746D01*
X0261615Y0381908D01*
X0261593Y0382071D01*
X0261575Y0382234D01*
X0261561Y0382398D01*
X0261551Y0382562D01*
X0261545Y0382726D01*
X0261543Y0382890D01*
X0041071Y0382890D02*
X0041073Y0383054D01*
X0041079Y0383218D01*
X0041089Y0383382D01*
X0041103Y0383546D01*
X0041121Y0383709D01*
X0041143Y0383872D01*
X0041170Y0384034D01*
X0041200Y0384196D01*
X0041234Y0384356D01*
X0041272Y0384516D01*
X0041313Y0384675D01*
X0041359Y0384833D01*
X0041409Y0384989D01*
X0041462Y0385145D01*
X0041519Y0385299D01*
X0041580Y0385451D01*
X0041645Y0385602D01*
X0041714Y0385752D01*
X0041786Y0385899D01*
X0041861Y0386045D01*
X0041941Y0386189D01*
X0042023Y0386331D01*
X0042109Y0386471D01*
X0042199Y0386608D01*
X0042292Y0386744D01*
X0042388Y0386877D01*
X0042488Y0387008D01*
X0042590Y0387136D01*
X0042696Y0387262D01*
X0042805Y0387385D01*
X0042917Y0387505D01*
X0043031Y0387623D01*
X0043149Y0387737D01*
X0043269Y0387849D01*
X0043392Y0387958D01*
X0043518Y0388064D01*
X0043646Y0388166D01*
X0043777Y0388266D01*
X0043910Y0388362D01*
X0044046Y0388455D01*
X0044183Y0388545D01*
X0044323Y0388631D01*
X0044465Y0388713D01*
X0044609Y0388793D01*
X0044755Y0388868D01*
X0044902Y0388940D01*
X0045052Y0389009D01*
X0045203Y0389074D01*
X0045355Y0389135D01*
X0045509Y0389192D01*
X0045665Y0389245D01*
X0045821Y0389295D01*
X0045979Y0389341D01*
X0046138Y0389382D01*
X0046298Y0389420D01*
X0046458Y0389454D01*
X0046620Y0389484D01*
X0046782Y0389511D01*
X0046945Y0389533D01*
X0047108Y0389551D01*
X0047272Y0389565D01*
X0047436Y0389575D01*
X0047600Y0389581D01*
X0047764Y0389583D01*
X0047928Y0389581D01*
X0048092Y0389575D01*
X0048256Y0389565D01*
X0048420Y0389551D01*
X0048583Y0389533D01*
X0048746Y0389511D01*
X0048908Y0389484D01*
X0049070Y0389454D01*
X0049230Y0389420D01*
X0049390Y0389382D01*
X0049549Y0389341D01*
X0049707Y0389295D01*
X0049863Y0389245D01*
X0050019Y0389192D01*
X0050173Y0389135D01*
X0050325Y0389074D01*
X0050476Y0389009D01*
X0050626Y0388940D01*
X0050773Y0388868D01*
X0050919Y0388793D01*
X0051063Y0388713D01*
X0051205Y0388631D01*
X0051345Y0388545D01*
X0051482Y0388455D01*
X0051618Y0388362D01*
X0051751Y0388266D01*
X0051882Y0388166D01*
X0052010Y0388064D01*
X0052136Y0387958D01*
X0052259Y0387849D01*
X0052379Y0387737D01*
X0052497Y0387623D01*
X0052611Y0387505D01*
X0052723Y0387385D01*
X0052832Y0387262D01*
X0052938Y0387136D01*
X0053040Y0387008D01*
X0053140Y0386877D01*
X0053236Y0386744D01*
X0053329Y0386608D01*
X0053419Y0386471D01*
X0053505Y0386331D01*
X0053587Y0386189D01*
X0053667Y0386045D01*
X0053742Y0385899D01*
X0053814Y0385752D01*
X0053883Y0385602D01*
X0053948Y0385451D01*
X0054009Y0385299D01*
X0054066Y0385145D01*
X0054119Y0384989D01*
X0054169Y0384833D01*
X0054215Y0384675D01*
X0054256Y0384516D01*
X0054294Y0384356D01*
X0054328Y0384196D01*
X0054358Y0384034D01*
X0054385Y0383872D01*
X0054407Y0383709D01*
X0054425Y0383546D01*
X0054439Y0383382D01*
X0054449Y0383218D01*
X0054455Y0383054D01*
X0054457Y0382890D01*
X0054455Y0382726D01*
X0054449Y0382562D01*
X0054439Y0382398D01*
X0054425Y0382234D01*
X0054407Y0382071D01*
X0054385Y0381908D01*
X0054358Y0381746D01*
X0054328Y0381584D01*
X0054294Y0381424D01*
X0054256Y0381264D01*
X0054215Y0381105D01*
X0054169Y0380947D01*
X0054119Y0380791D01*
X0054066Y0380635D01*
X0054009Y0380481D01*
X0053948Y0380329D01*
X0053883Y0380178D01*
X0053814Y0380028D01*
X0053742Y0379881D01*
X0053667Y0379735D01*
X0053587Y0379591D01*
X0053505Y0379449D01*
X0053419Y0379309D01*
X0053329Y0379172D01*
X0053236Y0379036D01*
X0053140Y0378903D01*
X0053040Y0378772D01*
X0052938Y0378644D01*
X0052832Y0378518D01*
X0052723Y0378395D01*
X0052611Y0378275D01*
X0052497Y0378157D01*
X0052379Y0378043D01*
X0052259Y0377931D01*
X0052136Y0377822D01*
X0052010Y0377716D01*
X0051882Y0377614D01*
X0051751Y0377514D01*
X0051618Y0377418D01*
X0051482Y0377325D01*
X0051345Y0377235D01*
X0051205Y0377149D01*
X0051063Y0377067D01*
X0050919Y0376987D01*
X0050773Y0376912D01*
X0050626Y0376840D01*
X0050476Y0376771D01*
X0050325Y0376706D01*
X0050173Y0376645D01*
X0050019Y0376588D01*
X0049863Y0376535D01*
X0049707Y0376485D01*
X0049549Y0376439D01*
X0049390Y0376398D01*
X0049230Y0376360D01*
X0049070Y0376326D01*
X0048908Y0376296D01*
X0048746Y0376269D01*
X0048583Y0376247D01*
X0048420Y0376229D01*
X0048256Y0376215D01*
X0048092Y0376205D01*
X0047928Y0376199D01*
X0047764Y0376197D01*
X0047600Y0376199D01*
X0047436Y0376205D01*
X0047272Y0376215D01*
X0047108Y0376229D01*
X0046945Y0376247D01*
X0046782Y0376269D01*
X0046620Y0376296D01*
X0046458Y0376326D01*
X0046298Y0376360D01*
X0046138Y0376398D01*
X0045979Y0376439D01*
X0045821Y0376485D01*
X0045665Y0376535D01*
X0045509Y0376588D01*
X0045355Y0376645D01*
X0045203Y0376706D01*
X0045052Y0376771D01*
X0044902Y0376840D01*
X0044755Y0376912D01*
X0044609Y0376987D01*
X0044465Y0377067D01*
X0044323Y0377149D01*
X0044183Y0377235D01*
X0044046Y0377325D01*
X0043910Y0377418D01*
X0043777Y0377514D01*
X0043646Y0377614D01*
X0043518Y0377716D01*
X0043392Y0377822D01*
X0043269Y0377931D01*
X0043149Y0378043D01*
X0043031Y0378157D01*
X0042917Y0378275D01*
X0042805Y0378395D01*
X0042696Y0378518D01*
X0042590Y0378644D01*
X0042488Y0378772D01*
X0042388Y0378903D01*
X0042292Y0379036D01*
X0042199Y0379172D01*
X0042109Y0379309D01*
X0042023Y0379449D01*
X0041941Y0379591D01*
X0041861Y0379735D01*
X0041786Y0379881D01*
X0041714Y0380028D01*
X0041645Y0380178D01*
X0041580Y0380329D01*
X0041519Y0380481D01*
X0041462Y0380635D01*
X0041409Y0380791D01*
X0041359Y0380947D01*
X0041313Y0381105D01*
X0041272Y0381264D01*
X0041234Y0381424D01*
X0041200Y0381584D01*
X0041170Y0381746D01*
X0041143Y0381908D01*
X0041121Y0382071D01*
X0041103Y0382234D01*
X0041089Y0382398D01*
X0041079Y0382562D01*
X0041073Y0382726D01*
X0041071Y0382890D01*
X0261543Y0020685D02*
X0261545Y0020849D01*
X0261551Y0021013D01*
X0261561Y0021177D01*
X0261575Y0021341D01*
X0261593Y0021504D01*
X0261615Y0021667D01*
X0261642Y0021829D01*
X0261672Y0021991D01*
X0261706Y0022151D01*
X0261744Y0022311D01*
X0261785Y0022470D01*
X0261831Y0022628D01*
X0261881Y0022784D01*
X0261934Y0022940D01*
X0261991Y0023094D01*
X0262052Y0023246D01*
X0262117Y0023397D01*
X0262186Y0023547D01*
X0262258Y0023694D01*
X0262333Y0023840D01*
X0262413Y0023984D01*
X0262495Y0024126D01*
X0262581Y0024266D01*
X0262671Y0024403D01*
X0262764Y0024539D01*
X0262860Y0024672D01*
X0262960Y0024803D01*
X0263062Y0024931D01*
X0263168Y0025057D01*
X0263277Y0025180D01*
X0263389Y0025300D01*
X0263503Y0025418D01*
X0263621Y0025532D01*
X0263741Y0025644D01*
X0263864Y0025753D01*
X0263990Y0025859D01*
X0264118Y0025961D01*
X0264249Y0026061D01*
X0264382Y0026157D01*
X0264518Y0026250D01*
X0264655Y0026340D01*
X0264795Y0026426D01*
X0264937Y0026508D01*
X0265081Y0026588D01*
X0265227Y0026663D01*
X0265374Y0026735D01*
X0265524Y0026804D01*
X0265675Y0026869D01*
X0265827Y0026930D01*
X0265981Y0026987D01*
X0266137Y0027040D01*
X0266293Y0027090D01*
X0266451Y0027136D01*
X0266610Y0027177D01*
X0266770Y0027215D01*
X0266930Y0027249D01*
X0267092Y0027279D01*
X0267254Y0027306D01*
X0267417Y0027328D01*
X0267580Y0027346D01*
X0267744Y0027360D01*
X0267908Y0027370D01*
X0268072Y0027376D01*
X0268236Y0027378D01*
X0268400Y0027376D01*
X0268564Y0027370D01*
X0268728Y0027360D01*
X0268892Y0027346D01*
X0269055Y0027328D01*
X0269218Y0027306D01*
X0269380Y0027279D01*
X0269542Y0027249D01*
X0269702Y0027215D01*
X0269862Y0027177D01*
X0270021Y0027136D01*
X0270179Y0027090D01*
X0270335Y0027040D01*
X0270491Y0026987D01*
X0270645Y0026930D01*
X0270797Y0026869D01*
X0270948Y0026804D01*
X0271098Y0026735D01*
X0271245Y0026663D01*
X0271391Y0026588D01*
X0271535Y0026508D01*
X0271677Y0026426D01*
X0271817Y0026340D01*
X0271954Y0026250D01*
X0272090Y0026157D01*
X0272223Y0026061D01*
X0272354Y0025961D01*
X0272482Y0025859D01*
X0272608Y0025753D01*
X0272731Y0025644D01*
X0272851Y0025532D01*
X0272969Y0025418D01*
X0273083Y0025300D01*
X0273195Y0025180D01*
X0273304Y0025057D01*
X0273410Y0024931D01*
X0273512Y0024803D01*
X0273612Y0024672D01*
X0273708Y0024539D01*
X0273801Y0024403D01*
X0273891Y0024266D01*
X0273977Y0024126D01*
X0274059Y0023984D01*
X0274139Y0023840D01*
X0274214Y0023694D01*
X0274286Y0023547D01*
X0274355Y0023397D01*
X0274420Y0023246D01*
X0274481Y0023094D01*
X0274538Y0022940D01*
X0274591Y0022784D01*
X0274641Y0022628D01*
X0274687Y0022470D01*
X0274728Y0022311D01*
X0274766Y0022151D01*
X0274800Y0021991D01*
X0274830Y0021829D01*
X0274857Y0021667D01*
X0274879Y0021504D01*
X0274897Y0021341D01*
X0274911Y0021177D01*
X0274921Y0021013D01*
X0274927Y0020849D01*
X0274929Y0020685D01*
X0274927Y0020521D01*
X0274921Y0020357D01*
X0274911Y0020193D01*
X0274897Y0020029D01*
X0274879Y0019866D01*
X0274857Y0019703D01*
X0274830Y0019541D01*
X0274800Y0019379D01*
X0274766Y0019219D01*
X0274728Y0019059D01*
X0274687Y0018900D01*
X0274641Y0018742D01*
X0274591Y0018586D01*
X0274538Y0018430D01*
X0274481Y0018276D01*
X0274420Y0018124D01*
X0274355Y0017973D01*
X0274286Y0017823D01*
X0274214Y0017676D01*
X0274139Y0017530D01*
X0274059Y0017386D01*
X0273977Y0017244D01*
X0273891Y0017104D01*
X0273801Y0016967D01*
X0273708Y0016831D01*
X0273612Y0016698D01*
X0273512Y0016567D01*
X0273410Y0016439D01*
X0273304Y0016313D01*
X0273195Y0016190D01*
X0273083Y0016070D01*
X0272969Y0015952D01*
X0272851Y0015838D01*
X0272731Y0015726D01*
X0272608Y0015617D01*
X0272482Y0015511D01*
X0272354Y0015409D01*
X0272223Y0015309D01*
X0272090Y0015213D01*
X0271954Y0015120D01*
X0271817Y0015030D01*
X0271677Y0014944D01*
X0271535Y0014862D01*
X0271391Y0014782D01*
X0271245Y0014707D01*
X0271098Y0014635D01*
X0270948Y0014566D01*
X0270797Y0014501D01*
X0270645Y0014440D01*
X0270491Y0014383D01*
X0270335Y0014330D01*
X0270179Y0014280D01*
X0270021Y0014234D01*
X0269862Y0014193D01*
X0269702Y0014155D01*
X0269542Y0014121D01*
X0269380Y0014091D01*
X0269218Y0014064D01*
X0269055Y0014042D01*
X0268892Y0014024D01*
X0268728Y0014010D01*
X0268564Y0014000D01*
X0268400Y0013994D01*
X0268236Y0013992D01*
X0268072Y0013994D01*
X0267908Y0014000D01*
X0267744Y0014010D01*
X0267580Y0014024D01*
X0267417Y0014042D01*
X0267254Y0014064D01*
X0267092Y0014091D01*
X0266930Y0014121D01*
X0266770Y0014155D01*
X0266610Y0014193D01*
X0266451Y0014234D01*
X0266293Y0014280D01*
X0266137Y0014330D01*
X0265981Y0014383D01*
X0265827Y0014440D01*
X0265675Y0014501D01*
X0265524Y0014566D01*
X0265374Y0014635D01*
X0265227Y0014707D01*
X0265081Y0014782D01*
X0264937Y0014862D01*
X0264795Y0014944D01*
X0264655Y0015030D01*
X0264518Y0015120D01*
X0264382Y0015213D01*
X0264249Y0015309D01*
X0264118Y0015409D01*
X0263990Y0015511D01*
X0263864Y0015617D01*
X0263741Y0015726D01*
X0263621Y0015838D01*
X0263503Y0015952D01*
X0263389Y0016070D01*
X0263277Y0016190D01*
X0263168Y0016313D01*
X0263062Y0016439D01*
X0262960Y0016567D01*
X0262860Y0016698D01*
X0262764Y0016831D01*
X0262671Y0016967D01*
X0262581Y0017104D01*
X0262495Y0017244D01*
X0262413Y0017386D01*
X0262333Y0017530D01*
X0262258Y0017676D01*
X0262186Y0017823D01*
X0262117Y0017973D01*
X0262052Y0018124D01*
X0261991Y0018276D01*
X0261934Y0018430D01*
X0261881Y0018586D01*
X0261831Y0018742D01*
X0261785Y0018900D01*
X0261744Y0019059D01*
X0261706Y0019219D01*
X0261672Y0019379D01*
X0261642Y0019541D01*
X0261615Y0019703D01*
X0261593Y0019866D01*
X0261575Y0020029D01*
X0261561Y0020193D01*
X0261551Y0020357D01*
X0261545Y0020521D01*
X0261543Y0020685D01*
D11*
X0118000Y0245370D02*
X0123000Y0255370D01*
D12*
X0114700Y0250055D02*
X0114700Y0248920D01*
X0114133Y0248353D01*
X0111864Y0250622D01*
X0114133Y0250622D01*
X0114700Y0250055D01*
X0114133Y0248353D02*
X0111864Y0248353D01*
X0111297Y0248920D01*
X0111297Y0250055D01*
X0111864Y0250622D01*
X0111864Y0246939D02*
X0111297Y0246372D01*
X0111297Y0244670D01*
X0114700Y0244670D01*
X0114700Y0246372D01*
X0114133Y0246939D01*
X0111864Y0246939D01*
X0105751Y0232073D02*
X0105751Y0228670D01*
X0104617Y0228670D02*
X0106885Y0228670D01*
X0104617Y0230939D02*
X0105751Y0232073D01*
X0103202Y0231506D02*
X0103202Y0229237D01*
X0102635Y0228670D01*
X0100934Y0228670D01*
X0100934Y0232073D01*
X0102635Y0232073D01*
X0103202Y0231506D01*
X0102635Y0222073D02*
X0100934Y0222073D01*
X0100934Y0218670D01*
X0102635Y0218670D01*
X0103202Y0219237D01*
X0103202Y0221506D01*
X0102635Y0222073D01*
X0104617Y0221506D02*
X0105184Y0222073D01*
X0106318Y0222073D01*
X0106885Y0221506D01*
X0106885Y0220939D01*
X0104617Y0218670D01*
X0106885Y0218670D01*
X0106318Y0212073D02*
X0106885Y0211506D01*
X0106885Y0210939D01*
X0106318Y0210372D01*
X0106885Y0209804D01*
X0106885Y0209237D01*
X0106318Y0208670D01*
X0105184Y0208670D01*
X0104617Y0209237D01*
X0103202Y0209237D02*
X0103202Y0211506D01*
X0102635Y0212073D01*
X0100934Y0212073D01*
X0100934Y0208670D01*
X0102635Y0208670D01*
X0103202Y0209237D01*
X0104617Y0211506D02*
X0105184Y0212073D01*
X0106318Y0212073D01*
X0106318Y0210372D02*
X0105751Y0210372D01*
X0106318Y0202073D02*
X0104617Y0200372D01*
X0106885Y0200372D01*
X0106318Y0198670D02*
X0106318Y0202073D01*
X0103202Y0201506D02*
X0102635Y0202073D01*
X0100934Y0202073D01*
X0100934Y0198670D01*
X0102635Y0198670D01*
X0103202Y0199237D01*
X0103202Y0201506D01*
X0102635Y0192073D02*
X0100934Y0192073D01*
X0100934Y0188670D01*
X0102635Y0188670D01*
X0103202Y0189237D01*
X0103202Y0191506D01*
X0102635Y0192073D01*
X0104617Y0192073D02*
X0104617Y0190372D01*
X0105751Y0190939D01*
X0106318Y0190939D01*
X0106885Y0190372D01*
X0106885Y0189237D01*
X0106318Y0188670D01*
X0105184Y0188670D01*
X0104617Y0189237D01*
X0104617Y0192073D02*
X0106885Y0192073D01*
X0106885Y0182073D02*
X0105751Y0181506D01*
X0104617Y0180372D01*
X0106318Y0180372D01*
X0106885Y0179804D01*
X0106885Y0179237D01*
X0106318Y0178670D01*
X0105184Y0178670D01*
X0104617Y0179237D01*
X0104617Y0180372D01*
X0103202Y0181506D02*
X0102635Y0182073D01*
X0100934Y0182073D01*
X0100934Y0178670D01*
X0102635Y0178670D01*
X0103202Y0179237D01*
X0103202Y0181506D01*
X0102635Y0172073D02*
X0100934Y0172073D01*
X0100934Y0168670D01*
X0102635Y0168670D01*
X0103202Y0169237D01*
X0103202Y0171506D01*
X0102635Y0172073D01*
X0104617Y0172073D02*
X0106885Y0172073D01*
X0106885Y0171506D01*
X0104617Y0169237D01*
X0104617Y0168670D01*
X0104617Y0162073D02*
X0106318Y0162073D01*
X0106885Y0161506D01*
X0106885Y0159237D01*
X0106318Y0158670D01*
X0104617Y0158670D01*
X0104617Y0162073D01*
X0103202Y0162073D02*
X0103202Y0158670D01*
X0100934Y0162073D01*
X0100934Y0158670D01*
X0099519Y0159237D02*
X0099519Y0160372D01*
X0098385Y0160372D01*
X0099519Y0161506D02*
X0098952Y0162073D01*
X0097818Y0162073D01*
X0097251Y0161506D01*
X0097251Y0159237D01*
X0097818Y0158670D01*
X0098952Y0158670D01*
X0099519Y0159237D01*
X0098952Y0152073D02*
X0097251Y0152073D01*
X0097251Y0148670D01*
X0098952Y0148670D01*
X0099519Y0149237D01*
X0099519Y0149804D01*
X0098952Y0150372D01*
X0097251Y0150372D01*
X0095836Y0149804D02*
X0095836Y0152073D01*
X0093567Y0152073D02*
X0093567Y0149804D01*
X0094702Y0148670D01*
X0095836Y0149804D01*
X0098952Y0150372D02*
X0099519Y0150939D01*
X0099519Y0151506D01*
X0098952Y0152073D01*
X0100934Y0150939D02*
X0100934Y0148670D01*
X0100934Y0150372D02*
X0103202Y0150372D01*
X0103202Y0150939D02*
X0103202Y0148670D01*
X0103202Y0150939D02*
X0102068Y0152073D01*
X0100934Y0150939D01*
X0104617Y0152073D02*
X0106885Y0152073D01*
X0105751Y0152073D02*
X0105751Y0148670D01*
X0105751Y0142073D02*
X0105751Y0138670D01*
X0103202Y0139237D02*
X0102635Y0138670D01*
X0101501Y0138670D01*
X0100934Y0139237D01*
X0101501Y0140372D02*
X0102635Y0140372D01*
X0103202Y0139804D01*
X0103202Y0139237D01*
X0101501Y0140372D02*
X0100934Y0140939D01*
X0100934Y0141506D01*
X0101501Y0142073D01*
X0102635Y0142073D01*
X0103202Y0141506D01*
X0104617Y0142073D02*
X0106885Y0142073D01*
X0099519Y0141506D02*
X0099519Y0140372D01*
X0098952Y0139804D01*
X0097251Y0139804D01*
X0098385Y0139804D02*
X0099519Y0138670D01*
X0097251Y0138670D02*
X0097251Y0142073D01*
X0098952Y0142073D01*
X0099519Y0141506D01*
X0111931Y0124306D02*
X0112465Y0124306D01*
X0112999Y0123772D01*
X0113532Y0124306D01*
X0114066Y0124306D01*
X0114600Y0123772D01*
X0114600Y0122705D01*
X0114066Y0122171D01*
X0113532Y0120807D02*
X0111397Y0120807D01*
X0111931Y0122171D02*
X0111397Y0122705D01*
X0111397Y0123772D01*
X0111931Y0124306D01*
X0112999Y0123772D02*
X0112999Y0123239D01*
X0113532Y0120807D02*
X0114600Y0119740D01*
X0113532Y0118672D01*
X0111397Y0118672D01*
X0111931Y0117308D02*
X0112465Y0117308D01*
X0112999Y0116774D01*
X0113532Y0117308D01*
X0114066Y0117308D01*
X0114600Y0116774D01*
X0114600Y0115707D01*
X0114066Y0115173D01*
X0112999Y0116241D02*
X0112999Y0116774D01*
X0111931Y0117308D02*
X0111397Y0116774D01*
X0111397Y0115707D01*
X0111931Y0115173D01*
X0109811Y0080969D02*
X0109811Y0080598D01*
X0109811Y0080969D02*
X0116189Y0080969D01*
X0116189Y0080598D01*
X0116189Y0077425D02*
X0116189Y0077055D01*
X0116189Y0073685D02*
X0116189Y0073315D01*
X0116189Y0070142D02*
X0116189Y0069772D01*
X0109811Y0069772D01*
X0109811Y0070142D01*
X0109811Y0073315D02*
X0109811Y0077425D01*
X0105130Y0020685D02*
X0105134Y0021016D01*
X0105146Y0021347D01*
X0105167Y0021678D01*
X0105195Y0022008D01*
X0105232Y0022338D01*
X0105276Y0022666D01*
X0105329Y0022993D01*
X0105389Y0023319D01*
X0105458Y0023643D01*
X0105535Y0023965D01*
X0105619Y0024286D01*
X0105711Y0024604D01*
X0105811Y0024920D01*
X0105919Y0025233D01*
X0106035Y0025544D01*
X0106158Y0025851D01*
X0106288Y0026156D01*
X0106426Y0026457D01*
X0106571Y0026755D01*
X0106724Y0027049D01*
X0106884Y0027339D01*
X0107051Y0027625D01*
X0107224Y0027907D01*
X0107405Y0028185D01*
X0107593Y0028458D01*
X0107787Y0028727D01*
X0107987Y0028991D01*
X0108194Y0029249D01*
X0108408Y0029503D01*
X0108627Y0029751D01*
X0108853Y0029994D01*
X0109084Y0030231D01*
X0109321Y0030462D01*
X0109564Y0030688D01*
X0109812Y0030907D01*
X0110066Y0031121D01*
X0110324Y0031328D01*
X0110588Y0031528D01*
X0110857Y0031722D01*
X0111130Y0031910D01*
X0111408Y0032091D01*
X0111690Y0032264D01*
X0111976Y0032431D01*
X0112266Y0032591D01*
X0112560Y0032744D01*
X0112858Y0032889D01*
X0113159Y0033027D01*
X0113464Y0033157D01*
X0113771Y0033280D01*
X0114082Y0033396D01*
X0114395Y0033504D01*
X0114711Y0033604D01*
X0115029Y0033696D01*
X0115350Y0033780D01*
X0115672Y0033857D01*
X0115996Y0033926D01*
X0116322Y0033986D01*
X0116649Y0034039D01*
X0116977Y0034083D01*
X0117307Y0034120D01*
X0117637Y0034148D01*
X0117968Y0034169D01*
X0118299Y0034181D01*
X0118630Y0034185D01*
X0118961Y0034181D01*
X0119292Y0034169D01*
X0119623Y0034148D01*
X0119953Y0034120D01*
X0120283Y0034083D01*
X0120611Y0034039D01*
X0120938Y0033986D01*
X0121264Y0033926D01*
X0121588Y0033857D01*
X0121910Y0033780D01*
X0122231Y0033696D01*
X0122549Y0033604D01*
X0122865Y0033504D01*
X0123178Y0033396D01*
X0123489Y0033280D01*
X0123796Y0033157D01*
X0124101Y0033027D01*
X0124402Y0032889D01*
X0124700Y0032744D01*
X0124994Y0032591D01*
X0125284Y0032431D01*
X0125570Y0032264D01*
X0125852Y0032091D01*
X0126130Y0031910D01*
X0126403Y0031722D01*
X0126672Y0031528D01*
X0126936Y0031328D01*
X0127194Y0031121D01*
X0127448Y0030907D01*
X0127696Y0030688D01*
X0127939Y0030462D01*
X0128176Y0030231D01*
X0128407Y0029994D01*
X0128633Y0029751D01*
X0128852Y0029503D01*
X0129066Y0029249D01*
X0129273Y0028991D01*
X0129473Y0028727D01*
X0129667Y0028458D01*
X0129855Y0028185D01*
X0130036Y0027907D01*
X0130209Y0027625D01*
X0130376Y0027339D01*
X0130536Y0027049D01*
X0130689Y0026755D01*
X0130834Y0026457D01*
X0130972Y0026156D01*
X0131102Y0025851D01*
X0131225Y0025544D01*
X0131341Y0025233D01*
X0131449Y0024920D01*
X0131549Y0024604D01*
X0131641Y0024286D01*
X0131725Y0023965D01*
X0131802Y0023643D01*
X0131871Y0023319D01*
X0131931Y0022993D01*
X0131984Y0022666D01*
X0132028Y0022338D01*
X0132065Y0022008D01*
X0132093Y0021678D01*
X0132114Y0021347D01*
X0132126Y0021016D01*
X0132130Y0020685D01*
X0132126Y0020354D01*
X0132114Y0020023D01*
X0132093Y0019692D01*
X0132065Y0019362D01*
X0132028Y0019032D01*
X0131984Y0018704D01*
X0131931Y0018377D01*
X0131871Y0018051D01*
X0131802Y0017727D01*
X0131725Y0017405D01*
X0131641Y0017084D01*
X0131549Y0016766D01*
X0131449Y0016450D01*
X0131341Y0016137D01*
X0131225Y0015826D01*
X0131102Y0015519D01*
X0130972Y0015214D01*
X0130834Y0014913D01*
X0130689Y0014615D01*
X0130536Y0014321D01*
X0130376Y0014031D01*
X0130209Y0013745D01*
X0130036Y0013463D01*
X0129855Y0013185D01*
X0129667Y0012912D01*
X0129473Y0012643D01*
X0129273Y0012379D01*
X0129066Y0012121D01*
X0128852Y0011867D01*
X0128633Y0011619D01*
X0128407Y0011376D01*
X0128176Y0011139D01*
X0127939Y0010908D01*
X0127696Y0010682D01*
X0127448Y0010463D01*
X0127194Y0010249D01*
X0126936Y0010042D01*
X0126672Y0009842D01*
X0126403Y0009648D01*
X0126130Y0009460D01*
X0125852Y0009279D01*
X0125570Y0009106D01*
X0125284Y0008939D01*
X0124994Y0008779D01*
X0124700Y0008626D01*
X0124402Y0008481D01*
X0124101Y0008343D01*
X0123796Y0008213D01*
X0123489Y0008090D01*
X0123178Y0007974D01*
X0122865Y0007866D01*
X0122549Y0007766D01*
X0122231Y0007674D01*
X0121910Y0007590D01*
X0121588Y0007513D01*
X0121264Y0007444D01*
X0120938Y0007384D01*
X0120611Y0007331D01*
X0120283Y0007287D01*
X0119953Y0007250D01*
X0119623Y0007222D01*
X0119292Y0007201D01*
X0118961Y0007189D01*
X0118630Y0007185D01*
X0118299Y0007189D01*
X0117968Y0007201D01*
X0117637Y0007222D01*
X0117307Y0007250D01*
X0116977Y0007287D01*
X0116649Y0007331D01*
X0116322Y0007384D01*
X0115996Y0007444D01*
X0115672Y0007513D01*
X0115350Y0007590D01*
X0115029Y0007674D01*
X0114711Y0007766D01*
X0114395Y0007866D01*
X0114082Y0007974D01*
X0113771Y0008090D01*
X0113464Y0008213D01*
X0113159Y0008343D01*
X0112858Y0008481D01*
X0112560Y0008626D01*
X0112266Y0008779D01*
X0111976Y0008939D01*
X0111690Y0009106D01*
X0111408Y0009279D01*
X0111130Y0009460D01*
X0110857Y0009648D01*
X0110588Y0009842D01*
X0110324Y0010042D01*
X0110066Y0010249D01*
X0109812Y0010463D01*
X0109564Y0010682D01*
X0109321Y0010908D01*
X0109084Y0011139D01*
X0108853Y0011376D01*
X0108627Y0011619D01*
X0108408Y0011867D01*
X0108194Y0012121D01*
X0107987Y0012379D01*
X0107787Y0012643D01*
X0107593Y0012912D01*
X0107405Y0013185D01*
X0107224Y0013463D01*
X0107051Y0013745D01*
X0106884Y0014031D01*
X0106724Y0014321D01*
X0106571Y0014615D01*
X0106426Y0014913D01*
X0106288Y0015214D01*
X0106158Y0015519D01*
X0106035Y0015826D01*
X0105919Y0016137D01*
X0105811Y0016450D01*
X0105711Y0016766D01*
X0105619Y0017084D01*
X0105535Y0017405D01*
X0105458Y0017727D01*
X0105389Y0018051D01*
X0105329Y0018377D01*
X0105276Y0018704D01*
X0105232Y0019032D01*
X0105195Y0019362D01*
X0105167Y0019692D01*
X0105146Y0020023D01*
X0105134Y0020354D01*
X0105130Y0020685D01*
X0201397Y0116339D02*
X0203532Y0116339D01*
X0204600Y0117407D01*
X0203532Y0118475D01*
X0201397Y0118475D01*
X0201397Y0119838D02*
X0201397Y0120906D01*
X0201397Y0120372D02*
X0204600Y0120372D01*
X0204600Y0119838D02*
X0204600Y0120906D01*
X0204600Y0122171D02*
X0201397Y0122171D01*
X0204600Y0124306D01*
X0201397Y0124306D01*
X0207867Y0138670D02*
X0209001Y0138670D01*
X0209569Y0139237D01*
X0209569Y0140372D01*
X0208434Y0140372D01*
X0207300Y0141506D02*
X0207300Y0139237D01*
X0207867Y0138670D01*
X0207300Y0141506D02*
X0207867Y0142073D01*
X0209001Y0142073D01*
X0209569Y0141506D01*
X0210983Y0142073D02*
X0213252Y0138670D01*
X0213252Y0142073D01*
X0214666Y0142073D02*
X0216368Y0142073D01*
X0216935Y0141506D01*
X0216935Y0139237D01*
X0216368Y0138670D01*
X0214666Y0138670D01*
X0214666Y0142073D01*
X0210983Y0142073D02*
X0210983Y0138670D01*
X0210983Y0148670D02*
X0213252Y0152073D01*
X0210983Y0152073D02*
X0213252Y0148670D01*
X0208434Y0148670D02*
X0208434Y0152073D01*
X0207300Y0152073D02*
X0209569Y0152073D01*
X0209569Y0158670D02*
X0208434Y0159804D01*
X0209001Y0159804D02*
X0207300Y0159804D01*
X0207300Y0158670D02*
X0207300Y0162073D01*
X0209001Y0162073D01*
X0209569Y0161506D01*
X0209569Y0160372D01*
X0209001Y0159804D01*
X0210983Y0158670D02*
X0213252Y0162073D01*
X0210983Y0162073D02*
X0213252Y0158670D01*
X0213252Y0168670D02*
X0211550Y0170372D01*
X0210983Y0169804D02*
X0213252Y0172073D01*
X0214666Y0172073D02*
X0216368Y0172073D01*
X0216935Y0171506D01*
X0216935Y0170372D01*
X0216368Y0169804D01*
X0214666Y0169804D01*
X0214666Y0168670D02*
X0214666Y0172073D01*
X0210983Y0172073D02*
X0210983Y0168670D01*
X0209569Y0168670D02*
X0209569Y0172073D01*
X0207300Y0172073D02*
X0207300Y0168670D01*
X0208434Y0169804D01*
X0209569Y0168670D01*
X0209001Y0178670D02*
X0207300Y0178670D01*
X0207300Y0182073D01*
X0209001Y0182073D01*
X0209569Y0181506D01*
X0209569Y0179237D01*
X0209001Y0178670D01*
X0210983Y0178670D02*
X0210983Y0180939D01*
X0212117Y0182073D01*
X0213252Y0180939D01*
X0213252Y0178670D01*
X0214666Y0179237D02*
X0215233Y0178670D01*
X0216368Y0178670D01*
X0216935Y0179237D01*
X0214666Y0179237D02*
X0214666Y0181506D01*
X0215233Y0182073D01*
X0216368Y0182073D01*
X0216935Y0181506D01*
X0213252Y0180372D02*
X0210983Y0180372D01*
X0211550Y0188670D02*
X0210983Y0189237D01*
X0211550Y0188670D02*
X0212685Y0188670D01*
X0213252Y0189237D01*
X0213252Y0190372D01*
X0212685Y0190939D01*
X0212117Y0190939D01*
X0210983Y0190372D01*
X0210983Y0192073D01*
X0213252Y0192073D01*
X0209569Y0190939D02*
X0209569Y0188670D01*
X0209569Y0190372D02*
X0207300Y0190372D01*
X0207300Y0190939D02*
X0208434Y0192073D01*
X0209569Y0190939D01*
X0207300Y0190939D02*
X0207300Y0188670D01*
X0207300Y0198670D02*
X0207300Y0200939D01*
X0208434Y0202073D01*
X0209569Y0200939D01*
X0209569Y0198670D01*
X0209569Y0200372D02*
X0207300Y0200372D01*
X0210983Y0200372D02*
X0213252Y0200372D01*
X0212685Y0198670D02*
X0212685Y0202073D01*
X0210983Y0200372D01*
X0211550Y0208670D02*
X0210983Y0209237D01*
X0211550Y0208670D02*
X0212685Y0208670D01*
X0213252Y0209237D01*
X0213252Y0209804D01*
X0212685Y0210372D01*
X0212117Y0210372D01*
X0212685Y0210372D02*
X0213252Y0210939D01*
X0213252Y0211506D01*
X0212685Y0212073D01*
X0211550Y0212073D01*
X0210983Y0211506D01*
X0209569Y0210939D02*
X0209569Y0208670D01*
X0209569Y0210372D02*
X0207300Y0210372D01*
X0207300Y0210939D02*
X0208434Y0212073D01*
X0209569Y0210939D01*
X0207300Y0210939D02*
X0207300Y0208670D01*
X0207300Y0218670D02*
X0207300Y0220939D01*
X0208434Y0222073D01*
X0209569Y0220939D01*
X0209569Y0218670D01*
X0210983Y0218670D02*
X0213252Y0220939D01*
X0213252Y0221506D01*
X0212685Y0222073D01*
X0211550Y0222073D01*
X0210983Y0221506D01*
X0209569Y0220372D02*
X0207300Y0220372D01*
X0210983Y0218670D02*
X0213252Y0218670D01*
X0213252Y0228670D02*
X0210983Y0228670D01*
X0212117Y0228670D02*
X0212117Y0232073D01*
X0210983Y0230939D01*
X0209569Y0230939D02*
X0209569Y0228670D01*
X0209569Y0230372D02*
X0207300Y0230372D01*
X0207300Y0230939D02*
X0208434Y0232073D01*
X0209569Y0230939D01*
X0207300Y0230939D02*
X0207300Y0228670D01*
X0204700Y0244670D02*
X0202431Y0244670D01*
X0201297Y0245804D01*
X0202431Y0246939D01*
X0204700Y0246939D01*
X0204133Y0248353D02*
X0201864Y0250622D01*
X0204133Y0250622D01*
X0204700Y0250055D01*
X0204700Y0248920D01*
X0204133Y0248353D01*
X0201864Y0248353D01*
X0201297Y0248920D01*
X0201297Y0250055D01*
X0201864Y0250622D01*
X0202999Y0246939D02*
X0202999Y0244670D01*
X0226500Y0260370D02*
X0234000Y0260370D01*
X0234002Y0260496D01*
X0234008Y0260621D01*
X0234018Y0260746D01*
X0234032Y0260871D01*
X0234049Y0260996D01*
X0234071Y0261120D01*
X0234096Y0261243D01*
X0234126Y0261365D01*
X0234159Y0261486D01*
X0234196Y0261606D01*
X0234236Y0261725D01*
X0234281Y0261842D01*
X0234329Y0261959D01*
X0234381Y0262073D01*
X0234436Y0262186D01*
X0234495Y0262297D01*
X0234557Y0262406D01*
X0234623Y0262513D01*
X0234692Y0262618D01*
X0234764Y0262721D01*
X0234839Y0262822D01*
X0234918Y0262920D01*
X0235000Y0263015D01*
X0235084Y0263108D01*
X0235172Y0263198D01*
X0235262Y0263286D01*
X0235355Y0263370D01*
X0235450Y0263452D01*
X0235548Y0263531D01*
X0235649Y0263606D01*
X0235752Y0263678D01*
X0235857Y0263747D01*
X0235964Y0263813D01*
X0236073Y0263875D01*
X0236184Y0263934D01*
X0236297Y0263989D01*
X0236411Y0264041D01*
X0236528Y0264089D01*
X0236645Y0264134D01*
X0236764Y0264174D01*
X0236884Y0264211D01*
X0237005Y0264244D01*
X0237127Y0264274D01*
X0237250Y0264299D01*
X0237374Y0264321D01*
X0237499Y0264338D01*
X0237624Y0264352D01*
X0237749Y0264362D01*
X0237874Y0264368D01*
X0238000Y0264370D01*
X0238126Y0264368D01*
X0238251Y0264362D01*
X0238376Y0264352D01*
X0238501Y0264338D01*
X0238626Y0264321D01*
X0238750Y0264299D01*
X0238873Y0264274D01*
X0238995Y0264244D01*
X0239116Y0264211D01*
X0239236Y0264174D01*
X0239355Y0264134D01*
X0239472Y0264089D01*
X0239589Y0264041D01*
X0239703Y0263989D01*
X0239816Y0263934D01*
X0239927Y0263875D01*
X0240036Y0263813D01*
X0240143Y0263747D01*
X0240248Y0263678D01*
X0240351Y0263606D01*
X0240452Y0263531D01*
X0240550Y0263452D01*
X0240645Y0263370D01*
X0240738Y0263286D01*
X0240828Y0263198D01*
X0240916Y0263108D01*
X0241000Y0263015D01*
X0241082Y0262920D01*
X0241161Y0262822D01*
X0241236Y0262721D01*
X0241308Y0262618D01*
X0241377Y0262513D01*
X0241443Y0262406D01*
X0241505Y0262297D01*
X0241564Y0262186D01*
X0241619Y0262073D01*
X0241671Y0261959D01*
X0241719Y0261842D01*
X0241764Y0261725D01*
X0241804Y0261606D01*
X0241841Y0261486D01*
X0241874Y0261365D01*
X0241904Y0261243D01*
X0241929Y0261120D01*
X0241951Y0260996D01*
X0241968Y0260871D01*
X0241982Y0260746D01*
X0241992Y0260621D01*
X0241998Y0260496D01*
X0242000Y0260370D01*
X0249500Y0260370D01*
X0249500Y0290370D01*
X0226500Y0290370D01*
X0226500Y0260370D01*
X0226500Y0310370D02*
X0234000Y0310370D01*
X0234002Y0310496D01*
X0234008Y0310621D01*
X0234018Y0310746D01*
X0234032Y0310871D01*
X0234049Y0310996D01*
X0234071Y0311120D01*
X0234096Y0311243D01*
X0234126Y0311365D01*
X0234159Y0311486D01*
X0234196Y0311606D01*
X0234236Y0311725D01*
X0234281Y0311842D01*
X0234329Y0311959D01*
X0234381Y0312073D01*
X0234436Y0312186D01*
X0234495Y0312297D01*
X0234557Y0312406D01*
X0234623Y0312513D01*
X0234692Y0312618D01*
X0234764Y0312721D01*
X0234839Y0312822D01*
X0234918Y0312920D01*
X0235000Y0313015D01*
X0235084Y0313108D01*
X0235172Y0313198D01*
X0235262Y0313286D01*
X0235355Y0313370D01*
X0235450Y0313452D01*
X0235548Y0313531D01*
X0235649Y0313606D01*
X0235752Y0313678D01*
X0235857Y0313747D01*
X0235964Y0313813D01*
X0236073Y0313875D01*
X0236184Y0313934D01*
X0236297Y0313989D01*
X0236411Y0314041D01*
X0236528Y0314089D01*
X0236645Y0314134D01*
X0236764Y0314174D01*
X0236884Y0314211D01*
X0237005Y0314244D01*
X0237127Y0314274D01*
X0237250Y0314299D01*
X0237374Y0314321D01*
X0237499Y0314338D01*
X0237624Y0314352D01*
X0237749Y0314362D01*
X0237874Y0314368D01*
X0238000Y0314370D01*
X0238126Y0314368D01*
X0238251Y0314362D01*
X0238376Y0314352D01*
X0238501Y0314338D01*
X0238626Y0314321D01*
X0238750Y0314299D01*
X0238873Y0314274D01*
X0238995Y0314244D01*
X0239116Y0314211D01*
X0239236Y0314174D01*
X0239355Y0314134D01*
X0239472Y0314089D01*
X0239589Y0314041D01*
X0239703Y0313989D01*
X0239816Y0313934D01*
X0239927Y0313875D01*
X0240036Y0313813D01*
X0240143Y0313747D01*
X0240248Y0313678D01*
X0240351Y0313606D01*
X0240452Y0313531D01*
X0240550Y0313452D01*
X0240645Y0313370D01*
X0240738Y0313286D01*
X0240828Y0313198D01*
X0240916Y0313108D01*
X0241000Y0313015D01*
X0241082Y0312920D01*
X0241161Y0312822D01*
X0241236Y0312721D01*
X0241308Y0312618D01*
X0241377Y0312513D01*
X0241443Y0312406D01*
X0241505Y0312297D01*
X0241564Y0312186D01*
X0241619Y0312073D01*
X0241671Y0311959D01*
X0241719Y0311842D01*
X0241764Y0311725D01*
X0241804Y0311606D01*
X0241841Y0311486D01*
X0241874Y0311365D01*
X0241904Y0311243D01*
X0241929Y0311120D01*
X0241951Y0310996D01*
X0241968Y0310871D01*
X0241982Y0310746D01*
X0241992Y0310621D01*
X0241998Y0310496D01*
X0242000Y0310370D01*
X0249500Y0310370D01*
X0249500Y0350370D01*
X0226500Y0350370D01*
X0226500Y0310370D01*
X0267500Y0307870D02*
X0269500Y0307870D01*
X0268500Y0306870D02*
X0268500Y0308870D01*
X0267000Y0307870D02*
X0267003Y0308140D01*
X0267013Y0308410D01*
X0267030Y0308679D01*
X0267053Y0308948D01*
X0267083Y0309217D01*
X0267119Y0309484D01*
X0267162Y0309751D01*
X0267211Y0310016D01*
X0267267Y0310280D01*
X0267330Y0310543D01*
X0267398Y0310804D01*
X0267474Y0311063D01*
X0267555Y0311320D01*
X0267643Y0311576D01*
X0267737Y0311829D01*
X0267837Y0312080D01*
X0267944Y0312328D01*
X0268056Y0312573D01*
X0268175Y0312816D01*
X0268299Y0313055D01*
X0268429Y0313292D01*
X0268565Y0313525D01*
X0268707Y0313755D01*
X0268854Y0313981D01*
X0269007Y0314204D01*
X0269165Y0314423D01*
X0269328Y0314638D01*
X0269497Y0314848D01*
X0269671Y0315055D01*
X0269850Y0315257D01*
X0270033Y0315455D01*
X0270222Y0315648D01*
X0270415Y0315837D01*
X0270613Y0316020D01*
X0270815Y0316199D01*
X0271022Y0316373D01*
X0271232Y0316542D01*
X0271447Y0316705D01*
X0271666Y0316863D01*
X0271889Y0317016D01*
X0272115Y0317163D01*
X0272345Y0317305D01*
X0272578Y0317441D01*
X0272815Y0317571D01*
X0273054Y0317695D01*
X0273297Y0317814D01*
X0273542Y0317926D01*
X0273790Y0318033D01*
X0274041Y0318133D01*
X0274294Y0318227D01*
X0274550Y0318315D01*
X0274807Y0318396D01*
X0275066Y0318472D01*
X0275327Y0318540D01*
X0275590Y0318603D01*
X0275854Y0318659D01*
X0276119Y0318708D01*
X0276386Y0318751D01*
X0276653Y0318787D01*
X0276922Y0318817D01*
X0277191Y0318840D01*
X0277460Y0318857D01*
X0277730Y0318867D01*
X0278000Y0318870D01*
X0278270Y0318867D01*
X0278540Y0318857D01*
X0278809Y0318840D01*
X0279078Y0318817D01*
X0279347Y0318787D01*
X0279614Y0318751D01*
X0279881Y0318708D01*
X0280146Y0318659D01*
X0280410Y0318603D01*
X0280673Y0318540D01*
X0280934Y0318472D01*
X0281193Y0318396D01*
X0281450Y0318315D01*
X0281706Y0318227D01*
X0281959Y0318133D01*
X0282210Y0318033D01*
X0282458Y0317926D01*
X0282703Y0317814D01*
X0282946Y0317695D01*
X0283185Y0317571D01*
X0283422Y0317441D01*
X0283655Y0317305D01*
X0283885Y0317163D01*
X0284111Y0317016D01*
X0284334Y0316863D01*
X0284553Y0316705D01*
X0284768Y0316542D01*
X0284978Y0316373D01*
X0285185Y0316199D01*
X0285387Y0316020D01*
X0285585Y0315837D01*
X0285778Y0315648D01*
X0285967Y0315455D01*
X0286150Y0315257D01*
X0286329Y0315055D01*
X0286503Y0314848D01*
X0286672Y0314638D01*
X0286835Y0314423D01*
X0286993Y0314204D01*
X0287146Y0313981D01*
X0287293Y0313755D01*
X0287435Y0313525D01*
X0287571Y0313292D01*
X0287701Y0313055D01*
X0287825Y0312816D01*
X0287944Y0312573D01*
X0288056Y0312328D01*
X0288163Y0312080D01*
X0288263Y0311829D01*
X0288357Y0311576D01*
X0288445Y0311320D01*
X0288526Y0311063D01*
X0288602Y0310804D01*
X0288670Y0310543D01*
X0288733Y0310280D01*
X0288789Y0310016D01*
X0288838Y0309751D01*
X0288881Y0309484D01*
X0288917Y0309217D01*
X0288947Y0308948D01*
X0288970Y0308679D01*
X0288987Y0308410D01*
X0288997Y0308140D01*
X0289000Y0307870D01*
X0288997Y0307600D01*
X0288987Y0307330D01*
X0288970Y0307061D01*
X0288947Y0306792D01*
X0288917Y0306523D01*
X0288881Y0306256D01*
X0288838Y0305989D01*
X0288789Y0305724D01*
X0288733Y0305460D01*
X0288670Y0305197D01*
X0288602Y0304936D01*
X0288526Y0304677D01*
X0288445Y0304420D01*
X0288357Y0304164D01*
X0288263Y0303911D01*
X0288163Y0303660D01*
X0288056Y0303412D01*
X0287944Y0303167D01*
X0287825Y0302924D01*
X0287701Y0302685D01*
X0287571Y0302448D01*
X0287435Y0302215D01*
X0287293Y0301985D01*
X0287146Y0301759D01*
X0286993Y0301536D01*
X0286835Y0301317D01*
X0286672Y0301102D01*
X0286503Y0300892D01*
X0286329Y0300685D01*
X0286150Y0300483D01*
X0285967Y0300285D01*
X0285778Y0300092D01*
X0285585Y0299903D01*
X0285387Y0299720D01*
X0285185Y0299541D01*
X0284978Y0299367D01*
X0284768Y0299198D01*
X0284553Y0299035D01*
X0284334Y0298877D01*
X0284111Y0298724D01*
X0283885Y0298577D01*
X0283655Y0298435D01*
X0283422Y0298299D01*
X0283185Y0298169D01*
X0282946Y0298045D01*
X0282703Y0297926D01*
X0282458Y0297814D01*
X0282210Y0297707D01*
X0281959Y0297607D01*
X0281706Y0297513D01*
X0281450Y0297425D01*
X0281193Y0297344D01*
X0280934Y0297268D01*
X0280673Y0297200D01*
X0280410Y0297137D01*
X0280146Y0297081D01*
X0279881Y0297032D01*
X0279614Y0296989D01*
X0279347Y0296953D01*
X0279078Y0296923D01*
X0278809Y0296900D01*
X0278540Y0296883D01*
X0278270Y0296873D01*
X0278000Y0296870D01*
X0277730Y0296873D01*
X0277460Y0296883D01*
X0277191Y0296900D01*
X0276922Y0296923D01*
X0276653Y0296953D01*
X0276386Y0296989D01*
X0276119Y0297032D01*
X0275854Y0297081D01*
X0275590Y0297137D01*
X0275327Y0297200D01*
X0275066Y0297268D01*
X0274807Y0297344D01*
X0274550Y0297425D01*
X0274294Y0297513D01*
X0274041Y0297607D01*
X0273790Y0297707D01*
X0273542Y0297814D01*
X0273297Y0297926D01*
X0273054Y0298045D01*
X0272815Y0298169D01*
X0272578Y0298299D01*
X0272345Y0298435D01*
X0272115Y0298577D01*
X0271889Y0298724D01*
X0271666Y0298877D01*
X0271447Y0299035D01*
X0271232Y0299198D01*
X0271022Y0299367D01*
X0270815Y0299541D01*
X0270613Y0299720D01*
X0270415Y0299903D01*
X0270222Y0300092D01*
X0270033Y0300285D01*
X0269850Y0300483D01*
X0269671Y0300685D01*
X0269497Y0300892D01*
X0269328Y0301102D01*
X0269165Y0301317D01*
X0269007Y0301536D01*
X0268854Y0301759D01*
X0268707Y0301985D01*
X0268565Y0302215D01*
X0268429Y0302448D01*
X0268299Y0302685D01*
X0268175Y0302924D01*
X0268056Y0303167D01*
X0267944Y0303412D01*
X0267837Y0303660D01*
X0267737Y0303911D01*
X0267643Y0304164D01*
X0267555Y0304420D01*
X0267474Y0304677D01*
X0267398Y0304936D01*
X0267330Y0305197D01*
X0267267Y0305460D01*
X0267211Y0305724D01*
X0267162Y0305989D01*
X0267119Y0306256D01*
X0267083Y0306523D01*
X0267053Y0306792D01*
X0267030Y0307061D01*
X0267013Y0307330D01*
X0267003Y0307600D01*
X0267000Y0307870D01*
X0254736Y0382890D02*
X0254740Y0383221D01*
X0254752Y0383552D01*
X0254773Y0383883D01*
X0254801Y0384213D01*
X0254838Y0384543D01*
X0254882Y0384871D01*
X0254935Y0385198D01*
X0254995Y0385524D01*
X0255064Y0385848D01*
X0255141Y0386170D01*
X0255225Y0386491D01*
X0255317Y0386809D01*
X0255417Y0387125D01*
X0255525Y0387438D01*
X0255641Y0387749D01*
X0255764Y0388056D01*
X0255894Y0388361D01*
X0256032Y0388662D01*
X0256177Y0388960D01*
X0256330Y0389254D01*
X0256490Y0389544D01*
X0256657Y0389830D01*
X0256830Y0390112D01*
X0257011Y0390390D01*
X0257199Y0390663D01*
X0257393Y0390932D01*
X0257593Y0391196D01*
X0257800Y0391454D01*
X0258014Y0391708D01*
X0258233Y0391956D01*
X0258459Y0392199D01*
X0258690Y0392436D01*
X0258927Y0392667D01*
X0259170Y0392893D01*
X0259418Y0393112D01*
X0259672Y0393326D01*
X0259930Y0393533D01*
X0260194Y0393733D01*
X0260463Y0393927D01*
X0260736Y0394115D01*
X0261014Y0394296D01*
X0261296Y0394469D01*
X0261582Y0394636D01*
X0261872Y0394796D01*
X0262166Y0394949D01*
X0262464Y0395094D01*
X0262765Y0395232D01*
X0263070Y0395362D01*
X0263377Y0395485D01*
X0263688Y0395601D01*
X0264001Y0395709D01*
X0264317Y0395809D01*
X0264635Y0395901D01*
X0264956Y0395985D01*
X0265278Y0396062D01*
X0265602Y0396131D01*
X0265928Y0396191D01*
X0266255Y0396244D01*
X0266583Y0396288D01*
X0266913Y0396325D01*
X0267243Y0396353D01*
X0267574Y0396374D01*
X0267905Y0396386D01*
X0268236Y0396390D01*
X0268567Y0396386D01*
X0268898Y0396374D01*
X0269229Y0396353D01*
X0269559Y0396325D01*
X0269889Y0396288D01*
X0270217Y0396244D01*
X0270544Y0396191D01*
X0270870Y0396131D01*
X0271194Y0396062D01*
X0271516Y0395985D01*
X0271837Y0395901D01*
X0272155Y0395809D01*
X0272471Y0395709D01*
X0272784Y0395601D01*
X0273095Y0395485D01*
X0273402Y0395362D01*
X0273707Y0395232D01*
X0274008Y0395094D01*
X0274306Y0394949D01*
X0274600Y0394796D01*
X0274890Y0394636D01*
X0275176Y0394469D01*
X0275458Y0394296D01*
X0275736Y0394115D01*
X0276009Y0393927D01*
X0276278Y0393733D01*
X0276542Y0393533D01*
X0276800Y0393326D01*
X0277054Y0393112D01*
X0277302Y0392893D01*
X0277545Y0392667D01*
X0277782Y0392436D01*
X0278013Y0392199D01*
X0278239Y0391956D01*
X0278458Y0391708D01*
X0278672Y0391454D01*
X0278879Y0391196D01*
X0279079Y0390932D01*
X0279273Y0390663D01*
X0279461Y0390390D01*
X0279642Y0390112D01*
X0279815Y0389830D01*
X0279982Y0389544D01*
X0280142Y0389254D01*
X0280295Y0388960D01*
X0280440Y0388662D01*
X0280578Y0388361D01*
X0280708Y0388056D01*
X0280831Y0387749D01*
X0280947Y0387438D01*
X0281055Y0387125D01*
X0281155Y0386809D01*
X0281247Y0386491D01*
X0281331Y0386170D01*
X0281408Y0385848D01*
X0281477Y0385524D01*
X0281537Y0385198D01*
X0281590Y0384871D01*
X0281634Y0384543D01*
X0281671Y0384213D01*
X0281699Y0383883D01*
X0281720Y0383552D01*
X0281732Y0383221D01*
X0281736Y0382890D01*
X0281732Y0382559D01*
X0281720Y0382228D01*
X0281699Y0381897D01*
X0281671Y0381567D01*
X0281634Y0381237D01*
X0281590Y0380909D01*
X0281537Y0380582D01*
X0281477Y0380256D01*
X0281408Y0379932D01*
X0281331Y0379610D01*
X0281247Y0379289D01*
X0281155Y0378971D01*
X0281055Y0378655D01*
X0280947Y0378342D01*
X0280831Y0378031D01*
X0280708Y0377724D01*
X0280578Y0377419D01*
X0280440Y0377118D01*
X0280295Y0376820D01*
X0280142Y0376526D01*
X0279982Y0376236D01*
X0279815Y0375950D01*
X0279642Y0375668D01*
X0279461Y0375390D01*
X0279273Y0375117D01*
X0279079Y0374848D01*
X0278879Y0374584D01*
X0278672Y0374326D01*
X0278458Y0374072D01*
X0278239Y0373824D01*
X0278013Y0373581D01*
X0277782Y0373344D01*
X0277545Y0373113D01*
X0277302Y0372887D01*
X0277054Y0372668D01*
X0276800Y0372454D01*
X0276542Y0372247D01*
X0276278Y0372047D01*
X0276009Y0371853D01*
X0275736Y0371665D01*
X0275458Y0371484D01*
X0275176Y0371311D01*
X0274890Y0371144D01*
X0274600Y0370984D01*
X0274306Y0370831D01*
X0274008Y0370686D01*
X0273707Y0370548D01*
X0273402Y0370418D01*
X0273095Y0370295D01*
X0272784Y0370179D01*
X0272471Y0370071D01*
X0272155Y0369971D01*
X0271837Y0369879D01*
X0271516Y0369795D01*
X0271194Y0369718D01*
X0270870Y0369649D01*
X0270544Y0369589D01*
X0270217Y0369536D01*
X0269889Y0369492D01*
X0269559Y0369455D01*
X0269229Y0369427D01*
X0268898Y0369406D01*
X0268567Y0369394D01*
X0268236Y0369390D01*
X0267905Y0369394D01*
X0267574Y0369406D01*
X0267243Y0369427D01*
X0266913Y0369455D01*
X0266583Y0369492D01*
X0266255Y0369536D01*
X0265928Y0369589D01*
X0265602Y0369649D01*
X0265278Y0369718D01*
X0264956Y0369795D01*
X0264635Y0369879D01*
X0264317Y0369971D01*
X0264001Y0370071D01*
X0263688Y0370179D01*
X0263377Y0370295D01*
X0263070Y0370418D01*
X0262765Y0370548D01*
X0262464Y0370686D01*
X0262166Y0370831D01*
X0261872Y0370984D01*
X0261582Y0371144D01*
X0261296Y0371311D01*
X0261014Y0371484D01*
X0260736Y0371665D01*
X0260463Y0371853D01*
X0260194Y0372047D01*
X0259930Y0372247D01*
X0259672Y0372454D01*
X0259418Y0372668D01*
X0259170Y0372887D01*
X0258927Y0373113D01*
X0258690Y0373344D01*
X0258459Y0373581D01*
X0258233Y0373824D01*
X0258014Y0374072D01*
X0257800Y0374326D01*
X0257593Y0374584D01*
X0257393Y0374848D01*
X0257199Y0375117D01*
X0257011Y0375390D01*
X0256830Y0375668D01*
X0256657Y0375950D01*
X0256490Y0376236D01*
X0256330Y0376526D01*
X0256177Y0376820D01*
X0256032Y0377118D01*
X0255894Y0377419D01*
X0255764Y0377724D01*
X0255641Y0378031D01*
X0255525Y0378342D01*
X0255417Y0378655D01*
X0255317Y0378971D01*
X0255225Y0379289D01*
X0255141Y0379610D01*
X0255064Y0379932D01*
X0254995Y0380256D01*
X0254935Y0380582D01*
X0254882Y0380909D01*
X0254838Y0381237D01*
X0254801Y0381567D01*
X0254773Y0381897D01*
X0254752Y0382228D01*
X0254740Y0382559D01*
X0254736Y0382890D01*
X0034264Y0382890D02*
X0034268Y0383221D01*
X0034280Y0383552D01*
X0034301Y0383883D01*
X0034329Y0384213D01*
X0034366Y0384543D01*
X0034410Y0384871D01*
X0034463Y0385198D01*
X0034523Y0385524D01*
X0034592Y0385848D01*
X0034669Y0386170D01*
X0034753Y0386491D01*
X0034845Y0386809D01*
X0034945Y0387125D01*
X0035053Y0387438D01*
X0035169Y0387749D01*
X0035292Y0388056D01*
X0035422Y0388361D01*
X0035560Y0388662D01*
X0035705Y0388960D01*
X0035858Y0389254D01*
X0036018Y0389544D01*
X0036185Y0389830D01*
X0036358Y0390112D01*
X0036539Y0390390D01*
X0036727Y0390663D01*
X0036921Y0390932D01*
X0037121Y0391196D01*
X0037328Y0391454D01*
X0037542Y0391708D01*
X0037761Y0391956D01*
X0037987Y0392199D01*
X0038218Y0392436D01*
X0038455Y0392667D01*
X0038698Y0392893D01*
X0038946Y0393112D01*
X0039200Y0393326D01*
X0039458Y0393533D01*
X0039722Y0393733D01*
X0039991Y0393927D01*
X0040264Y0394115D01*
X0040542Y0394296D01*
X0040824Y0394469D01*
X0041110Y0394636D01*
X0041400Y0394796D01*
X0041694Y0394949D01*
X0041992Y0395094D01*
X0042293Y0395232D01*
X0042598Y0395362D01*
X0042905Y0395485D01*
X0043216Y0395601D01*
X0043529Y0395709D01*
X0043845Y0395809D01*
X0044163Y0395901D01*
X0044484Y0395985D01*
X0044806Y0396062D01*
X0045130Y0396131D01*
X0045456Y0396191D01*
X0045783Y0396244D01*
X0046111Y0396288D01*
X0046441Y0396325D01*
X0046771Y0396353D01*
X0047102Y0396374D01*
X0047433Y0396386D01*
X0047764Y0396390D01*
X0048095Y0396386D01*
X0048426Y0396374D01*
X0048757Y0396353D01*
X0049087Y0396325D01*
X0049417Y0396288D01*
X0049745Y0396244D01*
X0050072Y0396191D01*
X0050398Y0396131D01*
X0050722Y0396062D01*
X0051044Y0395985D01*
X0051365Y0395901D01*
X0051683Y0395809D01*
X0051999Y0395709D01*
X0052312Y0395601D01*
X0052623Y0395485D01*
X0052930Y0395362D01*
X0053235Y0395232D01*
X0053536Y0395094D01*
X0053834Y0394949D01*
X0054128Y0394796D01*
X0054418Y0394636D01*
X0054704Y0394469D01*
X0054986Y0394296D01*
X0055264Y0394115D01*
X0055537Y0393927D01*
X0055806Y0393733D01*
X0056070Y0393533D01*
X0056328Y0393326D01*
X0056582Y0393112D01*
X0056830Y0392893D01*
X0057073Y0392667D01*
X0057310Y0392436D01*
X0057541Y0392199D01*
X0057767Y0391956D01*
X0057986Y0391708D01*
X0058200Y0391454D01*
X0058407Y0391196D01*
X0058607Y0390932D01*
X0058801Y0390663D01*
X0058989Y0390390D01*
X0059170Y0390112D01*
X0059343Y0389830D01*
X0059510Y0389544D01*
X0059670Y0389254D01*
X0059823Y0388960D01*
X0059968Y0388662D01*
X0060106Y0388361D01*
X0060236Y0388056D01*
X0060359Y0387749D01*
X0060475Y0387438D01*
X0060583Y0387125D01*
X0060683Y0386809D01*
X0060775Y0386491D01*
X0060859Y0386170D01*
X0060936Y0385848D01*
X0061005Y0385524D01*
X0061065Y0385198D01*
X0061118Y0384871D01*
X0061162Y0384543D01*
X0061199Y0384213D01*
X0061227Y0383883D01*
X0061248Y0383552D01*
X0061260Y0383221D01*
X0061264Y0382890D01*
X0061260Y0382559D01*
X0061248Y0382228D01*
X0061227Y0381897D01*
X0061199Y0381567D01*
X0061162Y0381237D01*
X0061118Y0380909D01*
X0061065Y0380582D01*
X0061005Y0380256D01*
X0060936Y0379932D01*
X0060859Y0379610D01*
X0060775Y0379289D01*
X0060683Y0378971D01*
X0060583Y0378655D01*
X0060475Y0378342D01*
X0060359Y0378031D01*
X0060236Y0377724D01*
X0060106Y0377419D01*
X0059968Y0377118D01*
X0059823Y0376820D01*
X0059670Y0376526D01*
X0059510Y0376236D01*
X0059343Y0375950D01*
X0059170Y0375668D01*
X0058989Y0375390D01*
X0058801Y0375117D01*
X0058607Y0374848D01*
X0058407Y0374584D01*
X0058200Y0374326D01*
X0057986Y0374072D01*
X0057767Y0373824D01*
X0057541Y0373581D01*
X0057310Y0373344D01*
X0057073Y0373113D01*
X0056830Y0372887D01*
X0056582Y0372668D01*
X0056328Y0372454D01*
X0056070Y0372247D01*
X0055806Y0372047D01*
X0055537Y0371853D01*
X0055264Y0371665D01*
X0054986Y0371484D01*
X0054704Y0371311D01*
X0054418Y0371144D01*
X0054128Y0370984D01*
X0053834Y0370831D01*
X0053536Y0370686D01*
X0053235Y0370548D01*
X0052930Y0370418D01*
X0052623Y0370295D01*
X0052312Y0370179D01*
X0051999Y0370071D01*
X0051683Y0369971D01*
X0051365Y0369879D01*
X0051044Y0369795D01*
X0050722Y0369718D01*
X0050398Y0369649D01*
X0050072Y0369589D01*
X0049745Y0369536D01*
X0049417Y0369492D01*
X0049087Y0369455D01*
X0048757Y0369427D01*
X0048426Y0369406D01*
X0048095Y0369394D01*
X0047764Y0369390D01*
X0047433Y0369394D01*
X0047102Y0369406D01*
X0046771Y0369427D01*
X0046441Y0369455D01*
X0046111Y0369492D01*
X0045783Y0369536D01*
X0045456Y0369589D01*
X0045130Y0369649D01*
X0044806Y0369718D01*
X0044484Y0369795D01*
X0044163Y0369879D01*
X0043845Y0369971D01*
X0043529Y0370071D01*
X0043216Y0370179D01*
X0042905Y0370295D01*
X0042598Y0370418D01*
X0042293Y0370548D01*
X0041992Y0370686D01*
X0041694Y0370831D01*
X0041400Y0370984D01*
X0041110Y0371144D01*
X0040824Y0371311D01*
X0040542Y0371484D01*
X0040264Y0371665D01*
X0039991Y0371853D01*
X0039722Y0372047D01*
X0039458Y0372247D01*
X0039200Y0372454D01*
X0038946Y0372668D01*
X0038698Y0372887D01*
X0038455Y0373113D01*
X0038218Y0373344D01*
X0037987Y0373581D01*
X0037761Y0373824D01*
X0037542Y0374072D01*
X0037328Y0374326D01*
X0037121Y0374584D01*
X0036921Y0374848D01*
X0036727Y0375117D01*
X0036539Y0375390D01*
X0036358Y0375668D01*
X0036185Y0375950D01*
X0036018Y0376236D01*
X0035858Y0376526D01*
X0035705Y0376820D01*
X0035560Y0377118D01*
X0035422Y0377419D01*
X0035292Y0377724D01*
X0035169Y0378031D01*
X0035053Y0378342D01*
X0034945Y0378655D01*
X0034845Y0378971D01*
X0034753Y0379289D01*
X0034669Y0379610D01*
X0034592Y0379932D01*
X0034523Y0380256D01*
X0034463Y0380582D01*
X0034410Y0380909D01*
X0034366Y0381237D01*
X0034329Y0381567D01*
X0034301Y0381897D01*
X0034280Y0382228D01*
X0034268Y0382559D01*
X0034264Y0382890D01*
X0254736Y0020685D02*
X0254740Y0021016D01*
X0254752Y0021347D01*
X0254773Y0021678D01*
X0254801Y0022008D01*
X0254838Y0022338D01*
X0254882Y0022666D01*
X0254935Y0022993D01*
X0254995Y0023319D01*
X0255064Y0023643D01*
X0255141Y0023965D01*
X0255225Y0024286D01*
X0255317Y0024604D01*
X0255417Y0024920D01*
X0255525Y0025233D01*
X0255641Y0025544D01*
X0255764Y0025851D01*
X0255894Y0026156D01*
X0256032Y0026457D01*
X0256177Y0026755D01*
X0256330Y0027049D01*
X0256490Y0027339D01*
X0256657Y0027625D01*
X0256830Y0027907D01*
X0257011Y0028185D01*
X0257199Y0028458D01*
X0257393Y0028727D01*
X0257593Y0028991D01*
X0257800Y0029249D01*
X0258014Y0029503D01*
X0258233Y0029751D01*
X0258459Y0029994D01*
X0258690Y0030231D01*
X0258927Y0030462D01*
X0259170Y0030688D01*
X0259418Y0030907D01*
X0259672Y0031121D01*
X0259930Y0031328D01*
X0260194Y0031528D01*
X0260463Y0031722D01*
X0260736Y0031910D01*
X0261014Y0032091D01*
X0261296Y0032264D01*
X0261582Y0032431D01*
X0261872Y0032591D01*
X0262166Y0032744D01*
X0262464Y0032889D01*
X0262765Y0033027D01*
X0263070Y0033157D01*
X0263377Y0033280D01*
X0263688Y0033396D01*
X0264001Y0033504D01*
X0264317Y0033604D01*
X0264635Y0033696D01*
X0264956Y0033780D01*
X0265278Y0033857D01*
X0265602Y0033926D01*
X0265928Y0033986D01*
X0266255Y0034039D01*
X0266583Y0034083D01*
X0266913Y0034120D01*
X0267243Y0034148D01*
X0267574Y0034169D01*
X0267905Y0034181D01*
X0268236Y0034185D01*
X0268567Y0034181D01*
X0268898Y0034169D01*
X0269229Y0034148D01*
X0269559Y0034120D01*
X0269889Y0034083D01*
X0270217Y0034039D01*
X0270544Y0033986D01*
X0270870Y0033926D01*
X0271194Y0033857D01*
X0271516Y0033780D01*
X0271837Y0033696D01*
X0272155Y0033604D01*
X0272471Y0033504D01*
X0272784Y0033396D01*
X0273095Y0033280D01*
X0273402Y0033157D01*
X0273707Y0033027D01*
X0274008Y0032889D01*
X0274306Y0032744D01*
X0274600Y0032591D01*
X0274890Y0032431D01*
X0275176Y0032264D01*
X0275458Y0032091D01*
X0275736Y0031910D01*
X0276009Y0031722D01*
X0276278Y0031528D01*
X0276542Y0031328D01*
X0276800Y0031121D01*
X0277054Y0030907D01*
X0277302Y0030688D01*
X0277545Y0030462D01*
X0277782Y0030231D01*
X0278013Y0029994D01*
X0278239Y0029751D01*
X0278458Y0029503D01*
X0278672Y0029249D01*
X0278879Y0028991D01*
X0279079Y0028727D01*
X0279273Y0028458D01*
X0279461Y0028185D01*
X0279642Y0027907D01*
X0279815Y0027625D01*
X0279982Y0027339D01*
X0280142Y0027049D01*
X0280295Y0026755D01*
X0280440Y0026457D01*
X0280578Y0026156D01*
X0280708Y0025851D01*
X0280831Y0025544D01*
X0280947Y0025233D01*
X0281055Y0024920D01*
X0281155Y0024604D01*
X0281247Y0024286D01*
X0281331Y0023965D01*
X0281408Y0023643D01*
X0281477Y0023319D01*
X0281537Y0022993D01*
X0281590Y0022666D01*
X0281634Y0022338D01*
X0281671Y0022008D01*
X0281699Y0021678D01*
X0281720Y0021347D01*
X0281732Y0021016D01*
X0281736Y0020685D01*
X0281732Y0020354D01*
X0281720Y0020023D01*
X0281699Y0019692D01*
X0281671Y0019362D01*
X0281634Y0019032D01*
X0281590Y0018704D01*
X0281537Y0018377D01*
X0281477Y0018051D01*
X0281408Y0017727D01*
X0281331Y0017405D01*
X0281247Y0017084D01*
X0281155Y0016766D01*
X0281055Y0016450D01*
X0280947Y0016137D01*
X0280831Y0015826D01*
X0280708Y0015519D01*
X0280578Y0015214D01*
X0280440Y0014913D01*
X0280295Y0014615D01*
X0280142Y0014321D01*
X0279982Y0014031D01*
X0279815Y0013745D01*
X0279642Y0013463D01*
X0279461Y0013185D01*
X0279273Y0012912D01*
X0279079Y0012643D01*
X0278879Y0012379D01*
X0278672Y0012121D01*
X0278458Y0011867D01*
X0278239Y0011619D01*
X0278013Y0011376D01*
X0277782Y0011139D01*
X0277545Y0010908D01*
X0277302Y0010682D01*
X0277054Y0010463D01*
X0276800Y0010249D01*
X0276542Y0010042D01*
X0276278Y0009842D01*
X0276009Y0009648D01*
X0275736Y0009460D01*
X0275458Y0009279D01*
X0275176Y0009106D01*
X0274890Y0008939D01*
X0274600Y0008779D01*
X0274306Y0008626D01*
X0274008Y0008481D01*
X0273707Y0008343D01*
X0273402Y0008213D01*
X0273095Y0008090D01*
X0272784Y0007974D01*
X0272471Y0007866D01*
X0272155Y0007766D01*
X0271837Y0007674D01*
X0271516Y0007590D01*
X0271194Y0007513D01*
X0270870Y0007444D01*
X0270544Y0007384D01*
X0270217Y0007331D01*
X0269889Y0007287D01*
X0269559Y0007250D01*
X0269229Y0007222D01*
X0268898Y0007201D01*
X0268567Y0007189D01*
X0268236Y0007185D01*
X0267905Y0007189D01*
X0267574Y0007201D01*
X0267243Y0007222D01*
X0266913Y0007250D01*
X0266583Y0007287D01*
X0266255Y0007331D01*
X0265928Y0007384D01*
X0265602Y0007444D01*
X0265278Y0007513D01*
X0264956Y0007590D01*
X0264635Y0007674D01*
X0264317Y0007766D01*
X0264001Y0007866D01*
X0263688Y0007974D01*
X0263377Y0008090D01*
X0263070Y0008213D01*
X0262765Y0008343D01*
X0262464Y0008481D01*
X0262166Y0008626D01*
X0261872Y0008779D01*
X0261582Y0008939D01*
X0261296Y0009106D01*
X0261014Y0009279D01*
X0260736Y0009460D01*
X0260463Y0009648D01*
X0260194Y0009842D01*
X0259930Y0010042D01*
X0259672Y0010249D01*
X0259418Y0010463D01*
X0259170Y0010682D01*
X0258927Y0010908D01*
X0258690Y0011139D01*
X0258459Y0011376D01*
X0258233Y0011619D01*
X0258014Y0011867D01*
X0257800Y0012121D01*
X0257593Y0012379D01*
X0257393Y0012643D01*
X0257199Y0012912D01*
X0257011Y0013185D01*
X0256830Y0013463D01*
X0256657Y0013745D01*
X0256490Y0014031D01*
X0256330Y0014321D01*
X0256177Y0014615D01*
X0256032Y0014913D01*
X0255894Y0015214D01*
X0255764Y0015519D01*
X0255641Y0015826D01*
X0255525Y0016137D01*
X0255417Y0016450D01*
X0255317Y0016766D01*
X0255225Y0017084D01*
X0255141Y0017405D01*
X0255064Y0017727D01*
X0254995Y0018051D01*
X0254935Y0018377D01*
X0254882Y0018704D01*
X0254838Y0019032D01*
X0254801Y0019362D01*
X0254773Y0019692D01*
X0254752Y0020023D01*
X0254740Y0020354D01*
X0254736Y0020685D01*
D13*
X0247331Y0046276D02*
X0247331Y0089976D01*
X0288669Y0089976D01*
X0288669Y0046276D01*
X0247331Y0046276D01*
X0228669Y0046276D02*
X0228669Y0089976D01*
X0187331Y0089976D01*
X0187331Y0046276D01*
X0228669Y0046276D01*
X0210856Y0063871D02*
X0210106Y0063120D01*
X0208605Y0063120D01*
X0207854Y0063871D01*
X0207854Y0064621D01*
X0208605Y0065372D01*
X0210106Y0065372D01*
X0210856Y0064621D01*
X0210856Y0063871D01*
X0210106Y0065372D02*
X0210856Y0066123D01*
X0210856Y0066873D01*
X0210106Y0067624D01*
X0208605Y0067624D01*
X0207854Y0066873D01*
X0207854Y0066123D01*
X0208605Y0065372D01*
X0196189Y0065370D02*
X0196193Y0065660D01*
X0196203Y0065950D01*
X0196221Y0066239D01*
X0196246Y0066528D01*
X0196278Y0066816D01*
X0196317Y0067103D01*
X0196363Y0067389D01*
X0196416Y0067674D01*
X0196476Y0067958D01*
X0196543Y0068240D01*
X0196617Y0068520D01*
X0196698Y0068799D01*
X0196785Y0069075D01*
X0196879Y0069349D01*
X0196980Y0069621D01*
X0197088Y0069890D01*
X0197202Y0070156D01*
X0197323Y0070420D01*
X0197450Y0070680D01*
X0197584Y0070938D01*
X0197723Y0071192D01*
X0197869Y0071442D01*
X0198021Y0071689D01*
X0198180Y0071932D01*
X0198344Y0072171D01*
X0198513Y0072406D01*
X0198689Y0072637D01*
X0198870Y0072863D01*
X0199057Y0073085D01*
X0199249Y0073302D01*
X0199446Y0073514D01*
X0199648Y0073722D01*
X0199856Y0073924D01*
X0200068Y0074121D01*
X0200285Y0074313D01*
X0200507Y0074500D01*
X0200733Y0074681D01*
X0200964Y0074857D01*
X0201199Y0075026D01*
X0201438Y0075190D01*
X0201681Y0075349D01*
X0201928Y0075501D01*
X0202178Y0075647D01*
X0202432Y0075786D01*
X0202690Y0075920D01*
X0202950Y0076047D01*
X0203214Y0076168D01*
X0203480Y0076282D01*
X0203749Y0076390D01*
X0204021Y0076491D01*
X0204295Y0076585D01*
X0204571Y0076672D01*
X0204850Y0076753D01*
X0205130Y0076827D01*
X0205412Y0076894D01*
X0205696Y0076954D01*
X0205981Y0077007D01*
X0206267Y0077053D01*
X0206554Y0077092D01*
X0206842Y0077124D01*
X0207131Y0077149D01*
X0207420Y0077167D01*
X0207710Y0077177D01*
X0208000Y0077181D01*
X0208290Y0077177D01*
X0208580Y0077167D01*
X0208869Y0077149D01*
X0209158Y0077124D01*
X0209446Y0077092D01*
X0209733Y0077053D01*
X0210019Y0077007D01*
X0210304Y0076954D01*
X0210588Y0076894D01*
X0210870Y0076827D01*
X0211150Y0076753D01*
X0211429Y0076672D01*
X0211705Y0076585D01*
X0211979Y0076491D01*
X0212251Y0076390D01*
X0212520Y0076282D01*
X0212786Y0076168D01*
X0213050Y0076047D01*
X0213310Y0075920D01*
X0213568Y0075786D01*
X0213822Y0075647D01*
X0214072Y0075501D01*
X0214319Y0075349D01*
X0214562Y0075190D01*
X0214801Y0075026D01*
X0215036Y0074857D01*
X0215267Y0074681D01*
X0215493Y0074500D01*
X0215715Y0074313D01*
X0215932Y0074121D01*
X0216144Y0073924D01*
X0216352Y0073722D01*
X0216554Y0073514D01*
X0216751Y0073302D01*
X0216943Y0073085D01*
X0217130Y0072863D01*
X0217311Y0072637D01*
X0217487Y0072406D01*
X0217656Y0072171D01*
X0217820Y0071932D01*
X0217979Y0071689D01*
X0218131Y0071442D01*
X0218277Y0071192D01*
X0218416Y0070938D01*
X0218550Y0070680D01*
X0218677Y0070420D01*
X0218798Y0070156D01*
X0218912Y0069890D01*
X0219020Y0069621D01*
X0219121Y0069349D01*
X0219215Y0069075D01*
X0219302Y0068799D01*
X0219383Y0068520D01*
X0219457Y0068240D01*
X0219524Y0067958D01*
X0219584Y0067674D01*
X0219637Y0067389D01*
X0219683Y0067103D01*
X0219722Y0066816D01*
X0219754Y0066528D01*
X0219779Y0066239D01*
X0219797Y0065950D01*
X0219807Y0065660D01*
X0219811Y0065370D01*
X0219807Y0065080D01*
X0219797Y0064790D01*
X0219779Y0064501D01*
X0219754Y0064212D01*
X0219722Y0063924D01*
X0219683Y0063637D01*
X0219637Y0063351D01*
X0219584Y0063066D01*
X0219524Y0062782D01*
X0219457Y0062500D01*
X0219383Y0062220D01*
X0219302Y0061941D01*
X0219215Y0061665D01*
X0219121Y0061391D01*
X0219020Y0061119D01*
X0218912Y0060850D01*
X0218798Y0060584D01*
X0218677Y0060320D01*
X0218550Y0060060D01*
X0218416Y0059802D01*
X0218277Y0059548D01*
X0218131Y0059298D01*
X0217979Y0059051D01*
X0217820Y0058808D01*
X0217656Y0058569D01*
X0217487Y0058334D01*
X0217311Y0058103D01*
X0217130Y0057877D01*
X0216943Y0057655D01*
X0216751Y0057438D01*
X0216554Y0057226D01*
X0216352Y0057018D01*
X0216144Y0056816D01*
X0215932Y0056619D01*
X0215715Y0056427D01*
X0215493Y0056240D01*
X0215267Y0056059D01*
X0215036Y0055883D01*
X0214801Y0055714D01*
X0214562Y0055550D01*
X0214319Y0055391D01*
X0214072Y0055239D01*
X0213822Y0055093D01*
X0213568Y0054954D01*
X0213310Y0054820D01*
X0213050Y0054693D01*
X0212786Y0054572D01*
X0212520Y0054458D01*
X0212251Y0054350D01*
X0211979Y0054249D01*
X0211705Y0054155D01*
X0211429Y0054068D01*
X0211150Y0053987D01*
X0210870Y0053913D01*
X0210588Y0053846D01*
X0210304Y0053786D01*
X0210019Y0053733D01*
X0209733Y0053687D01*
X0209446Y0053648D01*
X0209158Y0053616D01*
X0208869Y0053591D01*
X0208580Y0053573D01*
X0208290Y0053563D01*
X0208000Y0053559D01*
X0207710Y0053563D01*
X0207420Y0053573D01*
X0207131Y0053591D01*
X0206842Y0053616D01*
X0206554Y0053648D01*
X0206267Y0053687D01*
X0205981Y0053733D01*
X0205696Y0053786D01*
X0205412Y0053846D01*
X0205130Y0053913D01*
X0204850Y0053987D01*
X0204571Y0054068D01*
X0204295Y0054155D01*
X0204021Y0054249D01*
X0203749Y0054350D01*
X0203480Y0054458D01*
X0203214Y0054572D01*
X0202950Y0054693D01*
X0202690Y0054820D01*
X0202432Y0054954D01*
X0202178Y0055093D01*
X0201928Y0055239D01*
X0201681Y0055391D01*
X0201438Y0055550D01*
X0201199Y0055714D01*
X0200964Y0055883D01*
X0200733Y0056059D01*
X0200507Y0056240D01*
X0200285Y0056427D01*
X0200068Y0056619D01*
X0199856Y0056816D01*
X0199648Y0057018D01*
X0199446Y0057226D01*
X0199249Y0057438D01*
X0199057Y0057655D01*
X0198870Y0057877D01*
X0198689Y0058103D01*
X0198513Y0058334D01*
X0198344Y0058569D01*
X0198180Y0058808D01*
X0198021Y0059051D01*
X0197869Y0059298D01*
X0197723Y0059548D01*
X0197584Y0059802D01*
X0197450Y0060060D01*
X0197323Y0060320D01*
X0197202Y0060584D01*
X0197088Y0060850D01*
X0196980Y0061119D01*
X0196879Y0061391D01*
X0196785Y0061665D01*
X0196698Y0061941D01*
X0196617Y0062220D01*
X0196543Y0062500D01*
X0196476Y0062782D01*
X0196416Y0063066D01*
X0196363Y0063351D01*
X0196317Y0063637D01*
X0196278Y0063924D01*
X0196246Y0064212D01*
X0196221Y0064501D01*
X0196203Y0064790D01*
X0196193Y0065080D01*
X0196189Y0065370D01*
X0203250Y0064621D02*
X0205502Y0064621D01*
X0206253Y0065372D01*
X0206253Y0066873D01*
X0205502Y0067624D01*
X0203250Y0067624D01*
X0203250Y0063120D01*
X0204751Y0064621D02*
X0206253Y0063120D01*
X0173748Y0062339D02*
X0173748Y0078087D01*
X0170402Y0078087D01*
X0170402Y0068244D01*
X0164890Y0068244D01*
X0163806Y0060675D02*
X0166808Y0056171D01*
X0168410Y0056922D02*
X0169160Y0056171D01*
X0170662Y0056171D01*
X0171412Y0056922D01*
X0171412Y0057673D01*
X0170662Y0058423D01*
X0169911Y0058423D01*
X0170662Y0058423D02*
X0171412Y0059174D01*
X0171412Y0059924D01*
X0170662Y0060675D01*
X0169160Y0060675D01*
X0168410Y0059924D01*
X0166808Y0060675D02*
X0163806Y0056171D01*
X0160147Y0055124D02*
X0160147Y0050620D01*
X0158646Y0050620D02*
X0161649Y0050620D01*
X0158646Y0053623D02*
X0160147Y0055124D01*
X0157045Y0055124D02*
X0157045Y0050620D01*
X0154042Y0055124D01*
X0154042Y0050620D01*
X0152441Y0051371D02*
X0151690Y0050620D01*
X0150189Y0050620D01*
X0149438Y0051371D01*
X0149438Y0054373D01*
X0150189Y0055124D01*
X0151690Y0055124D01*
X0152441Y0054373D01*
X0149142Y0048559D02*
X0166858Y0048559D01*
X0151110Y0068244D02*
X0145598Y0068244D01*
X0145598Y0078087D01*
X0142252Y0078087D01*
X0142252Y0062339D01*
X0143433Y0069386D02*
X0143433Y0100488D01*
X0172567Y0100488D01*
X0172567Y0069386D01*
X0143433Y0069386D01*
X0140856Y0075620D02*
X0137854Y0075620D01*
X0140856Y0078623D01*
X0140856Y0079373D01*
X0140106Y0080124D01*
X0138605Y0080124D01*
X0137854Y0079373D01*
X0136253Y0079373D02*
X0135502Y0080124D01*
X0134001Y0080124D01*
X0133250Y0079373D01*
X0133250Y0076371D01*
X0134001Y0075620D01*
X0135502Y0075620D01*
X0136253Y0076371D01*
X0131150Y0081669D02*
X0131150Y0069071D01*
X0124850Y0069071D01*
X0124850Y0081669D01*
X0131150Y0081669D01*
X0117724Y0087870D02*
X0108276Y0087870D01*
X0108276Y0092870D01*
X0117724Y0092870D01*
X0117724Y0087870D01*
X0116437Y0097614D02*
X0109563Y0097614D01*
X0109563Y0103126D02*
X0116437Y0103126D01*
X0100856Y0101873D02*
X0100106Y0102624D01*
X0098605Y0102624D01*
X0097854Y0101873D01*
X0096253Y0101873D02*
X0096253Y0098871D01*
X0095502Y0098120D01*
X0093250Y0098120D01*
X0093250Y0102624D01*
X0095502Y0102624D01*
X0096253Y0101873D01*
X0097854Y0098120D02*
X0100856Y0101123D01*
X0100856Y0101873D01*
X0100856Y0098120D02*
X0097854Y0098120D01*
X0100106Y0095124D02*
X0097854Y0092872D01*
X0100856Y0092872D01*
X0100106Y0090620D02*
X0100106Y0095124D01*
X0096253Y0094373D02*
X0096253Y0092872D01*
X0095502Y0092121D01*
X0093250Y0092121D01*
X0093250Y0090620D02*
X0093250Y0095124D01*
X0095502Y0095124D01*
X0096253Y0094373D01*
X0094751Y0092121D02*
X0096253Y0090620D01*
X0095500Y0070094D02*
X0100500Y0070094D01*
X0100500Y0060646D01*
X0095500Y0060646D01*
X0095500Y0070094D01*
X0092750Y0067476D02*
X0092750Y0065975D01*
X0091999Y0065224D01*
X0092750Y0063623D02*
X0091249Y0062121D01*
X0091249Y0062872D02*
X0091249Y0060620D01*
X0092750Y0060620D02*
X0088246Y0060620D01*
X0088246Y0062872D01*
X0088997Y0063623D01*
X0090498Y0063623D01*
X0091249Y0062872D01*
X0088997Y0065224D02*
X0088246Y0065975D01*
X0088246Y0067476D01*
X0088997Y0068227D01*
X0089747Y0068227D01*
X0090498Y0067476D01*
X0091249Y0068227D01*
X0091999Y0068227D01*
X0092750Y0067476D01*
X0090498Y0067476D02*
X0090498Y0066725D01*
X0107250Y0050374D02*
X0107250Y0045870D01*
X0110253Y0045870D01*
X0111854Y0045870D02*
X0111854Y0050374D01*
X0114856Y0050374D01*
X0116458Y0050374D02*
X0118710Y0050374D01*
X0119460Y0049623D01*
X0119460Y0046621D01*
X0118710Y0045870D01*
X0116458Y0045870D01*
X0116458Y0050374D01*
X0113355Y0048122D02*
X0111854Y0048122D01*
X0111854Y0045870D02*
X0114856Y0045870D01*
X0121062Y0045870D02*
X0124064Y0045870D01*
X0122563Y0045870D02*
X0122563Y0050374D01*
X0121062Y0048873D01*
X0116649Y0060620D02*
X0113646Y0060620D01*
X0116649Y0063623D01*
X0116649Y0064373D01*
X0115898Y0065124D01*
X0114397Y0065124D01*
X0113646Y0064373D01*
X0112045Y0065124D02*
X0112045Y0061371D01*
X0111294Y0060620D01*
X0109793Y0060620D01*
X0109042Y0061371D01*
X0109042Y0065124D01*
X0078356Y0113120D02*
X0075354Y0113120D01*
X0076855Y0113120D02*
X0076855Y0117624D01*
X0075354Y0116123D01*
X0073753Y0116873D02*
X0073002Y0117624D01*
X0070750Y0117624D01*
X0070750Y0113120D01*
X0073002Y0113120D01*
X0073753Y0113871D01*
X0073753Y0116873D01*
X0074354Y0124620D02*
X0077356Y0124620D01*
X0075855Y0124620D02*
X0075855Y0129124D01*
X0074354Y0127623D01*
X0072753Y0128373D02*
X0072002Y0129124D01*
X0070501Y0129124D01*
X0069750Y0128373D01*
X0069750Y0125371D01*
X0070501Y0124620D01*
X0072002Y0124620D01*
X0072753Y0125371D01*
X0064299Y0128520D02*
X0064299Y0122220D01*
X0051701Y0122220D01*
X0051701Y0128520D01*
X0064299Y0128520D01*
X0061437Y0118126D02*
X0054563Y0118126D01*
X0054563Y0112614D02*
X0061437Y0112614D01*
X0033118Y0100016D02*
X0033118Y0138205D01*
X0022882Y0138205D01*
X0022882Y0125606D01*
X0016976Y0125606D01*
X0019250Y0122860D02*
X0020500Y0124110D01*
X0021750Y0122860D01*
X0022882Y0123047D02*
X0022882Y0120488D01*
X0022882Y0117732D01*
X0016976Y0117732D01*
X0016976Y0109858D01*
X0022882Y0109858D01*
X0022882Y0100016D01*
X0033118Y0100016D01*
X0030250Y0092759D02*
X0030250Y0089756D01*
X0030250Y0091258D02*
X0025746Y0091258D01*
X0027247Y0089756D01*
X0026497Y0088155D02*
X0025746Y0087404D01*
X0025746Y0085903D01*
X0026497Y0085152D01*
X0027247Y0085152D01*
X0027998Y0085903D01*
X0027998Y0087404D01*
X0028749Y0088155D01*
X0029499Y0088155D01*
X0030250Y0087404D01*
X0030250Y0085903D01*
X0029499Y0085152D01*
X0022882Y0109858D02*
X0022882Y0115173D01*
X0022882Y0117732D01*
X0022882Y0123047D02*
X0022882Y0125606D01*
X0020500Y0124110D02*
X0020500Y0111610D01*
X0019250Y0112860D01*
X0020500Y0111610D02*
X0021750Y0112860D01*
X0054750Y0151620D02*
X0054750Y0156124D01*
X0057002Y0156124D01*
X0057753Y0155373D01*
X0057753Y0153872D01*
X0057002Y0153121D01*
X0054750Y0153121D01*
X0056251Y0153121D02*
X0057753Y0151620D01*
X0059354Y0151620D02*
X0062356Y0154623D01*
X0062356Y0155373D01*
X0061606Y0156124D01*
X0060105Y0156124D01*
X0059354Y0155373D01*
X0059354Y0151620D02*
X0062356Y0151620D01*
X0063958Y0152371D02*
X0066960Y0155373D01*
X0066960Y0152371D01*
X0066210Y0151620D01*
X0064708Y0151620D01*
X0063958Y0152371D01*
X0063958Y0155373D01*
X0064708Y0156124D01*
X0066210Y0156124D01*
X0066960Y0155373D01*
X0065224Y0157870D02*
X0055776Y0157870D01*
X0055776Y0162870D01*
X0065224Y0162870D01*
X0065224Y0157870D01*
X0065224Y0165370D02*
X0065224Y0170370D01*
X0055776Y0170370D01*
X0055776Y0165370D01*
X0065224Y0165370D01*
X0069750Y0166620D02*
X0069750Y0171124D01*
X0072002Y0171124D01*
X0072753Y0170373D01*
X0072753Y0168872D01*
X0072002Y0168121D01*
X0069750Y0168121D01*
X0071251Y0168121D02*
X0072753Y0166620D01*
X0074354Y0166620D02*
X0077356Y0166620D01*
X0075855Y0166620D02*
X0075855Y0171124D01*
X0074354Y0169623D01*
X0074354Y0174120D02*
X0077356Y0174120D01*
X0075855Y0174120D02*
X0075855Y0178624D01*
X0074354Y0177123D01*
X0072753Y0177873D02*
X0072753Y0176372D01*
X0072002Y0175621D01*
X0069750Y0175621D01*
X0069750Y0174120D02*
X0069750Y0178624D01*
X0072002Y0178624D01*
X0072753Y0177873D01*
X0071251Y0175621D02*
X0072753Y0174120D01*
X0078958Y0174871D02*
X0079708Y0174120D01*
X0081210Y0174120D01*
X0081960Y0174871D01*
X0081960Y0175621D01*
X0081210Y0176372D01*
X0078958Y0176372D01*
X0078958Y0174871D01*
X0078958Y0176372D02*
X0080459Y0177873D01*
X0081960Y0178624D01*
X0081210Y0171124D02*
X0079708Y0171124D01*
X0078958Y0170373D01*
X0078958Y0169623D01*
X0079708Y0168872D01*
X0081210Y0168872D01*
X0081960Y0168121D01*
X0081960Y0167371D01*
X0081210Y0166620D01*
X0079708Y0166620D01*
X0078958Y0167371D01*
X0078958Y0168121D01*
X0079708Y0168872D01*
X0081210Y0168872D02*
X0081960Y0169623D01*
X0081960Y0170373D01*
X0081210Y0171124D01*
X0065224Y0172870D02*
X0065224Y0177870D01*
X0055776Y0177870D01*
X0055776Y0172870D01*
X0065224Y0172870D01*
X0063958Y0186620D02*
X0063958Y0187371D01*
X0066960Y0190373D01*
X0066960Y0191124D01*
X0063958Y0191124D01*
X0062356Y0190373D02*
X0062356Y0189623D01*
X0059354Y0186620D01*
X0062356Y0186620D01*
X0062356Y0190373D02*
X0061606Y0191124D01*
X0060105Y0191124D01*
X0059354Y0190373D01*
X0057753Y0190373D02*
X0057753Y0188872D01*
X0057002Y0188121D01*
X0054750Y0188121D01*
X0054750Y0186620D02*
X0054750Y0191124D01*
X0057002Y0191124D01*
X0057753Y0190373D01*
X0056251Y0188121D02*
X0057753Y0186620D01*
X0055776Y0192870D02*
X0055776Y0197870D01*
X0065224Y0197870D01*
X0065224Y0192870D01*
X0055776Y0192870D01*
X0055776Y0200370D02*
X0055776Y0205370D01*
X0065224Y0205370D01*
X0065224Y0200370D01*
X0055776Y0200370D01*
X0055776Y0207870D02*
X0055776Y0212870D01*
X0065224Y0212870D01*
X0065224Y0207870D01*
X0055776Y0207870D01*
X0054750Y0221620D02*
X0054750Y0226124D01*
X0057002Y0226124D01*
X0057753Y0225373D01*
X0057753Y0223872D01*
X0057002Y0223121D01*
X0054750Y0223121D01*
X0056251Y0223121D02*
X0057753Y0221620D01*
X0059354Y0221620D02*
X0062356Y0221620D01*
X0060855Y0221620D02*
X0060855Y0226124D01*
X0059354Y0224623D01*
X0055776Y0227870D02*
X0055776Y0232870D01*
X0065224Y0232870D01*
X0065224Y0227870D01*
X0055776Y0227870D01*
X0055776Y0235370D02*
X0055776Y0240370D01*
X0065224Y0240370D01*
X0065224Y0235370D01*
X0055776Y0235370D01*
X0055776Y0242870D02*
X0055776Y0247870D01*
X0065224Y0247870D01*
X0065224Y0242870D01*
X0055776Y0242870D01*
X0048118Y0254937D02*
X0048118Y0225803D01*
X0017016Y0225803D01*
X0017016Y0254937D01*
X0048118Y0254937D01*
X0055205Y0260882D02*
X0055205Y0299858D01*
X0035913Y0299858D01*
X0035913Y0264819D01*
X0039850Y0260882D01*
X0055205Y0260882D01*
X0069750Y0248624D02*
X0069750Y0244120D01*
X0069750Y0245621D02*
X0072002Y0245621D01*
X0072753Y0246372D01*
X0072753Y0247873D01*
X0072002Y0248624D01*
X0069750Y0248624D01*
X0071251Y0245621D02*
X0072753Y0244120D01*
X0074354Y0244120D02*
X0077356Y0244120D01*
X0075855Y0244120D02*
X0075855Y0248624D01*
X0074354Y0247123D01*
X0078958Y0246372D02*
X0080459Y0247123D01*
X0081210Y0247123D01*
X0081960Y0246372D01*
X0081960Y0244871D01*
X0081210Y0244120D01*
X0079708Y0244120D01*
X0078958Y0244871D01*
X0078958Y0246372D02*
X0078958Y0248624D01*
X0081960Y0248624D01*
X0081960Y0241124D02*
X0078958Y0241124D01*
X0081960Y0241124D02*
X0081960Y0240373D01*
X0078958Y0237371D01*
X0078958Y0236620D01*
X0077356Y0236620D02*
X0074354Y0236620D01*
X0075855Y0236620D02*
X0075855Y0241124D01*
X0074354Y0239623D01*
X0072753Y0240373D02*
X0072753Y0238872D01*
X0072002Y0238121D01*
X0069750Y0238121D01*
X0069750Y0236620D02*
X0069750Y0241124D01*
X0072002Y0241124D01*
X0072753Y0240373D01*
X0071251Y0238121D02*
X0072753Y0236620D01*
X0066210Y0226124D02*
X0064708Y0226124D01*
X0063958Y0225373D01*
X0063958Y0224623D01*
X0064708Y0223872D01*
X0066960Y0223872D01*
X0066960Y0225373D02*
X0066210Y0226124D01*
X0066960Y0225373D02*
X0066960Y0222371D01*
X0066210Y0221620D01*
X0064708Y0221620D01*
X0063958Y0222371D01*
X0069750Y0213624D02*
X0072002Y0213624D01*
X0072753Y0212873D01*
X0072753Y0211372D01*
X0072002Y0210621D01*
X0069750Y0210621D01*
X0069750Y0209120D02*
X0069750Y0213624D01*
X0071251Y0210621D02*
X0072753Y0209120D01*
X0074354Y0209120D02*
X0077356Y0212123D01*
X0077356Y0212873D01*
X0076606Y0213624D01*
X0075105Y0213624D01*
X0074354Y0212873D01*
X0074354Y0209120D02*
X0077356Y0209120D01*
X0078958Y0209120D02*
X0081960Y0212123D01*
X0081960Y0212873D01*
X0081210Y0213624D01*
X0079708Y0213624D01*
X0078958Y0212873D01*
X0078958Y0209120D02*
X0081960Y0209120D01*
X0081960Y0203624D02*
X0078958Y0203624D01*
X0078958Y0201372D01*
X0080459Y0202123D01*
X0081210Y0202123D01*
X0081960Y0201372D01*
X0081960Y0199871D01*
X0081210Y0199120D01*
X0079708Y0199120D01*
X0078958Y0199871D01*
X0077356Y0199120D02*
X0074354Y0199120D01*
X0077356Y0202123D01*
X0077356Y0202873D01*
X0076606Y0203624D01*
X0075105Y0203624D01*
X0074354Y0202873D01*
X0072753Y0202873D02*
X0072753Y0201372D01*
X0072002Y0200621D01*
X0069750Y0200621D01*
X0069750Y0199120D02*
X0069750Y0203624D01*
X0072002Y0203624D01*
X0072753Y0202873D01*
X0071251Y0200621D02*
X0072753Y0199120D01*
X0048118Y0190803D02*
X0048118Y0219937D01*
X0017016Y0219937D01*
X0017016Y0190803D01*
X0048118Y0190803D01*
X0048118Y0184937D02*
X0048118Y0155803D01*
X0017016Y0155803D01*
X0017016Y0184937D01*
X0048118Y0184937D01*
X0023301Y0170460D02*
X0022551Y0170460D01*
X0019548Y0173463D01*
X0018797Y0173463D01*
X0018797Y0170460D01*
X0018797Y0168859D02*
X0023301Y0165856D01*
X0023301Y0168859D02*
X0018797Y0165856D01*
X0018797Y0200856D02*
X0023301Y0203859D01*
X0022551Y0205460D02*
X0023301Y0206211D01*
X0023301Y0207712D01*
X0022551Y0208463D01*
X0019548Y0208463D01*
X0018797Y0207712D01*
X0018797Y0206211D01*
X0019548Y0205460D01*
X0020299Y0205460D01*
X0021049Y0206211D01*
X0021049Y0208463D01*
X0018797Y0203859D02*
X0023301Y0200856D01*
X0023301Y0235856D02*
X0018797Y0238859D01*
X0021049Y0240460D02*
X0019548Y0241962D01*
X0018797Y0243463D01*
X0021049Y0242712D02*
X0021049Y0240460D01*
X0022551Y0240460D01*
X0023301Y0241211D01*
X0023301Y0242712D01*
X0022551Y0243463D01*
X0021800Y0243463D01*
X0021049Y0242712D01*
X0023301Y0238859D02*
X0018797Y0235856D01*
X0056497Y0283120D02*
X0055746Y0283871D01*
X0055746Y0285372D01*
X0056497Y0286123D01*
X0059499Y0286123D01*
X0060250Y0285372D01*
X0060250Y0283871D01*
X0059499Y0283120D01*
X0056497Y0283120D01*
X0058749Y0284621D02*
X0060250Y0286123D01*
X0060250Y0287724D02*
X0060250Y0290727D01*
X0060250Y0289225D02*
X0055746Y0289225D01*
X0057247Y0287724D01*
X0077938Y0281624D02*
X0077938Y0277120D01*
X0077938Y0278621D02*
X0080190Y0278621D01*
X0080941Y0279372D01*
X0080941Y0280873D01*
X0080190Y0281624D01*
X0077938Y0281624D01*
X0079439Y0278621D02*
X0080941Y0277120D01*
X0082542Y0277120D02*
X0085545Y0277120D01*
X0084043Y0277120D02*
X0084043Y0281624D01*
X0082542Y0280123D01*
X0083276Y0282870D02*
X0083276Y0287870D01*
X0092724Y0287870D01*
X0092724Y0282870D01*
X0083276Y0282870D01*
X0087146Y0280873D02*
X0087897Y0281624D01*
X0089398Y0281624D01*
X0090149Y0280873D01*
X0087146Y0277871D01*
X0087897Y0277120D01*
X0089398Y0277120D01*
X0090149Y0277871D01*
X0090149Y0280873D01*
X0087146Y0280873D02*
X0087146Y0277871D01*
X0100323Y0277870D02*
X0100323Y0272870D01*
X0115677Y0272870D01*
X0115677Y0277870D01*
X0100323Y0277870D01*
X0103250Y0281371D02*
X0104001Y0280620D01*
X0104751Y0280620D01*
X0105502Y0281371D01*
X0105502Y0285124D01*
X0104751Y0285124D02*
X0106253Y0285124D01*
X0107854Y0285124D02*
X0107854Y0280620D01*
X0107854Y0282121D02*
X0110106Y0282121D01*
X0110856Y0282872D01*
X0110856Y0284373D01*
X0110106Y0285124D01*
X0107854Y0285124D01*
X0105500Y0287870D02*
X0210500Y0287870D01*
X0210500Y0352870D01*
X0105500Y0352870D01*
X0105500Y0287870D01*
X0112458Y0283623D02*
X0113959Y0285124D01*
X0113959Y0280620D01*
X0112458Y0280620D02*
X0115460Y0280620D01*
X0119751Y0268124D02*
X0121253Y0268124D01*
X0120502Y0268124D02*
X0120502Y0264371D01*
X0119751Y0263620D01*
X0119001Y0263620D01*
X0118250Y0264371D01*
X0122854Y0263620D02*
X0125856Y0263620D01*
X0124355Y0263620D02*
X0124355Y0268124D01*
X0122854Y0266623D01*
X0130497Y0227227D02*
X0129746Y0226476D01*
X0129746Y0224975D01*
X0130497Y0224224D01*
X0130497Y0222623D02*
X0131998Y0222623D01*
X0132749Y0221872D01*
X0132749Y0219620D01*
X0134250Y0219620D02*
X0129746Y0219620D01*
X0129746Y0221872D01*
X0130497Y0222623D01*
X0132749Y0221121D02*
X0134250Y0222623D01*
X0134250Y0224224D02*
X0131247Y0227227D01*
X0130497Y0227227D01*
X0134250Y0227227D02*
X0134250Y0224224D01*
X0135500Y0227594D02*
X0135500Y0218146D01*
X0140500Y0218146D01*
X0140500Y0227594D01*
X0135500Y0227594D01*
X0142246Y0225725D02*
X0146750Y0225725D01*
X0146750Y0224224D02*
X0146750Y0227227D01*
X0148000Y0227594D02*
X0153000Y0227594D01*
X0153000Y0218146D01*
X0148000Y0218146D01*
X0148000Y0227594D01*
X0146750Y0222623D02*
X0145249Y0221121D01*
X0145249Y0221872D02*
X0145249Y0219620D01*
X0146750Y0219620D02*
X0142246Y0219620D01*
X0142246Y0221872D01*
X0142997Y0222623D01*
X0144498Y0222623D01*
X0145249Y0221872D01*
X0143747Y0224224D02*
X0142246Y0225725D01*
X0145500Y0322870D02*
X0143000Y0325370D01*
X0145500Y0327870D01*
X0143000Y0325370D02*
X0158000Y0325370D01*
X0155500Y0325370D02*
X0155502Y0325469D01*
X0155508Y0325569D01*
X0155518Y0325668D01*
X0155532Y0325766D01*
X0155549Y0325864D01*
X0155571Y0325961D01*
X0155596Y0326057D01*
X0155625Y0326152D01*
X0155658Y0326246D01*
X0155695Y0326338D01*
X0155735Y0326429D01*
X0155779Y0326518D01*
X0155827Y0326606D01*
X0155878Y0326691D01*
X0155932Y0326774D01*
X0155989Y0326856D01*
X0156050Y0326934D01*
X0156114Y0327011D01*
X0156180Y0327084D01*
X0156250Y0327155D01*
X0156322Y0327223D01*
X0156397Y0327289D01*
X0156475Y0327351D01*
X0156555Y0327410D01*
X0156637Y0327466D01*
X0156721Y0327518D01*
X0156808Y0327567D01*
X0156896Y0327613D01*
X0156986Y0327655D01*
X0157078Y0327694D01*
X0157171Y0327729D01*
X0157265Y0327760D01*
X0157361Y0327787D01*
X0157458Y0327810D01*
X0157555Y0327830D01*
X0157653Y0327846D01*
X0157752Y0327858D01*
X0157851Y0327866D01*
X0157950Y0327870D01*
X0158050Y0327870D01*
X0158149Y0327866D01*
X0158248Y0327858D01*
X0158347Y0327846D01*
X0158445Y0327830D01*
X0158542Y0327810D01*
X0158639Y0327787D01*
X0158735Y0327760D01*
X0158829Y0327729D01*
X0158922Y0327694D01*
X0159014Y0327655D01*
X0159104Y0327613D01*
X0159192Y0327567D01*
X0159279Y0327518D01*
X0159363Y0327466D01*
X0159445Y0327410D01*
X0159525Y0327351D01*
X0159603Y0327289D01*
X0159678Y0327223D01*
X0159750Y0327155D01*
X0159820Y0327084D01*
X0159886Y0327011D01*
X0159950Y0326934D01*
X0160011Y0326856D01*
X0160068Y0326774D01*
X0160122Y0326691D01*
X0160173Y0326606D01*
X0160221Y0326518D01*
X0160265Y0326429D01*
X0160305Y0326338D01*
X0160342Y0326246D01*
X0160375Y0326152D01*
X0160404Y0326057D01*
X0160429Y0325961D01*
X0160451Y0325864D01*
X0160468Y0325766D01*
X0160482Y0325668D01*
X0160492Y0325569D01*
X0160498Y0325469D01*
X0160500Y0325370D01*
X0160498Y0325271D01*
X0160492Y0325171D01*
X0160482Y0325072D01*
X0160468Y0324974D01*
X0160451Y0324876D01*
X0160429Y0324779D01*
X0160404Y0324683D01*
X0160375Y0324588D01*
X0160342Y0324494D01*
X0160305Y0324402D01*
X0160265Y0324311D01*
X0160221Y0324222D01*
X0160173Y0324134D01*
X0160122Y0324049D01*
X0160068Y0323966D01*
X0160011Y0323884D01*
X0159950Y0323806D01*
X0159886Y0323729D01*
X0159820Y0323656D01*
X0159750Y0323585D01*
X0159678Y0323517D01*
X0159603Y0323451D01*
X0159525Y0323389D01*
X0159445Y0323330D01*
X0159363Y0323274D01*
X0159279Y0323222D01*
X0159192Y0323173D01*
X0159104Y0323127D01*
X0159014Y0323085D01*
X0158922Y0323046D01*
X0158829Y0323011D01*
X0158735Y0322980D01*
X0158639Y0322953D01*
X0158542Y0322930D01*
X0158445Y0322910D01*
X0158347Y0322894D01*
X0158248Y0322882D01*
X0158149Y0322874D01*
X0158050Y0322870D01*
X0157950Y0322870D01*
X0157851Y0322874D01*
X0157752Y0322882D01*
X0157653Y0322894D01*
X0157555Y0322910D01*
X0157458Y0322930D01*
X0157361Y0322953D01*
X0157265Y0322980D01*
X0157171Y0323011D01*
X0157078Y0323046D01*
X0156986Y0323085D01*
X0156896Y0323127D01*
X0156808Y0323173D01*
X0156721Y0323222D01*
X0156637Y0323274D01*
X0156555Y0323330D01*
X0156475Y0323389D01*
X0156397Y0323451D01*
X0156322Y0323517D01*
X0156250Y0323585D01*
X0156180Y0323656D01*
X0156114Y0323729D01*
X0156050Y0323806D01*
X0155989Y0323884D01*
X0155932Y0323966D01*
X0155878Y0324049D01*
X0155827Y0324134D01*
X0155779Y0324222D01*
X0155735Y0324311D01*
X0155695Y0324402D01*
X0155658Y0324494D01*
X0155625Y0324588D01*
X0155596Y0324683D01*
X0155571Y0324779D01*
X0155549Y0324876D01*
X0155532Y0324974D01*
X0155518Y0325072D01*
X0155508Y0325171D01*
X0155502Y0325271D01*
X0155500Y0325370D01*
X0158000Y0325370D02*
X0158000Y0340370D01*
X0160500Y0337870D01*
X0158000Y0340370D02*
X0155500Y0337870D01*
X0095500Y0335094D02*
X0095500Y0325646D01*
X0090500Y0325646D01*
X0090500Y0335094D01*
X0095500Y0335094D01*
X0093499Y0339620D02*
X0094250Y0340371D01*
X0094250Y0341872D01*
X0093499Y0342623D01*
X0091998Y0344224D02*
X0089746Y0346476D01*
X0094250Y0346476D01*
X0091998Y0347227D02*
X0091998Y0344224D01*
X0090497Y0342623D02*
X0089746Y0341872D01*
X0089746Y0340371D01*
X0090497Y0339620D01*
X0093499Y0339620D01*
X0088000Y0335094D02*
X0088000Y0325646D01*
X0083000Y0325646D01*
X0083000Y0335094D01*
X0088000Y0335094D01*
X0086750Y0339620D02*
X0082246Y0339620D01*
X0082246Y0341872D01*
X0082997Y0342623D01*
X0084498Y0342623D01*
X0085249Y0341872D01*
X0085249Y0339620D01*
X0085249Y0341121D02*
X0086750Y0342623D01*
X0086750Y0344224D02*
X0086750Y0347227D01*
X0086750Y0345725D02*
X0082246Y0345725D01*
X0083747Y0344224D01*
X0082997Y0348828D02*
X0082246Y0349579D01*
X0082246Y0351080D01*
X0082997Y0351830D01*
X0083747Y0351830D01*
X0086750Y0348828D01*
X0086750Y0351830D01*
X0057606Y0332624D02*
X0057606Y0328120D01*
X0058356Y0330372D02*
X0055354Y0330372D01*
X0057606Y0332624D01*
X0053753Y0332624D02*
X0053753Y0328871D01*
X0053002Y0328120D01*
X0051501Y0328120D01*
X0050750Y0328871D01*
X0050750Y0332624D01*
X0028984Y0330370D02*
X0028991Y0330959D01*
X0029013Y0331548D01*
X0029049Y0332137D01*
X0029100Y0332724D01*
X0029165Y0333310D01*
X0029244Y0333894D01*
X0029338Y0334476D01*
X0029445Y0335055D01*
X0029568Y0335632D01*
X0029704Y0336205D01*
X0029854Y0336775D01*
X0030018Y0337341D01*
X0030196Y0337903D01*
X0030388Y0338461D01*
X0030593Y0339013D01*
X0030812Y0339561D01*
X0031044Y0340102D01*
X0031290Y0340638D01*
X0031548Y0341168D01*
X0031820Y0341691D01*
X0032104Y0342207D01*
X0032401Y0342717D01*
X0032710Y0343219D01*
X0033031Y0343713D01*
X0033365Y0344199D01*
X0033710Y0344676D01*
X0034067Y0345145D01*
X0034435Y0345606D01*
X0034815Y0346057D01*
X0035205Y0346498D01*
X0035606Y0346930D01*
X0036018Y0347352D01*
X0036440Y0347764D01*
X0036872Y0348165D01*
X0037313Y0348555D01*
X0037764Y0348935D01*
X0038225Y0349303D01*
X0038694Y0349660D01*
X0039171Y0350005D01*
X0039657Y0350339D01*
X0040151Y0350660D01*
X0040653Y0350969D01*
X0041163Y0351266D01*
X0041679Y0351550D01*
X0042202Y0351822D01*
X0042732Y0352080D01*
X0043268Y0352326D01*
X0043809Y0352558D01*
X0044357Y0352777D01*
X0044909Y0352982D01*
X0045467Y0353174D01*
X0046029Y0353352D01*
X0046595Y0353516D01*
X0047165Y0353666D01*
X0047738Y0353802D01*
X0048315Y0353925D01*
X0048894Y0354032D01*
X0049476Y0354126D01*
X0050060Y0354205D01*
X0050646Y0354270D01*
X0051233Y0354321D01*
X0051822Y0354357D01*
X0052411Y0354379D01*
X0053000Y0354386D01*
X0053589Y0354379D01*
X0054178Y0354357D01*
X0054767Y0354321D01*
X0055354Y0354270D01*
X0055940Y0354205D01*
X0056524Y0354126D01*
X0057106Y0354032D01*
X0057685Y0353925D01*
X0058262Y0353802D01*
X0058835Y0353666D01*
X0059405Y0353516D01*
X0059971Y0353352D01*
X0060533Y0353174D01*
X0061091Y0352982D01*
X0061643Y0352777D01*
X0062191Y0352558D01*
X0062732Y0352326D01*
X0063268Y0352080D01*
X0063798Y0351822D01*
X0064321Y0351550D01*
X0064837Y0351266D01*
X0065347Y0350969D01*
X0065849Y0350660D01*
X0066343Y0350339D01*
X0066829Y0350005D01*
X0067306Y0349660D01*
X0067775Y0349303D01*
X0068236Y0348935D01*
X0068687Y0348555D01*
X0069128Y0348165D01*
X0069560Y0347764D01*
X0069982Y0347352D01*
X0070394Y0346930D01*
X0070795Y0346498D01*
X0071185Y0346057D01*
X0071565Y0345606D01*
X0071933Y0345145D01*
X0072290Y0344676D01*
X0072635Y0344199D01*
X0072969Y0343713D01*
X0073290Y0343219D01*
X0073599Y0342717D01*
X0073896Y0342207D01*
X0074180Y0341691D01*
X0074452Y0341168D01*
X0074710Y0340638D01*
X0074956Y0340102D01*
X0075188Y0339561D01*
X0075407Y0339013D01*
X0075612Y0338461D01*
X0075804Y0337903D01*
X0075982Y0337341D01*
X0076146Y0336775D01*
X0076296Y0336205D01*
X0076432Y0335632D01*
X0076555Y0335055D01*
X0076662Y0334476D01*
X0076756Y0333894D01*
X0076835Y0333310D01*
X0076900Y0332724D01*
X0076951Y0332137D01*
X0076987Y0331548D01*
X0077009Y0330959D01*
X0077016Y0330370D01*
X0077009Y0329781D01*
X0076987Y0329192D01*
X0076951Y0328603D01*
X0076900Y0328016D01*
X0076835Y0327430D01*
X0076756Y0326846D01*
X0076662Y0326264D01*
X0076555Y0325685D01*
X0076432Y0325108D01*
X0076296Y0324535D01*
X0076146Y0323965D01*
X0075982Y0323399D01*
X0075804Y0322837D01*
X0075612Y0322279D01*
X0075407Y0321727D01*
X0075188Y0321179D01*
X0074956Y0320638D01*
X0074710Y0320102D01*
X0074452Y0319572D01*
X0074180Y0319049D01*
X0073896Y0318533D01*
X0073599Y0318023D01*
X0073290Y0317521D01*
X0072969Y0317027D01*
X0072635Y0316541D01*
X0072290Y0316064D01*
X0071933Y0315595D01*
X0071565Y0315134D01*
X0071185Y0314683D01*
X0070795Y0314242D01*
X0070394Y0313810D01*
X0069982Y0313388D01*
X0069560Y0312976D01*
X0069128Y0312575D01*
X0068687Y0312185D01*
X0068236Y0311805D01*
X0067775Y0311437D01*
X0067306Y0311080D01*
X0066829Y0310735D01*
X0066343Y0310401D01*
X0065849Y0310080D01*
X0065347Y0309771D01*
X0064837Y0309474D01*
X0064321Y0309190D01*
X0063798Y0308918D01*
X0063268Y0308660D01*
X0062732Y0308414D01*
X0062191Y0308182D01*
X0061643Y0307963D01*
X0061091Y0307758D01*
X0060533Y0307566D01*
X0059971Y0307388D01*
X0059405Y0307224D01*
X0058835Y0307074D01*
X0058262Y0306938D01*
X0057685Y0306815D01*
X0057106Y0306708D01*
X0056524Y0306614D01*
X0055940Y0306535D01*
X0055354Y0306470D01*
X0054767Y0306419D01*
X0054178Y0306383D01*
X0053589Y0306361D01*
X0053000Y0306354D01*
X0052411Y0306361D01*
X0051822Y0306383D01*
X0051233Y0306419D01*
X0050646Y0306470D01*
X0050060Y0306535D01*
X0049476Y0306614D01*
X0048894Y0306708D01*
X0048315Y0306815D01*
X0047738Y0306938D01*
X0047165Y0307074D01*
X0046595Y0307224D01*
X0046029Y0307388D01*
X0045467Y0307566D01*
X0044909Y0307758D01*
X0044357Y0307963D01*
X0043809Y0308182D01*
X0043268Y0308414D01*
X0042732Y0308660D01*
X0042202Y0308918D01*
X0041679Y0309190D01*
X0041163Y0309474D01*
X0040653Y0309771D01*
X0040151Y0310080D01*
X0039657Y0310401D01*
X0039171Y0310735D01*
X0038694Y0311080D01*
X0038225Y0311437D01*
X0037764Y0311805D01*
X0037313Y0312185D01*
X0036872Y0312575D01*
X0036440Y0312976D01*
X0036018Y0313388D01*
X0035606Y0313810D01*
X0035205Y0314242D01*
X0034815Y0314683D01*
X0034435Y0315134D01*
X0034067Y0315595D01*
X0033710Y0316064D01*
X0033365Y0316541D01*
X0033031Y0317027D01*
X0032710Y0317521D01*
X0032401Y0318023D01*
X0032104Y0318533D01*
X0031820Y0319049D01*
X0031548Y0319572D01*
X0031290Y0320102D01*
X0031044Y0320638D01*
X0030812Y0321179D01*
X0030593Y0321727D01*
X0030388Y0322279D01*
X0030196Y0322837D01*
X0030018Y0323399D01*
X0029854Y0323965D01*
X0029704Y0324535D01*
X0029568Y0325108D01*
X0029445Y0325685D01*
X0029338Y0326264D01*
X0029244Y0326846D01*
X0029165Y0327430D01*
X0029100Y0328016D01*
X0029049Y0328603D01*
X0029013Y0329192D01*
X0028991Y0329781D01*
X0028984Y0330370D01*
X0028301Y0298620D02*
X0028301Y0295618D01*
X0028301Y0297119D02*
X0023797Y0297119D01*
X0025299Y0295618D01*
X0023797Y0294016D02*
X0028301Y0291014D01*
X0028301Y0294016D02*
X0023797Y0291014D01*
X0152845Y0108124D02*
X0154347Y0108124D01*
X0153596Y0108124D02*
X0153596Y0104371D01*
X0152845Y0103620D01*
X0152095Y0103620D01*
X0151344Y0104371D01*
X0155948Y0105121D02*
X0158200Y0105121D01*
X0158951Y0105872D01*
X0158951Y0107373D01*
X0158200Y0108124D01*
X0155948Y0108124D01*
X0155948Y0103620D01*
X0160552Y0103620D02*
X0163555Y0106623D01*
X0163555Y0107373D01*
X0162804Y0108124D01*
X0161303Y0108124D01*
X0160552Y0107373D01*
X0160552Y0103620D02*
X0163555Y0103620D01*
X0230776Y0172870D02*
X0230776Y0177870D01*
X0240224Y0177870D01*
X0240224Y0172870D01*
X0230776Y0172870D01*
X0234750Y0168624D02*
X0237002Y0168624D01*
X0237753Y0167873D01*
X0237753Y0166372D01*
X0237002Y0165621D01*
X0234750Y0165621D01*
X0234750Y0164120D02*
X0234750Y0168624D01*
X0236251Y0165621D02*
X0237753Y0164120D01*
X0239354Y0164120D02*
X0242356Y0167123D01*
X0242356Y0167873D01*
X0241606Y0168624D01*
X0240105Y0168624D01*
X0239354Y0167873D01*
X0239354Y0164120D02*
X0242356Y0164120D01*
X0243958Y0164120D02*
X0246960Y0164120D01*
X0245459Y0164120D02*
X0245459Y0168624D01*
X0243958Y0167123D01*
X0250776Y0167870D02*
X0250776Y0162870D01*
X0260224Y0162870D01*
X0260224Y0167870D01*
X0250776Y0167870D01*
X0250776Y0172870D02*
X0250776Y0177870D01*
X0260224Y0177870D01*
X0260224Y0172870D01*
X0250776Y0172870D01*
X0252250Y0179120D02*
X0252250Y0183624D01*
X0254502Y0183624D01*
X0255253Y0182873D01*
X0255253Y0181372D01*
X0254502Y0180621D01*
X0252250Y0180621D01*
X0253751Y0180621D02*
X0255253Y0179120D01*
X0256854Y0179120D02*
X0259856Y0182123D01*
X0259856Y0182873D01*
X0259106Y0183624D01*
X0257605Y0183624D01*
X0256854Y0182873D01*
X0256854Y0179120D02*
X0259856Y0179120D01*
X0261458Y0181372D02*
X0264460Y0181372D01*
X0263710Y0179120D02*
X0263710Y0183624D01*
X0261458Y0181372D01*
X0267882Y0184937D02*
X0267882Y0155803D01*
X0298984Y0155803D01*
X0298984Y0184937D01*
X0267882Y0184937D01*
X0267882Y0190803D02*
X0267882Y0219937D01*
X0298984Y0219937D01*
X0298984Y0190803D01*
X0267882Y0190803D01*
X0260224Y0197870D02*
X0260224Y0202870D01*
X0250776Y0202870D01*
X0250776Y0197870D01*
X0260224Y0197870D01*
X0256898Y0204620D02*
X0257649Y0205371D01*
X0257649Y0208373D01*
X0256898Y0209124D01*
X0255397Y0209124D01*
X0254646Y0208373D01*
X0254646Y0207623D01*
X0255397Y0206872D01*
X0257649Y0206872D01*
X0256898Y0204620D02*
X0255397Y0204620D01*
X0254646Y0205371D01*
X0253045Y0204620D02*
X0251543Y0206121D01*
X0252294Y0206121D02*
X0250042Y0206121D01*
X0250042Y0204620D02*
X0250042Y0209124D01*
X0252294Y0209124D01*
X0253045Y0208373D01*
X0253045Y0206872D01*
X0252294Y0206121D01*
X0252959Y0193624D02*
X0251458Y0192123D01*
X0252959Y0193624D02*
X0252959Y0189120D01*
X0251458Y0189120D02*
X0254460Y0189120D01*
X0249856Y0189120D02*
X0246854Y0189120D01*
X0248355Y0189120D02*
X0248355Y0193624D01*
X0246854Y0192123D01*
X0245253Y0192873D02*
X0245253Y0191372D01*
X0244502Y0190621D01*
X0242250Y0190621D01*
X0242250Y0189120D02*
X0242250Y0193624D01*
X0244502Y0193624D01*
X0245253Y0192873D01*
X0243751Y0190621D02*
X0245253Y0189120D01*
X0244460Y0183624D02*
X0242959Y0182873D01*
X0241458Y0181372D01*
X0243710Y0181372D01*
X0244460Y0180621D01*
X0244460Y0179871D01*
X0243710Y0179120D01*
X0242208Y0179120D01*
X0241458Y0179871D01*
X0241458Y0181372D01*
X0239856Y0182123D02*
X0239856Y0182873D01*
X0239106Y0183624D01*
X0237605Y0183624D01*
X0236854Y0182873D01*
X0235253Y0182873D02*
X0235253Y0181372D01*
X0234502Y0180621D01*
X0232250Y0180621D01*
X0232250Y0179120D02*
X0232250Y0183624D01*
X0234502Y0183624D01*
X0235253Y0182873D01*
X0233751Y0180621D02*
X0235253Y0179120D01*
X0236854Y0179120D02*
X0239856Y0182123D01*
X0239856Y0179120D02*
X0236854Y0179120D01*
X0237724Y0187870D02*
X0228276Y0187870D01*
X0228276Y0192870D01*
X0237724Y0192870D01*
X0237724Y0187870D01*
X0236437Y0197614D02*
X0229563Y0197614D01*
X0229563Y0203126D02*
X0236437Y0203126D01*
X0235898Y0205620D02*
X0234397Y0205620D01*
X0233646Y0206371D01*
X0232045Y0206371D02*
X0232045Y0209373D01*
X0231294Y0210124D01*
X0229042Y0210124D01*
X0229042Y0205620D01*
X0231294Y0205620D01*
X0232045Y0206371D01*
X0233646Y0209373D02*
X0234397Y0210124D01*
X0235898Y0210124D01*
X0236649Y0209373D01*
X0236649Y0208623D01*
X0235898Y0207872D01*
X0236649Y0207121D01*
X0236649Y0206371D01*
X0235898Y0205620D01*
X0235898Y0207872D02*
X0235147Y0207872D01*
X0267882Y0225803D02*
X0267882Y0254937D01*
X0298984Y0254937D01*
X0298984Y0225803D01*
X0267882Y0225803D01*
X0260224Y0242870D02*
X0250776Y0242870D01*
X0250776Y0247870D01*
X0260224Y0247870D01*
X0260224Y0242870D01*
X0259708Y0249120D02*
X0258958Y0249871D01*
X0259708Y0249120D02*
X0261210Y0249120D01*
X0261960Y0249871D01*
X0261960Y0250621D01*
X0261210Y0251372D01*
X0260459Y0251372D01*
X0261210Y0251372D02*
X0261960Y0252123D01*
X0261960Y0252873D01*
X0261210Y0253624D01*
X0259708Y0253624D01*
X0258958Y0252873D01*
X0257356Y0252873D02*
X0256606Y0253624D01*
X0255105Y0253624D01*
X0254354Y0252873D01*
X0252753Y0252873D02*
X0252753Y0251372D01*
X0252002Y0250621D01*
X0249750Y0250621D01*
X0249750Y0249120D02*
X0249750Y0253624D01*
X0252002Y0253624D01*
X0252753Y0252873D01*
X0251251Y0250621D02*
X0252753Y0249120D01*
X0254354Y0249120D02*
X0257356Y0252123D01*
X0257356Y0252873D01*
X0257356Y0249120D02*
X0254354Y0249120D01*
X0267882Y0260803D02*
X0267882Y0289937D01*
X0298984Y0289937D01*
X0298984Y0260803D01*
X0267882Y0260803D01*
X0292695Y0271176D02*
X0297199Y0274179D01*
X0296448Y0275780D02*
X0297199Y0276531D01*
X0297199Y0278032D01*
X0296448Y0278782D01*
X0294947Y0278782D01*
X0294196Y0278032D01*
X0294196Y0277281D01*
X0294947Y0275780D01*
X0292695Y0275780D01*
X0292695Y0278782D01*
X0292695Y0274179D02*
X0297199Y0271176D01*
X0296448Y0243782D02*
X0293446Y0243782D01*
X0296448Y0240780D01*
X0297199Y0241531D01*
X0297199Y0243032D01*
X0296448Y0243782D01*
X0296448Y0240780D02*
X0293446Y0240780D01*
X0292695Y0241531D01*
X0292695Y0243032D01*
X0293446Y0243782D01*
X0297199Y0239179D02*
X0297199Y0236176D01*
X0297199Y0237677D02*
X0292695Y0237677D01*
X0294196Y0236176D01*
X0292695Y0234575D02*
X0297199Y0231572D01*
X0297199Y0234575D02*
X0292695Y0231572D01*
X0294947Y0208782D02*
X0294947Y0205780D01*
X0292695Y0208032D01*
X0297199Y0208032D01*
X0297199Y0204179D02*
X0292695Y0201176D01*
X0292695Y0204179D02*
X0297199Y0201176D01*
X0296448Y0173782D02*
X0297199Y0173032D01*
X0297199Y0171531D01*
X0296448Y0170780D01*
X0295698Y0170780D01*
X0294947Y0171531D01*
X0294947Y0173032D01*
X0295698Y0173782D01*
X0296448Y0173782D01*
X0294947Y0173032D02*
X0294196Y0173782D01*
X0293446Y0173782D01*
X0292695Y0173032D01*
X0292695Y0171531D01*
X0293446Y0170780D01*
X0294196Y0170780D01*
X0294947Y0171531D01*
X0297199Y0169179D02*
X0292695Y0166176D01*
X0292695Y0169179D02*
X0297199Y0166176D01*
X0280087Y0145921D02*
X0280087Y0110882D01*
X0260795Y0110882D01*
X0260795Y0149858D01*
X0276150Y0149858D01*
X0280087Y0145921D01*
X0283446Y0118625D02*
X0282695Y0117874D01*
X0282695Y0116373D01*
X0283446Y0115622D01*
X0282695Y0114021D02*
X0287199Y0111019D01*
X0287199Y0114021D02*
X0282695Y0111019D01*
X0287199Y0115622D02*
X0284196Y0118625D01*
X0283446Y0118625D01*
X0287199Y0118625D02*
X0287199Y0115622D01*
X0252724Y0127870D02*
X0252724Y0132870D01*
X0243276Y0132870D01*
X0243276Y0127870D01*
X0252724Y0127870D01*
X0249398Y0132120D02*
X0250149Y0132871D01*
X0250149Y0133621D01*
X0249398Y0134372D01*
X0247146Y0134372D01*
X0247146Y0132871D01*
X0247897Y0132120D01*
X0249398Y0132120D01*
X0249398Y0134620D02*
X0247897Y0134620D01*
X0247146Y0135371D01*
X0247146Y0134372D02*
X0248647Y0135873D01*
X0250149Y0136624D01*
X0250149Y0136872D02*
X0250149Y0135371D01*
X0249398Y0134620D01*
X0250149Y0136872D02*
X0249398Y0137623D01*
X0248647Y0137623D01*
X0247146Y0136872D01*
X0247146Y0139124D01*
X0250149Y0139124D01*
X0252724Y0137870D02*
X0252724Y0142870D01*
X0243276Y0142870D01*
X0243276Y0137870D01*
X0252724Y0137870D01*
X0245545Y0138373D02*
X0245545Y0136872D01*
X0244794Y0136121D01*
X0242542Y0136121D01*
X0242542Y0136624D02*
X0244794Y0136624D01*
X0245545Y0135873D01*
X0245545Y0134372D01*
X0244794Y0133621D01*
X0242542Y0133621D01*
X0242542Y0134620D02*
X0242542Y0139124D01*
X0244794Y0139124D01*
X0245545Y0138373D01*
X0244043Y0136121D02*
X0245545Y0134620D01*
X0244043Y0133621D02*
X0245545Y0132120D01*
X0242542Y0132120D02*
X0242542Y0136624D01*
X0263250Y0067624D02*
X0265502Y0067624D01*
X0266253Y0066873D01*
X0266253Y0065372D01*
X0265502Y0064621D01*
X0263250Y0064621D01*
X0263250Y0063120D02*
X0263250Y0067624D01*
X0264751Y0064621D02*
X0266253Y0063120D01*
X0267854Y0063120D02*
X0267854Y0063871D01*
X0270856Y0066873D01*
X0270856Y0067624D01*
X0267854Y0067624D01*
X0256189Y0065370D02*
X0256193Y0065660D01*
X0256203Y0065950D01*
X0256221Y0066239D01*
X0256246Y0066528D01*
X0256278Y0066816D01*
X0256317Y0067103D01*
X0256363Y0067389D01*
X0256416Y0067674D01*
X0256476Y0067958D01*
X0256543Y0068240D01*
X0256617Y0068520D01*
X0256698Y0068799D01*
X0256785Y0069075D01*
X0256879Y0069349D01*
X0256980Y0069621D01*
X0257088Y0069890D01*
X0257202Y0070156D01*
X0257323Y0070420D01*
X0257450Y0070680D01*
X0257584Y0070938D01*
X0257723Y0071192D01*
X0257869Y0071442D01*
X0258021Y0071689D01*
X0258180Y0071932D01*
X0258344Y0072171D01*
X0258513Y0072406D01*
X0258689Y0072637D01*
X0258870Y0072863D01*
X0259057Y0073085D01*
X0259249Y0073302D01*
X0259446Y0073514D01*
X0259648Y0073722D01*
X0259856Y0073924D01*
X0260068Y0074121D01*
X0260285Y0074313D01*
X0260507Y0074500D01*
X0260733Y0074681D01*
X0260964Y0074857D01*
X0261199Y0075026D01*
X0261438Y0075190D01*
X0261681Y0075349D01*
X0261928Y0075501D01*
X0262178Y0075647D01*
X0262432Y0075786D01*
X0262690Y0075920D01*
X0262950Y0076047D01*
X0263214Y0076168D01*
X0263480Y0076282D01*
X0263749Y0076390D01*
X0264021Y0076491D01*
X0264295Y0076585D01*
X0264571Y0076672D01*
X0264850Y0076753D01*
X0265130Y0076827D01*
X0265412Y0076894D01*
X0265696Y0076954D01*
X0265981Y0077007D01*
X0266267Y0077053D01*
X0266554Y0077092D01*
X0266842Y0077124D01*
X0267131Y0077149D01*
X0267420Y0077167D01*
X0267710Y0077177D01*
X0268000Y0077181D01*
X0268290Y0077177D01*
X0268580Y0077167D01*
X0268869Y0077149D01*
X0269158Y0077124D01*
X0269446Y0077092D01*
X0269733Y0077053D01*
X0270019Y0077007D01*
X0270304Y0076954D01*
X0270588Y0076894D01*
X0270870Y0076827D01*
X0271150Y0076753D01*
X0271429Y0076672D01*
X0271705Y0076585D01*
X0271979Y0076491D01*
X0272251Y0076390D01*
X0272520Y0076282D01*
X0272786Y0076168D01*
X0273050Y0076047D01*
X0273310Y0075920D01*
X0273568Y0075786D01*
X0273822Y0075647D01*
X0274072Y0075501D01*
X0274319Y0075349D01*
X0274562Y0075190D01*
X0274801Y0075026D01*
X0275036Y0074857D01*
X0275267Y0074681D01*
X0275493Y0074500D01*
X0275715Y0074313D01*
X0275932Y0074121D01*
X0276144Y0073924D01*
X0276352Y0073722D01*
X0276554Y0073514D01*
X0276751Y0073302D01*
X0276943Y0073085D01*
X0277130Y0072863D01*
X0277311Y0072637D01*
X0277487Y0072406D01*
X0277656Y0072171D01*
X0277820Y0071932D01*
X0277979Y0071689D01*
X0278131Y0071442D01*
X0278277Y0071192D01*
X0278416Y0070938D01*
X0278550Y0070680D01*
X0278677Y0070420D01*
X0278798Y0070156D01*
X0278912Y0069890D01*
X0279020Y0069621D01*
X0279121Y0069349D01*
X0279215Y0069075D01*
X0279302Y0068799D01*
X0279383Y0068520D01*
X0279457Y0068240D01*
X0279524Y0067958D01*
X0279584Y0067674D01*
X0279637Y0067389D01*
X0279683Y0067103D01*
X0279722Y0066816D01*
X0279754Y0066528D01*
X0279779Y0066239D01*
X0279797Y0065950D01*
X0279807Y0065660D01*
X0279811Y0065370D01*
X0279807Y0065080D01*
X0279797Y0064790D01*
X0279779Y0064501D01*
X0279754Y0064212D01*
X0279722Y0063924D01*
X0279683Y0063637D01*
X0279637Y0063351D01*
X0279584Y0063066D01*
X0279524Y0062782D01*
X0279457Y0062500D01*
X0279383Y0062220D01*
X0279302Y0061941D01*
X0279215Y0061665D01*
X0279121Y0061391D01*
X0279020Y0061119D01*
X0278912Y0060850D01*
X0278798Y0060584D01*
X0278677Y0060320D01*
X0278550Y0060060D01*
X0278416Y0059802D01*
X0278277Y0059548D01*
X0278131Y0059298D01*
X0277979Y0059051D01*
X0277820Y0058808D01*
X0277656Y0058569D01*
X0277487Y0058334D01*
X0277311Y0058103D01*
X0277130Y0057877D01*
X0276943Y0057655D01*
X0276751Y0057438D01*
X0276554Y0057226D01*
X0276352Y0057018D01*
X0276144Y0056816D01*
X0275932Y0056619D01*
X0275715Y0056427D01*
X0275493Y0056240D01*
X0275267Y0056059D01*
X0275036Y0055883D01*
X0274801Y0055714D01*
X0274562Y0055550D01*
X0274319Y0055391D01*
X0274072Y0055239D01*
X0273822Y0055093D01*
X0273568Y0054954D01*
X0273310Y0054820D01*
X0273050Y0054693D01*
X0272786Y0054572D01*
X0272520Y0054458D01*
X0272251Y0054350D01*
X0271979Y0054249D01*
X0271705Y0054155D01*
X0271429Y0054068D01*
X0271150Y0053987D01*
X0270870Y0053913D01*
X0270588Y0053846D01*
X0270304Y0053786D01*
X0270019Y0053733D01*
X0269733Y0053687D01*
X0269446Y0053648D01*
X0269158Y0053616D01*
X0268869Y0053591D01*
X0268580Y0053573D01*
X0268290Y0053563D01*
X0268000Y0053559D01*
X0267710Y0053563D01*
X0267420Y0053573D01*
X0267131Y0053591D01*
X0266842Y0053616D01*
X0266554Y0053648D01*
X0266267Y0053687D01*
X0265981Y0053733D01*
X0265696Y0053786D01*
X0265412Y0053846D01*
X0265130Y0053913D01*
X0264850Y0053987D01*
X0264571Y0054068D01*
X0264295Y0054155D01*
X0264021Y0054249D01*
X0263749Y0054350D01*
X0263480Y0054458D01*
X0263214Y0054572D01*
X0262950Y0054693D01*
X0262690Y0054820D01*
X0262432Y0054954D01*
X0262178Y0055093D01*
X0261928Y0055239D01*
X0261681Y0055391D01*
X0261438Y0055550D01*
X0261199Y0055714D01*
X0260964Y0055883D01*
X0260733Y0056059D01*
X0260507Y0056240D01*
X0260285Y0056427D01*
X0260068Y0056619D01*
X0259856Y0056816D01*
X0259648Y0057018D01*
X0259446Y0057226D01*
X0259249Y0057438D01*
X0259057Y0057655D01*
X0258870Y0057877D01*
X0258689Y0058103D01*
X0258513Y0058334D01*
X0258344Y0058569D01*
X0258180Y0058808D01*
X0258021Y0059051D01*
X0257869Y0059298D01*
X0257723Y0059548D01*
X0257584Y0059802D01*
X0257450Y0060060D01*
X0257323Y0060320D01*
X0257202Y0060584D01*
X0257088Y0060850D01*
X0256980Y0061119D01*
X0256879Y0061391D01*
X0256785Y0061665D01*
X0256698Y0061941D01*
X0256617Y0062220D01*
X0256543Y0062500D01*
X0256476Y0062782D01*
X0256416Y0063066D01*
X0256363Y0063351D01*
X0256317Y0063637D01*
X0256278Y0063924D01*
X0256246Y0064212D01*
X0256221Y0064501D01*
X0256203Y0064790D01*
X0256193Y0065080D01*
X0256189Y0065370D01*
X0239898Y0272120D02*
X0238397Y0272120D01*
X0237646Y0272871D01*
X0236045Y0272871D02*
X0236045Y0276624D01*
X0237646Y0275873D02*
X0238397Y0276624D01*
X0239898Y0276624D01*
X0240649Y0275873D01*
X0240649Y0275123D01*
X0239898Y0274372D01*
X0240649Y0273621D01*
X0240649Y0272871D01*
X0239898Y0272120D01*
X0239898Y0274372D02*
X0239147Y0274372D01*
X0236045Y0272871D02*
X0235294Y0272120D01*
X0233793Y0272120D01*
X0233042Y0272871D01*
X0233042Y0276624D01*
X0235501Y0291620D02*
X0234750Y0292371D01*
X0234750Y0295373D01*
X0235501Y0296124D01*
X0237002Y0296124D01*
X0237753Y0295373D01*
X0239354Y0293872D02*
X0241606Y0293872D01*
X0242356Y0293121D01*
X0242356Y0292371D01*
X0241606Y0291620D01*
X0240105Y0291620D01*
X0239354Y0292371D01*
X0239354Y0293872D01*
X0240855Y0295373D01*
X0242356Y0296124D01*
X0242724Y0297870D02*
X0233276Y0297870D01*
X0233276Y0302870D01*
X0242724Y0302870D01*
X0242724Y0297870D01*
X0237753Y0292371D02*
X0237002Y0291620D01*
X0235501Y0291620D01*
X0256250Y0304871D02*
X0257001Y0304120D01*
X0258502Y0304120D01*
X0259253Y0304871D01*
X0260854Y0304871D02*
X0261605Y0304120D01*
X0263106Y0304120D01*
X0263856Y0304871D01*
X0263856Y0305621D01*
X0263106Y0306372D01*
X0262355Y0306372D01*
X0263106Y0306372D02*
X0263856Y0307123D01*
X0263856Y0307873D01*
X0263106Y0308624D01*
X0261605Y0308624D01*
X0260854Y0307873D01*
X0259253Y0307873D02*
X0258502Y0308624D01*
X0257001Y0308624D01*
X0256250Y0307873D01*
X0256250Y0304871D01*
X0264042Y0323120D02*
X0266294Y0323120D01*
X0267045Y0323871D01*
X0267045Y0326873D01*
X0266294Y0327624D01*
X0264042Y0327624D01*
X0264042Y0323120D01*
X0268646Y0325372D02*
X0271649Y0325372D01*
X0270898Y0327624D02*
X0268646Y0325372D01*
X0270898Y0323120D02*
X0270898Y0327624D01*
X0278276Y0327870D02*
X0278276Y0322870D01*
X0287724Y0322870D01*
X0287724Y0327870D01*
X0278276Y0327870D01*
X0279750Y0329120D02*
X0279750Y0333624D01*
X0282002Y0333624D01*
X0282753Y0332873D01*
X0282753Y0331372D01*
X0282002Y0330621D01*
X0279750Y0330621D01*
X0281251Y0330621D02*
X0282753Y0329120D01*
X0284354Y0329120D02*
X0287356Y0329120D01*
X0285855Y0329120D02*
X0285855Y0333624D01*
X0284354Y0332123D01*
X0283750Y0332808D02*
X0279246Y0332808D01*
X0279246Y0335060D01*
X0279997Y0335811D01*
X0281498Y0335811D01*
X0282249Y0335060D01*
X0282249Y0332808D01*
X0282249Y0334310D02*
X0283750Y0335811D01*
X0283750Y0337412D02*
X0283750Y0340415D01*
X0283750Y0338913D02*
X0279246Y0338913D01*
X0280747Y0337412D01*
X0280500Y0335646D02*
X0275500Y0335646D01*
X0275500Y0345094D01*
X0280500Y0345094D01*
X0280500Y0335646D01*
X0279997Y0342016D02*
X0279246Y0342767D01*
X0279246Y0344268D01*
X0279997Y0345019D01*
X0280747Y0345019D01*
X0281498Y0344268D01*
X0282249Y0345019D01*
X0282999Y0345019D01*
X0283750Y0344268D01*
X0283750Y0342767D01*
X0282999Y0342016D01*
X0281498Y0343517D02*
X0281498Y0344268D01*
X0279398Y0349620D02*
X0277897Y0349620D01*
X0277146Y0350371D01*
X0277146Y0351872D02*
X0278647Y0352623D01*
X0279398Y0352623D01*
X0280149Y0351872D01*
X0280149Y0350371D01*
X0279398Y0349620D01*
X0277146Y0351872D02*
X0277146Y0354124D01*
X0280149Y0354124D01*
X0275545Y0353373D02*
X0274794Y0354124D01*
X0273293Y0354124D01*
X0272542Y0353373D01*
X0272542Y0350371D01*
X0273293Y0349620D01*
X0274794Y0349620D01*
X0275545Y0350371D01*
X0270756Y0343807D02*
X0270756Y0336933D01*
X0265244Y0336933D02*
X0265244Y0343807D01*
X0285500Y0345094D02*
X0285500Y0335646D01*
X0290500Y0335646D01*
X0290500Y0345094D01*
X0285500Y0345094D01*
X0291210Y0333624D02*
X0288958Y0331372D01*
X0291960Y0331372D01*
X0291210Y0329120D02*
X0291210Y0333624D01*
X0244356Y0331124D02*
X0241354Y0331124D01*
X0241354Y0328872D01*
X0242855Y0329623D01*
X0243606Y0329623D01*
X0244356Y0328872D01*
X0244356Y0327371D01*
X0243606Y0326620D01*
X0242105Y0326620D01*
X0241354Y0327371D01*
X0239753Y0327371D02*
X0239753Y0331124D01*
X0236750Y0331124D02*
X0236750Y0327371D01*
X0237501Y0326620D01*
X0239002Y0326620D01*
X0239753Y0327371D01*
X0044706Y0052324D02*
X0043205Y0052324D01*
X0042454Y0051573D01*
X0040853Y0052324D02*
X0039351Y0052324D01*
X0040102Y0052324D02*
X0040102Y0048571D01*
X0039351Y0047820D01*
X0038601Y0047820D01*
X0037850Y0048571D01*
X0042454Y0047820D02*
X0045456Y0050823D01*
X0045456Y0051573D01*
X0044706Y0052324D01*
X0045456Y0047820D02*
X0042454Y0047820D01*
D14*
X0047235Y0123837D02*
X0047235Y0126907D01*
X0045700Y0125372D02*
X0048769Y0125372D01*
X0032957Y0175491D02*
X0032957Y0178561D01*
X0032957Y0177026D02*
X0028354Y0177026D01*
X0029888Y0175491D01*
X0029888Y0210491D02*
X0028354Y0212026D01*
X0032957Y0212026D01*
X0032957Y0210491D02*
X0032957Y0213561D01*
X0032957Y0245491D02*
X0032957Y0248561D01*
X0032957Y0247026D02*
X0028354Y0247026D01*
X0029888Y0245491D01*
X0039888Y0295491D02*
X0038354Y0297026D01*
X0042957Y0297026D01*
X0042957Y0295491D02*
X0042957Y0298561D01*
X0110696Y0303070D02*
X0113765Y0303070D01*
X0115300Y0304605D01*
X0113765Y0306139D01*
X0110696Y0306139D01*
X0111463Y0307674D02*
X0110696Y0308441D01*
X0110696Y0309976D01*
X0111463Y0310743D01*
X0111463Y0312278D02*
X0110696Y0313045D01*
X0110696Y0314580D01*
X0111463Y0315347D01*
X0111463Y0312278D02*
X0114533Y0312278D01*
X0115300Y0313045D01*
X0115300Y0314580D01*
X0114533Y0315347D01*
X0120696Y0314580D02*
X0120696Y0312278D01*
X0125300Y0312278D01*
X0125300Y0314580D01*
X0124533Y0315347D01*
X0121463Y0315347D01*
X0120696Y0314580D01*
X0120696Y0310743D02*
X0125300Y0310743D01*
X0120696Y0307674D01*
X0125300Y0307674D01*
X0124533Y0306139D02*
X0122998Y0306139D01*
X0122998Y0304605D01*
X0121463Y0306139D02*
X0120696Y0305372D01*
X0120696Y0303837D01*
X0121463Y0303070D01*
X0124533Y0303070D01*
X0125300Y0303837D01*
X0125300Y0305372D01*
X0124533Y0306139D01*
X0130696Y0305372D02*
X0130696Y0303837D01*
X0131463Y0303070D01*
X0132231Y0303070D01*
X0132998Y0303837D01*
X0132998Y0305372D01*
X0133765Y0306139D01*
X0134533Y0306139D01*
X0135300Y0305372D01*
X0135300Y0303837D01*
X0134533Y0303070D01*
X0131463Y0306139D02*
X0130696Y0305372D01*
X0131463Y0307674D02*
X0130696Y0308441D01*
X0130696Y0309976D01*
X0131463Y0310743D01*
X0130696Y0312278D02*
X0135300Y0312278D01*
X0135300Y0315347D01*
X0140696Y0313813D02*
X0142231Y0315347D01*
X0145300Y0315347D01*
X0142998Y0315347D02*
X0142998Y0312278D01*
X0142231Y0312278D02*
X0140696Y0313813D01*
X0142231Y0312278D02*
X0145300Y0312278D01*
X0144533Y0310743D02*
X0141463Y0310743D01*
X0140696Y0309976D01*
X0140696Y0307674D01*
X0145300Y0307674D01*
X0145300Y0309976D01*
X0144533Y0310743D01*
X0144533Y0306139D02*
X0143765Y0306139D01*
X0142998Y0305372D01*
X0142998Y0303837D01*
X0142231Y0303070D01*
X0141463Y0303070D01*
X0140696Y0303837D01*
X0140696Y0305372D01*
X0141463Y0306139D01*
X0144533Y0306139D02*
X0145300Y0305372D01*
X0145300Y0303837D01*
X0144533Y0303070D01*
X0150696Y0303070D02*
X0155300Y0303070D01*
X0155300Y0306139D01*
X0155300Y0307674D02*
X0155300Y0309976D01*
X0154533Y0310743D01*
X0151463Y0310743D01*
X0150696Y0309976D01*
X0150696Y0307674D01*
X0155300Y0307674D01*
X0152998Y0304605D02*
X0152998Y0303070D01*
X0150696Y0303070D02*
X0150696Y0306139D01*
X0152231Y0312278D02*
X0150696Y0313813D01*
X0152231Y0315347D01*
X0155300Y0315347D01*
X0152998Y0315347D02*
X0152998Y0312278D01*
X0152231Y0312278D02*
X0155300Y0312278D01*
X0160696Y0312278D02*
X0165300Y0312278D01*
X0165300Y0315347D01*
X0170696Y0314580D02*
X0171463Y0315347D01*
X0174533Y0312278D01*
X0175300Y0313045D01*
X0175300Y0314580D01*
X0174533Y0315347D01*
X0171463Y0315347D01*
X0170696Y0314580D02*
X0170696Y0313045D01*
X0171463Y0312278D01*
X0174533Y0312278D01*
X0174533Y0310743D02*
X0171463Y0310743D01*
X0170696Y0309976D01*
X0170696Y0307674D01*
X0175300Y0307674D01*
X0175300Y0309976D01*
X0174533Y0310743D01*
X0175300Y0306139D02*
X0172231Y0306139D01*
X0170696Y0304605D01*
X0172231Y0303070D01*
X0175300Y0303070D01*
X0172998Y0303070D02*
X0172998Y0306139D01*
X0165300Y0306139D02*
X0165300Y0303070D01*
X0160696Y0303070D01*
X0160696Y0306139D01*
X0161463Y0307674D02*
X0160696Y0308441D01*
X0160696Y0309976D01*
X0161463Y0310743D01*
X0161463Y0307674D02*
X0164533Y0307674D01*
X0165300Y0308441D01*
X0165300Y0309976D01*
X0164533Y0310743D01*
X0162998Y0304605D02*
X0162998Y0303070D01*
X0180696Y0303070D02*
X0180696Y0304605D01*
X0180696Y0303837D02*
X0185300Y0303837D01*
X0185300Y0303070D02*
X0185300Y0304605D01*
X0185300Y0306139D02*
X0180696Y0306139D01*
X0185300Y0309209D01*
X0180696Y0309209D01*
X0180696Y0310743D02*
X0180696Y0313813D01*
X0180696Y0312278D02*
X0185300Y0312278D01*
X0190696Y0313045D02*
X0191463Y0312278D01*
X0192231Y0312278D01*
X0192998Y0313045D01*
X0192998Y0314580D01*
X0193765Y0315347D01*
X0194533Y0315347D01*
X0195300Y0314580D01*
X0195300Y0313045D01*
X0194533Y0312278D01*
X0194533Y0310743D02*
X0195300Y0309976D01*
X0195300Y0308441D01*
X0194533Y0307674D01*
X0191463Y0307674D01*
X0190696Y0308441D01*
X0190696Y0309976D01*
X0191463Y0310743D01*
X0190696Y0313045D02*
X0190696Y0314580D01*
X0191463Y0315347D01*
X0200696Y0315347D02*
X0201463Y0315347D01*
X0202998Y0313813D01*
X0205300Y0313813D01*
X0202998Y0313813D02*
X0201463Y0312278D01*
X0200696Y0312278D01*
X0201463Y0310743D02*
X0200696Y0309976D01*
X0200696Y0308441D01*
X0201463Y0307674D01*
X0202231Y0307674D01*
X0202998Y0308441D01*
X0202998Y0309976D01*
X0203765Y0310743D01*
X0204533Y0310743D01*
X0205300Y0309976D01*
X0205300Y0308441D01*
X0204533Y0307674D01*
X0202998Y0304605D02*
X0202998Y0303070D01*
X0200696Y0303070D02*
X0200696Y0306139D01*
X0200696Y0303070D02*
X0205300Y0303070D01*
X0195300Y0303070D02*
X0190696Y0303070D01*
X0195300Y0306139D01*
X0190696Y0306139D01*
X0200696Y0316882D02*
X0205300Y0319951D01*
X0200696Y0319951D01*
X0201463Y0321486D02*
X0200696Y0322253D01*
X0200696Y0323788D01*
X0201463Y0324555D01*
X0201463Y0321486D02*
X0204533Y0321486D01*
X0205300Y0322253D01*
X0205300Y0323788D01*
X0204533Y0324555D01*
X0205300Y0316882D02*
X0200696Y0316882D01*
X0135300Y0309976D02*
X0134533Y0310743D01*
X0135300Y0309976D02*
X0135300Y0308441D01*
X0134533Y0307674D01*
X0131463Y0307674D01*
X0115300Y0308441D02*
X0115300Y0309976D01*
X0114533Y0310743D01*
X0115300Y0308441D02*
X0114533Y0307674D01*
X0111463Y0307674D01*
X0273039Y0112580D02*
X0277643Y0112580D01*
X0277643Y0114114D02*
X0277643Y0111045D01*
X0274573Y0111045D02*
X0273039Y0112580D01*
X0284573Y0161045D02*
X0283039Y0162580D01*
X0287643Y0162580D01*
X0287643Y0164114D02*
X0287643Y0161045D01*
X0287643Y0196045D02*
X0287643Y0199114D01*
X0287643Y0197580D02*
X0283039Y0197580D01*
X0284573Y0196045D01*
X0284573Y0231045D02*
X0283039Y0232580D01*
X0287643Y0232580D01*
X0287643Y0234114D02*
X0287643Y0231045D01*
X0287643Y0266045D02*
X0287643Y0269114D01*
X0287643Y0267580D02*
X0283039Y0267580D01*
X0284573Y0266045D01*
X0150209Y0085331D02*
X0150209Y0080728D01*
X0148675Y0080728D02*
X0151744Y0080728D01*
X0148675Y0083797D02*
X0150209Y0085331D01*
X0129533Y0085001D02*
X0126463Y0085001D01*
X0127998Y0083466D02*
X0127998Y0086535D01*
D15*
X0111425Y0100370D03*
X0056425Y0115370D03*
X0234575Y0200370D03*
D16*
X0169963Y0081572D02*
X0166694Y0081572D01*
X0147463Y0081572D02*
X0144194Y0081572D01*
X0145828Y0083207D02*
X0145828Y0079937D01*
D17*
X0139384Y0325520D02*
X0139384Y0327372D01*
X0140619Y0328606D01*
X0140619Y0329223D01*
X0139384Y0327372D02*
X0138150Y0328606D01*
X0138150Y0329223D01*
X0158150Y0343020D02*
X0160619Y0346723D01*
X0158150Y0346723D02*
X0160619Y0343020D01*
X0163150Y0329223D02*
X0165619Y0329223D01*
X0165619Y0328606D01*
X0163150Y0326137D01*
X0163150Y0325520D01*
X0165619Y0325520D01*
D18*
X0268000Y0338795D03*
M02*
