G75*
%MOIN*%
%OFA0B0*%
%FSLAX25Y25*%
%IPPOS*%
%LPD*%
%AMOC8*
5,1,8,0,0,1.08239X$1,22.5*
%
%ADD10C,0.10800*%
%ADD11C,0.15800*%
%ADD12C,0.07800*%
%ADD13C,0.06000*%
%ADD14C,0.11430*%
%ADD15C,0.09461*%
%ADD16C,0.05950*%
%ADD17C,0.06343*%
%ADD18C,0.16942*%
%ADD19R,0.08200X0.08200*%
%ADD20C,0.08200*%
%ADD21OC8,0.07100*%
%ADD22C,0.07100*%
%ADD23C,0.07400*%
%ADD24C,0.13800*%
%ADD25C,0.11036*%
%ADD26C,0.03975*%
%ADD27C,0.04800*%
D10*
X0110817Y0105728D03*
X0143583Y0128672D03*
X0113583Y0168672D03*
X0080817Y0145728D03*
X0065817Y0185728D03*
X0098583Y0208672D03*
X0088583Y0248672D03*
X0055817Y0225728D03*
X0055817Y0295728D03*
X0088583Y0318672D03*
X0065817Y0335728D03*
X0098583Y0358672D03*
X0080817Y0375728D03*
X0113583Y0398672D03*
X0110817Y0415728D03*
X0143583Y0438672D03*
X0182200Y0307200D03*
X0182200Y0237200D03*
D11*
X0362200Y0237200D03*
X0362200Y0307200D03*
D12*
X0347200Y0312200D03*
X0337200Y0312200D03*
X0327200Y0312200D03*
X0317200Y0312200D03*
X0307200Y0312200D03*
X0297200Y0312200D03*
X0287200Y0312200D03*
X0277200Y0312200D03*
X0267200Y0312200D03*
X0257200Y0312200D03*
X0247200Y0312200D03*
X0237200Y0312200D03*
X0227200Y0312200D03*
X0217200Y0312200D03*
X0207200Y0312200D03*
X0197200Y0312200D03*
X0214700Y0377200D03*
X0224700Y0377200D03*
X0234700Y0377200D03*
X0244700Y0377200D03*
X0254700Y0377200D03*
X0264700Y0377200D03*
X0274700Y0377200D03*
X0284700Y0377200D03*
X0294700Y0377200D03*
X0319700Y0377200D03*
X0329700Y0377200D03*
X0339700Y0377200D03*
X0349700Y0377200D03*
X0359700Y0377200D03*
X0369700Y0377200D03*
X0379700Y0377200D03*
X0389700Y0377200D03*
X0399700Y0377200D03*
X0307200Y0232200D03*
X0297200Y0232200D03*
X0287200Y0232200D03*
X0277200Y0232200D03*
X0267200Y0232200D03*
X0257200Y0232200D03*
X0247200Y0232200D03*
X0237200Y0232200D03*
X0227200Y0232200D03*
X0217200Y0232200D03*
X0207200Y0232200D03*
X0197200Y0232200D03*
X0232200Y0184700D03*
X0242200Y0184700D03*
X0252200Y0184700D03*
X0262200Y0184700D03*
X0272200Y0184700D03*
X0282200Y0184700D03*
X0292200Y0184700D03*
X0302200Y0184700D03*
X0312200Y0184700D03*
D13*
X0189800Y0127200D02*
X0184600Y0127200D01*
X0184600Y0117200D02*
X0189800Y0117200D01*
X0189800Y0107200D02*
X0184600Y0107200D01*
X0159800Y0107200D02*
X0154600Y0107200D01*
X0154600Y0117200D02*
X0159800Y0117200D01*
X0159800Y0127200D02*
X0154600Y0127200D01*
X0154600Y0147200D02*
X0159800Y0147200D01*
X0159800Y0157200D02*
X0154600Y0157200D01*
X0154600Y0167200D02*
X0159800Y0167200D01*
X0144800Y0187200D02*
X0139600Y0187200D01*
X0139600Y0197200D02*
X0144800Y0197200D01*
X0144800Y0207200D02*
X0139600Y0207200D01*
X0134800Y0227200D02*
X0129600Y0227200D01*
X0129600Y0237200D02*
X0134800Y0237200D01*
X0134800Y0247200D02*
X0129600Y0247200D01*
X0104800Y0247200D02*
X0099600Y0247200D01*
X0099600Y0237200D02*
X0104800Y0237200D01*
X0104800Y0227200D02*
X0099600Y0227200D01*
X0109600Y0207200D02*
X0114800Y0207200D01*
X0114800Y0197200D02*
X0109600Y0197200D01*
X0109600Y0187200D02*
X0114800Y0187200D01*
X0124600Y0167200D02*
X0129800Y0167200D01*
X0129800Y0157200D02*
X0124600Y0157200D01*
X0124600Y0147200D02*
X0129800Y0147200D01*
X0129600Y0297200D02*
X0134800Y0297200D01*
X0134800Y0307200D02*
X0129600Y0307200D01*
X0129600Y0317200D02*
X0134800Y0317200D01*
X0139600Y0337200D02*
X0144800Y0337200D01*
X0144800Y0347200D02*
X0139600Y0347200D01*
X0139600Y0357200D02*
X0144800Y0357200D01*
X0154600Y0377200D02*
X0159800Y0377200D01*
X0159800Y0387200D02*
X0154600Y0387200D01*
X0154600Y0397200D02*
X0159800Y0397200D01*
X0159800Y0417200D02*
X0154600Y0417200D01*
X0154600Y0427200D02*
X0159800Y0427200D01*
X0159800Y0437200D02*
X0154600Y0437200D01*
X0184600Y0437200D02*
X0189800Y0437200D01*
X0189800Y0427200D02*
X0184600Y0427200D01*
X0184600Y0417200D02*
X0189800Y0417200D01*
X0129800Y0397200D02*
X0124600Y0397200D01*
X0124600Y0387200D02*
X0129800Y0387200D01*
X0129800Y0377200D02*
X0124600Y0377200D01*
X0114800Y0357200D02*
X0109600Y0357200D01*
X0109600Y0347200D02*
X0114800Y0347200D01*
X0114800Y0337200D02*
X0109600Y0337200D01*
X0104800Y0317200D02*
X0099600Y0317200D01*
X0099600Y0307200D02*
X0104800Y0307200D01*
X0104800Y0297200D02*
X0099600Y0297200D01*
D14*
X0217200Y0442700D03*
X0292200Y0442700D03*
X0322200Y0442700D03*
X0397200Y0442700D03*
D15*
X0312200Y0068637D03*
X0232200Y0068637D03*
D16*
X0357357Y0127200D03*
X0377043Y0127200D03*
D17*
X0089972Y0112279D02*
X0084428Y0112279D01*
X0084428Y0122121D02*
X0089972Y0122121D01*
X0059972Y0152279D02*
X0054428Y0152279D01*
X0054428Y0162121D02*
X0059972Y0162121D01*
X0044972Y0192279D02*
X0039428Y0192279D01*
X0039428Y0202121D02*
X0044972Y0202121D01*
X0034972Y0232279D02*
X0029428Y0232279D01*
X0029428Y0242121D02*
X0034972Y0242121D01*
X0034972Y0302279D02*
X0029428Y0302279D01*
X0029428Y0312121D02*
X0034972Y0312121D01*
X0039428Y0342279D02*
X0044972Y0342279D01*
X0044972Y0352121D02*
X0039428Y0352121D01*
X0054428Y0382279D02*
X0059972Y0382279D01*
X0059972Y0392121D02*
X0054428Y0392121D01*
X0084428Y0422279D02*
X0089972Y0422279D01*
X0089972Y0432121D02*
X0084428Y0432121D01*
X0144428Y0467279D02*
X0149972Y0467279D01*
X0149972Y0477121D02*
X0144428Y0477121D01*
X0449428Y0442121D02*
X0454972Y0442121D01*
X0454972Y0432279D02*
X0449428Y0432279D01*
X0499428Y0347121D02*
X0504972Y0347121D01*
X0504972Y0337279D02*
X0499428Y0337279D01*
X0499428Y0227200D02*
X0504972Y0227200D01*
X0504972Y0217200D02*
X0499428Y0217200D01*
X0499428Y0207200D02*
X0504972Y0207200D01*
X0489972Y0177200D02*
X0484428Y0177200D01*
X0484428Y0167200D02*
X0489972Y0167200D01*
X0489972Y0157200D02*
X0484428Y0157200D01*
X0454972Y0127200D02*
X0449428Y0127200D01*
X0449428Y0117200D02*
X0454972Y0117200D01*
X0454972Y0107200D02*
X0449428Y0107200D01*
X0149972Y0077121D02*
X0144428Y0077121D01*
X0144428Y0067279D02*
X0149972Y0067279D01*
D18*
X0035980Y0272200D03*
X0390310Y0272200D03*
X0390310Y0476773D03*
X0390310Y0067627D03*
D19*
X0477200Y0407200D03*
D20*
X0477200Y0397200D03*
X0487200Y0377200D03*
X0497200Y0377200D03*
X0477200Y0287200D03*
X0477200Y0277200D03*
X0477200Y0267200D03*
X0477200Y0257200D03*
D21*
X0427200Y0349200D03*
D22*
X0427200Y0335200D03*
D23*
X0493700Y0277121D03*
X0501500Y0277121D03*
X0501500Y0267279D03*
X0493700Y0267279D03*
D24*
X0512200Y0248500D03*
X0512200Y0295900D03*
D25*
X0427200Y0307200D03*
X0407200Y0307200D03*
X0192200Y0477200D03*
X0172200Y0477200D03*
X0172200Y0077200D03*
X0192200Y0077200D03*
D26*
X0342200Y0152200D03*
X0354700Y0172200D03*
X0442200Y0382200D03*
X0432200Y0387200D03*
X0452200Y0407200D03*
X0427200Y0429700D03*
X0429700Y0447200D03*
D27*
X0258420Y0386373D03*
X0246609Y0352909D03*
X0238735Y0348972D03*
X0222987Y0347003D03*
X0217082Y0343066D03*
X0207239Y0352909D03*
X0222987Y0321413D03*
X0224956Y0284011D03*
X0217082Y0276137D03*
X0221019Y0272200D03*
X0258420Y0258420D03*
X0258420Y0252515D03*
X0262357Y0246609D03*
X0262357Y0236767D03*
X0260389Y0224956D03*
X0264326Y0221019D03*
X0217082Y0199365D03*
X0195428Y0221019D03*
X0331255Y0240704D03*
X0339129Y0230861D03*
X0339129Y0221019D03*
X0348972Y0221019D03*
X0343066Y0274169D03*
M02*
