G75*
%MOIN*%
%OFA0B0*%
%FSLAX25Y25*%
%IPPOS*%
%LPD*%
%AMOC8*
5,1,8,0,0,1.08239X$1,22.5*
%
%ADD10C,0.00004*%
%ADD11C,0.00000*%
D10*
X0082706Y0091962D02*
X0091962Y0082706D01*
X0120741Y0066810D01*
X0125456Y0063384D01*
X0149466Y0040926D01*
X0161131Y0034983D01*
X0193412Y0028759D01*
X0198956Y0026958D01*
X0228731Y0013019D01*
X0241660Y0010971D01*
X0274286Y0015027D01*
X0280114Y0015027D01*
X0312740Y0010971D01*
X0325669Y0013019D01*
X0355444Y0026958D01*
X0360988Y0028759D01*
X0393269Y0034983D01*
X0404934Y0040926D01*
X0428944Y0063384D01*
X0433659Y0066810D01*
X0462438Y0082706D01*
X0471694Y0091962D01*
X0487590Y0120741D01*
X0491016Y0125456D01*
X0513474Y0149466D01*
X0519417Y0161131D01*
X0525641Y0193412D01*
X0527442Y0198956D01*
X0541381Y0228731D01*
X0543429Y0241660D01*
X0539373Y0274286D01*
X0539373Y0280114D01*
X0543429Y0312740D01*
X0541381Y0325669D01*
X0527442Y0355444D01*
X0525641Y0360988D01*
X0519417Y0393269D01*
X0513474Y0404934D01*
X0491016Y0428944D01*
X0487590Y0433659D01*
X0471694Y0462438D01*
X0462438Y0471694D01*
X0433659Y0487590D01*
X0428944Y0491016D01*
X0404934Y0513474D01*
X0393269Y0519417D01*
X0360988Y0525641D01*
X0355444Y0527442D01*
X0325669Y0541381D01*
X0312740Y0543429D01*
X0280114Y0539373D01*
X0274286Y0539373D01*
X0241660Y0543429D01*
X0228731Y0541381D01*
X0198956Y0527442D01*
X0193412Y0525641D01*
X0161131Y0519417D01*
X0149466Y0513474D01*
X0125456Y0491016D01*
X0120741Y0487590D01*
X0091962Y0471694D01*
X0082706Y0462438D01*
X0066810Y0433659D01*
X0063384Y0428944D01*
X0040926Y0404934D01*
X0034983Y0393269D01*
X0028759Y0360988D01*
X0026958Y0355444D01*
X0013019Y0325669D01*
X0010971Y0312740D01*
X0015027Y0280114D01*
X0015027Y0274286D01*
X0010971Y0241660D01*
X0013019Y0228731D01*
X0026958Y0198956D01*
X0028759Y0193412D01*
X0034983Y0161131D01*
X0040926Y0149466D01*
X0063384Y0125456D01*
X0066810Y0120741D01*
X0082706Y0091962D01*
D11*
X0032909Y0277200D02*
X0032911Y0277398D01*
X0032919Y0277596D01*
X0032931Y0277794D01*
X0032948Y0277991D01*
X0032970Y0278188D01*
X0032996Y0278384D01*
X0033028Y0278580D01*
X0033064Y0278775D01*
X0033105Y0278968D01*
X0033151Y0279161D01*
X0033201Y0279353D01*
X0033257Y0279543D01*
X0033316Y0279732D01*
X0033381Y0279919D01*
X0033450Y0280105D01*
X0033523Y0280289D01*
X0033601Y0280471D01*
X0033684Y0280651D01*
X0033771Y0280829D01*
X0033862Y0281005D01*
X0033958Y0281178D01*
X0034057Y0281349D01*
X0034161Y0281518D01*
X0034269Y0281684D01*
X0034381Y0281847D01*
X0034497Y0282008D01*
X0034617Y0282166D01*
X0034741Y0282320D01*
X0034869Y0282472D01*
X0035000Y0282620D01*
X0035135Y0282765D01*
X0035273Y0282907D01*
X0035415Y0283045D01*
X0035560Y0283180D01*
X0035708Y0283311D01*
X0035860Y0283439D01*
X0036014Y0283563D01*
X0036172Y0283683D01*
X0036333Y0283799D01*
X0036496Y0283911D01*
X0036662Y0284019D01*
X0036831Y0284123D01*
X0037002Y0284222D01*
X0037175Y0284318D01*
X0037351Y0284409D01*
X0037529Y0284496D01*
X0037709Y0284579D01*
X0037891Y0284657D01*
X0038075Y0284730D01*
X0038261Y0284799D01*
X0038448Y0284864D01*
X0038637Y0284923D01*
X0038827Y0284979D01*
X0039019Y0285029D01*
X0039212Y0285075D01*
X0039405Y0285116D01*
X0039600Y0285152D01*
X0039796Y0285184D01*
X0039992Y0285210D01*
X0040189Y0285232D01*
X0040386Y0285249D01*
X0040584Y0285261D01*
X0040782Y0285269D01*
X0040980Y0285271D01*
X0041178Y0285269D01*
X0041376Y0285261D01*
X0041574Y0285249D01*
X0041771Y0285232D01*
X0041968Y0285210D01*
X0042164Y0285184D01*
X0042360Y0285152D01*
X0042555Y0285116D01*
X0042748Y0285075D01*
X0042941Y0285029D01*
X0043133Y0284979D01*
X0043323Y0284923D01*
X0043512Y0284864D01*
X0043699Y0284799D01*
X0043885Y0284730D01*
X0044069Y0284657D01*
X0044251Y0284579D01*
X0044431Y0284496D01*
X0044609Y0284409D01*
X0044785Y0284318D01*
X0044958Y0284222D01*
X0045129Y0284123D01*
X0045298Y0284019D01*
X0045464Y0283911D01*
X0045627Y0283799D01*
X0045788Y0283683D01*
X0045946Y0283563D01*
X0046100Y0283439D01*
X0046252Y0283311D01*
X0046400Y0283180D01*
X0046545Y0283045D01*
X0046687Y0282907D01*
X0046825Y0282765D01*
X0046960Y0282620D01*
X0047091Y0282472D01*
X0047219Y0282320D01*
X0047343Y0282166D01*
X0047463Y0282008D01*
X0047579Y0281847D01*
X0047691Y0281684D01*
X0047799Y0281518D01*
X0047903Y0281349D01*
X0048002Y0281178D01*
X0048098Y0281005D01*
X0048189Y0280829D01*
X0048276Y0280651D01*
X0048359Y0280471D01*
X0048437Y0280289D01*
X0048510Y0280105D01*
X0048579Y0279919D01*
X0048644Y0279732D01*
X0048703Y0279543D01*
X0048759Y0279353D01*
X0048809Y0279161D01*
X0048855Y0278968D01*
X0048896Y0278775D01*
X0048932Y0278580D01*
X0048964Y0278384D01*
X0048990Y0278188D01*
X0049012Y0277991D01*
X0049029Y0277794D01*
X0049041Y0277596D01*
X0049049Y0277398D01*
X0049051Y0277200D01*
X0049049Y0277002D01*
X0049041Y0276804D01*
X0049029Y0276606D01*
X0049012Y0276409D01*
X0048990Y0276212D01*
X0048964Y0276016D01*
X0048932Y0275820D01*
X0048896Y0275625D01*
X0048855Y0275432D01*
X0048809Y0275239D01*
X0048759Y0275047D01*
X0048703Y0274857D01*
X0048644Y0274668D01*
X0048579Y0274481D01*
X0048510Y0274295D01*
X0048437Y0274111D01*
X0048359Y0273929D01*
X0048276Y0273749D01*
X0048189Y0273571D01*
X0048098Y0273395D01*
X0048002Y0273222D01*
X0047903Y0273051D01*
X0047799Y0272882D01*
X0047691Y0272716D01*
X0047579Y0272553D01*
X0047463Y0272392D01*
X0047343Y0272234D01*
X0047219Y0272080D01*
X0047091Y0271928D01*
X0046960Y0271780D01*
X0046825Y0271635D01*
X0046687Y0271493D01*
X0046545Y0271355D01*
X0046400Y0271220D01*
X0046252Y0271089D01*
X0046100Y0270961D01*
X0045946Y0270837D01*
X0045788Y0270717D01*
X0045627Y0270601D01*
X0045464Y0270489D01*
X0045298Y0270381D01*
X0045129Y0270277D01*
X0044958Y0270178D01*
X0044785Y0270082D01*
X0044609Y0269991D01*
X0044431Y0269904D01*
X0044251Y0269821D01*
X0044069Y0269743D01*
X0043885Y0269670D01*
X0043699Y0269601D01*
X0043512Y0269536D01*
X0043323Y0269477D01*
X0043133Y0269421D01*
X0042941Y0269371D01*
X0042748Y0269325D01*
X0042555Y0269284D01*
X0042360Y0269248D01*
X0042164Y0269216D01*
X0041968Y0269190D01*
X0041771Y0269168D01*
X0041574Y0269151D01*
X0041376Y0269139D01*
X0041178Y0269131D01*
X0040980Y0269129D01*
X0040782Y0269131D01*
X0040584Y0269139D01*
X0040386Y0269151D01*
X0040189Y0269168D01*
X0039992Y0269190D01*
X0039796Y0269216D01*
X0039600Y0269248D01*
X0039405Y0269284D01*
X0039212Y0269325D01*
X0039019Y0269371D01*
X0038827Y0269421D01*
X0038637Y0269477D01*
X0038448Y0269536D01*
X0038261Y0269601D01*
X0038075Y0269670D01*
X0037891Y0269743D01*
X0037709Y0269821D01*
X0037529Y0269904D01*
X0037351Y0269991D01*
X0037175Y0270082D01*
X0037002Y0270178D01*
X0036831Y0270277D01*
X0036662Y0270381D01*
X0036496Y0270489D01*
X0036333Y0270601D01*
X0036172Y0270717D01*
X0036014Y0270837D01*
X0035860Y0270961D01*
X0035708Y0271089D01*
X0035560Y0271220D01*
X0035415Y0271355D01*
X0035273Y0271493D01*
X0035135Y0271635D01*
X0035000Y0271780D01*
X0034869Y0271928D01*
X0034741Y0272080D01*
X0034617Y0272234D01*
X0034497Y0272392D01*
X0034381Y0272553D01*
X0034269Y0272716D01*
X0034161Y0272882D01*
X0034057Y0273051D01*
X0033958Y0273222D01*
X0033862Y0273395D01*
X0033771Y0273571D01*
X0033684Y0273749D01*
X0033601Y0273929D01*
X0033523Y0274111D01*
X0033450Y0274295D01*
X0033381Y0274481D01*
X0033316Y0274668D01*
X0033257Y0274857D01*
X0033201Y0275047D01*
X0033151Y0275239D01*
X0033105Y0275432D01*
X0033064Y0275625D01*
X0033028Y0275820D01*
X0032996Y0276016D01*
X0032970Y0276212D01*
X0032948Y0276409D01*
X0032931Y0276606D01*
X0032919Y0276804D01*
X0032911Y0277002D01*
X0032909Y0277200D01*
X0237200Y0367200D02*
X0237202Y0367341D01*
X0237208Y0367482D01*
X0237218Y0367622D01*
X0237232Y0367762D01*
X0237250Y0367902D01*
X0237271Y0368041D01*
X0237297Y0368180D01*
X0237326Y0368318D01*
X0237360Y0368454D01*
X0237397Y0368590D01*
X0237438Y0368725D01*
X0237483Y0368859D01*
X0237532Y0368991D01*
X0237584Y0369122D01*
X0237640Y0369251D01*
X0237700Y0369378D01*
X0237763Y0369504D01*
X0237829Y0369628D01*
X0237900Y0369751D01*
X0237973Y0369871D01*
X0238050Y0369989D01*
X0238130Y0370105D01*
X0238214Y0370218D01*
X0238300Y0370329D01*
X0238390Y0370438D01*
X0238483Y0370544D01*
X0238578Y0370647D01*
X0238677Y0370748D01*
X0238778Y0370846D01*
X0238882Y0370941D01*
X0238989Y0371033D01*
X0239098Y0371122D01*
X0239210Y0371207D01*
X0239324Y0371290D01*
X0239440Y0371370D01*
X0239559Y0371446D01*
X0239680Y0371518D01*
X0239802Y0371588D01*
X0239927Y0371653D01*
X0240053Y0371716D01*
X0240181Y0371774D01*
X0240311Y0371829D01*
X0240442Y0371881D01*
X0240575Y0371928D01*
X0240709Y0371972D01*
X0240844Y0372013D01*
X0240980Y0372049D01*
X0241117Y0372081D01*
X0241255Y0372110D01*
X0241393Y0372135D01*
X0241533Y0372155D01*
X0241673Y0372172D01*
X0241813Y0372185D01*
X0241954Y0372194D01*
X0242094Y0372199D01*
X0242235Y0372200D01*
X0242376Y0372197D01*
X0242517Y0372190D01*
X0242657Y0372179D01*
X0242797Y0372164D01*
X0242937Y0372145D01*
X0243076Y0372123D01*
X0243214Y0372096D01*
X0243352Y0372066D01*
X0243488Y0372031D01*
X0243624Y0371993D01*
X0243758Y0371951D01*
X0243892Y0371905D01*
X0244024Y0371856D01*
X0244154Y0371802D01*
X0244283Y0371745D01*
X0244410Y0371685D01*
X0244536Y0371621D01*
X0244659Y0371553D01*
X0244781Y0371482D01*
X0244901Y0371408D01*
X0245018Y0371330D01*
X0245133Y0371249D01*
X0245246Y0371165D01*
X0245357Y0371078D01*
X0245465Y0370987D01*
X0245570Y0370894D01*
X0245673Y0370797D01*
X0245773Y0370698D01*
X0245870Y0370596D01*
X0245964Y0370491D01*
X0246055Y0370384D01*
X0246143Y0370274D01*
X0246228Y0370162D01*
X0246310Y0370047D01*
X0246389Y0369930D01*
X0246464Y0369811D01*
X0246536Y0369690D01*
X0246604Y0369567D01*
X0246669Y0369442D01*
X0246731Y0369315D01*
X0246788Y0369186D01*
X0246843Y0369056D01*
X0246893Y0368925D01*
X0246940Y0368792D01*
X0246983Y0368658D01*
X0247022Y0368522D01*
X0247057Y0368386D01*
X0247089Y0368249D01*
X0247116Y0368111D01*
X0247140Y0367972D01*
X0247160Y0367832D01*
X0247176Y0367692D01*
X0247188Y0367552D01*
X0247196Y0367411D01*
X0247200Y0367270D01*
X0247200Y0367130D01*
X0247196Y0366989D01*
X0247188Y0366848D01*
X0247176Y0366708D01*
X0247160Y0366568D01*
X0247140Y0366428D01*
X0247116Y0366289D01*
X0247089Y0366151D01*
X0247057Y0366014D01*
X0247022Y0365878D01*
X0246983Y0365742D01*
X0246940Y0365608D01*
X0246893Y0365475D01*
X0246843Y0365344D01*
X0246788Y0365214D01*
X0246731Y0365085D01*
X0246669Y0364958D01*
X0246604Y0364833D01*
X0246536Y0364710D01*
X0246464Y0364589D01*
X0246389Y0364470D01*
X0246310Y0364353D01*
X0246228Y0364238D01*
X0246143Y0364126D01*
X0246055Y0364016D01*
X0245964Y0363909D01*
X0245870Y0363804D01*
X0245773Y0363702D01*
X0245673Y0363603D01*
X0245570Y0363506D01*
X0245465Y0363413D01*
X0245357Y0363322D01*
X0245246Y0363235D01*
X0245133Y0363151D01*
X0245018Y0363070D01*
X0244901Y0362992D01*
X0244781Y0362918D01*
X0244659Y0362847D01*
X0244536Y0362779D01*
X0244410Y0362715D01*
X0244283Y0362655D01*
X0244154Y0362598D01*
X0244024Y0362544D01*
X0243892Y0362495D01*
X0243758Y0362449D01*
X0243624Y0362407D01*
X0243488Y0362369D01*
X0243352Y0362334D01*
X0243214Y0362304D01*
X0243076Y0362277D01*
X0242937Y0362255D01*
X0242797Y0362236D01*
X0242657Y0362221D01*
X0242517Y0362210D01*
X0242376Y0362203D01*
X0242235Y0362200D01*
X0242094Y0362201D01*
X0241954Y0362206D01*
X0241813Y0362215D01*
X0241673Y0362228D01*
X0241533Y0362245D01*
X0241393Y0362265D01*
X0241255Y0362290D01*
X0241117Y0362319D01*
X0240980Y0362351D01*
X0240844Y0362387D01*
X0240709Y0362428D01*
X0240575Y0362472D01*
X0240442Y0362519D01*
X0240311Y0362571D01*
X0240181Y0362626D01*
X0240053Y0362684D01*
X0239927Y0362747D01*
X0239802Y0362812D01*
X0239680Y0362882D01*
X0239559Y0362954D01*
X0239440Y0363030D01*
X0239324Y0363110D01*
X0239210Y0363193D01*
X0239098Y0363278D01*
X0238989Y0363367D01*
X0238882Y0363459D01*
X0238778Y0363554D01*
X0238677Y0363652D01*
X0238578Y0363753D01*
X0238483Y0363856D01*
X0238390Y0363962D01*
X0238300Y0364071D01*
X0238214Y0364182D01*
X0238130Y0364295D01*
X0238050Y0364411D01*
X0237973Y0364529D01*
X0237900Y0364649D01*
X0237829Y0364772D01*
X0237763Y0364896D01*
X0237700Y0365022D01*
X0237640Y0365149D01*
X0237584Y0365278D01*
X0237532Y0365409D01*
X0237483Y0365541D01*
X0237438Y0365675D01*
X0237397Y0365810D01*
X0237360Y0365946D01*
X0237326Y0366082D01*
X0237297Y0366220D01*
X0237271Y0366359D01*
X0237250Y0366498D01*
X0237232Y0366638D01*
X0237218Y0366778D01*
X0237208Y0366918D01*
X0237202Y0367059D01*
X0237200Y0367200D01*
X0307200Y0367200D02*
X0307202Y0367341D01*
X0307208Y0367482D01*
X0307218Y0367622D01*
X0307232Y0367762D01*
X0307250Y0367902D01*
X0307271Y0368041D01*
X0307297Y0368180D01*
X0307326Y0368318D01*
X0307360Y0368454D01*
X0307397Y0368590D01*
X0307438Y0368725D01*
X0307483Y0368859D01*
X0307532Y0368991D01*
X0307584Y0369122D01*
X0307640Y0369251D01*
X0307700Y0369378D01*
X0307763Y0369504D01*
X0307829Y0369628D01*
X0307900Y0369751D01*
X0307973Y0369871D01*
X0308050Y0369989D01*
X0308130Y0370105D01*
X0308214Y0370218D01*
X0308300Y0370329D01*
X0308390Y0370438D01*
X0308483Y0370544D01*
X0308578Y0370647D01*
X0308677Y0370748D01*
X0308778Y0370846D01*
X0308882Y0370941D01*
X0308989Y0371033D01*
X0309098Y0371122D01*
X0309210Y0371207D01*
X0309324Y0371290D01*
X0309440Y0371370D01*
X0309559Y0371446D01*
X0309680Y0371518D01*
X0309802Y0371588D01*
X0309927Y0371653D01*
X0310053Y0371716D01*
X0310181Y0371774D01*
X0310311Y0371829D01*
X0310442Y0371881D01*
X0310575Y0371928D01*
X0310709Y0371972D01*
X0310844Y0372013D01*
X0310980Y0372049D01*
X0311117Y0372081D01*
X0311255Y0372110D01*
X0311393Y0372135D01*
X0311533Y0372155D01*
X0311673Y0372172D01*
X0311813Y0372185D01*
X0311954Y0372194D01*
X0312094Y0372199D01*
X0312235Y0372200D01*
X0312376Y0372197D01*
X0312517Y0372190D01*
X0312657Y0372179D01*
X0312797Y0372164D01*
X0312937Y0372145D01*
X0313076Y0372123D01*
X0313214Y0372096D01*
X0313352Y0372066D01*
X0313488Y0372031D01*
X0313624Y0371993D01*
X0313758Y0371951D01*
X0313892Y0371905D01*
X0314024Y0371856D01*
X0314154Y0371802D01*
X0314283Y0371745D01*
X0314410Y0371685D01*
X0314536Y0371621D01*
X0314659Y0371553D01*
X0314781Y0371482D01*
X0314901Y0371408D01*
X0315018Y0371330D01*
X0315133Y0371249D01*
X0315246Y0371165D01*
X0315357Y0371078D01*
X0315465Y0370987D01*
X0315570Y0370894D01*
X0315673Y0370797D01*
X0315773Y0370698D01*
X0315870Y0370596D01*
X0315964Y0370491D01*
X0316055Y0370384D01*
X0316143Y0370274D01*
X0316228Y0370162D01*
X0316310Y0370047D01*
X0316389Y0369930D01*
X0316464Y0369811D01*
X0316536Y0369690D01*
X0316604Y0369567D01*
X0316669Y0369442D01*
X0316731Y0369315D01*
X0316788Y0369186D01*
X0316843Y0369056D01*
X0316893Y0368925D01*
X0316940Y0368792D01*
X0316983Y0368658D01*
X0317022Y0368522D01*
X0317057Y0368386D01*
X0317089Y0368249D01*
X0317116Y0368111D01*
X0317140Y0367972D01*
X0317160Y0367832D01*
X0317176Y0367692D01*
X0317188Y0367552D01*
X0317196Y0367411D01*
X0317200Y0367270D01*
X0317200Y0367130D01*
X0317196Y0366989D01*
X0317188Y0366848D01*
X0317176Y0366708D01*
X0317160Y0366568D01*
X0317140Y0366428D01*
X0317116Y0366289D01*
X0317089Y0366151D01*
X0317057Y0366014D01*
X0317022Y0365878D01*
X0316983Y0365742D01*
X0316940Y0365608D01*
X0316893Y0365475D01*
X0316843Y0365344D01*
X0316788Y0365214D01*
X0316731Y0365085D01*
X0316669Y0364958D01*
X0316604Y0364833D01*
X0316536Y0364710D01*
X0316464Y0364589D01*
X0316389Y0364470D01*
X0316310Y0364353D01*
X0316228Y0364238D01*
X0316143Y0364126D01*
X0316055Y0364016D01*
X0315964Y0363909D01*
X0315870Y0363804D01*
X0315773Y0363702D01*
X0315673Y0363603D01*
X0315570Y0363506D01*
X0315465Y0363413D01*
X0315357Y0363322D01*
X0315246Y0363235D01*
X0315133Y0363151D01*
X0315018Y0363070D01*
X0314901Y0362992D01*
X0314781Y0362918D01*
X0314659Y0362847D01*
X0314536Y0362779D01*
X0314410Y0362715D01*
X0314283Y0362655D01*
X0314154Y0362598D01*
X0314024Y0362544D01*
X0313892Y0362495D01*
X0313758Y0362449D01*
X0313624Y0362407D01*
X0313488Y0362369D01*
X0313352Y0362334D01*
X0313214Y0362304D01*
X0313076Y0362277D01*
X0312937Y0362255D01*
X0312797Y0362236D01*
X0312657Y0362221D01*
X0312517Y0362210D01*
X0312376Y0362203D01*
X0312235Y0362200D01*
X0312094Y0362201D01*
X0311954Y0362206D01*
X0311813Y0362215D01*
X0311673Y0362228D01*
X0311533Y0362245D01*
X0311393Y0362265D01*
X0311255Y0362290D01*
X0311117Y0362319D01*
X0310980Y0362351D01*
X0310844Y0362387D01*
X0310709Y0362428D01*
X0310575Y0362472D01*
X0310442Y0362519D01*
X0310311Y0362571D01*
X0310181Y0362626D01*
X0310053Y0362684D01*
X0309927Y0362747D01*
X0309802Y0362812D01*
X0309680Y0362882D01*
X0309559Y0362954D01*
X0309440Y0363030D01*
X0309324Y0363110D01*
X0309210Y0363193D01*
X0309098Y0363278D01*
X0308989Y0363367D01*
X0308882Y0363459D01*
X0308778Y0363554D01*
X0308677Y0363652D01*
X0308578Y0363753D01*
X0308483Y0363856D01*
X0308390Y0363962D01*
X0308300Y0364071D01*
X0308214Y0364182D01*
X0308130Y0364295D01*
X0308050Y0364411D01*
X0307973Y0364529D01*
X0307900Y0364649D01*
X0307829Y0364772D01*
X0307763Y0364896D01*
X0307700Y0365022D01*
X0307640Y0365149D01*
X0307584Y0365278D01*
X0307532Y0365409D01*
X0307483Y0365541D01*
X0307438Y0365675D01*
X0307397Y0365810D01*
X0307360Y0365946D01*
X0307326Y0366082D01*
X0307297Y0366220D01*
X0307271Y0366359D01*
X0307250Y0366498D01*
X0307232Y0366638D01*
X0307218Y0366778D01*
X0307208Y0366918D01*
X0307202Y0367059D01*
X0307200Y0367200D01*
X0387239Y0277200D02*
X0387241Y0277398D01*
X0387249Y0277596D01*
X0387261Y0277794D01*
X0387278Y0277991D01*
X0387300Y0278188D01*
X0387326Y0278384D01*
X0387358Y0278580D01*
X0387394Y0278775D01*
X0387435Y0278968D01*
X0387481Y0279161D01*
X0387531Y0279353D01*
X0387587Y0279543D01*
X0387646Y0279732D01*
X0387711Y0279919D01*
X0387780Y0280105D01*
X0387853Y0280289D01*
X0387931Y0280471D01*
X0388014Y0280651D01*
X0388101Y0280829D01*
X0388192Y0281005D01*
X0388288Y0281178D01*
X0388387Y0281349D01*
X0388491Y0281518D01*
X0388599Y0281684D01*
X0388711Y0281847D01*
X0388827Y0282008D01*
X0388947Y0282166D01*
X0389071Y0282320D01*
X0389199Y0282472D01*
X0389330Y0282620D01*
X0389465Y0282765D01*
X0389603Y0282907D01*
X0389745Y0283045D01*
X0389890Y0283180D01*
X0390038Y0283311D01*
X0390190Y0283439D01*
X0390344Y0283563D01*
X0390502Y0283683D01*
X0390663Y0283799D01*
X0390826Y0283911D01*
X0390992Y0284019D01*
X0391161Y0284123D01*
X0391332Y0284222D01*
X0391505Y0284318D01*
X0391681Y0284409D01*
X0391859Y0284496D01*
X0392039Y0284579D01*
X0392221Y0284657D01*
X0392405Y0284730D01*
X0392591Y0284799D01*
X0392778Y0284864D01*
X0392967Y0284923D01*
X0393157Y0284979D01*
X0393349Y0285029D01*
X0393542Y0285075D01*
X0393735Y0285116D01*
X0393930Y0285152D01*
X0394126Y0285184D01*
X0394322Y0285210D01*
X0394519Y0285232D01*
X0394716Y0285249D01*
X0394914Y0285261D01*
X0395112Y0285269D01*
X0395310Y0285271D01*
X0395508Y0285269D01*
X0395706Y0285261D01*
X0395904Y0285249D01*
X0396101Y0285232D01*
X0396298Y0285210D01*
X0396494Y0285184D01*
X0396690Y0285152D01*
X0396885Y0285116D01*
X0397078Y0285075D01*
X0397271Y0285029D01*
X0397463Y0284979D01*
X0397653Y0284923D01*
X0397842Y0284864D01*
X0398029Y0284799D01*
X0398215Y0284730D01*
X0398399Y0284657D01*
X0398581Y0284579D01*
X0398761Y0284496D01*
X0398939Y0284409D01*
X0399115Y0284318D01*
X0399288Y0284222D01*
X0399459Y0284123D01*
X0399628Y0284019D01*
X0399794Y0283911D01*
X0399957Y0283799D01*
X0400118Y0283683D01*
X0400276Y0283563D01*
X0400430Y0283439D01*
X0400582Y0283311D01*
X0400730Y0283180D01*
X0400875Y0283045D01*
X0401017Y0282907D01*
X0401155Y0282765D01*
X0401290Y0282620D01*
X0401421Y0282472D01*
X0401549Y0282320D01*
X0401673Y0282166D01*
X0401793Y0282008D01*
X0401909Y0281847D01*
X0402021Y0281684D01*
X0402129Y0281518D01*
X0402233Y0281349D01*
X0402332Y0281178D01*
X0402428Y0281005D01*
X0402519Y0280829D01*
X0402606Y0280651D01*
X0402689Y0280471D01*
X0402767Y0280289D01*
X0402840Y0280105D01*
X0402909Y0279919D01*
X0402974Y0279732D01*
X0403033Y0279543D01*
X0403089Y0279353D01*
X0403139Y0279161D01*
X0403185Y0278968D01*
X0403226Y0278775D01*
X0403262Y0278580D01*
X0403294Y0278384D01*
X0403320Y0278188D01*
X0403342Y0277991D01*
X0403359Y0277794D01*
X0403371Y0277596D01*
X0403379Y0277398D01*
X0403381Y0277200D01*
X0403379Y0277002D01*
X0403371Y0276804D01*
X0403359Y0276606D01*
X0403342Y0276409D01*
X0403320Y0276212D01*
X0403294Y0276016D01*
X0403262Y0275820D01*
X0403226Y0275625D01*
X0403185Y0275432D01*
X0403139Y0275239D01*
X0403089Y0275047D01*
X0403033Y0274857D01*
X0402974Y0274668D01*
X0402909Y0274481D01*
X0402840Y0274295D01*
X0402767Y0274111D01*
X0402689Y0273929D01*
X0402606Y0273749D01*
X0402519Y0273571D01*
X0402428Y0273395D01*
X0402332Y0273222D01*
X0402233Y0273051D01*
X0402129Y0272882D01*
X0402021Y0272716D01*
X0401909Y0272553D01*
X0401793Y0272392D01*
X0401673Y0272234D01*
X0401549Y0272080D01*
X0401421Y0271928D01*
X0401290Y0271780D01*
X0401155Y0271635D01*
X0401017Y0271493D01*
X0400875Y0271355D01*
X0400730Y0271220D01*
X0400582Y0271089D01*
X0400430Y0270961D01*
X0400276Y0270837D01*
X0400118Y0270717D01*
X0399957Y0270601D01*
X0399794Y0270489D01*
X0399628Y0270381D01*
X0399459Y0270277D01*
X0399288Y0270178D01*
X0399115Y0270082D01*
X0398939Y0269991D01*
X0398761Y0269904D01*
X0398581Y0269821D01*
X0398399Y0269743D01*
X0398215Y0269670D01*
X0398029Y0269601D01*
X0397842Y0269536D01*
X0397653Y0269477D01*
X0397463Y0269421D01*
X0397271Y0269371D01*
X0397078Y0269325D01*
X0396885Y0269284D01*
X0396690Y0269248D01*
X0396494Y0269216D01*
X0396298Y0269190D01*
X0396101Y0269168D01*
X0395904Y0269151D01*
X0395706Y0269139D01*
X0395508Y0269131D01*
X0395310Y0269129D01*
X0395112Y0269131D01*
X0394914Y0269139D01*
X0394716Y0269151D01*
X0394519Y0269168D01*
X0394322Y0269190D01*
X0394126Y0269216D01*
X0393930Y0269248D01*
X0393735Y0269284D01*
X0393542Y0269325D01*
X0393349Y0269371D01*
X0393157Y0269421D01*
X0392967Y0269477D01*
X0392778Y0269536D01*
X0392591Y0269601D01*
X0392405Y0269670D01*
X0392221Y0269743D01*
X0392039Y0269821D01*
X0391859Y0269904D01*
X0391681Y0269991D01*
X0391505Y0270082D01*
X0391332Y0270178D01*
X0391161Y0270277D01*
X0390992Y0270381D01*
X0390826Y0270489D01*
X0390663Y0270601D01*
X0390502Y0270717D01*
X0390344Y0270837D01*
X0390190Y0270961D01*
X0390038Y0271089D01*
X0389890Y0271220D01*
X0389745Y0271355D01*
X0389603Y0271493D01*
X0389465Y0271635D01*
X0389330Y0271780D01*
X0389199Y0271928D01*
X0389071Y0272080D01*
X0388947Y0272234D01*
X0388827Y0272392D01*
X0388711Y0272553D01*
X0388599Y0272716D01*
X0388491Y0272882D01*
X0388387Y0273051D01*
X0388288Y0273222D01*
X0388192Y0273395D01*
X0388101Y0273571D01*
X0388014Y0273749D01*
X0387931Y0273929D01*
X0387853Y0274111D01*
X0387780Y0274295D01*
X0387711Y0274481D01*
X0387646Y0274668D01*
X0387587Y0274857D01*
X0387531Y0275047D01*
X0387481Y0275239D01*
X0387435Y0275432D01*
X0387394Y0275625D01*
X0387358Y0275820D01*
X0387326Y0276016D01*
X0387300Y0276212D01*
X0387278Y0276409D01*
X0387261Y0276606D01*
X0387249Y0276804D01*
X0387241Y0277002D01*
X0387239Y0277200D01*
X0387239Y0072627D02*
X0387241Y0072825D01*
X0387249Y0073023D01*
X0387261Y0073221D01*
X0387278Y0073418D01*
X0387300Y0073615D01*
X0387326Y0073811D01*
X0387358Y0074007D01*
X0387394Y0074202D01*
X0387435Y0074395D01*
X0387481Y0074588D01*
X0387531Y0074780D01*
X0387587Y0074970D01*
X0387646Y0075159D01*
X0387711Y0075346D01*
X0387780Y0075532D01*
X0387853Y0075716D01*
X0387931Y0075898D01*
X0388014Y0076078D01*
X0388101Y0076256D01*
X0388192Y0076432D01*
X0388288Y0076605D01*
X0388387Y0076776D01*
X0388491Y0076945D01*
X0388599Y0077111D01*
X0388711Y0077274D01*
X0388827Y0077435D01*
X0388947Y0077593D01*
X0389071Y0077747D01*
X0389199Y0077899D01*
X0389330Y0078047D01*
X0389465Y0078192D01*
X0389603Y0078334D01*
X0389745Y0078472D01*
X0389890Y0078607D01*
X0390038Y0078738D01*
X0390190Y0078866D01*
X0390344Y0078990D01*
X0390502Y0079110D01*
X0390663Y0079226D01*
X0390826Y0079338D01*
X0390992Y0079446D01*
X0391161Y0079550D01*
X0391332Y0079649D01*
X0391505Y0079745D01*
X0391681Y0079836D01*
X0391859Y0079923D01*
X0392039Y0080006D01*
X0392221Y0080084D01*
X0392405Y0080157D01*
X0392591Y0080226D01*
X0392778Y0080291D01*
X0392967Y0080350D01*
X0393157Y0080406D01*
X0393349Y0080456D01*
X0393542Y0080502D01*
X0393735Y0080543D01*
X0393930Y0080579D01*
X0394126Y0080611D01*
X0394322Y0080637D01*
X0394519Y0080659D01*
X0394716Y0080676D01*
X0394914Y0080688D01*
X0395112Y0080696D01*
X0395310Y0080698D01*
X0395508Y0080696D01*
X0395706Y0080688D01*
X0395904Y0080676D01*
X0396101Y0080659D01*
X0396298Y0080637D01*
X0396494Y0080611D01*
X0396690Y0080579D01*
X0396885Y0080543D01*
X0397078Y0080502D01*
X0397271Y0080456D01*
X0397463Y0080406D01*
X0397653Y0080350D01*
X0397842Y0080291D01*
X0398029Y0080226D01*
X0398215Y0080157D01*
X0398399Y0080084D01*
X0398581Y0080006D01*
X0398761Y0079923D01*
X0398939Y0079836D01*
X0399115Y0079745D01*
X0399288Y0079649D01*
X0399459Y0079550D01*
X0399628Y0079446D01*
X0399794Y0079338D01*
X0399957Y0079226D01*
X0400118Y0079110D01*
X0400276Y0078990D01*
X0400430Y0078866D01*
X0400582Y0078738D01*
X0400730Y0078607D01*
X0400875Y0078472D01*
X0401017Y0078334D01*
X0401155Y0078192D01*
X0401290Y0078047D01*
X0401421Y0077899D01*
X0401549Y0077747D01*
X0401673Y0077593D01*
X0401793Y0077435D01*
X0401909Y0077274D01*
X0402021Y0077111D01*
X0402129Y0076945D01*
X0402233Y0076776D01*
X0402332Y0076605D01*
X0402428Y0076432D01*
X0402519Y0076256D01*
X0402606Y0076078D01*
X0402689Y0075898D01*
X0402767Y0075716D01*
X0402840Y0075532D01*
X0402909Y0075346D01*
X0402974Y0075159D01*
X0403033Y0074970D01*
X0403089Y0074780D01*
X0403139Y0074588D01*
X0403185Y0074395D01*
X0403226Y0074202D01*
X0403262Y0074007D01*
X0403294Y0073811D01*
X0403320Y0073615D01*
X0403342Y0073418D01*
X0403359Y0073221D01*
X0403371Y0073023D01*
X0403379Y0072825D01*
X0403381Y0072627D01*
X0403379Y0072429D01*
X0403371Y0072231D01*
X0403359Y0072033D01*
X0403342Y0071836D01*
X0403320Y0071639D01*
X0403294Y0071443D01*
X0403262Y0071247D01*
X0403226Y0071052D01*
X0403185Y0070859D01*
X0403139Y0070666D01*
X0403089Y0070474D01*
X0403033Y0070284D01*
X0402974Y0070095D01*
X0402909Y0069908D01*
X0402840Y0069722D01*
X0402767Y0069538D01*
X0402689Y0069356D01*
X0402606Y0069176D01*
X0402519Y0068998D01*
X0402428Y0068822D01*
X0402332Y0068649D01*
X0402233Y0068478D01*
X0402129Y0068309D01*
X0402021Y0068143D01*
X0401909Y0067980D01*
X0401793Y0067819D01*
X0401673Y0067661D01*
X0401549Y0067507D01*
X0401421Y0067355D01*
X0401290Y0067207D01*
X0401155Y0067062D01*
X0401017Y0066920D01*
X0400875Y0066782D01*
X0400730Y0066647D01*
X0400582Y0066516D01*
X0400430Y0066388D01*
X0400276Y0066264D01*
X0400118Y0066144D01*
X0399957Y0066028D01*
X0399794Y0065916D01*
X0399628Y0065808D01*
X0399459Y0065704D01*
X0399288Y0065605D01*
X0399115Y0065509D01*
X0398939Y0065418D01*
X0398761Y0065331D01*
X0398581Y0065248D01*
X0398399Y0065170D01*
X0398215Y0065097D01*
X0398029Y0065028D01*
X0397842Y0064963D01*
X0397653Y0064904D01*
X0397463Y0064848D01*
X0397271Y0064798D01*
X0397078Y0064752D01*
X0396885Y0064711D01*
X0396690Y0064675D01*
X0396494Y0064643D01*
X0396298Y0064617D01*
X0396101Y0064595D01*
X0395904Y0064578D01*
X0395706Y0064566D01*
X0395508Y0064558D01*
X0395310Y0064556D01*
X0395112Y0064558D01*
X0394914Y0064566D01*
X0394716Y0064578D01*
X0394519Y0064595D01*
X0394322Y0064617D01*
X0394126Y0064643D01*
X0393930Y0064675D01*
X0393735Y0064711D01*
X0393542Y0064752D01*
X0393349Y0064798D01*
X0393157Y0064848D01*
X0392967Y0064904D01*
X0392778Y0064963D01*
X0392591Y0065028D01*
X0392405Y0065097D01*
X0392221Y0065170D01*
X0392039Y0065248D01*
X0391859Y0065331D01*
X0391681Y0065418D01*
X0391505Y0065509D01*
X0391332Y0065605D01*
X0391161Y0065704D01*
X0390992Y0065808D01*
X0390826Y0065916D01*
X0390663Y0066028D01*
X0390502Y0066144D01*
X0390344Y0066264D01*
X0390190Y0066388D01*
X0390038Y0066516D01*
X0389890Y0066647D01*
X0389745Y0066782D01*
X0389603Y0066920D01*
X0389465Y0067062D01*
X0389330Y0067207D01*
X0389199Y0067355D01*
X0389071Y0067507D01*
X0388947Y0067661D01*
X0388827Y0067819D01*
X0388711Y0067980D01*
X0388599Y0068143D01*
X0388491Y0068309D01*
X0388387Y0068478D01*
X0388288Y0068649D01*
X0388192Y0068822D01*
X0388101Y0068998D01*
X0388014Y0069176D01*
X0387931Y0069356D01*
X0387853Y0069538D01*
X0387780Y0069722D01*
X0387711Y0069908D01*
X0387646Y0070095D01*
X0387587Y0070284D01*
X0387531Y0070474D01*
X0387481Y0070666D01*
X0387435Y0070859D01*
X0387394Y0071052D01*
X0387358Y0071247D01*
X0387326Y0071443D01*
X0387300Y0071639D01*
X0387278Y0071836D01*
X0387261Y0072033D01*
X0387249Y0072231D01*
X0387241Y0072429D01*
X0387239Y0072627D01*
X0387239Y0481773D02*
X0387241Y0481971D01*
X0387249Y0482169D01*
X0387261Y0482367D01*
X0387278Y0482564D01*
X0387300Y0482761D01*
X0387326Y0482957D01*
X0387358Y0483153D01*
X0387394Y0483348D01*
X0387435Y0483541D01*
X0387481Y0483734D01*
X0387531Y0483926D01*
X0387587Y0484116D01*
X0387646Y0484305D01*
X0387711Y0484492D01*
X0387780Y0484678D01*
X0387853Y0484862D01*
X0387931Y0485044D01*
X0388014Y0485224D01*
X0388101Y0485402D01*
X0388192Y0485578D01*
X0388288Y0485751D01*
X0388387Y0485922D01*
X0388491Y0486091D01*
X0388599Y0486257D01*
X0388711Y0486420D01*
X0388827Y0486581D01*
X0388947Y0486739D01*
X0389071Y0486893D01*
X0389199Y0487045D01*
X0389330Y0487193D01*
X0389465Y0487338D01*
X0389603Y0487480D01*
X0389745Y0487618D01*
X0389890Y0487753D01*
X0390038Y0487884D01*
X0390190Y0488012D01*
X0390344Y0488136D01*
X0390502Y0488256D01*
X0390663Y0488372D01*
X0390826Y0488484D01*
X0390992Y0488592D01*
X0391161Y0488696D01*
X0391332Y0488795D01*
X0391505Y0488891D01*
X0391681Y0488982D01*
X0391859Y0489069D01*
X0392039Y0489152D01*
X0392221Y0489230D01*
X0392405Y0489303D01*
X0392591Y0489372D01*
X0392778Y0489437D01*
X0392967Y0489496D01*
X0393157Y0489552D01*
X0393349Y0489602D01*
X0393542Y0489648D01*
X0393735Y0489689D01*
X0393930Y0489725D01*
X0394126Y0489757D01*
X0394322Y0489783D01*
X0394519Y0489805D01*
X0394716Y0489822D01*
X0394914Y0489834D01*
X0395112Y0489842D01*
X0395310Y0489844D01*
X0395508Y0489842D01*
X0395706Y0489834D01*
X0395904Y0489822D01*
X0396101Y0489805D01*
X0396298Y0489783D01*
X0396494Y0489757D01*
X0396690Y0489725D01*
X0396885Y0489689D01*
X0397078Y0489648D01*
X0397271Y0489602D01*
X0397463Y0489552D01*
X0397653Y0489496D01*
X0397842Y0489437D01*
X0398029Y0489372D01*
X0398215Y0489303D01*
X0398399Y0489230D01*
X0398581Y0489152D01*
X0398761Y0489069D01*
X0398939Y0488982D01*
X0399115Y0488891D01*
X0399288Y0488795D01*
X0399459Y0488696D01*
X0399628Y0488592D01*
X0399794Y0488484D01*
X0399957Y0488372D01*
X0400118Y0488256D01*
X0400276Y0488136D01*
X0400430Y0488012D01*
X0400582Y0487884D01*
X0400730Y0487753D01*
X0400875Y0487618D01*
X0401017Y0487480D01*
X0401155Y0487338D01*
X0401290Y0487193D01*
X0401421Y0487045D01*
X0401549Y0486893D01*
X0401673Y0486739D01*
X0401793Y0486581D01*
X0401909Y0486420D01*
X0402021Y0486257D01*
X0402129Y0486091D01*
X0402233Y0485922D01*
X0402332Y0485751D01*
X0402428Y0485578D01*
X0402519Y0485402D01*
X0402606Y0485224D01*
X0402689Y0485044D01*
X0402767Y0484862D01*
X0402840Y0484678D01*
X0402909Y0484492D01*
X0402974Y0484305D01*
X0403033Y0484116D01*
X0403089Y0483926D01*
X0403139Y0483734D01*
X0403185Y0483541D01*
X0403226Y0483348D01*
X0403262Y0483153D01*
X0403294Y0482957D01*
X0403320Y0482761D01*
X0403342Y0482564D01*
X0403359Y0482367D01*
X0403371Y0482169D01*
X0403379Y0481971D01*
X0403381Y0481773D01*
X0403379Y0481575D01*
X0403371Y0481377D01*
X0403359Y0481179D01*
X0403342Y0480982D01*
X0403320Y0480785D01*
X0403294Y0480589D01*
X0403262Y0480393D01*
X0403226Y0480198D01*
X0403185Y0480005D01*
X0403139Y0479812D01*
X0403089Y0479620D01*
X0403033Y0479430D01*
X0402974Y0479241D01*
X0402909Y0479054D01*
X0402840Y0478868D01*
X0402767Y0478684D01*
X0402689Y0478502D01*
X0402606Y0478322D01*
X0402519Y0478144D01*
X0402428Y0477968D01*
X0402332Y0477795D01*
X0402233Y0477624D01*
X0402129Y0477455D01*
X0402021Y0477289D01*
X0401909Y0477126D01*
X0401793Y0476965D01*
X0401673Y0476807D01*
X0401549Y0476653D01*
X0401421Y0476501D01*
X0401290Y0476353D01*
X0401155Y0476208D01*
X0401017Y0476066D01*
X0400875Y0475928D01*
X0400730Y0475793D01*
X0400582Y0475662D01*
X0400430Y0475534D01*
X0400276Y0475410D01*
X0400118Y0475290D01*
X0399957Y0475174D01*
X0399794Y0475062D01*
X0399628Y0474954D01*
X0399459Y0474850D01*
X0399288Y0474751D01*
X0399115Y0474655D01*
X0398939Y0474564D01*
X0398761Y0474477D01*
X0398581Y0474394D01*
X0398399Y0474316D01*
X0398215Y0474243D01*
X0398029Y0474174D01*
X0397842Y0474109D01*
X0397653Y0474050D01*
X0397463Y0473994D01*
X0397271Y0473944D01*
X0397078Y0473898D01*
X0396885Y0473857D01*
X0396690Y0473821D01*
X0396494Y0473789D01*
X0396298Y0473763D01*
X0396101Y0473741D01*
X0395904Y0473724D01*
X0395706Y0473712D01*
X0395508Y0473704D01*
X0395310Y0473702D01*
X0395112Y0473704D01*
X0394914Y0473712D01*
X0394716Y0473724D01*
X0394519Y0473741D01*
X0394322Y0473763D01*
X0394126Y0473789D01*
X0393930Y0473821D01*
X0393735Y0473857D01*
X0393542Y0473898D01*
X0393349Y0473944D01*
X0393157Y0473994D01*
X0392967Y0474050D01*
X0392778Y0474109D01*
X0392591Y0474174D01*
X0392405Y0474243D01*
X0392221Y0474316D01*
X0392039Y0474394D01*
X0391859Y0474477D01*
X0391681Y0474564D01*
X0391505Y0474655D01*
X0391332Y0474751D01*
X0391161Y0474850D01*
X0390992Y0474954D01*
X0390826Y0475062D01*
X0390663Y0475174D01*
X0390502Y0475290D01*
X0390344Y0475410D01*
X0390190Y0475534D01*
X0390038Y0475662D01*
X0389890Y0475793D01*
X0389745Y0475928D01*
X0389603Y0476066D01*
X0389465Y0476208D01*
X0389330Y0476353D01*
X0389199Y0476501D01*
X0389071Y0476653D01*
X0388947Y0476807D01*
X0388827Y0476965D01*
X0388711Y0477126D01*
X0388599Y0477289D01*
X0388491Y0477455D01*
X0388387Y0477624D01*
X0388288Y0477795D01*
X0388192Y0477968D01*
X0388101Y0478144D01*
X0388014Y0478322D01*
X0387931Y0478502D01*
X0387853Y0478684D01*
X0387780Y0478868D01*
X0387711Y0479054D01*
X0387646Y0479241D01*
X0387587Y0479430D01*
X0387531Y0479620D01*
X0387481Y0479812D01*
X0387435Y0480005D01*
X0387394Y0480198D01*
X0387358Y0480393D01*
X0387326Y0480589D01*
X0387300Y0480785D01*
X0387278Y0480982D01*
X0387261Y0481179D01*
X0387249Y0481377D01*
X0387241Y0481575D01*
X0387239Y0481773D01*
M02*
