G75*
%MOIN*%
%OFA0B0*%
%FSLAX25Y25*%
%IPPOS*%
%LPD*%
%AMOC8*
5,1,8,0,0,1.08239X$1,22.5*
%
%ADD10C,0.15000*%
%ADD11C,0.07000*%
%ADD12C,0.05543*%
%ADD13C,0.07400*%
%ADD14R,0.07400X0.07400*%
%ADD15OC8,0.06300*%
%ADD16C,0.06300*%
%ADD17C,0.10236*%
%ADD18C,0.02400*%
%ADD19C,0.03962*%
%ADD20C,0.01000*%
%ADD21C,0.04000*%
%ADD22C,0.01600*%
D10*
X0242200Y0187200D03*
X0312200Y0187200D03*
D11*
X0317200Y0202200D03*
X0317200Y0212200D03*
X0317200Y0222200D03*
X0317200Y0232200D03*
X0317200Y0242200D03*
X0317200Y0252200D03*
X0317200Y0262200D03*
X0317200Y0272200D03*
X0317200Y0282200D03*
X0317200Y0292200D03*
X0317200Y0302200D03*
X0317200Y0312200D03*
X0317200Y0322200D03*
X0317200Y0332200D03*
X0317200Y0342200D03*
X0317200Y0352200D03*
X0237200Y0352200D03*
X0237200Y0342200D03*
X0237200Y0332200D03*
X0237200Y0322200D03*
X0237200Y0312200D03*
X0237200Y0302200D03*
X0237200Y0292200D03*
X0237200Y0282200D03*
X0237200Y0272200D03*
X0237200Y0262200D03*
X0237200Y0252200D03*
X0237200Y0242200D03*
D12*
X0364428Y0332200D02*
X0369972Y0332200D01*
X0369972Y0342200D02*
X0364428Y0342200D01*
X0364428Y0352200D02*
X0369972Y0352200D01*
X0409428Y0432279D02*
X0414972Y0432279D01*
X0414972Y0442121D02*
X0409428Y0442121D01*
X0459428Y0442121D02*
X0464972Y0442121D01*
X0464972Y0432279D02*
X0459428Y0432279D01*
X0484428Y0402121D02*
X0489972Y0402121D01*
X0489972Y0392279D02*
X0484428Y0392279D01*
X0504428Y0362121D02*
X0509972Y0362121D01*
X0509972Y0352279D02*
X0504428Y0352279D01*
X0519428Y0322121D02*
X0524972Y0322121D01*
X0524972Y0312279D02*
X0519428Y0312279D01*
X0519428Y0282121D02*
X0524972Y0282121D01*
X0524972Y0272279D02*
X0519428Y0272279D01*
X0519428Y0242121D02*
X0524972Y0242121D01*
X0524972Y0232279D02*
X0519428Y0232279D01*
X0509972Y0202121D02*
X0504428Y0202121D01*
X0504428Y0192279D02*
X0509972Y0192279D01*
X0489972Y0162121D02*
X0484428Y0162121D01*
X0484428Y0152279D02*
X0489972Y0152279D01*
X0464972Y0122121D02*
X0459428Y0122121D01*
X0459428Y0112279D02*
X0464972Y0112279D01*
X0414972Y0112279D02*
X0409428Y0112279D01*
X0409428Y0122121D02*
X0414972Y0122121D01*
X0237121Y0044972D02*
X0237121Y0039428D01*
X0227279Y0039428D02*
X0227279Y0044972D01*
X0149972Y0072200D02*
X0144428Y0072200D01*
X0144428Y0082200D02*
X0149972Y0082200D01*
X0149972Y0092200D02*
X0144428Y0092200D01*
X0094972Y0122200D02*
X0089428Y0122200D01*
X0089428Y0132200D02*
X0094972Y0132200D01*
X0094972Y0142200D02*
X0089428Y0142200D01*
X0089428Y0412200D02*
X0094972Y0412200D01*
X0094972Y0422200D02*
X0089428Y0422200D01*
X0089428Y0432200D02*
X0094972Y0432200D01*
X0144428Y0462200D02*
X0149972Y0462200D01*
X0149972Y0472200D02*
X0144428Y0472200D01*
X0144428Y0482200D02*
X0149972Y0482200D01*
D13*
X0062200Y0387200D03*
X0062200Y0377200D03*
X0062200Y0367200D03*
X0062200Y0357200D03*
X0062200Y0347200D03*
X0062200Y0337200D03*
X0062200Y0327200D03*
X0062200Y0317200D03*
X0052200Y0317200D03*
X0052200Y0327200D03*
X0052200Y0337200D03*
X0052200Y0347200D03*
X0052200Y0357200D03*
X0052200Y0367200D03*
X0052200Y0377200D03*
X0052200Y0387200D03*
X0052200Y0237200D03*
X0052200Y0227200D03*
X0052200Y0217200D03*
X0052200Y0207200D03*
X0052200Y0197200D03*
X0052200Y0187200D03*
X0052200Y0177200D03*
X0052200Y0167200D03*
X0062200Y0167200D03*
X0062200Y0177200D03*
X0062200Y0187200D03*
X0062200Y0197200D03*
X0062200Y0207200D03*
X0062200Y0217200D03*
X0062200Y0227200D03*
X0062200Y0237200D03*
X0147200Y0167200D03*
X0192200Y0057200D03*
X0192200Y0047200D03*
X0342200Y0182200D03*
X0342200Y0192200D03*
D14*
X0147200Y0177200D03*
D15*
X0239200Y0112200D03*
D16*
X0225200Y0112200D03*
D17*
X0167200Y0132200D03*
X0147200Y0132200D03*
D18*
X0138395Y0090116D02*
X0091908Y0090116D01*
X0089510Y0092515D02*
X0138057Y0092515D01*
X0138057Y0093467D02*
X0138057Y0090933D01*
X0139027Y0088591D01*
X0140417Y0087200D01*
X0139027Y0085809D01*
X0138057Y0083467D01*
X0138057Y0080933D01*
X0139027Y0078591D01*
X0140819Y0076798D01*
X0141762Y0076408D01*
X0141190Y0075992D01*
X0140636Y0075439D01*
X0140176Y0074806D01*
X0139821Y0074108D01*
X0139579Y0073364D01*
X0139457Y0072591D01*
X0139457Y0072200D01*
X0139457Y0071809D01*
X0139579Y0071036D01*
X0139821Y0070292D01*
X0140176Y0069594D01*
X0140636Y0068961D01*
X0141190Y0068408D01*
X0141823Y0067948D01*
X0142520Y0067593D01*
X0143264Y0067351D01*
X0144037Y0067228D01*
X0147200Y0067228D01*
X0147200Y0072200D01*
X0154943Y0072200D01*
X0147200Y0072200D01*
X0147200Y0072200D01*
X0147200Y0067228D01*
X0150363Y0067228D01*
X0151136Y0067351D01*
X0151880Y0067593D01*
X0152577Y0067948D01*
X0153210Y0068408D01*
X0153764Y0068961D01*
X0154224Y0069594D01*
X0154579Y0070292D01*
X0154821Y0071036D01*
X0154943Y0071809D01*
X0154943Y0072200D01*
X0154943Y0072591D01*
X0154821Y0073364D01*
X0154579Y0074108D01*
X0154224Y0074806D01*
X0153764Y0075439D01*
X0153210Y0075992D01*
X0152638Y0076408D01*
X0153581Y0076798D01*
X0155373Y0078591D01*
X0156343Y0080933D01*
X0156343Y0083467D01*
X0155373Y0085809D01*
X0153983Y0087200D01*
X0155373Y0088591D01*
X0156343Y0090933D01*
X0156343Y0093467D01*
X0155373Y0095809D01*
X0153581Y0097602D01*
X0151239Y0098572D01*
X0143161Y0098572D01*
X0140819Y0097602D01*
X0139027Y0095809D01*
X0138057Y0093467D01*
X0138656Y0094913D02*
X0087111Y0094913D01*
X0086904Y0095121D02*
X0071704Y0122640D01*
X0071627Y0122961D01*
X0071208Y0123538D01*
X0070864Y0124162D01*
X0070605Y0124368D01*
X0068007Y0127944D01*
X0067890Y0128254D01*
X0067404Y0128774D01*
X0066985Y0129351D01*
X0066703Y0129524D01*
X0045228Y0152483D01*
X0039952Y0162837D01*
X0034000Y0193706D01*
X0034026Y0194036D01*
X0033806Y0194714D01*
X0033671Y0195413D01*
X0033489Y0195689D01*
X0032123Y0199894D01*
X0032108Y0200224D01*
X0031806Y0200869D01*
X0031585Y0201547D01*
X0031371Y0201799D01*
X0018042Y0230271D01*
X0016224Y0241748D01*
X0019456Y0267750D01*
X0021887Y0263328D01*
X0025936Y0259016D01*
X0030931Y0255846D01*
X0036557Y0254018D01*
X0042461Y0253647D01*
X0042461Y0253647D01*
X0048272Y0254755D01*
X0048272Y0254755D01*
X0053625Y0257274D01*
X0058183Y0261045D01*
X0061660Y0265831D01*
X0063838Y0271331D01*
X0064580Y0277200D01*
X0163100Y0277200D01*
X0163100Y0274801D02*
X0064277Y0274801D01*
X0063973Y0272403D02*
X0163100Y0272403D01*
X0163100Y0270004D02*
X0063313Y0270004D01*
X0063838Y0271331D02*
X0063838Y0271331D01*
X0062363Y0267606D02*
X0163100Y0267606D01*
X0163100Y0265207D02*
X0061208Y0265207D01*
X0061660Y0265831D02*
X0061660Y0265831D01*
X0059465Y0262809D02*
X0163100Y0262809D01*
X0163100Y0260410D02*
X0057416Y0260410D01*
X0058183Y0261045D02*
X0058183Y0261045D01*
X0058183Y0261045D01*
X0054517Y0258012D02*
X0163100Y0258012D01*
X0163100Y0255613D02*
X0050096Y0255613D01*
X0053625Y0257274D02*
X0053625Y0257274D01*
X0058065Y0243389D02*
X0060748Y0244500D01*
X0063652Y0244500D01*
X0066335Y0243389D01*
X0068389Y0241335D01*
X0069500Y0238652D01*
X0069500Y0235748D01*
X0068389Y0233065D01*
X0067524Y0232200D01*
X0068389Y0231335D01*
X0069500Y0228652D01*
X0069500Y0225748D01*
X0068389Y0223065D01*
X0067524Y0222200D01*
X0068389Y0221335D01*
X0069500Y0218652D01*
X0069500Y0215748D01*
X0068389Y0213065D01*
X0067524Y0212200D01*
X0068389Y0211335D01*
X0069500Y0208652D01*
X0069500Y0205748D01*
X0068389Y0203065D01*
X0067524Y0202200D01*
X0068389Y0201335D01*
X0069500Y0198652D01*
X0069500Y0195748D01*
X0068389Y0193065D01*
X0067524Y0192200D01*
X0068389Y0191335D01*
X0069500Y0188652D01*
X0069500Y0185748D01*
X0068389Y0183065D01*
X0067524Y0182200D01*
X0068389Y0181335D01*
X0069500Y0178652D01*
X0069500Y0175748D01*
X0068389Y0173065D01*
X0067524Y0172200D01*
X0068389Y0171335D01*
X0069500Y0168652D01*
X0069500Y0165748D01*
X0068389Y0163065D01*
X0066335Y0161011D01*
X0063652Y0159900D01*
X0060748Y0159900D01*
X0058065Y0161011D01*
X0056210Y0162866D01*
X0056044Y0162700D01*
X0055292Y0162154D01*
X0054465Y0161732D01*
X0053582Y0161445D01*
X0052664Y0161300D01*
X0052200Y0161300D01*
X0052200Y0167200D01*
X0052200Y0167200D01*
X0052200Y0171300D01*
X0052200Y0177200D01*
X0052200Y0177200D01*
X0052200Y0181300D01*
X0052200Y0187200D01*
X0052200Y0187200D01*
X0052200Y0191300D01*
X0052200Y0197200D01*
X0052200Y0197200D01*
X0052200Y0201300D01*
X0052200Y0207200D01*
X0052200Y0207200D01*
X0052200Y0213100D01*
X0052200Y0217200D01*
X0052200Y0217200D01*
X0052200Y0221300D01*
X0052200Y0227200D01*
X0052200Y0227200D01*
X0052200Y0231300D01*
X0052200Y0237200D01*
X0052200Y0237200D01*
X0052200Y0243100D01*
X0052664Y0243100D01*
X0053582Y0242955D01*
X0054465Y0242668D01*
X0055292Y0242246D01*
X0056044Y0241700D01*
X0056210Y0241534D01*
X0058065Y0243389D01*
X0058625Y0243621D02*
X0016456Y0243621D01*
X0016307Y0241222D02*
X0047878Y0241222D01*
X0047700Y0241044D02*
X0047154Y0240292D01*
X0046732Y0239465D01*
X0046445Y0238582D01*
X0046300Y0237664D01*
X0046300Y0237200D01*
X0052200Y0237200D01*
X0052200Y0237200D01*
X0052200Y0243100D01*
X0051736Y0243100D01*
X0050818Y0242955D01*
X0049935Y0242668D01*
X0049108Y0242246D01*
X0048356Y0241700D01*
X0047700Y0241044D01*
X0046524Y0238824D02*
X0016687Y0238824D01*
X0017067Y0236425D02*
X0046349Y0236425D01*
X0046300Y0236736D02*
X0046445Y0235818D01*
X0046732Y0234935D01*
X0047154Y0234108D01*
X0047700Y0233356D01*
X0048356Y0232700D01*
X0049044Y0232200D01*
X0048356Y0231700D01*
X0047700Y0231044D01*
X0047154Y0230292D01*
X0046732Y0229465D01*
X0046445Y0228582D01*
X0046300Y0227664D01*
X0046300Y0227200D01*
X0052200Y0227200D01*
X0052200Y0227200D01*
X0052200Y0237200D01*
X0052200Y0237200D01*
X0046300Y0237200D01*
X0046300Y0236736D01*
X0047213Y0234027D02*
X0017447Y0234027D01*
X0017827Y0231628D02*
X0048284Y0231628D01*
X0046656Y0229230D02*
X0018529Y0229230D01*
X0019652Y0226831D02*
X0046300Y0226831D01*
X0046300Y0226736D02*
X0046445Y0225818D01*
X0046732Y0224935D01*
X0047154Y0224108D01*
X0047700Y0223356D01*
X0048356Y0222700D01*
X0049044Y0222200D01*
X0048356Y0221700D01*
X0047700Y0221044D01*
X0047154Y0220292D01*
X0046732Y0219465D01*
X0046445Y0218582D01*
X0046300Y0217664D01*
X0046300Y0217200D01*
X0052200Y0217200D01*
X0052200Y0217200D01*
X0052200Y0217200D01*
X0052200Y0227200D01*
X0052200Y0227200D01*
X0046300Y0227200D01*
X0046300Y0226736D01*
X0046988Y0224433D02*
X0020774Y0224433D01*
X0021897Y0222034D02*
X0048816Y0222034D01*
X0046819Y0219636D02*
X0023020Y0219636D01*
X0024143Y0217237D02*
X0046300Y0217237D01*
X0046300Y0217200D02*
X0046300Y0216736D01*
X0046445Y0215818D01*
X0046732Y0214935D01*
X0047154Y0214108D01*
X0047700Y0213356D01*
X0048356Y0212700D01*
X0049044Y0212200D01*
X0048356Y0211700D01*
X0047700Y0211044D01*
X0047154Y0210292D01*
X0046732Y0209465D01*
X0046445Y0208582D01*
X0046300Y0207664D01*
X0046300Y0207200D01*
X0052200Y0207200D01*
X0052200Y0207200D01*
X0052200Y0217200D01*
X0046300Y0217200D01*
X0046781Y0214839D02*
X0025266Y0214839D01*
X0026389Y0212440D02*
X0048714Y0212440D01*
X0047026Y0210042D02*
X0027512Y0210042D01*
X0028634Y0207643D02*
X0046300Y0207643D01*
X0046300Y0207200D02*
X0046300Y0206736D01*
X0046445Y0205818D01*
X0046732Y0204935D01*
X0047154Y0204108D01*
X0047700Y0203356D01*
X0048356Y0202700D01*
X0049044Y0202200D01*
X0048356Y0201700D01*
X0047700Y0201044D01*
X0047154Y0200292D01*
X0046732Y0199465D01*
X0046445Y0198582D01*
X0046300Y0197664D01*
X0046300Y0197200D01*
X0052200Y0197200D01*
X0052200Y0197200D01*
X0052200Y0197200D01*
X0052200Y0207200D01*
X0052200Y0207200D01*
X0046300Y0207200D01*
X0046632Y0205245D02*
X0029757Y0205245D01*
X0030880Y0202846D02*
X0048210Y0202846D01*
X0047267Y0200448D02*
X0032003Y0200448D01*
X0032722Y0198049D02*
X0046361Y0198049D01*
X0046300Y0197200D02*
X0046300Y0196736D01*
X0046445Y0195818D01*
X0046732Y0194935D01*
X0047154Y0194108D01*
X0047700Y0193356D01*
X0048356Y0192700D01*
X0049044Y0192200D01*
X0048356Y0191700D01*
X0047700Y0191044D01*
X0047154Y0190292D01*
X0046732Y0189465D01*
X0046445Y0188582D01*
X0046300Y0187664D01*
X0046300Y0187200D01*
X0052200Y0187200D01*
X0052200Y0187200D01*
X0052200Y0197200D01*
X0046300Y0197200D01*
X0046500Y0195651D02*
X0033514Y0195651D01*
X0034088Y0193252D02*
X0047804Y0193252D01*
X0047562Y0190854D02*
X0034550Y0190854D01*
X0035013Y0188455D02*
X0046425Y0188455D01*
X0046300Y0187200D02*
X0046300Y0186736D01*
X0046445Y0185818D01*
X0046732Y0184935D01*
X0047154Y0184108D01*
X0047700Y0183356D01*
X0048356Y0182700D01*
X0049044Y0182200D01*
X0048356Y0181700D01*
X0047700Y0181044D01*
X0047154Y0180292D01*
X0046732Y0179465D01*
X0046445Y0178582D01*
X0046300Y0177664D01*
X0046300Y0177200D01*
X0052200Y0177200D01*
X0052200Y0177200D01*
X0052200Y0177200D01*
X0052200Y0187200D01*
X0052200Y0187200D01*
X0046300Y0187200D01*
X0046408Y0186057D02*
X0035475Y0186057D01*
X0035937Y0183658D02*
X0047481Y0183658D01*
X0047916Y0181260D02*
X0036400Y0181260D01*
X0036862Y0178861D02*
X0046536Y0178861D01*
X0046300Y0177200D02*
X0046300Y0176736D01*
X0046445Y0175818D01*
X0046732Y0174935D01*
X0047154Y0174108D01*
X0047700Y0173356D01*
X0048356Y0172700D01*
X0049044Y0172200D01*
X0048356Y0171700D01*
X0047700Y0171044D01*
X0047154Y0170292D01*
X0046732Y0169465D01*
X0046445Y0168582D01*
X0046300Y0167664D01*
X0046300Y0167200D01*
X0052200Y0167200D01*
X0052200Y0167200D01*
X0052200Y0167200D01*
X0052200Y0177200D01*
X0046300Y0177200D01*
X0046343Y0176463D02*
X0037325Y0176463D01*
X0037787Y0174064D02*
X0047186Y0174064D01*
X0048322Y0171666D02*
X0038250Y0171666D01*
X0038712Y0169267D02*
X0046668Y0169267D01*
X0046300Y0167200D02*
X0046300Y0166736D01*
X0046445Y0165818D01*
X0046732Y0164935D01*
X0047154Y0164108D01*
X0047700Y0163356D01*
X0048356Y0162700D01*
X0049108Y0162154D01*
X0049935Y0161732D01*
X0050818Y0161445D01*
X0051736Y0161300D01*
X0052200Y0161300D01*
X0052200Y0167200D01*
X0046300Y0167200D01*
X0046300Y0166868D02*
X0039175Y0166868D01*
X0039637Y0164470D02*
X0046969Y0164470D01*
X0049269Y0162071D02*
X0040342Y0162071D01*
X0041564Y0159673D02*
X0118100Y0159673D01*
X0118100Y0162071D02*
X0067395Y0162071D01*
X0068971Y0164470D02*
X0118100Y0164470D01*
X0118100Y0166868D02*
X0069500Y0166868D01*
X0069245Y0169267D02*
X0118100Y0169267D01*
X0118100Y0171666D02*
X0068058Y0171666D01*
X0068802Y0174064D02*
X0118100Y0174064D01*
X0118100Y0176463D02*
X0069500Y0176463D01*
X0069413Y0178861D02*
X0118450Y0178861D01*
X0118724Y0179522D02*
X0118100Y0178016D01*
X0118100Y0141020D01*
X0117453Y0140372D01*
X0116600Y0138314D01*
X0116600Y0136086D01*
X0117453Y0134028D01*
X0119028Y0132453D01*
X0121086Y0131600D01*
X0123314Y0131600D01*
X0125372Y0132453D01*
X0126947Y0134028D01*
X0127800Y0136086D01*
X0127800Y0138314D01*
X0126947Y0140372D01*
X0126300Y0141020D01*
X0126300Y0175502D01*
X0230535Y0279737D01*
X0231181Y0278178D01*
X0232159Y0277200D01*
X0227998Y0277200D01*
X0231181Y0276222D02*
X0230100Y0273612D01*
X0230100Y0270788D01*
X0231181Y0268178D01*
X0232159Y0267200D01*
X0231259Y0266300D01*
X0226384Y0266300D01*
X0224878Y0265676D01*
X0144878Y0185676D01*
X0143724Y0184522D01*
X0143715Y0184500D01*
X0142784Y0184500D01*
X0141461Y0183952D01*
X0140448Y0182939D01*
X0139900Y0181616D01*
X0139900Y0172784D01*
X0140448Y0171461D01*
X0140883Y0171026D01*
X0139900Y0168652D01*
X0139900Y0165748D01*
X0141011Y0163065D01*
X0143065Y0161011D01*
X0145748Y0159900D01*
X0148652Y0159900D01*
X0151335Y0161011D01*
X0153389Y0163065D01*
X0154500Y0165748D01*
X0154500Y0168652D01*
X0153517Y0171026D01*
X0153952Y0171461D01*
X0154500Y0172784D01*
X0154500Y0181616D01*
X0153952Y0182939D01*
X0153845Y0183046D01*
X0191139Y0220341D01*
X0191528Y0219953D01*
X0193586Y0219100D01*
X0194502Y0219100D01*
X0204878Y0208724D01*
X0206384Y0208100D01*
X0311259Y0208100D01*
X0312159Y0207200D01*
X0311181Y0206222D01*
X0310100Y0203612D01*
X0310100Y0200788D01*
X0311130Y0198300D01*
X0310739Y0198300D01*
X0307916Y0197544D01*
X0305384Y0196082D01*
X0303318Y0194016D01*
X0301856Y0191484D01*
X0301100Y0188661D01*
X0301100Y0185739D01*
X0301856Y0182916D01*
X0303318Y0180384D01*
X0305384Y0178318D01*
X0307916Y0176856D01*
X0310739Y0176100D01*
X0313661Y0176100D01*
X0316484Y0176856D01*
X0319016Y0178318D01*
X0321082Y0180384D01*
X0322544Y0182916D01*
X0323300Y0185739D01*
X0323300Y0188661D01*
X0322544Y0191484D01*
X0321082Y0194016D01*
X0319592Y0195506D01*
X0321222Y0196181D01*
X0323219Y0198178D01*
X0324300Y0200788D01*
X0324300Y0203612D01*
X0323219Y0206222D01*
X0322241Y0207200D01*
X0323219Y0208178D01*
X0324300Y0210788D01*
X0324300Y0213612D01*
X0323219Y0216222D01*
X0322241Y0217200D01*
X0323219Y0218178D01*
X0324300Y0220788D01*
X0324300Y0223612D01*
X0323219Y0226222D01*
X0321251Y0228190D01*
X0321548Y0228487D01*
X0322075Y0229213D01*
X0322482Y0230012D01*
X0322760Y0230865D01*
X0322900Y0231751D01*
X0322900Y0232200D01*
X0322900Y0232649D01*
X0322760Y0233535D01*
X0322482Y0234388D01*
X0322075Y0235187D01*
X0321548Y0235913D01*
X0321251Y0236210D01*
X0323219Y0238178D01*
X0324300Y0240788D01*
X0324300Y0243612D01*
X0323219Y0246222D01*
X0322241Y0247200D01*
X0323219Y0248178D01*
X0324300Y0250788D01*
X0324300Y0253612D01*
X0323219Y0256222D01*
X0322241Y0257200D01*
X0323219Y0258178D01*
X0324300Y0260788D01*
X0324300Y0263612D01*
X0323219Y0266222D01*
X0322241Y0267200D01*
X0323219Y0268178D01*
X0324300Y0270788D01*
X0324300Y0273612D01*
X0323219Y0276222D01*
X0322241Y0277200D01*
X0371896Y0277200D01*
X0371896Y0274801D02*
X0323807Y0274801D01*
X0324300Y0272403D02*
X0372369Y0272403D01*
X0371896Y0274242D02*
X0373368Y0268512D01*
X0376217Y0263328D01*
X0380267Y0259016D01*
X0385262Y0255846D01*
X0390888Y0254018D01*
X0390888Y0254018D01*
X0396792Y0253647D01*
X0402603Y0254755D01*
X0407956Y0257274D01*
X0412514Y0261045D01*
X0415991Y0265831D01*
X0418169Y0271331D01*
X0418910Y0277200D01*
X0515339Y0277200D01*
X0515819Y0277680D02*
X0514027Y0275888D01*
X0513057Y0273546D01*
X0513057Y0271011D01*
X0514027Y0268669D01*
X0515819Y0266877D01*
X0518161Y0265907D01*
X0526239Y0265907D01*
X0528581Y0266877D01*
X0530373Y0268669D01*
X0531343Y0271011D01*
X0531343Y0273546D01*
X0530373Y0275888D01*
X0528581Y0277680D01*
X0527776Y0278014D01*
X0528210Y0278329D01*
X0528764Y0278882D01*
X0529224Y0279516D01*
X0529579Y0280213D01*
X0529821Y0280957D01*
X0529943Y0281730D01*
X0529943Y0282121D01*
X0522200Y0282121D01*
X0514457Y0282121D01*
X0514457Y0281730D01*
X0514579Y0280957D01*
X0514821Y0280213D01*
X0515176Y0279516D01*
X0515636Y0278882D01*
X0516190Y0278329D01*
X0516624Y0278014D01*
X0515819Y0277680D01*
X0515134Y0279599D02*
X0418607Y0279599D01*
X0418304Y0281997D02*
X0514457Y0281997D01*
X0514457Y0282121D02*
X0522200Y0282121D01*
X0522200Y0282121D01*
X0522200Y0282121D01*
X0529943Y0282121D01*
X0529943Y0282513D01*
X0529821Y0283285D01*
X0529579Y0284030D01*
X0529224Y0284727D01*
X0528764Y0285360D01*
X0528210Y0285913D01*
X0527577Y0286373D01*
X0526880Y0286729D01*
X0526136Y0286970D01*
X0525363Y0287093D01*
X0522200Y0287093D01*
X0522200Y0282121D01*
X0522200Y0287093D01*
X0519037Y0287093D01*
X0518264Y0286970D01*
X0517520Y0286729D01*
X0516823Y0286373D01*
X0516190Y0285913D01*
X0515636Y0285360D01*
X0515176Y0284727D01*
X0514821Y0284030D01*
X0514579Y0283285D01*
X0514457Y0282513D01*
X0514457Y0282121D01*
X0515007Y0284396D02*
X0417644Y0284396D01*
X0418169Y0283069D02*
X0415991Y0288569D01*
X0415991Y0288569D01*
X0412514Y0293355D01*
X0412514Y0293355D01*
X0407956Y0297126D01*
X0407956Y0297126D01*
X0402603Y0299645D01*
X0396792Y0300753D01*
X0390888Y0300382D01*
X0385262Y0298554D01*
X0385262Y0298554D01*
X0380267Y0295384D01*
X0376217Y0291072D01*
X0373368Y0285888D01*
X0373368Y0285888D01*
X0371896Y0280158D01*
X0371896Y0274242D01*
X0372984Y0270004D02*
X0323976Y0270004D01*
X0322647Y0267606D02*
X0373866Y0267606D01*
X0373368Y0268512D02*
X0373368Y0268512D01*
X0375184Y0265207D02*
X0323639Y0265207D01*
X0324300Y0262809D02*
X0376705Y0262809D01*
X0376217Y0263328D02*
X0376217Y0263328D01*
X0378957Y0260410D02*
X0324144Y0260410D01*
X0323053Y0258012D02*
X0381849Y0258012D01*
X0380267Y0259016D02*
X0380267Y0259016D01*
X0385262Y0255846D02*
X0385262Y0255846D01*
X0385978Y0255613D02*
X0323471Y0255613D01*
X0324300Y0253215D02*
X0536751Y0253215D01*
X0536453Y0255613D02*
X0404427Y0255613D01*
X0402603Y0254755D02*
X0402603Y0254755D01*
X0396792Y0253647D02*
X0396792Y0253647D01*
X0407956Y0257274D02*
X0407956Y0257274D01*
X0408848Y0258012D02*
X0536154Y0258012D01*
X0535856Y0260410D02*
X0411747Y0260410D01*
X0412514Y0261045D02*
X0412514Y0261045D01*
X0412514Y0261045D01*
X0413796Y0262809D02*
X0535558Y0262809D01*
X0535260Y0265207D02*
X0415538Y0265207D01*
X0415991Y0265831D02*
X0415991Y0265831D01*
X0416694Y0267606D02*
X0515090Y0267606D01*
X0513474Y0270004D02*
X0417644Y0270004D01*
X0418169Y0271331D02*
X0418169Y0271331D01*
X0418304Y0272403D02*
X0513057Y0272403D01*
X0513577Y0274801D02*
X0418607Y0274801D01*
X0418910Y0277200D02*
X0418169Y0283069D01*
X0418169Y0283069D01*
X0416694Y0286794D02*
X0517721Y0286794D01*
X0522200Y0286794D02*
X0522200Y0286794D01*
X0522200Y0284396D02*
X0522200Y0284396D01*
X0522200Y0282121D02*
X0522200Y0282121D01*
X0526679Y0286794D02*
X0534962Y0286794D01*
X0534664Y0284396D02*
X0529393Y0284396D01*
X0529943Y0281997D02*
X0534365Y0281997D01*
X0534298Y0281455D02*
X0534171Y0281149D01*
X0534171Y0280436D01*
X0534083Y0279729D01*
X0534171Y0279410D01*
X0534171Y0274990D01*
X0534083Y0274671D01*
X0534171Y0273964D01*
X0534171Y0273251D01*
X0534298Y0272945D01*
X0538176Y0241748D01*
X0536358Y0230271D01*
X0523029Y0201799D01*
X0522815Y0201547D01*
X0522594Y0200869D01*
X0522292Y0200224D01*
X0522277Y0199894D01*
X0520911Y0195689D01*
X0520729Y0195413D01*
X0520594Y0194714D01*
X0520374Y0194036D01*
X0520400Y0193706D01*
X0514448Y0162837D01*
X0509172Y0152483D01*
X0487697Y0129524D01*
X0487415Y0129351D01*
X0486996Y0128774D01*
X0486510Y0128254D01*
X0486393Y0127944D01*
X0483795Y0124368D01*
X0483536Y0124162D01*
X0483192Y0123538D01*
X0482773Y0122961D01*
X0482696Y0122640D01*
X0467496Y0095121D01*
X0459279Y0086904D01*
X0431760Y0071704D01*
X0431439Y0071627D01*
X0430862Y0071208D01*
X0430238Y0070864D01*
X0430032Y0070605D01*
X0426456Y0068007D01*
X0426146Y0067890D01*
X0425626Y0067404D01*
X0425049Y0066985D01*
X0424876Y0066703D01*
X0401917Y0045228D01*
X0391563Y0039952D01*
X0360694Y0034000D01*
X0360364Y0034026D01*
X0359686Y0033806D01*
X0358987Y0033671D01*
X0358711Y0033489D01*
X0354506Y0032123D01*
X0354176Y0032108D01*
X0353531Y0031806D01*
X0352853Y0031585D01*
X0352601Y0031371D01*
X0324129Y0018042D01*
X0312652Y0016224D01*
X0281455Y0020102D01*
X0281149Y0020229D01*
X0280436Y0020229D01*
X0279729Y0020317D01*
X0279410Y0020229D01*
X0274990Y0020229D01*
X0274671Y0020317D01*
X0273964Y0020229D01*
X0273251Y0020229D01*
X0272945Y0020102D01*
X0241748Y0016224D01*
X0230271Y0018042D01*
X0201799Y0031371D01*
X0201547Y0031585D01*
X0200869Y0031806D01*
X0200224Y0032108D01*
X0199894Y0032123D01*
X0195689Y0033489D01*
X0195413Y0033671D01*
X0194714Y0033806D01*
X0194036Y0034026D01*
X0193706Y0034000D01*
X0162837Y0039952D01*
X0152483Y0045228D01*
X0129524Y0066703D01*
X0129351Y0066985D01*
X0128774Y0067404D01*
X0128254Y0067890D01*
X0127944Y0068007D01*
X0124368Y0070605D01*
X0124162Y0070864D01*
X0123538Y0071208D01*
X0122961Y0071627D01*
X0122640Y0071704D01*
X0095121Y0086904D01*
X0086904Y0095121D01*
X0085694Y0097312D02*
X0140529Y0097312D01*
X0139900Y0087718D02*
X0094307Y0087718D01*
X0097990Y0085319D02*
X0138824Y0085319D01*
X0138057Y0082921D02*
X0102332Y0082921D01*
X0106675Y0080522D02*
X0138227Y0080522D01*
X0139494Y0078124D02*
X0111017Y0078124D01*
X0115360Y0075725D02*
X0140922Y0075725D01*
X0139573Y0073327D02*
X0119702Y0073327D01*
X0124045Y0070928D02*
X0139614Y0070928D01*
X0139457Y0072200D02*
X0147200Y0072200D01*
X0147200Y0072200D01*
X0147200Y0072200D01*
X0139457Y0072200D01*
X0141068Y0068530D02*
X0127225Y0068530D01*
X0130135Y0066131D02*
X0372805Y0066131D01*
X0373368Y0063939D02*
X0373368Y0063939D01*
X0376217Y0058755D01*
X0380267Y0054443D01*
X0380267Y0054443D01*
X0385262Y0051273D01*
X0390888Y0049445D01*
X0396792Y0049074D01*
X0402603Y0050182D01*
X0407956Y0052701D01*
X0412514Y0056472D01*
X0415991Y0061258D01*
X0418169Y0066758D01*
X0418910Y0072627D01*
X0418169Y0078496D01*
X0415991Y0083996D01*
X0412514Y0088782D01*
X0412514Y0088782D01*
X0407956Y0092553D01*
X0402603Y0095072D01*
X0396792Y0096180D01*
X0390888Y0095809D01*
X0385262Y0093981D01*
X0385262Y0093981D01*
X0380267Y0090811D01*
X0376217Y0086499D01*
X0373368Y0081315D01*
X0373368Y0081315D01*
X0371896Y0075585D01*
X0371896Y0069669D01*
X0373368Y0063939D01*
X0373481Y0063732D02*
X0195505Y0063732D01*
X0196335Y0063389D02*
X0193652Y0064500D01*
X0190748Y0064500D01*
X0188065Y0063389D01*
X0186011Y0061335D01*
X0184900Y0058652D01*
X0184900Y0055748D01*
X0186011Y0053065D01*
X0187866Y0051210D01*
X0187700Y0051044D01*
X0187154Y0050292D01*
X0186732Y0049465D01*
X0186445Y0048582D01*
X0186300Y0047664D01*
X0186300Y0047200D01*
X0192200Y0047200D01*
X0198100Y0047200D01*
X0198100Y0047664D01*
X0197955Y0048582D01*
X0197668Y0049465D01*
X0197246Y0050292D01*
X0196700Y0051044D01*
X0196534Y0051210D01*
X0198389Y0053065D01*
X0199500Y0055748D01*
X0199500Y0058652D01*
X0198389Y0061335D01*
X0196335Y0063389D01*
X0198389Y0061334D02*
X0374800Y0061334D01*
X0376118Y0058935D02*
X0199383Y0058935D01*
X0199500Y0056537D02*
X0378301Y0056537D01*
X0376217Y0058755D02*
X0376217Y0058755D01*
X0380747Y0054138D02*
X0198833Y0054138D01*
X0197064Y0051740D02*
X0384526Y0051740D01*
X0385262Y0051273D02*
X0385262Y0051273D01*
X0390888Y0049445D02*
X0390888Y0049445D01*
X0392536Y0049341D02*
X0239496Y0049341D01*
X0239727Y0049224D02*
X0239030Y0049579D01*
X0238285Y0049821D01*
X0237513Y0049943D01*
X0237121Y0049943D01*
X0236730Y0049943D01*
X0235957Y0049821D01*
X0235213Y0049579D01*
X0234516Y0049224D01*
X0233882Y0048764D01*
X0233329Y0048210D01*
X0233014Y0047776D01*
X0232680Y0048581D01*
X0230888Y0050373D01*
X0228546Y0051343D01*
X0226011Y0051343D01*
X0223669Y0050373D01*
X0221877Y0048581D01*
X0220907Y0046239D01*
X0220907Y0038161D01*
X0221877Y0035819D01*
X0223669Y0034027D01*
X0226011Y0033057D01*
X0228546Y0033057D01*
X0230888Y0034027D01*
X0232680Y0035819D01*
X0233014Y0036624D01*
X0233329Y0036190D01*
X0233882Y0035636D01*
X0234516Y0035176D01*
X0235213Y0034821D01*
X0235957Y0034579D01*
X0236730Y0034457D01*
X0237121Y0034457D01*
X0237121Y0042200D01*
X0237121Y0049943D01*
X0237121Y0042200D01*
X0237121Y0042200D01*
X0237121Y0042200D01*
X0237121Y0034457D01*
X0237513Y0034457D01*
X0238285Y0034579D01*
X0239030Y0034821D01*
X0239727Y0035176D01*
X0240360Y0035636D01*
X0240913Y0036190D01*
X0241373Y0036823D01*
X0241729Y0037520D01*
X0241970Y0038264D01*
X0242093Y0039037D01*
X0242093Y0042200D01*
X0242093Y0045363D01*
X0241970Y0046136D01*
X0241729Y0046880D01*
X0241373Y0047577D01*
X0240913Y0048210D01*
X0240360Y0048764D01*
X0239727Y0049224D01*
X0237121Y0049341D02*
X0237121Y0049341D01*
X0234746Y0049341D02*
X0231920Y0049341D01*
X0237121Y0046943D02*
X0237121Y0046943D01*
X0237121Y0044544D02*
X0237121Y0044544D01*
X0237121Y0042200D02*
X0242093Y0042200D01*
X0237121Y0042200D01*
X0237121Y0042200D01*
X0237121Y0042146D02*
X0237121Y0042146D01*
X0237121Y0039747D02*
X0237121Y0039747D01*
X0237121Y0037349D02*
X0237121Y0037349D01*
X0237121Y0034950D02*
X0237121Y0034950D01*
X0234959Y0034950D02*
X0231812Y0034950D01*
X0222746Y0034950D02*
X0188777Y0034950D01*
X0190818Y0041445D02*
X0191736Y0041300D01*
X0192200Y0041300D01*
X0192664Y0041300D01*
X0193582Y0041445D01*
X0194465Y0041732D01*
X0195292Y0042154D01*
X0196044Y0042700D01*
X0196700Y0043356D01*
X0197246Y0044108D01*
X0197668Y0044935D01*
X0197955Y0045818D01*
X0198100Y0046736D01*
X0198100Y0047200D01*
X0192200Y0047200D01*
X0192200Y0047200D01*
X0192200Y0047200D01*
X0192200Y0041300D01*
X0192200Y0047200D01*
X0192200Y0047200D01*
X0186300Y0047200D01*
X0186300Y0046736D01*
X0186445Y0045818D01*
X0186732Y0044935D01*
X0187154Y0044108D01*
X0187700Y0043356D01*
X0188356Y0042700D01*
X0189108Y0042154D01*
X0189935Y0041732D01*
X0190818Y0041445D01*
X0192200Y0042146D02*
X0192200Y0042146D01*
X0192200Y0044544D02*
X0192200Y0044544D01*
X0192200Y0046943D02*
X0192200Y0046943D01*
X0195277Y0042146D02*
X0220907Y0042146D01*
X0220907Y0044544D02*
X0197469Y0044544D01*
X0198100Y0046943D02*
X0221199Y0046943D01*
X0222638Y0049341D02*
X0197708Y0049341D01*
X0189123Y0042146D02*
X0158531Y0042146D01*
X0153824Y0044544D02*
X0186931Y0044544D01*
X0186300Y0046943D02*
X0150649Y0046943D01*
X0148085Y0049341D02*
X0186692Y0049341D01*
X0187336Y0051740D02*
X0145521Y0051740D01*
X0142956Y0054138D02*
X0185567Y0054138D01*
X0184900Y0056537D02*
X0140392Y0056537D01*
X0137828Y0058935D02*
X0185017Y0058935D01*
X0186011Y0061334D02*
X0135263Y0061334D01*
X0132699Y0063732D02*
X0188895Y0063732D01*
X0176338Y0037349D02*
X0221243Y0037349D01*
X0220907Y0039747D02*
X0163898Y0039747D01*
X0153332Y0068530D02*
X0372189Y0068530D01*
X0371896Y0070928D02*
X0154786Y0070928D01*
X0154827Y0073327D02*
X0371896Y0073327D01*
X0371932Y0075725D02*
X0153478Y0075725D01*
X0154906Y0078124D02*
X0372548Y0078124D01*
X0373164Y0080522D02*
X0156173Y0080522D01*
X0156343Y0082921D02*
X0374250Y0082921D01*
X0375569Y0085319D02*
X0155576Y0085319D01*
X0154500Y0087718D02*
X0377362Y0087718D01*
X0376217Y0086499D02*
X0376217Y0086499D01*
X0379614Y0090116D02*
X0156005Y0090116D01*
X0156343Y0092515D02*
X0382951Y0092515D01*
X0380267Y0090811D02*
X0380267Y0090811D01*
X0388131Y0094913D02*
X0155744Y0094913D01*
X0153871Y0097312D02*
X0468706Y0097312D01*
X0470031Y0099710D02*
X0084369Y0099710D01*
X0083044Y0102109D02*
X0471356Y0102109D01*
X0472681Y0104507D02*
X0081719Y0104507D01*
X0080395Y0106906D02*
X0220948Y0106906D01*
X0221376Y0106478D02*
X0223857Y0105450D01*
X0226543Y0105450D01*
X0229024Y0106478D01*
X0230922Y0108376D01*
X0231950Y0110857D01*
X0231950Y0113543D01*
X0230922Y0116024D01*
X0229024Y0117922D01*
X0226543Y0118950D01*
X0223857Y0118950D01*
X0221376Y0117922D01*
X0219478Y0116024D01*
X0218450Y0113543D01*
X0218450Y0110857D01*
X0219478Y0108376D01*
X0221376Y0106478D01*
X0219093Y0109304D02*
X0079070Y0109304D01*
X0077745Y0111703D02*
X0218450Y0111703D01*
X0218681Y0114101D02*
X0076420Y0114101D01*
X0075095Y0116500D02*
X0219954Y0116500D01*
X0223732Y0118898D02*
X0098701Y0118898D01*
X0098764Y0118961D02*
X0099224Y0119594D01*
X0099579Y0120292D01*
X0099821Y0121036D01*
X0099943Y0121809D01*
X0099943Y0122200D01*
X0099943Y0122591D01*
X0099821Y0123364D01*
X0099579Y0124108D01*
X0099224Y0124806D01*
X0098764Y0125439D01*
X0098210Y0125992D01*
X0097638Y0126408D01*
X0098581Y0126798D01*
X0100373Y0128591D01*
X0101343Y0130933D01*
X0101343Y0133467D01*
X0100373Y0135809D01*
X0098983Y0137200D01*
X0100373Y0138591D01*
X0101343Y0140933D01*
X0101343Y0143467D01*
X0100373Y0145809D01*
X0098581Y0147602D01*
X0096239Y0148572D01*
X0088161Y0148572D01*
X0085819Y0147602D01*
X0084027Y0145809D01*
X0083057Y0143467D01*
X0083057Y0140933D01*
X0084027Y0138591D01*
X0085417Y0137200D01*
X0084027Y0135809D01*
X0083057Y0133467D01*
X0083057Y0130933D01*
X0084027Y0128591D01*
X0085819Y0126798D01*
X0086762Y0126408D01*
X0086190Y0125992D01*
X0085636Y0125439D01*
X0085176Y0124806D01*
X0084821Y0124108D01*
X0084579Y0123364D01*
X0084457Y0122591D01*
X0084457Y0122200D01*
X0084457Y0121809D01*
X0084579Y0121036D01*
X0084821Y0120292D01*
X0085176Y0119594D01*
X0085636Y0118961D01*
X0086190Y0118408D01*
X0086823Y0117948D01*
X0087520Y0117593D01*
X0088264Y0117351D01*
X0089037Y0117228D01*
X0092200Y0117228D01*
X0092200Y0122200D01*
X0099943Y0122200D01*
X0092200Y0122200D01*
X0092200Y0122200D01*
X0092200Y0117228D01*
X0095363Y0117228D01*
X0096136Y0117351D01*
X0096880Y0117593D01*
X0097577Y0117948D01*
X0098210Y0118408D01*
X0098764Y0118961D01*
X0099862Y0121297D02*
X0404525Y0121297D01*
X0404579Y0120957D02*
X0404821Y0120213D01*
X0405176Y0119516D01*
X0405636Y0118882D01*
X0406190Y0118329D01*
X0406624Y0118014D01*
X0405819Y0117680D01*
X0404027Y0115888D01*
X0403057Y0113546D01*
X0403057Y0111011D01*
X0404027Y0108669D01*
X0405819Y0106877D01*
X0408161Y0105907D01*
X0416239Y0105907D01*
X0418581Y0106877D01*
X0420373Y0108669D01*
X0421343Y0111011D01*
X0421343Y0113546D01*
X0420373Y0115888D01*
X0418581Y0117680D01*
X0417776Y0118014D01*
X0418210Y0118329D01*
X0418764Y0118882D01*
X0419224Y0119516D01*
X0419579Y0120213D01*
X0419821Y0120957D01*
X0419943Y0121730D01*
X0419943Y0122121D01*
X0412200Y0122121D01*
X0404457Y0122121D01*
X0404457Y0121730D01*
X0404579Y0120957D01*
X0404457Y0122121D02*
X0412200Y0122121D01*
X0412200Y0122121D01*
X0412200Y0122121D01*
X0419943Y0122121D01*
X0419943Y0122513D01*
X0419821Y0123285D01*
X0419579Y0124030D01*
X0419224Y0124727D01*
X0418764Y0125360D01*
X0418210Y0125913D01*
X0417577Y0126373D01*
X0416880Y0126729D01*
X0416136Y0126970D01*
X0415363Y0127093D01*
X0412200Y0127093D01*
X0412200Y0122121D01*
X0412200Y0127093D01*
X0409037Y0127093D01*
X0408264Y0126970D01*
X0407520Y0126729D01*
X0406823Y0126373D01*
X0406190Y0125913D01*
X0405636Y0125360D01*
X0405176Y0124727D01*
X0404821Y0124030D01*
X0404579Y0123285D01*
X0404457Y0122513D01*
X0404457Y0122121D01*
X0404712Y0123695D02*
X0149449Y0123695D01*
X0148934Y0123482D02*
X0152138Y0124809D01*
X0154591Y0127262D01*
X0155918Y0130466D01*
X0155918Y0133934D01*
X0154591Y0137138D01*
X0152138Y0139591D01*
X0148934Y0140918D01*
X0145466Y0140918D01*
X0142262Y0139591D01*
X0139809Y0137138D01*
X0138482Y0133934D01*
X0138482Y0130466D01*
X0139809Y0127262D01*
X0142262Y0124809D01*
X0145466Y0123482D01*
X0148934Y0123482D01*
X0144951Y0123695D02*
X0099713Y0123695D01*
X0098071Y0126094D02*
X0140977Y0126094D01*
X0139299Y0128492D02*
X0100275Y0128492D01*
X0101326Y0130891D02*
X0138482Y0130891D01*
X0138482Y0133289D02*
X0126209Y0133289D01*
X0127635Y0135688D02*
X0139208Y0135688D01*
X0140757Y0138086D02*
X0127800Y0138086D01*
X0126835Y0140485D02*
X0144420Y0140485D01*
X0149980Y0140485D02*
X0497950Y0140485D01*
X0500193Y0142883D02*
X0126300Y0142883D01*
X0126300Y0145282D02*
X0502437Y0145282D01*
X0504680Y0147680D02*
X0494384Y0147680D01*
X0493581Y0146877D02*
X0495373Y0148669D01*
X0496343Y0151011D01*
X0496343Y0153546D01*
X0495373Y0155888D01*
X0493581Y0157680D01*
X0492776Y0158014D01*
X0493210Y0158329D01*
X0493764Y0158882D01*
X0494224Y0159516D01*
X0494579Y0160213D01*
X0494821Y0160957D01*
X0494943Y0161730D01*
X0494943Y0162121D01*
X0487200Y0162121D01*
X0479457Y0162121D01*
X0479457Y0161730D01*
X0479579Y0160957D01*
X0479821Y0160213D01*
X0480176Y0159516D01*
X0480636Y0158882D01*
X0481190Y0158329D01*
X0481624Y0158014D01*
X0480819Y0157680D01*
X0479027Y0155888D01*
X0478057Y0153546D01*
X0478057Y0151011D01*
X0479027Y0148669D01*
X0480819Y0146877D01*
X0483161Y0145907D01*
X0491239Y0145907D01*
X0493581Y0146877D01*
X0495957Y0150079D02*
X0506924Y0150079D01*
X0509167Y0152477D02*
X0496343Y0152477D01*
X0495792Y0154876D02*
X0510392Y0154876D01*
X0511614Y0157274D02*
X0493987Y0157274D01*
X0494304Y0159673D02*
X0512836Y0159673D01*
X0514058Y0162071D02*
X0494943Y0162071D01*
X0494943Y0162121D02*
X0494943Y0162513D01*
X0494821Y0163285D01*
X0494579Y0164030D01*
X0494224Y0164727D01*
X0493764Y0165360D01*
X0493210Y0165913D01*
X0492577Y0166373D01*
X0491880Y0166729D01*
X0491136Y0166970D01*
X0490363Y0167093D01*
X0487200Y0167093D01*
X0487200Y0162121D01*
X0487200Y0162121D01*
X0487200Y0162121D01*
X0494943Y0162121D01*
X0494355Y0164470D02*
X0514763Y0164470D01*
X0515225Y0166868D02*
X0491450Y0166868D01*
X0487200Y0166868D02*
X0487200Y0166868D01*
X0487200Y0167093D02*
X0484037Y0167093D01*
X0483264Y0166970D01*
X0482520Y0166729D01*
X0481823Y0166373D01*
X0481190Y0165913D01*
X0480636Y0165360D01*
X0480176Y0164727D01*
X0479821Y0164030D01*
X0479579Y0163285D01*
X0479457Y0162513D01*
X0479457Y0162121D01*
X0487200Y0162121D01*
X0487200Y0167093D01*
X0487200Y0164470D02*
X0487200Y0164470D01*
X0487200Y0162121D02*
X0487200Y0162121D01*
X0482950Y0166868D02*
X0154500Y0166868D01*
X0154245Y0169267D02*
X0515688Y0169267D01*
X0516150Y0171666D02*
X0154037Y0171666D01*
X0154500Y0174064D02*
X0516613Y0174064D01*
X0517075Y0176463D02*
X0343635Y0176463D01*
X0343582Y0176445D02*
X0344465Y0176732D01*
X0345292Y0177154D01*
X0346044Y0177700D01*
X0346700Y0178356D01*
X0347246Y0179108D01*
X0347668Y0179935D01*
X0347955Y0180818D01*
X0348100Y0181736D01*
X0348100Y0182200D01*
X0348100Y0182664D01*
X0347955Y0183582D01*
X0347668Y0184465D01*
X0347246Y0185292D01*
X0346700Y0186044D01*
X0346534Y0186210D01*
X0348389Y0188065D01*
X0349500Y0190748D01*
X0349500Y0193652D01*
X0348389Y0196335D01*
X0346335Y0198389D01*
X0343652Y0199500D01*
X0340748Y0199500D01*
X0338065Y0198389D01*
X0336011Y0196335D01*
X0334900Y0193652D01*
X0334900Y0190748D01*
X0336011Y0188065D01*
X0337866Y0186210D01*
X0337700Y0186044D01*
X0337154Y0185292D01*
X0336732Y0184465D01*
X0336445Y0183582D01*
X0336300Y0182664D01*
X0336300Y0182200D01*
X0342200Y0182200D01*
X0348100Y0182200D01*
X0342200Y0182200D01*
X0342200Y0182200D01*
X0342200Y0182200D01*
X0342200Y0176300D01*
X0342664Y0176300D01*
X0343582Y0176445D01*
X0342200Y0176463D02*
X0342200Y0176463D01*
X0342200Y0176300D02*
X0342200Y0182200D01*
X0342200Y0182200D01*
X0336300Y0182200D01*
X0336300Y0181736D01*
X0336445Y0180818D01*
X0336732Y0179935D01*
X0337154Y0179108D01*
X0337700Y0178356D01*
X0338356Y0177700D01*
X0339108Y0177154D01*
X0339935Y0176732D01*
X0340818Y0176445D01*
X0341736Y0176300D01*
X0342200Y0176300D01*
X0340765Y0176463D02*
X0315014Y0176463D01*
X0319559Y0178861D02*
X0337333Y0178861D01*
X0336375Y0181260D02*
X0321587Y0181260D01*
X0322742Y0183658D02*
X0336470Y0183658D01*
X0337713Y0186057D02*
X0323300Y0186057D01*
X0323300Y0188455D02*
X0335850Y0188455D01*
X0334900Y0190854D02*
X0322713Y0190854D01*
X0321523Y0193252D02*
X0334900Y0193252D01*
X0335728Y0195651D02*
X0319942Y0195651D01*
X0323090Y0198049D02*
X0337725Y0198049D01*
X0346675Y0198049D02*
X0501575Y0198049D01*
X0501624Y0198014D02*
X0500819Y0197680D01*
X0499027Y0195888D01*
X0498057Y0193546D01*
X0498057Y0191011D01*
X0499027Y0188669D01*
X0500819Y0186877D01*
X0503161Y0185907D01*
X0511239Y0185907D01*
X0513581Y0186877D01*
X0515373Y0188669D01*
X0516343Y0191011D01*
X0516343Y0193546D01*
X0515373Y0195888D01*
X0513581Y0197680D01*
X0512776Y0198014D01*
X0513210Y0198329D01*
X0513764Y0198882D01*
X0514224Y0199516D01*
X0514579Y0200213D01*
X0514821Y0200957D01*
X0514943Y0201730D01*
X0514943Y0202121D01*
X0507200Y0202121D01*
X0499457Y0202121D01*
X0499457Y0201730D01*
X0499579Y0200957D01*
X0499821Y0200213D01*
X0500176Y0199516D01*
X0500636Y0198882D01*
X0501190Y0198329D01*
X0501624Y0198014D01*
X0499745Y0200448D02*
X0324159Y0200448D01*
X0324300Y0202846D02*
X0499510Y0202846D01*
X0499457Y0202513D02*
X0499457Y0202121D01*
X0507200Y0202121D01*
X0507200Y0202121D01*
X0507200Y0202121D01*
X0514943Y0202121D01*
X0514943Y0202513D01*
X0514821Y0203285D01*
X0514579Y0204030D01*
X0514224Y0204727D01*
X0513764Y0205360D01*
X0513210Y0205913D01*
X0512577Y0206373D01*
X0511880Y0206729D01*
X0511136Y0206970D01*
X0510363Y0207093D01*
X0507200Y0207093D01*
X0507200Y0202121D01*
X0507200Y0207093D01*
X0504037Y0207093D01*
X0503264Y0206970D01*
X0502520Y0206729D01*
X0501823Y0206373D01*
X0501190Y0205913D01*
X0500636Y0205360D01*
X0500176Y0204727D01*
X0499821Y0204030D01*
X0499579Y0203285D01*
X0499457Y0202513D01*
X0500552Y0205245D02*
X0323624Y0205245D01*
X0322684Y0207643D02*
X0525766Y0207643D01*
X0526888Y0210042D02*
X0323991Y0210042D01*
X0324300Y0212440D02*
X0528011Y0212440D01*
X0529134Y0214839D02*
X0323792Y0214839D01*
X0322278Y0217237D02*
X0530257Y0217237D01*
X0531380Y0219636D02*
X0323823Y0219636D01*
X0324300Y0222034D02*
X0532503Y0222034D01*
X0533626Y0224433D02*
X0323960Y0224433D01*
X0322610Y0226831D02*
X0515930Y0226831D01*
X0515819Y0226877D02*
X0518161Y0225907D01*
X0526239Y0225907D01*
X0528581Y0226877D01*
X0530373Y0228669D01*
X0531343Y0231011D01*
X0531343Y0233546D01*
X0530373Y0235888D01*
X0528581Y0237680D01*
X0527776Y0238014D01*
X0528210Y0238329D01*
X0528764Y0238882D01*
X0529224Y0239516D01*
X0529579Y0240213D01*
X0529821Y0240957D01*
X0529943Y0241730D01*
X0529943Y0242121D01*
X0522200Y0242121D01*
X0514457Y0242121D01*
X0514457Y0241730D01*
X0514579Y0240957D01*
X0514821Y0240213D01*
X0515176Y0239516D01*
X0515636Y0238882D01*
X0516190Y0238329D01*
X0516624Y0238014D01*
X0515819Y0237680D01*
X0514027Y0235888D01*
X0513057Y0233546D01*
X0513057Y0231011D01*
X0514027Y0228669D01*
X0515819Y0226877D01*
X0513795Y0229230D02*
X0322084Y0229230D01*
X0322880Y0231628D02*
X0513057Y0231628D01*
X0513256Y0234027D02*
X0322600Y0234027D01*
X0322900Y0232200D02*
X0317200Y0232200D01*
X0317200Y0232200D01*
X0322900Y0232200D01*
X0321466Y0236425D02*
X0514564Y0236425D01*
X0515695Y0238824D02*
X0323487Y0238824D01*
X0324300Y0241222D02*
X0514537Y0241222D01*
X0514457Y0242121D02*
X0522200Y0242121D01*
X0522200Y0242121D01*
X0522200Y0242121D01*
X0529943Y0242121D01*
X0529943Y0242513D01*
X0529821Y0243285D01*
X0529579Y0244030D01*
X0529224Y0244727D01*
X0528764Y0245360D01*
X0528210Y0245913D01*
X0527577Y0246373D01*
X0526880Y0246729D01*
X0526136Y0246970D01*
X0525363Y0247093D01*
X0522200Y0247093D01*
X0522200Y0242121D01*
X0522200Y0247093D01*
X0519037Y0247093D01*
X0518264Y0246970D01*
X0517520Y0246729D01*
X0516823Y0246373D01*
X0516190Y0245913D01*
X0515636Y0245360D01*
X0515176Y0244727D01*
X0514821Y0244030D01*
X0514579Y0243285D01*
X0514457Y0242513D01*
X0514457Y0242121D01*
X0514688Y0243621D02*
X0324296Y0243621D01*
X0323303Y0246019D02*
X0516335Y0246019D01*
X0522200Y0246019D02*
X0522200Y0246019D01*
X0522200Y0243621D02*
X0522200Y0243621D01*
X0522200Y0242121D02*
X0522200Y0242121D01*
X0528065Y0246019D02*
X0537645Y0246019D01*
X0537944Y0243621D02*
X0529712Y0243621D01*
X0529863Y0241222D02*
X0538093Y0241222D01*
X0537713Y0238824D02*
X0528705Y0238824D01*
X0529836Y0236425D02*
X0537333Y0236425D01*
X0536953Y0234027D02*
X0531144Y0234027D01*
X0531343Y0231628D02*
X0536573Y0231628D01*
X0535871Y0229230D02*
X0530605Y0229230D01*
X0528470Y0226831D02*
X0534748Y0226831D01*
X0524643Y0205245D02*
X0513848Y0205245D01*
X0514890Y0202846D02*
X0523520Y0202846D01*
X0522397Y0200448D02*
X0514655Y0200448D01*
X0512825Y0198049D02*
X0521678Y0198049D01*
X0520886Y0195651D02*
X0515472Y0195651D01*
X0516343Y0193252D02*
X0520312Y0193252D01*
X0519850Y0190854D02*
X0516278Y0190854D01*
X0515159Y0188455D02*
X0519387Y0188455D01*
X0518925Y0186057D02*
X0511600Y0186057D01*
X0518463Y0183658D02*
X0347930Y0183658D01*
X0348025Y0181260D02*
X0518000Y0181260D01*
X0517538Y0178861D02*
X0347067Y0178861D01*
X0342200Y0178861D02*
X0342200Y0178861D01*
X0342200Y0181260D02*
X0342200Y0181260D01*
X0346687Y0186057D02*
X0502800Y0186057D01*
X0499241Y0188455D02*
X0348550Y0188455D01*
X0349500Y0190854D02*
X0498122Y0190854D01*
X0498057Y0193252D02*
X0349500Y0193252D01*
X0348672Y0195651D02*
X0498928Y0195651D01*
X0507200Y0202121D02*
X0507200Y0202121D01*
X0507200Y0202846D02*
X0507200Y0202846D01*
X0507200Y0205245D02*
X0507200Y0205245D01*
X0537347Y0248418D02*
X0323318Y0248418D01*
X0324300Y0250816D02*
X0537049Y0250816D01*
X0534962Y0267606D02*
X0529310Y0267606D01*
X0530926Y0270004D02*
X0534664Y0270004D01*
X0534365Y0272403D02*
X0531343Y0272403D01*
X0530823Y0274801D02*
X0534119Y0274801D01*
X0534171Y0277200D02*
X0529061Y0277200D01*
X0529266Y0279599D02*
X0534119Y0279599D01*
X0534298Y0281455D02*
X0538176Y0312652D01*
X0536358Y0324129D01*
X0523029Y0352601D01*
X0522815Y0352853D01*
X0522594Y0353531D01*
X0522292Y0354176D01*
X0522277Y0354506D01*
X0520911Y0358711D01*
X0520729Y0358987D01*
X0520594Y0359686D01*
X0520374Y0360364D01*
X0520400Y0360694D01*
X0514448Y0391563D01*
X0509172Y0401917D01*
X0487697Y0424876D01*
X0487415Y0425049D01*
X0486996Y0425626D01*
X0486510Y0426146D01*
X0486393Y0426456D01*
X0483795Y0430032D01*
X0483536Y0430238D01*
X0483192Y0430862D01*
X0482773Y0431439D01*
X0482696Y0431760D01*
X0467496Y0459279D01*
X0459279Y0467496D01*
X0431760Y0482696D01*
X0431439Y0482773D01*
X0430862Y0483192D01*
X0430238Y0483536D01*
X0430032Y0483795D01*
X0426456Y0486393D01*
X0426146Y0486510D01*
X0425626Y0486996D01*
X0425049Y0487415D01*
X0424876Y0487697D01*
X0401917Y0509172D01*
X0391563Y0514448D01*
X0360694Y0520400D01*
X0360364Y0520374D01*
X0359686Y0520594D01*
X0358987Y0520729D01*
X0358711Y0520911D01*
X0354506Y0522277D01*
X0354176Y0522292D01*
X0353531Y0522594D01*
X0352853Y0522815D01*
X0352601Y0523029D01*
X0324129Y0536358D01*
X0312652Y0538176D01*
X0281455Y0534298D01*
X0281149Y0534171D01*
X0280436Y0534171D01*
X0279729Y0534083D01*
X0279410Y0534171D01*
X0274990Y0534171D01*
X0274671Y0534083D01*
X0273964Y0534171D01*
X0273251Y0534171D01*
X0272945Y0534298D01*
X0241748Y0538176D01*
X0230271Y0536358D01*
X0201799Y0523029D01*
X0201547Y0522815D01*
X0200869Y0522594D01*
X0200224Y0522292D01*
X0199894Y0522277D01*
X0195689Y0520911D01*
X0195413Y0520729D01*
X0194714Y0520594D01*
X0194036Y0520374D01*
X0193706Y0520400D01*
X0162837Y0514448D01*
X0152483Y0509172D01*
X0129524Y0487697D01*
X0129351Y0487415D01*
X0128774Y0486996D01*
X0128254Y0486510D01*
X0127944Y0486393D01*
X0124368Y0483795D01*
X0124162Y0483536D01*
X0123538Y0483192D01*
X0122961Y0482773D01*
X0122640Y0482696D01*
X0095121Y0467496D01*
X0086904Y0459279D01*
X0071704Y0431760D01*
X0071627Y0431439D01*
X0071208Y0430862D01*
X0070864Y0430238D01*
X0070605Y0430032D01*
X0068007Y0426456D01*
X0067890Y0426146D01*
X0067404Y0425626D01*
X0066985Y0425049D01*
X0066703Y0424876D01*
X0045228Y0401917D01*
X0039952Y0391563D01*
X0034000Y0360694D01*
X0034026Y0360364D01*
X0033806Y0359686D01*
X0033671Y0358987D01*
X0033489Y0358711D01*
X0032123Y0354506D01*
X0032108Y0354176D01*
X0031806Y0353531D01*
X0031585Y0352853D01*
X0031371Y0352601D01*
X0018042Y0324129D01*
X0016224Y0312652D01*
X0019456Y0286650D01*
X0021887Y0291072D01*
X0021887Y0291072D01*
X0025936Y0295384D01*
X0025936Y0295384D01*
X0025936Y0295384D01*
X0030931Y0298554D01*
X0030931Y0298554D01*
X0036557Y0300382D01*
X0036557Y0300382D01*
X0042461Y0300753D01*
X0042461Y0300753D01*
X0048272Y0299645D01*
X0048272Y0299645D01*
X0053625Y0297126D01*
X0053625Y0297126D01*
X0058183Y0293355D01*
X0058183Y0293355D01*
X0058183Y0293355D01*
X0061660Y0288569D01*
X0061660Y0288569D01*
X0063838Y0283069D01*
X0063838Y0283069D01*
X0064580Y0277200D01*
X0064277Y0279599D02*
X0163100Y0279599D01*
X0163100Y0281997D02*
X0063974Y0281997D01*
X0063313Y0284396D02*
X0163672Y0284396D01*
X0163724Y0284522D02*
X0163100Y0283016D01*
X0163100Y0251384D01*
X0163724Y0249878D01*
X0164878Y0248724D01*
X0169878Y0243724D01*
X0171384Y0243100D01*
X0173380Y0243100D01*
X0174028Y0242453D01*
X0176086Y0241600D01*
X0178314Y0241600D01*
X0180372Y0242453D01*
X0181947Y0244028D01*
X0182800Y0246086D01*
X0182800Y0248314D01*
X0181947Y0250372D01*
X0180372Y0251947D01*
X0178314Y0252800D01*
X0177800Y0252800D01*
X0177800Y0253314D01*
X0176947Y0255372D01*
X0176300Y0256020D01*
X0176300Y0275502D01*
X0230535Y0329737D01*
X0231181Y0328178D01*
X0232159Y0327200D01*
X0231181Y0326222D01*
X0230100Y0323612D01*
X0230100Y0320788D01*
X0231181Y0318178D01*
X0232159Y0317200D01*
X0231181Y0316222D01*
X0230100Y0313612D01*
X0230100Y0310788D01*
X0231181Y0308178D01*
X0232159Y0307200D01*
X0231181Y0306222D01*
X0230100Y0303612D01*
X0230100Y0300788D01*
X0231181Y0298178D01*
X0232159Y0297200D01*
X0231181Y0296222D01*
X0230100Y0293612D01*
X0230100Y0290898D01*
X0118724Y0179522D01*
X0120461Y0181260D02*
X0068420Y0181260D01*
X0068634Y0183658D02*
X0122860Y0183658D01*
X0125258Y0186057D02*
X0069500Y0186057D01*
X0069500Y0188455D02*
X0127657Y0188455D01*
X0130055Y0190854D02*
X0068588Y0190854D01*
X0068466Y0193252D02*
X0132454Y0193252D01*
X0134852Y0195651D02*
X0069460Y0195651D01*
X0069500Y0198049D02*
X0137251Y0198049D01*
X0139649Y0200448D02*
X0068756Y0200448D01*
X0068170Y0202846D02*
X0142048Y0202846D01*
X0144446Y0205245D02*
X0069292Y0205245D01*
X0069500Y0207643D02*
X0146845Y0207643D01*
X0149243Y0210042D02*
X0068924Y0210042D01*
X0067764Y0212440D02*
X0151642Y0212440D01*
X0154040Y0214839D02*
X0069123Y0214839D01*
X0069500Y0217237D02*
X0156439Y0217237D01*
X0158837Y0219636D02*
X0069093Y0219636D01*
X0067690Y0222034D02*
X0161236Y0222034D01*
X0163634Y0224433D02*
X0068955Y0224433D01*
X0069500Y0226831D02*
X0166033Y0226831D01*
X0168432Y0229230D02*
X0069261Y0229230D01*
X0068095Y0231628D02*
X0170830Y0231628D01*
X0173229Y0234027D02*
X0068787Y0234027D01*
X0069500Y0236425D02*
X0175627Y0236425D01*
X0178026Y0238824D02*
X0069429Y0238824D01*
X0068435Y0241222D02*
X0180424Y0241222D01*
X0181540Y0243621D02*
X0182823Y0243621D01*
X0182772Y0246019D02*
X0185221Y0246019D01*
X0187620Y0248418D02*
X0182757Y0248418D01*
X0181503Y0250816D02*
X0190018Y0250816D01*
X0192417Y0253215D02*
X0177800Y0253215D01*
X0176706Y0255613D02*
X0194815Y0255613D01*
X0197214Y0258012D02*
X0176300Y0258012D01*
X0176300Y0260410D02*
X0199612Y0260410D01*
X0202011Y0262809D02*
X0176300Y0262809D01*
X0176300Y0265207D02*
X0204409Y0265207D01*
X0206808Y0267606D02*
X0176300Y0267606D01*
X0176300Y0270004D02*
X0209206Y0270004D01*
X0211605Y0272403D02*
X0176300Y0272403D01*
X0176300Y0274801D02*
X0214003Y0274801D01*
X0216402Y0277200D02*
X0177998Y0277200D01*
X0180397Y0279599D02*
X0218800Y0279599D01*
X0221199Y0281997D02*
X0182795Y0281997D01*
X0185194Y0284396D02*
X0223597Y0284396D01*
X0225996Y0286794D02*
X0187592Y0286794D01*
X0189991Y0289193D02*
X0228394Y0289193D01*
X0230100Y0291591D02*
X0192389Y0291591D01*
X0194788Y0293990D02*
X0230256Y0293990D01*
X0231347Y0296388D02*
X0197186Y0296388D01*
X0199585Y0298787D02*
X0230929Y0298787D01*
X0230100Y0301185D02*
X0201983Y0301185D01*
X0204382Y0303584D02*
X0230100Y0303584D01*
X0231082Y0305982D02*
X0206780Y0305982D01*
X0209179Y0308381D02*
X0231097Y0308381D01*
X0230104Y0310779D02*
X0211577Y0310779D01*
X0213976Y0313178D02*
X0230100Y0313178D01*
X0230913Y0315576D02*
X0216374Y0315576D01*
X0218773Y0317975D02*
X0231384Y0317975D01*
X0230272Y0320373D02*
X0221171Y0320373D01*
X0223570Y0322772D02*
X0230100Y0322772D01*
X0230745Y0325170D02*
X0225968Y0325170D01*
X0228367Y0327569D02*
X0231790Y0327569D01*
X0242241Y0327200D02*
X0243219Y0326222D01*
X0244300Y0323612D01*
X0244300Y0320788D01*
X0243219Y0318178D01*
X0242241Y0317200D01*
X0243219Y0316222D01*
X0244300Y0313612D01*
X0244300Y0310788D01*
X0243219Y0308178D01*
X0242241Y0307200D01*
X0243219Y0306222D01*
X0244300Y0303612D01*
X0244300Y0300788D01*
X0243219Y0298178D01*
X0242241Y0297200D01*
X0243219Y0296222D01*
X0244300Y0293612D01*
X0244300Y0290788D01*
X0243219Y0288178D01*
X0242241Y0287200D01*
X0243219Y0286222D01*
X0244300Y0283612D01*
X0244300Y0280788D01*
X0243219Y0278178D01*
X0242241Y0277200D01*
X0308100Y0277200D01*
X0308100Y0274801D02*
X0243807Y0274801D01*
X0244300Y0273612D02*
X0243219Y0276222D01*
X0242241Y0277200D01*
X0243807Y0279599D02*
X0308100Y0279599D01*
X0308100Y0281997D02*
X0244300Y0281997D01*
X0243976Y0284396D02*
X0308100Y0284396D01*
X0308100Y0286794D02*
X0242647Y0286794D01*
X0243639Y0289193D02*
X0308100Y0289193D01*
X0308100Y0291591D02*
X0244300Y0291591D01*
X0244144Y0293990D02*
X0308100Y0293990D01*
X0308100Y0296388D02*
X0243053Y0296388D01*
X0243471Y0298787D02*
X0308100Y0298787D01*
X0308100Y0301185D02*
X0244300Y0301185D01*
X0244300Y0303584D02*
X0308100Y0303584D01*
X0308100Y0305982D02*
X0243318Y0305982D01*
X0243303Y0308381D02*
X0308100Y0308381D01*
X0308100Y0310502D02*
X0308100Y0256384D01*
X0308724Y0254878D01*
X0310100Y0253502D01*
X0310100Y0250788D01*
X0311181Y0248178D01*
X0312159Y0247200D01*
X0311181Y0246222D01*
X0310100Y0243612D01*
X0310100Y0240788D01*
X0311181Y0238178D01*
X0313149Y0236210D01*
X0312852Y0235913D01*
X0312325Y0235187D01*
X0311918Y0234388D01*
X0311640Y0233535D01*
X0311500Y0232649D01*
X0311500Y0232200D01*
X0317200Y0232200D01*
X0317200Y0232200D01*
X0311500Y0232200D01*
X0311500Y0231751D01*
X0311640Y0230865D01*
X0311918Y0230012D01*
X0312325Y0229213D01*
X0312852Y0228487D01*
X0313149Y0228190D01*
X0311181Y0226222D01*
X0310100Y0223612D01*
X0310100Y0220788D01*
X0311181Y0218178D01*
X0312159Y0217200D01*
X0311259Y0216300D01*
X0208898Y0216300D01*
X0200300Y0224898D01*
X0200300Y0225814D01*
X0199447Y0227872D01*
X0199059Y0228261D01*
X0228898Y0258100D01*
X0231259Y0258100D01*
X0232159Y0257200D01*
X0231181Y0256222D01*
X0230100Y0253612D01*
X0230100Y0250788D01*
X0231181Y0248178D01*
X0232159Y0247200D01*
X0231181Y0246222D01*
X0230100Y0243612D01*
X0230100Y0240788D01*
X0231181Y0238178D01*
X0233178Y0236181D01*
X0235788Y0235100D01*
X0238612Y0235100D01*
X0241222Y0236181D01*
X0243219Y0238178D01*
X0244300Y0240788D01*
X0244300Y0243612D01*
X0243219Y0246222D01*
X0242241Y0247200D01*
X0243219Y0248178D01*
X0244300Y0250788D01*
X0244300Y0253612D01*
X0243219Y0256222D01*
X0242241Y0257200D01*
X0243219Y0258178D01*
X0244300Y0260788D01*
X0244300Y0263612D01*
X0243219Y0266222D01*
X0242241Y0267200D01*
X0243219Y0268178D01*
X0244300Y0270788D01*
X0244300Y0273612D01*
X0244300Y0272403D02*
X0308100Y0272403D01*
X0308100Y0270004D02*
X0243976Y0270004D01*
X0242647Y0267606D02*
X0308100Y0267606D01*
X0308100Y0265207D02*
X0243639Y0265207D01*
X0244300Y0262809D02*
X0308100Y0262809D01*
X0308100Y0260410D02*
X0244144Y0260410D01*
X0243053Y0258012D02*
X0308100Y0258012D01*
X0308419Y0255613D02*
X0243471Y0255613D01*
X0244300Y0253215D02*
X0310100Y0253215D01*
X0310100Y0250816D02*
X0244300Y0250816D01*
X0243318Y0248418D02*
X0311082Y0248418D01*
X0311097Y0246019D02*
X0243303Y0246019D01*
X0244296Y0243621D02*
X0310104Y0243621D01*
X0310100Y0241222D02*
X0244300Y0241222D01*
X0243487Y0238824D02*
X0310913Y0238824D01*
X0312934Y0236425D02*
X0241466Y0236425D01*
X0232934Y0236425D02*
X0207224Y0236425D01*
X0209622Y0238824D02*
X0230913Y0238824D01*
X0230100Y0241222D02*
X0212021Y0241222D01*
X0214419Y0243621D02*
X0230104Y0243621D01*
X0231097Y0246019D02*
X0216818Y0246019D01*
X0219216Y0248418D02*
X0231082Y0248418D01*
X0230100Y0250816D02*
X0221615Y0250816D01*
X0224013Y0253215D02*
X0230100Y0253215D01*
X0230929Y0255613D02*
X0226412Y0255613D01*
X0228810Y0258012D02*
X0231347Y0258012D01*
X0224409Y0265207D02*
X0216006Y0265207D01*
X0213607Y0262809D02*
X0222011Y0262809D01*
X0219612Y0260410D02*
X0211209Y0260410D01*
X0208810Y0258012D02*
X0217214Y0258012D01*
X0214815Y0255613D02*
X0206412Y0255613D01*
X0204013Y0253215D02*
X0212417Y0253215D01*
X0210018Y0250816D02*
X0201615Y0250816D01*
X0199216Y0248418D02*
X0207620Y0248418D01*
X0205221Y0246019D02*
X0196818Y0246019D01*
X0194419Y0243621D02*
X0202823Y0243621D01*
X0200424Y0241222D02*
X0192021Y0241222D01*
X0189622Y0238824D02*
X0198026Y0238824D01*
X0195627Y0236425D02*
X0187224Y0236425D01*
X0184825Y0234027D02*
X0193229Y0234027D01*
X0190830Y0231628D02*
X0182427Y0231628D01*
X0180028Y0229230D02*
X0188432Y0229230D01*
X0186033Y0226831D02*
X0177630Y0226831D01*
X0175231Y0224433D02*
X0183634Y0224433D01*
X0181236Y0222034D02*
X0172833Y0222034D01*
X0170434Y0219636D02*
X0178837Y0219636D01*
X0176439Y0217237D02*
X0168035Y0217237D01*
X0165637Y0214839D02*
X0174040Y0214839D01*
X0171642Y0212440D02*
X0163238Y0212440D01*
X0160840Y0210042D02*
X0169243Y0210042D01*
X0166845Y0207643D02*
X0158441Y0207643D01*
X0156043Y0205245D02*
X0164446Y0205245D01*
X0162048Y0202846D02*
X0153644Y0202846D01*
X0151246Y0200448D02*
X0159649Y0200448D01*
X0157251Y0198049D02*
X0148847Y0198049D01*
X0146449Y0195651D02*
X0154852Y0195651D01*
X0152454Y0193252D02*
X0144050Y0193252D01*
X0141652Y0190854D02*
X0150055Y0190854D01*
X0147657Y0188455D02*
X0139253Y0188455D01*
X0136855Y0186057D02*
X0145258Y0186057D01*
X0141167Y0183658D02*
X0134456Y0183658D01*
X0132058Y0181260D02*
X0139900Y0181260D01*
X0139900Y0178861D02*
X0129659Y0178861D01*
X0127261Y0176463D02*
X0139900Y0176463D01*
X0139900Y0174064D02*
X0126300Y0174064D01*
X0126300Y0171666D02*
X0140363Y0171666D01*
X0140155Y0169267D02*
X0126300Y0169267D01*
X0126300Y0166868D02*
X0139900Y0166868D01*
X0140429Y0164470D02*
X0126300Y0164470D01*
X0126300Y0162071D02*
X0142005Y0162071D01*
X0152395Y0162071D02*
X0479457Y0162071D01*
X0480045Y0164470D02*
X0153971Y0164470D01*
X0154500Y0176463D02*
X0239386Y0176463D01*
X0240739Y0176100D02*
X0243661Y0176100D01*
X0246484Y0176856D01*
X0249016Y0178318D01*
X0251082Y0180384D01*
X0252544Y0182916D01*
X0253300Y0185739D01*
X0253300Y0188661D01*
X0252544Y0191484D01*
X0251082Y0194016D01*
X0249016Y0196082D01*
X0246484Y0197544D01*
X0243661Y0198300D01*
X0240739Y0198300D01*
X0237916Y0197544D01*
X0235384Y0196082D01*
X0233318Y0194016D01*
X0231856Y0191484D01*
X0231100Y0188661D01*
X0231100Y0185739D01*
X0231856Y0182916D01*
X0233318Y0180384D01*
X0235384Y0178318D01*
X0237916Y0176856D01*
X0240739Y0176100D01*
X0245014Y0176463D02*
X0309386Y0176463D01*
X0304841Y0178861D02*
X0249559Y0178861D01*
X0251587Y0181260D02*
X0302813Y0181260D01*
X0301657Y0183658D02*
X0252742Y0183658D01*
X0253300Y0186057D02*
X0301100Y0186057D01*
X0301100Y0188455D02*
X0253300Y0188455D01*
X0252713Y0190854D02*
X0301687Y0190854D01*
X0302877Y0193252D02*
X0251523Y0193252D01*
X0249447Y0195651D02*
X0304953Y0195651D01*
X0309802Y0198049D02*
X0244598Y0198049D01*
X0239802Y0198049D02*
X0168847Y0198049D01*
X0166449Y0195651D02*
X0234953Y0195651D01*
X0232877Y0193252D02*
X0164050Y0193252D01*
X0161652Y0190854D02*
X0231687Y0190854D01*
X0231100Y0188455D02*
X0159253Y0188455D01*
X0156855Y0186057D02*
X0231100Y0186057D01*
X0231657Y0183658D02*
X0154456Y0183658D01*
X0154500Y0181260D02*
X0232813Y0181260D01*
X0234841Y0178861D02*
X0154500Y0178861D01*
X0171246Y0200448D02*
X0310241Y0200448D01*
X0310100Y0202846D02*
X0173644Y0202846D01*
X0176043Y0205245D02*
X0310776Y0205245D01*
X0311716Y0207643D02*
X0178441Y0207643D01*
X0180840Y0210042D02*
X0203560Y0210042D01*
X0201162Y0212440D02*
X0183238Y0212440D01*
X0185637Y0214839D02*
X0198763Y0214839D01*
X0196365Y0217237D02*
X0188035Y0217237D01*
X0190434Y0219636D02*
X0192293Y0219636D01*
X0200766Y0224433D02*
X0310440Y0224433D01*
X0310100Y0222034D02*
X0203164Y0222034D01*
X0205563Y0219636D02*
X0310577Y0219636D01*
X0312122Y0217237D02*
X0207961Y0217237D01*
X0199879Y0226831D02*
X0311790Y0226831D01*
X0312316Y0229230D02*
X0200028Y0229230D01*
X0202427Y0231628D02*
X0311519Y0231628D01*
X0311800Y0234027D02*
X0204825Y0234027D01*
X0170127Y0243621D02*
X0065775Y0243621D01*
X0052200Y0241222D02*
X0052200Y0241222D01*
X0052200Y0238824D02*
X0052200Y0238824D01*
X0052200Y0236425D02*
X0052200Y0236425D01*
X0052200Y0234027D02*
X0052200Y0234027D01*
X0052200Y0231628D02*
X0052200Y0231628D01*
X0052200Y0229230D02*
X0052200Y0229230D01*
X0052200Y0226831D02*
X0052200Y0226831D01*
X0052200Y0224433D02*
X0052200Y0224433D01*
X0052200Y0222034D02*
X0052200Y0222034D01*
X0052200Y0219636D02*
X0052200Y0219636D01*
X0052200Y0217237D02*
X0052200Y0217237D01*
X0052200Y0214839D02*
X0052200Y0214839D01*
X0052200Y0212440D02*
X0052200Y0212440D01*
X0052200Y0210042D02*
X0052200Y0210042D01*
X0052200Y0207643D02*
X0052200Y0207643D01*
X0052200Y0205245D02*
X0052200Y0205245D01*
X0052200Y0202846D02*
X0052200Y0202846D01*
X0052200Y0200448D02*
X0052200Y0200448D01*
X0052200Y0198049D02*
X0052200Y0198049D01*
X0052200Y0195651D02*
X0052200Y0195651D01*
X0052200Y0193252D02*
X0052200Y0193252D01*
X0052200Y0190854D02*
X0052200Y0190854D01*
X0052200Y0188455D02*
X0052200Y0188455D01*
X0052200Y0186057D02*
X0052200Y0186057D01*
X0052200Y0183658D02*
X0052200Y0183658D01*
X0052200Y0181260D02*
X0052200Y0181260D01*
X0052200Y0178861D02*
X0052200Y0178861D01*
X0052200Y0176463D02*
X0052200Y0176463D01*
X0052200Y0174064D02*
X0052200Y0174064D01*
X0052200Y0171666D02*
X0052200Y0171666D01*
X0052200Y0169267D02*
X0052200Y0169267D01*
X0052200Y0166868D02*
X0052200Y0166868D01*
X0052200Y0164470D02*
X0052200Y0164470D01*
X0052200Y0162071D02*
X0052200Y0162071D01*
X0055131Y0162071D02*
X0057005Y0162071D01*
X0045233Y0152477D02*
X0118100Y0152477D01*
X0118100Y0150079D02*
X0047476Y0150079D01*
X0049720Y0147680D02*
X0086009Y0147680D01*
X0083808Y0145282D02*
X0051963Y0145282D01*
X0054207Y0142883D02*
X0083057Y0142883D01*
X0083242Y0140485D02*
X0056450Y0140485D01*
X0058694Y0138086D02*
X0084531Y0138086D01*
X0083976Y0135688D02*
X0060937Y0135688D01*
X0063180Y0133289D02*
X0083057Y0133289D01*
X0083074Y0130891D02*
X0065424Y0130891D01*
X0067667Y0128492D02*
X0084125Y0128492D01*
X0086329Y0126094D02*
X0069351Y0126094D01*
X0071121Y0123695D02*
X0084687Y0123695D01*
X0084457Y0122200D02*
X0092200Y0122200D01*
X0092200Y0122200D01*
X0092200Y0122200D01*
X0084457Y0122200D01*
X0084538Y0121297D02*
X0072446Y0121297D01*
X0073771Y0118898D02*
X0085699Y0118898D01*
X0092200Y0118898D02*
X0092200Y0118898D01*
X0092200Y0121297D02*
X0092200Y0121297D01*
X0101343Y0133289D02*
X0118191Y0133289D01*
X0116765Y0135688D02*
X0100424Y0135688D01*
X0099869Y0138086D02*
X0116600Y0138086D01*
X0117565Y0140485D02*
X0101158Y0140485D01*
X0101343Y0142883D02*
X0118100Y0142883D01*
X0118100Y0145282D02*
X0100592Y0145282D01*
X0098391Y0147680D02*
X0118100Y0147680D01*
X0118100Y0154876D02*
X0044008Y0154876D01*
X0042786Y0157274D02*
X0118100Y0157274D01*
X0126300Y0157274D02*
X0480413Y0157274D01*
X0480096Y0159673D02*
X0126300Y0159673D01*
X0126300Y0154876D02*
X0478608Y0154876D01*
X0478057Y0152477D02*
X0126300Y0152477D01*
X0126300Y0150079D02*
X0478443Y0150079D01*
X0480016Y0147680D02*
X0126300Y0147680D01*
X0153643Y0138086D02*
X0162850Y0138086D01*
X0163126Y0138298D02*
X0162364Y0137714D01*
X0161686Y0137036D01*
X0161102Y0136274D01*
X0160623Y0135444D01*
X0160255Y0134557D01*
X0160007Y0133631D01*
X0159882Y0132680D01*
X0159882Y0132575D01*
X0166825Y0132575D01*
X0166825Y0139518D01*
X0166720Y0139518D01*
X0165769Y0139393D01*
X0164843Y0139145D01*
X0163956Y0138777D01*
X0163126Y0138298D01*
X0160763Y0135688D02*
X0155192Y0135688D01*
X0155918Y0133289D02*
X0159962Y0133289D01*
X0159882Y0131825D02*
X0159882Y0131720D01*
X0160007Y0130769D01*
X0160255Y0129843D01*
X0160623Y0128956D01*
X0161102Y0128126D01*
X0161686Y0127364D01*
X0162364Y0126686D01*
X0163126Y0126102D01*
X0163956Y0125623D01*
X0164843Y0125255D01*
X0165769Y0125007D01*
X0166720Y0124882D01*
X0166825Y0124882D01*
X0166825Y0131825D01*
X0167575Y0131825D01*
X0167575Y0132575D01*
X0174518Y0132575D01*
X0174518Y0132680D01*
X0174393Y0133631D01*
X0174145Y0134557D01*
X0173777Y0135444D01*
X0173298Y0136274D01*
X0172714Y0137036D01*
X0172036Y0137714D01*
X0171274Y0138298D01*
X0170444Y0138777D01*
X0169557Y0139145D01*
X0168631Y0139393D01*
X0167680Y0139518D01*
X0167575Y0139518D01*
X0167575Y0132575D01*
X0166825Y0132575D01*
X0166825Y0131825D01*
X0159882Y0131825D01*
X0159991Y0130891D02*
X0155918Y0130891D01*
X0155101Y0128492D02*
X0160890Y0128492D01*
X0163140Y0126094D02*
X0153423Y0126094D01*
X0166825Y0126094D02*
X0167575Y0126094D01*
X0167575Y0124882D02*
X0167680Y0124882D01*
X0168631Y0125007D01*
X0169557Y0125255D01*
X0170444Y0125623D01*
X0171274Y0126102D01*
X0172036Y0126686D01*
X0172714Y0127364D01*
X0173298Y0128126D01*
X0173777Y0128956D01*
X0174145Y0129843D01*
X0174393Y0130769D01*
X0174518Y0131720D01*
X0174518Y0131825D01*
X0167575Y0131825D01*
X0167575Y0124882D01*
X0167575Y0128492D02*
X0166825Y0128492D01*
X0166825Y0130891D02*
X0167575Y0130891D01*
X0167575Y0133289D02*
X0166825Y0133289D01*
X0166825Y0135688D02*
X0167575Y0135688D01*
X0167575Y0138086D02*
X0166825Y0138086D01*
X0171550Y0138086D02*
X0495706Y0138086D01*
X0493463Y0135688D02*
X0173637Y0135688D01*
X0174438Y0133289D02*
X0491220Y0133289D01*
X0488976Y0130891D02*
X0174409Y0130891D01*
X0173510Y0128492D02*
X0486733Y0128492D01*
X0485049Y0126094D02*
X0467962Y0126094D01*
X0468210Y0125913D02*
X0467577Y0126373D01*
X0466880Y0126729D01*
X0466136Y0126970D01*
X0465363Y0127093D01*
X0462200Y0127093D01*
X0462200Y0122121D01*
X0454457Y0122121D01*
X0454457Y0121730D01*
X0454579Y0120957D01*
X0454821Y0120213D01*
X0455176Y0119516D01*
X0455636Y0118882D01*
X0456190Y0118329D01*
X0456624Y0118014D01*
X0455819Y0117680D01*
X0454027Y0115888D01*
X0453057Y0113546D01*
X0453057Y0111011D01*
X0454027Y0108669D01*
X0455819Y0106877D01*
X0458161Y0105907D01*
X0466239Y0105907D01*
X0468581Y0106877D01*
X0470373Y0108669D01*
X0471343Y0111011D01*
X0471343Y0113546D01*
X0470373Y0115888D01*
X0468581Y0117680D01*
X0467776Y0118014D01*
X0468210Y0118329D01*
X0468764Y0118882D01*
X0469224Y0119516D01*
X0469579Y0120213D01*
X0469821Y0120957D01*
X0469943Y0121730D01*
X0469943Y0122121D01*
X0462200Y0122121D01*
X0462200Y0122121D01*
X0462200Y0122121D01*
X0469943Y0122121D01*
X0469943Y0122513D01*
X0469821Y0123285D01*
X0469579Y0124030D01*
X0469224Y0124727D01*
X0468764Y0125360D01*
X0468210Y0125913D01*
X0469688Y0123695D02*
X0483279Y0123695D01*
X0481954Y0121297D02*
X0469875Y0121297D01*
X0468775Y0118898D02*
X0480629Y0118898D01*
X0479305Y0116500D02*
X0469762Y0116500D01*
X0471113Y0114101D02*
X0477980Y0114101D01*
X0476655Y0111703D02*
X0471343Y0111703D01*
X0470636Y0109304D02*
X0475330Y0109304D01*
X0474005Y0106906D02*
X0468609Y0106906D01*
X0467289Y0094913D02*
X0402941Y0094913D01*
X0402603Y0095072D02*
X0402603Y0095072D01*
X0396792Y0096180D02*
X0396792Y0096180D01*
X0390888Y0095809D02*
X0390888Y0095809D01*
X0403764Y0109304D02*
X0243870Y0109304D01*
X0244550Y0109984D02*
X0241416Y0106850D01*
X0239200Y0106850D01*
X0239200Y0112200D01*
X0244550Y0112200D01*
X0244550Y0114416D01*
X0241416Y0117550D01*
X0239200Y0117550D01*
X0239200Y0112200D01*
X0239200Y0112200D01*
X0239200Y0112200D01*
X0244550Y0112200D01*
X0244550Y0109984D01*
X0244550Y0111703D02*
X0403057Y0111703D01*
X0403287Y0114101D02*
X0244550Y0114101D01*
X0242466Y0116500D02*
X0404638Y0116500D01*
X0405625Y0118898D02*
X0226668Y0118898D01*
X0230446Y0116500D02*
X0235934Y0116500D01*
X0236984Y0117550D02*
X0233850Y0114416D01*
X0233850Y0112200D01*
X0239200Y0112200D01*
X0239200Y0112200D01*
X0239200Y0112200D01*
X0239200Y0117550D01*
X0236984Y0117550D01*
X0239200Y0116500D02*
X0239200Y0116500D01*
X0239200Y0114101D02*
X0239200Y0114101D01*
X0239200Y0112200D02*
X0233850Y0112200D01*
X0233850Y0109984D01*
X0236984Y0106850D01*
X0239200Y0106850D01*
X0239200Y0112200D01*
X0239200Y0111703D02*
X0239200Y0111703D01*
X0239200Y0109304D02*
X0239200Y0109304D01*
X0239200Y0106906D02*
X0239200Y0106906D01*
X0241472Y0106906D02*
X0405791Y0106906D01*
X0418609Y0106906D02*
X0455791Y0106906D01*
X0453764Y0109304D02*
X0420636Y0109304D01*
X0421343Y0111703D02*
X0453057Y0111703D01*
X0453287Y0114101D02*
X0421113Y0114101D01*
X0419762Y0116500D02*
X0454638Y0116500D01*
X0455625Y0118898D02*
X0418775Y0118898D01*
X0419875Y0121297D02*
X0454525Y0121297D01*
X0454457Y0122121D02*
X0462200Y0122121D01*
X0462200Y0127093D01*
X0459037Y0127093D01*
X0458264Y0126970D01*
X0457520Y0126729D01*
X0456823Y0126373D01*
X0456190Y0125913D01*
X0455636Y0125360D01*
X0455176Y0124727D01*
X0454821Y0124030D01*
X0454579Y0123285D01*
X0454457Y0122513D01*
X0454457Y0122121D01*
X0454712Y0123695D02*
X0419688Y0123695D01*
X0417962Y0126094D02*
X0456438Y0126094D01*
X0462200Y0126094D02*
X0462200Y0126094D01*
X0462200Y0123695D02*
X0462200Y0123695D01*
X0462200Y0122121D02*
X0462200Y0122121D01*
X0464890Y0092515D02*
X0408002Y0092515D01*
X0407956Y0092553D02*
X0407956Y0092553D01*
X0410902Y0090116D02*
X0462492Y0090116D01*
X0460093Y0087718D02*
X0413287Y0087718D01*
X0415030Y0085319D02*
X0456410Y0085319D01*
X0452068Y0082921D02*
X0416417Y0082921D01*
X0415991Y0083996D02*
X0415991Y0083996D01*
X0417367Y0080522D02*
X0447725Y0080522D01*
X0443383Y0078124D02*
X0418216Y0078124D01*
X0418519Y0075725D02*
X0439040Y0075725D01*
X0434698Y0073327D02*
X0418822Y0073327D01*
X0418696Y0070928D02*
X0430355Y0070928D01*
X0427175Y0068530D02*
X0418393Y0068530D01*
X0418169Y0066758D02*
X0418169Y0066758D01*
X0417921Y0066131D02*
X0424265Y0066131D01*
X0421701Y0063732D02*
X0416971Y0063732D01*
X0416021Y0061334D02*
X0419137Y0061334D01*
X0415991Y0061258D02*
X0415991Y0061258D01*
X0416572Y0058935D02*
X0414304Y0058935D01*
X0414008Y0056537D02*
X0412561Y0056537D01*
X0412514Y0056472D02*
X0412514Y0056472D01*
X0411444Y0054138D02*
X0409693Y0054138D01*
X0407956Y0052701D02*
X0407956Y0052701D01*
X0408879Y0051740D02*
X0405913Y0051740D01*
X0406315Y0049341D02*
X0398196Y0049341D01*
X0396792Y0049074D02*
X0396792Y0049074D01*
X0400576Y0044544D02*
X0242093Y0044544D01*
X0242093Y0042146D02*
X0395869Y0042146D01*
X0390502Y0039747D02*
X0242093Y0039747D01*
X0241642Y0037349D02*
X0378062Y0037349D01*
X0365623Y0034950D02*
X0239284Y0034950D01*
X0241697Y0046943D02*
X0403751Y0046943D01*
X0402603Y0050182D02*
X0402603Y0050182D01*
X0355827Y0032552D02*
X0198573Y0032552D01*
X0204399Y0030153D02*
X0350001Y0030153D01*
X0344878Y0027755D02*
X0209522Y0027755D01*
X0214646Y0025356D02*
X0339754Y0025356D01*
X0334631Y0022958D02*
X0219769Y0022958D01*
X0224892Y0020559D02*
X0329508Y0020559D01*
X0324384Y0018161D02*
X0297070Y0018161D01*
X0257330Y0018161D02*
X0230016Y0018161D01*
X0147200Y0068530D02*
X0147200Y0068530D01*
X0147200Y0070928D02*
X0147200Y0070928D01*
X0171260Y0126094D02*
X0406438Y0126094D01*
X0412200Y0126094D02*
X0412200Y0126094D01*
X0412200Y0123695D02*
X0412200Y0123695D01*
X0412200Y0122121D02*
X0412200Y0122121D01*
X0322241Y0277200D02*
X0323219Y0278178D01*
X0324300Y0280788D01*
X0324300Y0283612D01*
X0323219Y0286222D01*
X0322241Y0287200D01*
X0323219Y0288178D01*
X0324300Y0290788D01*
X0324300Y0293612D01*
X0323219Y0296222D01*
X0322241Y0297200D01*
X0323219Y0298178D01*
X0324300Y0300788D01*
X0324300Y0303612D01*
X0323219Y0306222D01*
X0322241Y0307200D01*
X0323219Y0308178D01*
X0324300Y0310788D01*
X0324300Y0313612D01*
X0323219Y0316222D01*
X0322241Y0317200D01*
X0323219Y0318178D01*
X0324300Y0320788D01*
X0324300Y0323612D01*
X0323219Y0326222D01*
X0322241Y0327200D01*
X0323219Y0328178D01*
X0324300Y0330788D01*
X0324300Y0333612D01*
X0323219Y0336222D01*
X0322241Y0337200D01*
X0323219Y0338178D01*
X0324300Y0340788D01*
X0324300Y0343612D01*
X0323219Y0346222D01*
X0322241Y0347200D01*
X0323219Y0348178D01*
X0324300Y0350788D01*
X0324300Y0353612D01*
X0323219Y0356222D01*
X0321222Y0358219D01*
X0318692Y0359267D01*
X0320362Y0360937D01*
X0321705Y0363263D01*
X0322400Y0365857D01*
X0322400Y0368543D01*
X0321705Y0371137D01*
X0320362Y0373463D01*
X0318463Y0375362D01*
X0316137Y0376705D01*
X0313543Y0377400D01*
X0310857Y0377400D01*
X0308263Y0376705D01*
X0305937Y0375362D01*
X0304038Y0373463D01*
X0302695Y0371137D01*
X0302000Y0368543D01*
X0302000Y0365857D01*
X0302695Y0363263D01*
X0304038Y0360937D01*
X0305937Y0359038D01*
X0308263Y0357695D01*
X0310857Y0357000D01*
X0311959Y0357000D01*
X0311181Y0356222D01*
X0310100Y0353612D01*
X0310100Y0350788D01*
X0311181Y0348178D01*
X0312159Y0347200D01*
X0311181Y0346222D01*
X0310100Y0343612D01*
X0310100Y0340788D01*
X0311181Y0338178D01*
X0312159Y0337200D01*
X0311181Y0336222D01*
X0310100Y0333612D01*
X0310100Y0330788D01*
X0311181Y0328178D01*
X0312159Y0327200D01*
X0311181Y0326222D01*
X0310100Y0323612D01*
X0310100Y0320788D01*
X0310588Y0319611D01*
X0219522Y0410676D01*
X0218016Y0411300D01*
X0206020Y0411300D01*
X0205372Y0411947D01*
X0203314Y0412800D01*
X0201086Y0412800D01*
X0199028Y0411947D01*
X0197453Y0410372D01*
X0196600Y0408314D01*
X0196600Y0406086D01*
X0197453Y0404028D01*
X0199028Y0402453D01*
X0201086Y0401600D01*
X0203314Y0401600D01*
X0205372Y0402453D01*
X0206020Y0403100D01*
X0215502Y0403100D01*
X0241202Y0377400D01*
X0240857Y0377400D01*
X0238263Y0376705D01*
X0235937Y0375362D01*
X0234038Y0373463D01*
X0232695Y0371137D01*
X0232000Y0368543D01*
X0232000Y0365857D01*
X0232695Y0363263D01*
X0234038Y0360937D01*
X0235708Y0359267D01*
X0233178Y0358219D01*
X0231181Y0356222D01*
X0230100Y0353612D01*
X0230100Y0350898D01*
X0163724Y0284522D01*
X0165996Y0286794D02*
X0062363Y0286794D01*
X0061208Y0289193D02*
X0168394Y0289193D01*
X0170793Y0291591D02*
X0059465Y0291591D01*
X0057416Y0293990D02*
X0173191Y0293990D01*
X0175590Y0296388D02*
X0054517Y0296388D01*
X0050096Y0298787D02*
X0177988Y0298787D01*
X0180387Y0301185D02*
X0017649Y0301185D01*
X0017947Y0298787D02*
X0031647Y0298787D01*
X0027518Y0296388D02*
X0018246Y0296388D01*
X0018544Y0293990D02*
X0024627Y0293990D01*
X0022374Y0291591D02*
X0018842Y0291591D01*
X0019140Y0289193D02*
X0020854Y0289193D01*
X0019535Y0286794D02*
X0019438Y0286794D01*
X0017351Y0303584D02*
X0182785Y0303584D01*
X0185184Y0305982D02*
X0017053Y0305982D01*
X0016755Y0308381D02*
X0187582Y0308381D01*
X0189981Y0310779D02*
X0065775Y0310779D01*
X0066335Y0311011D02*
X0068389Y0313065D01*
X0069500Y0315748D01*
X0069500Y0318652D01*
X0068389Y0321335D01*
X0067524Y0322200D01*
X0068389Y0323065D01*
X0069500Y0325748D01*
X0069500Y0328652D01*
X0068389Y0331335D01*
X0067524Y0332200D01*
X0068389Y0333065D01*
X0069500Y0335748D01*
X0069500Y0338652D01*
X0068389Y0341335D01*
X0067524Y0342200D01*
X0068389Y0343065D01*
X0069500Y0345748D01*
X0069500Y0348652D01*
X0068389Y0351335D01*
X0067524Y0352200D01*
X0068389Y0353065D01*
X0069500Y0355748D01*
X0069500Y0358652D01*
X0068389Y0361335D01*
X0067524Y0362200D01*
X0068389Y0363065D01*
X0069500Y0365748D01*
X0069500Y0368652D01*
X0068389Y0371335D01*
X0067524Y0372200D01*
X0068389Y0373065D01*
X0069500Y0375748D01*
X0069500Y0378652D01*
X0068389Y0381335D01*
X0067524Y0382200D01*
X0068389Y0383065D01*
X0069500Y0385748D01*
X0069500Y0388652D01*
X0068389Y0391335D01*
X0066335Y0393389D01*
X0063652Y0394500D01*
X0060748Y0394500D01*
X0058065Y0393389D01*
X0056210Y0391534D01*
X0056044Y0391700D01*
X0055292Y0392246D01*
X0054465Y0392668D01*
X0053582Y0392955D01*
X0052664Y0393100D01*
X0052200Y0393100D01*
X0052200Y0387200D01*
X0052200Y0387200D01*
X0052200Y0387200D01*
X0046300Y0387200D01*
X0046300Y0387664D01*
X0046445Y0388582D01*
X0046732Y0389465D01*
X0047154Y0390292D01*
X0047700Y0391044D01*
X0048356Y0391700D01*
X0049108Y0392246D01*
X0049935Y0392668D01*
X0050818Y0392955D01*
X0051736Y0393100D01*
X0052200Y0393100D01*
X0052200Y0387200D01*
X0052200Y0381300D01*
X0052200Y0377200D01*
X0052200Y0377200D01*
X0052200Y0377200D01*
X0046300Y0377200D01*
X0046300Y0377664D01*
X0046445Y0378582D01*
X0046732Y0379465D01*
X0047154Y0380292D01*
X0047700Y0381044D01*
X0048356Y0381700D01*
X0049044Y0382200D01*
X0048356Y0382700D01*
X0047700Y0383356D01*
X0047154Y0384108D01*
X0046732Y0384935D01*
X0046445Y0385818D01*
X0046300Y0386736D01*
X0046300Y0387200D01*
X0052200Y0387200D01*
X0052200Y0387200D01*
X0052200Y0377200D01*
X0052200Y0371300D01*
X0052200Y0367200D01*
X0052200Y0367200D01*
X0052200Y0367200D01*
X0046300Y0367200D01*
X0046300Y0367664D01*
X0046445Y0368582D01*
X0046732Y0369465D01*
X0047154Y0370292D01*
X0047700Y0371044D01*
X0048356Y0371700D01*
X0049044Y0372200D01*
X0048356Y0372700D01*
X0047700Y0373356D01*
X0047154Y0374108D01*
X0046732Y0374935D01*
X0046445Y0375818D01*
X0046300Y0376736D01*
X0046300Y0377200D01*
X0052200Y0377200D01*
X0052200Y0377200D01*
X0052200Y0367200D01*
X0052200Y0361300D01*
X0052200Y0357200D01*
X0052200Y0357200D01*
X0052200Y0357200D01*
X0046300Y0357200D01*
X0046300Y0357664D01*
X0046445Y0358582D01*
X0046732Y0359465D01*
X0047154Y0360292D01*
X0047700Y0361044D01*
X0048356Y0361700D01*
X0049044Y0362200D01*
X0048356Y0362700D01*
X0047700Y0363356D01*
X0047154Y0364108D01*
X0046732Y0364935D01*
X0046445Y0365818D01*
X0046300Y0366736D01*
X0046300Y0367200D01*
X0052200Y0367200D01*
X0052200Y0367200D01*
X0052200Y0357200D01*
X0052200Y0351300D01*
X0052200Y0347200D01*
X0052200Y0347200D01*
X0052200Y0347200D01*
X0046300Y0347200D01*
X0046300Y0347664D01*
X0046445Y0348582D01*
X0046732Y0349465D01*
X0047154Y0350292D01*
X0047700Y0351044D01*
X0048356Y0351700D01*
X0049044Y0352200D01*
X0048356Y0352700D01*
X0047700Y0353356D01*
X0047154Y0354108D01*
X0046732Y0354935D01*
X0046445Y0355818D01*
X0046300Y0356736D01*
X0046300Y0357200D01*
X0052200Y0357200D01*
X0052200Y0357200D01*
X0052200Y0347200D01*
X0052200Y0343100D01*
X0052200Y0337200D01*
X0052200Y0337200D01*
X0052200Y0337200D01*
X0046300Y0337200D01*
X0046300Y0337664D01*
X0046445Y0338582D01*
X0046732Y0339465D01*
X0047154Y0340292D01*
X0047700Y0341044D01*
X0048356Y0341700D01*
X0049044Y0342200D01*
X0048356Y0342700D01*
X0047700Y0343356D01*
X0047154Y0344108D01*
X0046732Y0344935D01*
X0046445Y0345818D01*
X0046300Y0346736D01*
X0046300Y0347200D01*
X0052200Y0347200D01*
X0052200Y0347200D01*
X0052200Y0337200D01*
X0052200Y0331300D01*
X0052200Y0327200D01*
X0052200Y0327200D01*
X0052200Y0327200D01*
X0046300Y0327200D01*
X0046300Y0327664D01*
X0046445Y0328582D01*
X0046732Y0329465D01*
X0047154Y0330292D01*
X0047700Y0331044D01*
X0048356Y0331700D01*
X0049044Y0332200D01*
X0048356Y0332700D01*
X0047700Y0333356D01*
X0047154Y0334108D01*
X0046732Y0334935D01*
X0046445Y0335818D01*
X0046300Y0336736D01*
X0046300Y0337200D01*
X0052200Y0337200D01*
X0052200Y0337200D01*
X0052200Y0327200D01*
X0052200Y0321300D01*
X0052200Y0317200D01*
X0052200Y0317200D01*
X0052200Y0317200D01*
X0046300Y0317200D01*
X0046300Y0317664D01*
X0046445Y0318582D01*
X0046732Y0319465D01*
X0047154Y0320292D01*
X0047700Y0321044D01*
X0048356Y0321700D01*
X0049044Y0322200D01*
X0048356Y0322700D01*
X0047700Y0323356D01*
X0047154Y0324108D01*
X0046732Y0324935D01*
X0046445Y0325818D01*
X0046300Y0326736D01*
X0046300Y0327200D01*
X0052200Y0327200D01*
X0052200Y0327200D01*
X0052200Y0317200D01*
X0052200Y0311300D01*
X0052664Y0311300D01*
X0053582Y0311445D01*
X0054465Y0311732D01*
X0055292Y0312154D01*
X0056044Y0312700D01*
X0056210Y0312866D01*
X0058065Y0311011D01*
X0060748Y0309900D01*
X0063652Y0309900D01*
X0066335Y0311011D01*
X0068435Y0313178D02*
X0192379Y0313178D01*
X0194778Y0315576D02*
X0069429Y0315576D01*
X0069500Y0317975D02*
X0197176Y0317975D01*
X0199575Y0320373D02*
X0068787Y0320373D01*
X0068095Y0322772D02*
X0201973Y0322772D01*
X0204372Y0325170D02*
X0069261Y0325170D01*
X0069500Y0327569D02*
X0206770Y0327569D01*
X0209169Y0329967D02*
X0068955Y0329967D01*
X0067690Y0332366D02*
X0211568Y0332366D01*
X0213966Y0334764D02*
X0069093Y0334764D01*
X0069500Y0337163D02*
X0216365Y0337163D01*
X0218763Y0339561D02*
X0069123Y0339561D01*
X0067764Y0341960D02*
X0221162Y0341960D01*
X0223560Y0344358D02*
X0068924Y0344358D01*
X0069500Y0346757D02*
X0225959Y0346757D01*
X0228357Y0349155D02*
X0069292Y0349155D01*
X0068170Y0351554D02*
X0230100Y0351554D01*
X0230241Y0353952D02*
X0068756Y0353952D01*
X0069500Y0356351D02*
X0231310Y0356351D01*
X0234458Y0358749D02*
X0069460Y0358749D01*
X0068466Y0361148D02*
X0233916Y0361148D01*
X0232619Y0363546D02*
X0068588Y0363546D01*
X0069500Y0365945D02*
X0232000Y0365945D01*
X0232000Y0368343D02*
X0069500Y0368343D01*
X0068634Y0370742D02*
X0232589Y0370742D01*
X0233852Y0373140D02*
X0068420Y0373140D01*
X0069413Y0375539D02*
X0236244Y0375539D01*
X0240664Y0377937D02*
X0069500Y0377937D01*
X0068802Y0380336D02*
X0238266Y0380336D01*
X0235867Y0382734D02*
X0068058Y0382734D01*
X0069245Y0385133D02*
X0233469Y0385133D01*
X0231070Y0387532D02*
X0069500Y0387532D01*
X0068971Y0389930D02*
X0228672Y0389930D01*
X0226273Y0392329D02*
X0067395Y0392329D01*
X0057005Y0392329D02*
X0055131Y0392329D01*
X0052200Y0392329D02*
X0052200Y0392329D01*
X0052200Y0389930D02*
X0052200Y0389930D01*
X0052200Y0387532D02*
X0052200Y0387532D01*
X0052200Y0385133D02*
X0052200Y0385133D01*
X0052200Y0382734D02*
X0052200Y0382734D01*
X0052200Y0380336D02*
X0052200Y0380336D01*
X0052200Y0377937D02*
X0052200Y0377937D01*
X0052200Y0375539D02*
X0052200Y0375539D01*
X0052200Y0373140D02*
X0052200Y0373140D01*
X0052200Y0370742D02*
X0052200Y0370742D01*
X0052200Y0368343D02*
X0052200Y0368343D01*
X0052200Y0365945D02*
X0052200Y0365945D01*
X0052200Y0363546D02*
X0052200Y0363546D01*
X0052200Y0361148D02*
X0052200Y0361148D01*
X0052200Y0358749D02*
X0052200Y0358749D01*
X0052200Y0356351D02*
X0052200Y0356351D01*
X0052200Y0353952D02*
X0052200Y0353952D01*
X0052200Y0351554D02*
X0052200Y0351554D01*
X0052200Y0349155D02*
X0052200Y0349155D01*
X0052200Y0346757D02*
X0052200Y0346757D01*
X0052200Y0344358D02*
X0052200Y0344358D01*
X0052200Y0341960D02*
X0052200Y0341960D01*
X0052200Y0339561D02*
X0052200Y0339561D01*
X0052200Y0337163D02*
X0052200Y0337163D01*
X0052200Y0334764D02*
X0052200Y0334764D01*
X0052200Y0332366D02*
X0052200Y0332366D01*
X0052200Y0329967D02*
X0052200Y0329967D01*
X0052200Y0327569D02*
X0052200Y0327569D01*
X0052200Y0325170D02*
X0052200Y0325170D01*
X0052200Y0322772D02*
X0052200Y0322772D01*
X0052200Y0320373D02*
X0052200Y0320373D01*
X0052200Y0317975D02*
X0052200Y0317975D01*
X0052200Y0317200D02*
X0046300Y0317200D01*
X0046300Y0316736D01*
X0046445Y0315818D01*
X0046732Y0314935D01*
X0047154Y0314108D01*
X0047700Y0313356D01*
X0048356Y0312700D01*
X0049108Y0312154D01*
X0049935Y0311732D01*
X0050818Y0311445D01*
X0051736Y0311300D01*
X0052200Y0311300D01*
X0052200Y0317200D01*
X0052200Y0317200D01*
X0052200Y0315576D02*
X0052200Y0315576D01*
X0052200Y0313178D02*
X0052200Y0313178D01*
X0047878Y0313178D02*
X0016307Y0313178D01*
X0016456Y0310779D02*
X0058625Y0310779D01*
X0046524Y0315576D02*
X0016687Y0315576D01*
X0017067Y0317975D02*
X0046349Y0317975D01*
X0047213Y0320373D02*
X0017447Y0320373D01*
X0017826Y0322772D02*
X0048284Y0322772D01*
X0046656Y0325170D02*
X0018529Y0325170D01*
X0019652Y0327569D02*
X0046300Y0327569D01*
X0046988Y0329967D02*
X0020774Y0329967D01*
X0021897Y0332366D02*
X0048816Y0332366D01*
X0046819Y0334764D02*
X0023020Y0334764D01*
X0024143Y0337163D02*
X0046300Y0337163D01*
X0046781Y0339561D02*
X0025266Y0339561D01*
X0026389Y0341960D02*
X0048714Y0341960D01*
X0047026Y0344358D02*
X0027512Y0344358D01*
X0028634Y0346757D02*
X0046300Y0346757D01*
X0046632Y0349155D02*
X0029757Y0349155D01*
X0030880Y0351554D02*
X0048210Y0351554D01*
X0047267Y0353952D02*
X0032003Y0353952D01*
X0032722Y0356351D02*
X0046361Y0356351D01*
X0046500Y0358749D02*
X0033514Y0358749D01*
X0034088Y0361148D02*
X0047804Y0361148D01*
X0047562Y0363546D02*
X0034550Y0363546D01*
X0035012Y0365945D02*
X0046425Y0365945D01*
X0046408Y0368343D02*
X0035475Y0368343D01*
X0035937Y0370742D02*
X0047481Y0370742D01*
X0047916Y0373140D02*
X0036400Y0373140D01*
X0036862Y0375539D02*
X0046536Y0375539D01*
X0046343Y0377937D02*
X0037325Y0377937D01*
X0037787Y0380336D02*
X0047186Y0380336D01*
X0048322Y0382734D02*
X0038250Y0382734D01*
X0038712Y0385133D02*
X0046668Y0385133D01*
X0046300Y0387532D02*
X0039175Y0387532D01*
X0039637Y0389930D02*
X0046969Y0389930D01*
X0049269Y0392329D02*
X0040342Y0392329D01*
X0041564Y0394727D02*
X0223875Y0394727D01*
X0221476Y0397126D02*
X0042786Y0397126D01*
X0044008Y0399524D02*
X0219078Y0399524D01*
X0216679Y0401923D02*
X0204093Y0401923D01*
X0200307Y0401923D02*
X0045233Y0401923D01*
X0047476Y0404321D02*
X0197331Y0404321D01*
X0196600Y0406720D02*
X0049720Y0406720D01*
X0051963Y0409118D02*
X0085522Y0409118D01*
X0085636Y0408961D02*
X0086190Y0408408D01*
X0086823Y0407948D01*
X0087520Y0407593D01*
X0088264Y0407351D01*
X0089037Y0407228D01*
X0092200Y0407228D01*
X0092200Y0412200D01*
X0099943Y0412200D01*
X0092200Y0412200D01*
X0092200Y0412200D01*
X0092200Y0407228D01*
X0095363Y0407228D01*
X0096136Y0407351D01*
X0096880Y0407593D01*
X0097577Y0407948D01*
X0098210Y0408408D01*
X0098764Y0408961D01*
X0099224Y0409594D01*
X0099579Y0410292D01*
X0099821Y0411036D01*
X0099943Y0411809D01*
X0099943Y0412200D01*
X0099943Y0412591D01*
X0099821Y0413364D01*
X0099579Y0414108D01*
X0099224Y0414806D01*
X0098764Y0415439D01*
X0098210Y0415992D01*
X0097638Y0416408D01*
X0098581Y0416798D01*
X0100373Y0418591D01*
X0101343Y0420933D01*
X0101343Y0423467D01*
X0100373Y0425809D01*
X0098983Y0427200D01*
X0100373Y0428591D01*
X0101343Y0430933D01*
X0101343Y0433467D01*
X0100373Y0435809D01*
X0098581Y0437602D01*
X0096239Y0438572D01*
X0088161Y0438572D01*
X0085819Y0437602D01*
X0084027Y0435809D01*
X0083057Y0433467D01*
X0083057Y0430933D01*
X0084027Y0428591D01*
X0085417Y0427200D01*
X0084027Y0425809D01*
X0083057Y0423467D01*
X0083057Y0420933D01*
X0084027Y0418591D01*
X0085819Y0416798D01*
X0086762Y0416408D01*
X0086190Y0415992D01*
X0085636Y0415439D01*
X0085176Y0414806D01*
X0084821Y0414108D01*
X0084579Y0413364D01*
X0084457Y0412591D01*
X0084457Y0412200D01*
X0084457Y0411809D01*
X0084579Y0411036D01*
X0084821Y0410292D01*
X0085176Y0409594D01*
X0085636Y0408961D01*
X0084503Y0411517D02*
X0054207Y0411517D01*
X0056450Y0413915D02*
X0084758Y0413915D01*
X0084457Y0412200D02*
X0092200Y0412200D01*
X0092200Y0412200D01*
X0092200Y0412200D01*
X0084457Y0412200D01*
X0086632Y0416314D02*
X0058694Y0416314D01*
X0060937Y0418712D02*
X0083976Y0418712D01*
X0083057Y0421111D02*
X0063180Y0421111D01*
X0065424Y0423509D02*
X0083074Y0423509D01*
X0084125Y0425908D02*
X0067667Y0425908D01*
X0069351Y0428306D02*
X0084311Y0428306D01*
X0083151Y0430705D02*
X0071121Y0430705D01*
X0072446Y0433103D02*
X0083057Y0433103D01*
X0083899Y0435502D02*
X0073771Y0435502D01*
X0075095Y0437900D02*
X0086540Y0437900D01*
X0077745Y0442697D02*
X0404486Y0442697D01*
X0404457Y0442513D02*
X0404457Y0442121D01*
X0404457Y0441730D01*
X0404579Y0440957D01*
X0404821Y0440213D01*
X0405176Y0439516D01*
X0405636Y0438882D01*
X0406190Y0438329D01*
X0406624Y0438014D01*
X0405819Y0437680D01*
X0404027Y0435888D01*
X0403057Y0433546D01*
X0403057Y0431011D01*
X0404027Y0428669D01*
X0405819Y0426877D01*
X0408161Y0425907D01*
X0416239Y0425907D01*
X0418581Y0426877D01*
X0420373Y0428669D01*
X0421343Y0431011D01*
X0421343Y0433546D01*
X0420373Y0435888D01*
X0418581Y0437680D01*
X0417776Y0438014D01*
X0418210Y0438329D01*
X0418764Y0438882D01*
X0419224Y0439516D01*
X0419579Y0440213D01*
X0419821Y0440957D01*
X0419943Y0441730D01*
X0419943Y0442121D01*
X0412200Y0442121D01*
X0404457Y0442121D01*
X0412200Y0442121D01*
X0412200Y0442121D01*
X0412200Y0442121D01*
X0419943Y0442121D01*
X0419943Y0442513D01*
X0419821Y0443285D01*
X0419579Y0444030D01*
X0419224Y0444727D01*
X0418764Y0445360D01*
X0418210Y0445913D01*
X0417577Y0446373D01*
X0416880Y0446729D01*
X0416136Y0446970D01*
X0415363Y0447093D01*
X0412200Y0447093D01*
X0412200Y0442121D01*
X0412200Y0447093D01*
X0409037Y0447093D01*
X0408264Y0446970D01*
X0407520Y0446729D01*
X0406823Y0446373D01*
X0406190Y0445913D01*
X0405636Y0445360D01*
X0405176Y0444727D01*
X0404821Y0444030D01*
X0404579Y0443285D01*
X0404457Y0442513D01*
X0404793Y0440299D02*
X0076420Y0440299D01*
X0079070Y0445096D02*
X0405444Y0445096D01*
X0412200Y0445096D02*
X0412200Y0445096D01*
X0412200Y0442697D02*
X0412200Y0442697D01*
X0412200Y0442121D02*
X0412200Y0442121D01*
X0418050Y0437900D02*
X0456350Y0437900D01*
X0456624Y0438014D02*
X0455819Y0437680D01*
X0454027Y0435888D01*
X0453057Y0433546D01*
X0453057Y0431011D01*
X0454027Y0428669D01*
X0455819Y0426877D01*
X0458161Y0425907D01*
X0466239Y0425907D01*
X0468581Y0426877D01*
X0470373Y0428669D01*
X0471343Y0431011D01*
X0471343Y0433546D01*
X0470373Y0435888D01*
X0468581Y0437680D01*
X0467776Y0438014D01*
X0468210Y0438329D01*
X0468764Y0438882D01*
X0469224Y0439516D01*
X0469579Y0440213D01*
X0469821Y0440957D01*
X0469943Y0441730D01*
X0469943Y0442121D01*
X0462200Y0442121D01*
X0454457Y0442121D01*
X0454457Y0441730D01*
X0454579Y0440957D01*
X0454821Y0440213D01*
X0455176Y0439516D01*
X0455636Y0438882D01*
X0456190Y0438329D01*
X0456624Y0438014D01*
X0454793Y0440299D02*
X0419607Y0440299D01*
X0419914Y0442697D02*
X0454486Y0442697D01*
X0454457Y0442513D02*
X0454457Y0442121D01*
X0462200Y0442121D01*
X0462200Y0442121D01*
X0462200Y0442121D01*
X0469943Y0442121D01*
X0469943Y0442513D01*
X0469821Y0443285D01*
X0469579Y0444030D01*
X0469224Y0444727D01*
X0468764Y0445360D01*
X0468210Y0445913D01*
X0467577Y0446373D01*
X0466880Y0446729D01*
X0466136Y0446970D01*
X0465363Y0447093D01*
X0462200Y0447093D01*
X0462200Y0442121D01*
X0462200Y0447093D01*
X0459037Y0447093D01*
X0458264Y0446970D01*
X0457520Y0446729D01*
X0456823Y0446373D01*
X0456190Y0445913D01*
X0455636Y0445360D01*
X0455176Y0444727D01*
X0454821Y0444030D01*
X0454579Y0443285D01*
X0454457Y0442513D01*
X0455444Y0445096D02*
X0418956Y0445096D01*
X0420533Y0435502D02*
X0453867Y0435502D01*
X0453057Y0433103D02*
X0421343Y0433103D01*
X0421216Y0430705D02*
X0453184Y0430705D01*
X0454390Y0428306D02*
X0420010Y0428306D01*
X0416241Y0425908D02*
X0458159Y0425908D01*
X0466241Y0425908D02*
X0486733Y0425908D01*
X0485049Y0428306D02*
X0470010Y0428306D01*
X0471216Y0430705D02*
X0483279Y0430705D01*
X0481954Y0433103D02*
X0471343Y0433103D01*
X0470533Y0435502D02*
X0480629Y0435502D01*
X0479305Y0437900D02*
X0468050Y0437900D01*
X0469607Y0440299D02*
X0477980Y0440299D01*
X0476655Y0442697D02*
X0469914Y0442697D01*
X0468956Y0445096D02*
X0475330Y0445096D01*
X0474005Y0447494D02*
X0080395Y0447494D01*
X0081719Y0449893D02*
X0472681Y0449893D01*
X0471356Y0452291D02*
X0083044Y0452291D01*
X0084369Y0454690D02*
X0470031Y0454690D01*
X0468706Y0457088D02*
X0085694Y0457088D01*
X0087111Y0459487D02*
X0140254Y0459487D01*
X0140176Y0459594D02*
X0140636Y0458961D01*
X0141190Y0458408D01*
X0141823Y0457948D01*
X0142520Y0457593D01*
X0143264Y0457351D01*
X0144037Y0457228D01*
X0147200Y0457228D01*
X0150363Y0457228D01*
X0151136Y0457351D01*
X0151880Y0457593D01*
X0152577Y0457948D01*
X0153210Y0458408D01*
X0153764Y0458961D01*
X0154224Y0459594D01*
X0154579Y0460292D01*
X0154821Y0461036D01*
X0154943Y0461809D01*
X0154943Y0462200D01*
X0147200Y0462200D01*
X0147200Y0462200D01*
X0154943Y0462200D01*
X0154943Y0462591D01*
X0154821Y0463364D01*
X0154579Y0464108D01*
X0154224Y0464806D01*
X0153764Y0465439D01*
X0153210Y0465992D01*
X0152638Y0466408D01*
X0153581Y0466798D01*
X0155373Y0468591D01*
X0156343Y0470933D01*
X0156343Y0473467D01*
X0155373Y0475809D01*
X0153983Y0477200D01*
X0155373Y0478591D01*
X0156343Y0480933D01*
X0156343Y0483467D01*
X0155373Y0485809D01*
X0153581Y0487602D01*
X0151239Y0488572D01*
X0143161Y0488572D01*
X0140819Y0487602D01*
X0139027Y0485809D01*
X0138057Y0483467D01*
X0138057Y0480933D01*
X0139027Y0478591D01*
X0140417Y0477200D01*
X0139027Y0475809D01*
X0138057Y0473467D01*
X0138057Y0470933D01*
X0139027Y0468591D01*
X0140819Y0466798D01*
X0141762Y0466408D01*
X0141190Y0465992D01*
X0140636Y0465439D01*
X0140176Y0464806D01*
X0139821Y0464108D01*
X0139579Y0463364D01*
X0139457Y0462591D01*
X0139457Y0462200D01*
X0139457Y0461809D01*
X0139579Y0461036D01*
X0139821Y0460292D01*
X0140176Y0459594D01*
X0139457Y0461885D02*
X0089510Y0461885D01*
X0091908Y0464284D02*
X0139910Y0464284D01*
X0139457Y0462200D02*
X0147200Y0462200D01*
X0147200Y0457228D01*
X0147200Y0462200D01*
X0147200Y0462200D01*
X0147200Y0462200D01*
X0139457Y0462200D01*
X0141099Y0466682D02*
X0094307Y0466682D01*
X0097990Y0469081D02*
X0138824Y0469081D01*
X0138057Y0471479D02*
X0102332Y0471479D01*
X0106675Y0473878D02*
X0138227Y0473878D01*
X0139494Y0476276D02*
X0111017Y0476276D01*
X0115360Y0478675D02*
X0138992Y0478675D01*
X0138057Y0481073D02*
X0119702Y0481073D01*
X0124045Y0483472D02*
X0138059Y0483472D01*
X0139088Y0485870D02*
X0127225Y0485870D01*
X0130135Y0488269D02*
X0142430Y0488269D01*
X0137828Y0495465D02*
X0376118Y0495465D01*
X0376217Y0495645D02*
X0373368Y0490461D01*
X0373368Y0490461D01*
X0371896Y0484731D01*
X0371896Y0478815D01*
X0373368Y0473085D01*
X0376217Y0467901D01*
X0380267Y0463589D01*
X0385262Y0460419D01*
X0390888Y0458591D01*
X0390888Y0458591D01*
X0396792Y0458219D01*
X0402603Y0459328D01*
X0402603Y0459328D01*
X0407956Y0461847D01*
X0412514Y0465618D01*
X0415991Y0470404D01*
X0418169Y0475904D01*
X0418910Y0481773D01*
X0418169Y0487642D01*
X0415991Y0493142D01*
X0415991Y0493142D01*
X0412514Y0497928D01*
X0412514Y0497928D01*
X0407956Y0501699D01*
X0407956Y0501699D01*
X0402603Y0504218D01*
X0396792Y0505326D01*
X0390888Y0504955D01*
X0385262Y0503127D01*
X0385262Y0503127D01*
X0380267Y0499957D01*
X0376217Y0495645D01*
X0376217Y0495645D01*
X0374800Y0493066D02*
X0135263Y0493066D01*
X0132699Y0490668D02*
X0373481Y0490668D01*
X0372805Y0488269D02*
X0151970Y0488269D01*
X0155312Y0485870D02*
X0372189Y0485870D01*
X0371896Y0483472D02*
X0156341Y0483472D01*
X0156343Y0481073D02*
X0371896Y0481073D01*
X0371932Y0478675D02*
X0155408Y0478675D01*
X0154906Y0476276D02*
X0372548Y0476276D01*
X0373164Y0473878D02*
X0156173Y0473878D01*
X0156343Y0471479D02*
X0374250Y0471479D01*
X0373368Y0473085D02*
X0373368Y0473085D01*
X0375569Y0469081D02*
X0155576Y0469081D01*
X0153301Y0466682D02*
X0377362Y0466682D01*
X0376217Y0467901D02*
X0376217Y0467901D01*
X0379614Y0464284D02*
X0154490Y0464284D01*
X0154943Y0461885D02*
X0382951Y0461885D01*
X0385262Y0460419D02*
X0385262Y0460419D01*
X0388131Y0459487D02*
X0154146Y0459487D01*
X0147200Y0459487D02*
X0147200Y0459487D01*
X0147200Y0461885D02*
X0147200Y0461885D01*
X0140392Y0497863D02*
X0378301Y0497863D01*
X0380267Y0499957D02*
X0380267Y0499957D01*
X0380747Y0500262D02*
X0142956Y0500262D01*
X0145521Y0502660D02*
X0384526Y0502660D01*
X0390888Y0504955D02*
X0390888Y0504955D01*
X0392536Y0505059D02*
X0148085Y0505059D01*
X0150649Y0507457D02*
X0403751Y0507457D01*
X0402603Y0504218D02*
X0402603Y0504218D01*
X0405913Y0502660D02*
X0408879Y0502660D01*
X0409693Y0500262D02*
X0411444Y0500262D01*
X0412514Y0497928D02*
X0412514Y0497928D01*
X0412561Y0497863D02*
X0414008Y0497863D01*
X0414304Y0495465D02*
X0416572Y0495465D01*
X0416021Y0493066D02*
X0419137Y0493066D01*
X0416971Y0490668D02*
X0421701Y0490668D01*
X0424265Y0488269D02*
X0417921Y0488269D01*
X0418169Y0487642D02*
X0418169Y0487642D01*
X0418393Y0485870D02*
X0427175Y0485870D01*
X0430355Y0483472D02*
X0418696Y0483472D01*
X0418822Y0481073D02*
X0434698Y0481073D01*
X0439040Y0478675D02*
X0418519Y0478675D01*
X0418216Y0476276D02*
X0443383Y0476276D01*
X0447725Y0473878D02*
X0417367Y0473878D01*
X0418169Y0475904D02*
X0418169Y0475904D01*
X0416417Y0471479D02*
X0452068Y0471479D01*
X0456410Y0469081D02*
X0415030Y0469081D01*
X0415991Y0470404D02*
X0415991Y0470404D01*
X0413287Y0466682D02*
X0460093Y0466682D01*
X0462492Y0464284D02*
X0410902Y0464284D01*
X0412514Y0465618D02*
X0412514Y0465618D01*
X0408002Y0461885D02*
X0464890Y0461885D01*
X0467289Y0459487D02*
X0402941Y0459487D01*
X0407956Y0461847D02*
X0407956Y0461847D01*
X0396792Y0458219D02*
X0396792Y0458219D01*
X0380267Y0463589D02*
X0380267Y0463589D01*
X0406350Y0437900D02*
X0097860Y0437900D01*
X0100501Y0435502D02*
X0403867Y0435502D01*
X0403057Y0433103D02*
X0101343Y0433103D01*
X0101249Y0430705D02*
X0403184Y0430705D01*
X0404390Y0428306D02*
X0100089Y0428306D01*
X0100275Y0425908D02*
X0408159Y0425908D01*
X0462200Y0442121D02*
X0462200Y0442121D01*
X0462200Y0442697D02*
X0462200Y0442697D01*
X0462200Y0445096D02*
X0462200Y0445096D01*
X0488976Y0423509D02*
X0101326Y0423509D01*
X0101343Y0421111D02*
X0491220Y0421111D01*
X0493463Y0418712D02*
X0100424Y0418712D01*
X0097768Y0416314D02*
X0495706Y0416314D01*
X0497950Y0413915D02*
X0099642Y0413915D01*
X0099897Y0411517D02*
X0198597Y0411517D01*
X0196933Y0409118D02*
X0098878Y0409118D01*
X0092200Y0409118D02*
X0092200Y0409118D01*
X0092200Y0411517D02*
X0092200Y0411517D01*
X0153824Y0509856D02*
X0400576Y0509856D01*
X0395869Y0512254D02*
X0158531Y0512254D01*
X0163898Y0514653D02*
X0390502Y0514653D01*
X0396792Y0505326D02*
X0396792Y0505326D01*
X0398196Y0505059D02*
X0406315Y0505059D01*
X0378062Y0517051D02*
X0176338Y0517051D01*
X0188777Y0519450D02*
X0365623Y0519450D01*
X0355827Y0521848D02*
X0198573Y0521848D01*
X0204399Y0524247D02*
X0350001Y0524247D01*
X0344878Y0526645D02*
X0209522Y0526645D01*
X0214646Y0529044D02*
X0339754Y0529044D01*
X0334631Y0531442D02*
X0219769Y0531442D01*
X0224892Y0533841D02*
X0329508Y0533841D01*
X0324384Y0536239D02*
X0297070Y0536239D01*
X0257330Y0536239D02*
X0230016Y0536239D01*
X0205803Y0411517D02*
X0500193Y0411517D01*
X0502437Y0409118D02*
X0221080Y0409118D01*
X0223479Y0406720D02*
X0482502Y0406720D01*
X0482520Y0406729D02*
X0481823Y0406373D01*
X0481190Y0405913D01*
X0480636Y0405360D01*
X0480176Y0404727D01*
X0479821Y0404030D01*
X0479579Y0403285D01*
X0479457Y0402513D01*
X0479457Y0402121D01*
X0479457Y0401730D01*
X0479579Y0400957D01*
X0479821Y0400213D01*
X0480176Y0399516D01*
X0480636Y0398882D01*
X0481190Y0398329D01*
X0481624Y0398014D01*
X0480819Y0397680D01*
X0479027Y0395888D01*
X0478057Y0393546D01*
X0478057Y0391011D01*
X0479027Y0388669D01*
X0480819Y0386877D01*
X0483161Y0385907D01*
X0491239Y0385907D01*
X0493581Y0386877D01*
X0495373Y0388669D01*
X0496343Y0391011D01*
X0496343Y0393546D01*
X0495373Y0395888D01*
X0493581Y0397680D01*
X0492776Y0398014D01*
X0493210Y0398329D01*
X0493764Y0398882D01*
X0494224Y0399516D01*
X0494579Y0400213D01*
X0494821Y0400957D01*
X0494943Y0401730D01*
X0494943Y0402121D01*
X0487200Y0402121D01*
X0479457Y0402121D01*
X0487200Y0402121D01*
X0487200Y0402121D01*
X0487200Y0402121D01*
X0494943Y0402121D01*
X0494943Y0402513D01*
X0494821Y0403285D01*
X0494579Y0404030D01*
X0494224Y0404727D01*
X0493764Y0405360D01*
X0493210Y0405913D01*
X0492577Y0406373D01*
X0491880Y0406729D01*
X0491136Y0406970D01*
X0490363Y0407093D01*
X0487200Y0407093D01*
X0487200Y0402121D01*
X0487200Y0407093D01*
X0484037Y0407093D01*
X0483264Y0406970D01*
X0482520Y0406729D01*
X0479969Y0404321D02*
X0225877Y0404321D01*
X0228276Y0401923D02*
X0479457Y0401923D01*
X0480172Y0399524D02*
X0230674Y0399524D01*
X0233073Y0397126D02*
X0480264Y0397126D01*
X0478546Y0394727D02*
X0235471Y0394727D01*
X0237870Y0392329D02*
X0478057Y0392329D01*
X0478505Y0389930D02*
X0240268Y0389930D01*
X0242667Y0387532D02*
X0480165Y0387532D01*
X0494235Y0387532D02*
X0515225Y0387532D01*
X0514763Y0389930D02*
X0495895Y0389930D01*
X0496343Y0392329D02*
X0514058Y0392329D01*
X0512836Y0394727D02*
X0495854Y0394727D01*
X0494136Y0397126D02*
X0511614Y0397126D01*
X0510392Y0399524D02*
X0494228Y0399524D01*
X0494943Y0401923D02*
X0509167Y0401923D01*
X0506924Y0404321D02*
X0494431Y0404321D01*
X0491898Y0406720D02*
X0504680Y0406720D01*
X0487200Y0406720D02*
X0487200Y0406720D01*
X0487200Y0404321D02*
X0487200Y0404321D01*
X0487200Y0402121D02*
X0487200Y0402121D01*
X0515688Y0385133D02*
X0245065Y0385133D01*
X0247464Y0382734D02*
X0516150Y0382734D01*
X0516613Y0380336D02*
X0249862Y0380336D01*
X0252261Y0377937D02*
X0517075Y0377937D01*
X0517538Y0375539D02*
X0318156Y0375539D01*
X0320548Y0373140D02*
X0518000Y0373140D01*
X0518463Y0370742D02*
X0321811Y0370742D01*
X0322400Y0368343D02*
X0518925Y0368343D01*
X0519387Y0365945D02*
X0513167Y0365945D01*
X0513210Y0365913D02*
X0512577Y0366373D01*
X0511880Y0366729D01*
X0511136Y0366970D01*
X0510363Y0367093D01*
X0507200Y0367093D01*
X0507200Y0362121D01*
X0499457Y0362121D01*
X0499457Y0361730D01*
X0499579Y0360957D01*
X0499821Y0360213D01*
X0500176Y0359516D01*
X0500636Y0358882D01*
X0501190Y0358329D01*
X0501624Y0358014D01*
X0500819Y0357680D01*
X0499027Y0355888D01*
X0498057Y0353546D01*
X0498057Y0351011D01*
X0499027Y0348669D01*
X0500819Y0346877D01*
X0503161Y0345907D01*
X0511239Y0345907D01*
X0513581Y0346877D01*
X0515373Y0348669D01*
X0516343Y0351011D01*
X0516343Y0353546D01*
X0515373Y0355888D01*
X0513581Y0357680D01*
X0512776Y0358014D01*
X0513210Y0358329D01*
X0513764Y0358882D01*
X0514224Y0359516D01*
X0514579Y0360213D01*
X0514821Y0360957D01*
X0514943Y0361730D01*
X0514943Y0362121D01*
X0507200Y0362121D01*
X0507200Y0362121D01*
X0507200Y0362121D01*
X0514943Y0362121D01*
X0514943Y0362513D01*
X0514821Y0363285D01*
X0514579Y0364030D01*
X0514224Y0364727D01*
X0513764Y0365360D01*
X0513210Y0365913D01*
X0514736Y0363546D02*
X0519850Y0363546D01*
X0520312Y0361148D02*
X0514851Y0361148D01*
X0513631Y0358749D02*
X0520886Y0358749D01*
X0521678Y0356351D02*
X0514910Y0356351D01*
X0516175Y0353952D02*
X0522397Y0353952D01*
X0523520Y0351554D02*
X0516343Y0351554D01*
X0515575Y0349155D02*
X0524643Y0349155D01*
X0525765Y0346757D02*
X0513290Y0346757D01*
X0501109Y0346757D02*
X0374426Y0346757D01*
X0373983Y0347200D02*
X0375373Y0348591D01*
X0376343Y0350933D01*
X0376343Y0353467D01*
X0375373Y0355809D01*
X0373581Y0357602D01*
X0371239Y0358572D01*
X0363161Y0358572D01*
X0360819Y0357602D01*
X0359817Y0356600D01*
X0356325Y0356600D01*
X0354708Y0355930D01*
X0353470Y0354692D01*
X0350970Y0352192D01*
X0350300Y0350575D01*
X0350300Y0338193D01*
X0349969Y0337861D01*
X0349119Y0335810D01*
X0349119Y0333590D01*
X0349969Y0331539D01*
X0351539Y0329969D01*
X0353590Y0329119D01*
X0355810Y0329119D01*
X0357861Y0329969D01*
X0359431Y0331539D01*
X0359481Y0331657D01*
X0359579Y0331036D01*
X0359821Y0330292D01*
X0360176Y0329594D01*
X0360636Y0328961D01*
X0361190Y0328408D01*
X0361823Y0327948D01*
X0362520Y0327593D01*
X0363264Y0327351D01*
X0364037Y0327228D01*
X0367200Y0327228D01*
X0367200Y0332200D01*
X0374943Y0332200D01*
X0374943Y0332591D01*
X0374821Y0333364D01*
X0374579Y0334108D01*
X0374224Y0334806D01*
X0373764Y0335439D01*
X0373210Y0335992D01*
X0372638Y0336408D01*
X0373581Y0336798D01*
X0375373Y0338591D01*
X0376343Y0340933D01*
X0376343Y0343467D01*
X0375373Y0345809D01*
X0373983Y0347200D01*
X0375607Y0349155D02*
X0498825Y0349155D01*
X0498057Y0351554D02*
X0376343Y0351554D01*
X0376142Y0353952D02*
X0498225Y0353952D01*
X0499490Y0356351D02*
X0374832Y0356351D01*
X0375974Y0344358D02*
X0526888Y0344358D01*
X0528011Y0341960D02*
X0376343Y0341960D01*
X0375775Y0339561D02*
X0529134Y0339561D01*
X0530257Y0337163D02*
X0373945Y0337163D01*
X0374245Y0334764D02*
X0531380Y0334764D01*
X0532503Y0332366D02*
X0374943Y0332366D01*
X0374943Y0332200D02*
X0367200Y0332200D01*
X0367200Y0332200D01*
X0367200Y0327228D01*
X0370363Y0327228D01*
X0371136Y0327351D01*
X0371880Y0327593D01*
X0372577Y0327948D01*
X0373210Y0328408D01*
X0373764Y0328961D01*
X0374224Y0329594D01*
X0374579Y0330292D01*
X0374821Y0331036D01*
X0374943Y0331809D01*
X0374943Y0332200D01*
X0374414Y0329967D02*
X0533625Y0329967D01*
X0534748Y0327569D02*
X0371807Y0327569D01*
X0367200Y0327569D02*
X0367200Y0327569D01*
X0367200Y0329967D02*
X0367200Y0329967D01*
X0367200Y0332200D02*
X0367200Y0332200D01*
X0362593Y0327569D02*
X0322610Y0327569D01*
X0323655Y0325170D02*
X0515498Y0325170D01*
X0515636Y0325360D02*
X0515176Y0324727D01*
X0514821Y0324030D01*
X0514579Y0323285D01*
X0514457Y0322513D01*
X0514457Y0322121D01*
X0514457Y0321730D01*
X0514579Y0320957D01*
X0514821Y0320213D01*
X0515176Y0319516D01*
X0515636Y0318882D01*
X0516190Y0318329D01*
X0516624Y0318014D01*
X0515819Y0317680D01*
X0514027Y0315888D01*
X0513057Y0313546D01*
X0513057Y0311011D01*
X0514027Y0308669D01*
X0515819Y0306877D01*
X0518161Y0305907D01*
X0526239Y0305907D01*
X0528581Y0306877D01*
X0530373Y0308669D01*
X0531343Y0311011D01*
X0531343Y0313546D01*
X0530373Y0315888D01*
X0528581Y0317680D01*
X0527776Y0318014D01*
X0528210Y0318329D01*
X0528764Y0318882D01*
X0529224Y0319516D01*
X0529579Y0320213D01*
X0529821Y0320957D01*
X0529943Y0321730D01*
X0529943Y0322121D01*
X0522200Y0322121D01*
X0514457Y0322121D01*
X0522200Y0322121D01*
X0522200Y0322121D01*
X0522200Y0322121D01*
X0529943Y0322121D01*
X0529943Y0322513D01*
X0529821Y0323285D01*
X0529579Y0324030D01*
X0529224Y0324727D01*
X0528764Y0325360D01*
X0528210Y0325913D01*
X0527577Y0326373D01*
X0526880Y0326729D01*
X0526136Y0326970D01*
X0525363Y0327093D01*
X0522200Y0327093D01*
X0522200Y0322121D01*
X0522200Y0327093D01*
X0519037Y0327093D01*
X0518264Y0326970D01*
X0517520Y0326729D01*
X0516823Y0326373D01*
X0516190Y0325913D01*
X0515636Y0325360D01*
X0514498Y0322772D02*
X0324300Y0322772D01*
X0324128Y0320373D02*
X0514769Y0320373D01*
X0516530Y0317975D02*
X0323016Y0317975D01*
X0323487Y0315576D02*
X0513898Y0315576D01*
X0513057Y0313178D02*
X0324300Y0313178D01*
X0324296Y0310779D02*
X0513153Y0310779D01*
X0514316Y0308381D02*
X0323303Y0308381D01*
X0323318Y0305982D02*
X0517980Y0305982D01*
X0526420Y0305982D02*
X0537347Y0305982D01*
X0537049Y0303584D02*
X0324300Y0303584D01*
X0324300Y0301185D02*
X0536751Y0301185D01*
X0536453Y0298787D02*
X0404427Y0298787D01*
X0408848Y0296388D02*
X0536154Y0296388D01*
X0535856Y0293990D02*
X0411747Y0293990D01*
X0412514Y0293355D02*
X0412514Y0293355D01*
X0413796Y0291591D02*
X0535558Y0291591D01*
X0535260Y0289193D02*
X0415538Y0289193D01*
X0385978Y0298787D02*
X0323471Y0298787D01*
X0323053Y0296388D02*
X0381849Y0296388D01*
X0378957Y0293990D02*
X0324144Y0293990D01*
X0324300Y0291591D02*
X0376705Y0291591D01*
X0376217Y0291072D02*
X0376217Y0291072D01*
X0375184Y0289193D02*
X0323639Y0289193D01*
X0322647Y0286794D02*
X0373866Y0286794D01*
X0372984Y0284396D02*
X0323976Y0284396D01*
X0324300Y0281997D02*
X0372369Y0281997D01*
X0371896Y0279599D02*
X0323807Y0279599D01*
X0308100Y0310502D02*
X0252400Y0366202D01*
X0252400Y0365857D01*
X0251705Y0363263D01*
X0250362Y0360937D01*
X0248463Y0359038D01*
X0246137Y0357695D01*
X0243543Y0357000D01*
X0242441Y0357000D01*
X0243219Y0356222D01*
X0244300Y0353612D01*
X0244300Y0350788D01*
X0243219Y0348178D01*
X0242241Y0347200D01*
X0243219Y0346222D01*
X0244300Y0343612D01*
X0244300Y0340788D01*
X0243219Y0338178D01*
X0242241Y0337200D01*
X0243219Y0336222D01*
X0244300Y0333612D01*
X0244300Y0330788D01*
X0243219Y0328178D01*
X0242241Y0327200D01*
X0242610Y0327569D02*
X0291033Y0327569D01*
X0288634Y0329967D02*
X0243960Y0329967D01*
X0244300Y0332366D02*
X0286236Y0332366D01*
X0283837Y0334764D02*
X0243823Y0334764D01*
X0242278Y0337163D02*
X0281439Y0337163D01*
X0279040Y0339561D02*
X0243792Y0339561D01*
X0244300Y0341960D02*
X0276642Y0341960D01*
X0274243Y0344358D02*
X0243991Y0344358D01*
X0242684Y0346757D02*
X0271845Y0346757D01*
X0269446Y0349155D02*
X0243624Y0349155D01*
X0244300Y0351554D02*
X0267048Y0351554D01*
X0264649Y0353952D02*
X0244159Y0353952D01*
X0243090Y0356351D02*
X0262251Y0356351D01*
X0259852Y0358749D02*
X0247963Y0358749D01*
X0250484Y0361148D02*
X0257454Y0361148D01*
X0255055Y0363546D02*
X0251781Y0363546D01*
X0252400Y0365945D02*
X0252657Y0365945D01*
X0259456Y0370742D02*
X0302589Y0370742D01*
X0302000Y0368343D02*
X0261855Y0368343D01*
X0264253Y0365945D02*
X0302000Y0365945D01*
X0302619Y0363546D02*
X0266652Y0363546D01*
X0269050Y0361148D02*
X0303916Y0361148D01*
X0306437Y0358749D02*
X0271449Y0358749D01*
X0273847Y0356351D02*
X0311310Y0356351D01*
X0310241Y0353952D02*
X0276246Y0353952D01*
X0278644Y0351554D02*
X0310100Y0351554D01*
X0310776Y0349155D02*
X0281043Y0349155D01*
X0283441Y0346757D02*
X0311716Y0346757D01*
X0310409Y0344358D02*
X0285840Y0344358D01*
X0288238Y0341960D02*
X0310100Y0341960D01*
X0310608Y0339561D02*
X0290637Y0339561D01*
X0293035Y0337163D02*
X0312122Y0337163D01*
X0310577Y0334764D02*
X0295434Y0334764D01*
X0297832Y0332366D02*
X0310100Y0332366D01*
X0310440Y0329967D02*
X0300231Y0329967D01*
X0302630Y0327569D02*
X0311790Y0327569D01*
X0310745Y0325170D02*
X0305028Y0325170D01*
X0307427Y0322772D02*
X0310100Y0322772D01*
X0310272Y0320373D02*
X0309825Y0320373D01*
X0303026Y0315576D02*
X0243487Y0315576D01*
X0243016Y0317975D02*
X0300627Y0317975D01*
X0298229Y0320373D02*
X0244128Y0320373D01*
X0244300Y0322772D02*
X0295830Y0322772D01*
X0293431Y0325170D02*
X0243655Y0325170D01*
X0244300Y0313178D02*
X0305424Y0313178D01*
X0307823Y0310779D02*
X0244296Y0310779D01*
X0230593Y0279599D02*
X0230397Y0279599D01*
X0232159Y0277200D02*
X0231181Y0276222D01*
X0230593Y0274801D02*
X0225600Y0274801D01*
X0223201Y0272403D02*
X0230100Y0272403D01*
X0230424Y0270004D02*
X0220803Y0270004D01*
X0218404Y0267606D02*
X0231753Y0267606D01*
X0167582Y0246019D02*
X0016755Y0246019D01*
X0017053Y0248418D02*
X0165184Y0248418D01*
X0164878Y0248724D02*
X0164878Y0248724D01*
X0163335Y0250816D02*
X0017351Y0250816D01*
X0017649Y0253215D02*
X0163100Y0253215D01*
X0257058Y0373140D02*
X0303852Y0373140D01*
X0306244Y0375539D02*
X0254659Y0375539D01*
X0320484Y0361148D02*
X0499549Y0361148D01*
X0499457Y0362121D02*
X0507200Y0362121D01*
X0507200Y0367093D01*
X0504037Y0367093D01*
X0503264Y0366970D01*
X0502520Y0366729D01*
X0501823Y0366373D01*
X0501190Y0365913D01*
X0500636Y0365360D01*
X0500176Y0364727D01*
X0499821Y0364030D01*
X0499579Y0363285D01*
X0499457Y0362513D01*
X0499457Y0362121D01*
X0499664Y0363546D02*
X0321781Y0363546D01*
X0322400Y0365945D02*
X0501233Y0365945D01*
X0507200Y0365945D02*
X0507200Y0365945D01*
X0507200Y0363546D02*
X0507200Y0363546D01*
X0507200Y0362121D02*
X0507200Y0362121D01*
X0500769Y0358749D02*
X0319942Y0358749D01*
X0323090Y0356351D02*
X0355723Y0356351D01*
X0352730Y0353952D02*
X0324159Y0353952D01*
X0324300Y0351554D02*
X0350705Y0351554D01*
X0350300Y0349155D02*
X0323624Y0349155D01*
X0322684Y0346757D02*
X0350300Y0346757D01*
X0350300Y0344358D02*
X0323991Y0344358D01*
X0324300Y0341960D02*
X0350300Y0341960D01*
X0350300Y0339561D02*
X0323792Y0339561D01*
X0322278Y0337163D02*
X0349679Y0337163D01*
X0349119Y0334764D02*
X0323823Y0334764D01*
X0324300Y0332366D02*
X0349626Y0332366D01*
X0351542Y0329967D02*
X0323960Y0329967D01*
X0357858Y0329967D02*
X0359986Y0329967D01*
X0522200Y0325170D02*
X0522200Y0325170D01*
X0522200Y0322772D02*
X0522200Y0322772D01*
X0522200Y0322121D02*
X0522200Y0322121D01*
X0527870Y0317975D02*
X0537333Y0317975D01*
X0536953Y0320373D02*
X0529631Y0320373D01*
X0529902Y0322772D02*
X0536573Y0322772D01*
X0535871Y0325170D02*
X0528902Y0325170D01*
X0530502Y0315576D02*
X0537713Y0315576D01*
X0538093Y0313178D02*
X0531343Y0313178D01*
X0531247Y0310779D02*
X0537944Y0310779D01*
X0537645Y0308381D02*
X0530084Y0308381D01*
X0233850Y0114101D02*
X0231719Y0114101D01*
X0231950Y0111703D02*
X0233850Y0111703D01*
X0234530Y0109304D02*
X0231307Y0109304D01*
X0229452Y0106906D02*
X0236928Y0106906D01*
X0031647Y0255613D02*
X0017947Y0255613D01*
X0018246Y0258012D02*
X0027518Y0258012D01*
X0024627Y0260410D02*
X0018544Y0260410D01*
X0018842Y0262809D02*
X0022374Y0262809D01*
X0021887Y0263328D02*
X0021887Y0263328D01*
X0020854Y0265207D02*
X0019140Y0265207D01*
X0019438Y0267606D02*
X0019535Y0267606D01*
D19*
X0157200Y0247200D03*
X0162200Y0247200D03*
X0167200Y0247200D03*
X0192200Y0292200D03*
X0182200Y0187200D03*
X0354700Y0334700D03*
X0197200Y0439700D03*
X0172200Y0437200D03*
D20*
X0202200Y0407200D02*
X0217200Y0407200D01*
X0312200Y0312200D01*
X0312200Y0257200D01*
X0317200Y0252200D01*
X0317200Y0212200D02*
X0207200Y0212200D01*
X0194700Y0224700D01*
X0177200Y0247200D02*
X0172200Y0247200D01*
X0167200Y0252200D01*
X0167200Y0282200D01*
X0237200Y0352200D01*
X0237200Y0342200D02*
X0172200Y0277200D01*
X0172200Y0252200D01*
X0227200Y0262200D02*
X0147200Y0182200D01*
X0147200Y0177200D01*
X0122200Y0177200D02*
X0237200Y0292200D01*
X0237200Y0262200D02*
X0227200Y0262200D01*
X0122200Y0177200D02*
X0122200Y0137200D01*
D21*
X0122200Y0137200D03*
X0194700Y0224700D03*
X0177200Y0247200D03*
X0172200Y0252200D03*
X0202200Y0407200D03*
D22*
X0354700Y0349700D02*
X0354700Y0334700D01*
X0354700Y0349700D02*
X0357200Y0352200D01*
X0367200Y0352200D01*
M02*
