0
SECTION
2
HEADER
9
$INSUNITS
70
4
9
$ACADVER
1
AC1014
9
$HANDSEED
5
FFFF
0
ENDSEC
0
SECTION
2
TABLES
0
TABLE
2
VPORT
5
8
100
AcDbSymbolTable
0
ENDTAB
0
TABLE
2
LTYPE
5
5
100
AcDbSymbolTable
0
LTYPE
5
14
100
AcDbSymbolTableRecord
100
AcDbLinetypeTableRecord
2
BYBLOCK
70
0
0
LTYPE
5
15
100
AcDbSymbolTableRecord
100
AcDbLinetypeTableRecord
2
BYLAYER
70
0
0
ENDTAB
0
TABLE
2
LAYER
5
2
100
AcDbSymbolTable
70
2
0
LAYER
5
50
100
AcDbSymbolTableRecord
100
AcDbLayerTableRecord
2
0
70
0
6
CONTINUOUS
0
ENDTAB
0
TABLE
2
STYLE
5
3
100
AcDbSymbolTable
70
1
0
STYLE
5
11
100
AcDbSymbolTableRecord
100
AcDbTextStyleTableRecord
2
STANDARD
70
0
0
ENDTAB
0
TABLE
2
VIEW
5
6
100
AcDbSymbolTable
70
0
0
ENDTAB
0
TABLE
2
UCS
5
7
100
AcDbSymbolTable
70
0
0
ENDTAB
0
TABLE
2
APPID
5
9
100
AcDbSymbolTable
70
2
0
APPID
5
12
100
AcDbSymbolTableRecord
100
AcDbRegAppTableRecord
2
ACAD
70
0
0
ENDTAB
0
TABLE
2
DIMSTYLE
5
A
100
AcDbSymbolTable
70
1
0
ENDTAB
0
TABLE
2
BLOCK_RECORD
5
1
100
AcDbSymbolTable
70
1
0
BLOCK_RECORD
5
1F
100
AcDbSymbolTableRecord
100
AcDbBlockTableRecord
2
*MODEL_SPACE
0
BLOCK_RECORD
5
1B
100
AcDbSymbolTableRecord
100
AcDbBlockTableRecord
2
*PAPER_SPACE
0
ENDTAB
0
ENDSEC
0
SECTION
2
BLOCKS
0
BLOCK
5
20
100
AcDbEntity
100
AcDbBlockBegin
2
*MODEL_SPACE
0
ENDBLK
5
21
100
AcDbEntity
100
AcDbBlockEnd
0
BLOCK
5
1C
100
AcDbEntity
100
AcDbBlockBegin
2
*PAPER_SPACE
0
ENDBLK
5
1D
100
AcDbEntity
100
AcDbBlockEnd
0
ENDSEC
0
SECTION
2
ENTITIES
0
LWPOLYLINE
5
100
100
AcDbEntity
8
0
100
AcDbPolyline
90
80
70
1
43
0.0
10
-21.282051682655556
20
-63.104038182047432
42
-0.061920987908553438
10
-19.874081517074398
20
-63.56151542055305
10
-12.311185308095595
20
-67.102074149269583
42
0.14131134553804067
10
-9.0270482593507744
20
-67.622230357684103
10
-0.7402137209815729
20
-66.592022362680893
42
-0.061920987908553327
10
0.74021372098151073
20
-66.592022362680893
10
9.0270482593506625
20
-67.622230357684117
42
0.14131134553804106
10
12.311185308095489
20
-67.102074149269583
10
19.874081517074337
20
-63.561515420553079
42
-0.061920987908553327
10
21.282051682655489
20
-63.104038182047461
10
29.481651448028146
20
-61.52305150690529
42
0.14131134553804101
10
32.444314280513524
20
-60.013499395482732
10
38.542963185370795
20
-54.309164489942887
42
-0.061920987908553556
10
39.740654144857963
20
-53.438991072467914
10
47.05038518222856
20
-49.401567718325182
42
0.1413113455380407
10
49.401567718325069
20
-47.050385182228652
10
53.438991072467871
20
-39.740654144858013
42
-0.061920987908553667
10
54.309164489942852
20
-38.542963185370844
10
60.013499395482683
20
-32.444314280513623
42
0.14131134553804067
10
61.523051506905226
20
-29.481651448028252
10
63.104038182047439
20
-21.282051682655549
42
-0.061920987908553438
10
63.561515420553064
20
-19.874081517074387
10
67.102074149269569
20
-12.311185308095602
42
0.14131134553804126
10
67.622230357684103
20
-9.0270482593507708
10
66.592022362680893
20
-0.74021372098157689
42
-0.061920987908553327
10
66.592022362680893
20
0.74021372098150628
10
67.622230357684131
20
9.0270482593506607
42
0.14131134553804095
10
67.102074149269598
20
12.311185308095492
10
63.561515420553079
20
19.874081517074327
42
-0.061920987908553327
10
63.104038182047461
20
21.282051682655482
10
61.523051506905276
20
29.481651448028138
42
0.14131134553804112
10
60.013499395482725
20
32.444314280513503
10
54.309164489942894
20
38.542963185370795
42
-0.061920987908553556
10
53.438991072467921
20
39.740654144857963
10
49.401567718325182
20
47.05038518222856
42
0.1413113455380407
10
47.050385182228652
20
49.401567718325069
10
39.740654144858013
20
53.438991072467871
42
-0.061920987908553667
10
38.542963185370844
20
54.309164489942852
10
32.444314280513623
20
60.013499395482704
42
0.1413113455380402
10
29.481651448028252
20
61.52305150690524
10
21.282051682655549
20
63.104038182047432
42
-0.061920987908553438
10
19.874081517074387
20
63.56151542055305
10
12.311185308095604
20
67.102074149269583
42
0.1413113455380407
10
9.0270482593507833
20
67.622230357684103
10
0.74021372098158111
20
66.592022362680893
42
-0.061920987908553327
10
-0.74021372098150295
20
66.592022362680893
10
-9.0270482593506571
20
67.622230357684117
42
0.14131134553804134
10
-12.311185308095487
20
67.102074149269583
10
-19.874081517074323
20
63.561515420553079
42
-0.061920987908553327
10
-21.282051682655478
20
63.104038182047461
10
-29.481651448028138
20
61.523051506905276
42
0.14131134553804139
10
-32.44431428051351
20
60.013499395482725
10
-38.542963185370795
20
54.309164489942894
42
-0.061920987908553556
10
-39.740654144857963
20
53.438991072467921
10
-47.05038518222856
20
49.401567718325168
42
0.14131134553804062
10
-49.401567718325069
20
47.050385182228652
10
-53.438991072467871
20
39.740654144858013
42
-0.061920987908553667
10
-54.309164489942852
20
38.542963185370844
10
-60.01349939548269
20
32.44431428051363
42
0.1413113455380407
10
-61.52305150690524
20
29.481651448028256
10
-63.104038182047432
20
21.282051682655553
42
-0.061920987908553438
10
-63.56151542055305
20
19.874081517074394
10
-67.102074149269583
20
12.311185308095611
42
0.14131134553804076
10
-67.622230357684117
20
9.0270482593507833
10
-66.592022362680893
20
0.74021372098158511
42
-0.061920987908553327
10
-66.592022362680893
20
-0.74021372098149851
10
-67.622230357684117
20
-9.0270482593506518
42
0.14131134553804101
10
-67.102074149269598
20
-12.311185308095485
10
-63.561515420553079
20
-19.874081517074316
42
-0.061920987908553327
10
-63.104038182047461
20
-21.282051682655471
10
-61.523051506905297
20
-29.481651448028138
42
0.14131134553804076
10
-60.013499395482754
20
-32.444314280513517
10
-54.309164489942887
20
-38.54296318537078
42
-0.061920987908553327
10
-53.438991072467921
20
-39.740654144857942
10
-49.401567718325182
20
-47.05038518222856
42
0.1413113455380412
10
-47.050385182228652
20
-49.40156771832509
10
-39.740654144858013
20
-53.438991072467871
42
-0.061920987908553667
10
-38.542963185370844
20
-54.309164489942852
10
-32.44431428051363
20
-60.013499395482697
42
0.14131134553804067
10
-29.481651448028256
20
-61.52305150690524
0
ENDSEC
0
SECTION
2
OBJECTS
0
DICTIONARY
5
C
100
AcDbDictionary
3
ACAD_GROUP
350
D
3
ACAD_MLINESTYLE
350
17
0
DICTIONARY
5
D
100
AcDbDictionary
0
DICTIONARY
5
1A
330
C
100
AcDbDictionary
0
DICTIONARY
5
17
100
AcDbDictionary
0
ENDSEC
0
EOF
