G75*
%MOIN*%
%OFA0B0*%
%FSLAX25Y25*%
%IPPOS*%
%LPD*%
%AMOC8*
5,1,8,0,0,1.08239X$1,22.5*
%
%ADD10C,0.10800*%
%ADD11C,0.15800*%
%ADD12C,0.07800*%
%ADD13C,0.06343*%
%ADD14C,0.08200*%
%ADD15R,0.08200X0.08200*%
%ADD16OC8,0.07100*%
%ADD17C,0.07100*%
%ADD18C,0.16942*%
%ADD19C,0.11036*%
%ADD20C,0.04762*%
%ADD21C,0.04800*%
D10*
X0242200Y0367200D03*
X0312200Y0367200D03*
D11*
X0312200Y0187200D03*
X0242200Y0187200D03*
D12*
X0237200Y0242200D03*
X0237200Y0252200D03*
X0237200Y0262200D03*
X0237200Y0272200D03*
X0237200Y0282200D03*
X0237200Y0292200D03*
X0237200Y0302200D03*
X0237200Y0312200D03*
X0237200Y0322200D03*
X0237200Y0332200D03*
X0237200Y0342200D03*
X0237200Y0352200D03*
X0317200Y0352200D03*
X0317200Y0342200D03*
X0317200Y0332200D03*
X0317200Y0322200D03*
X0317200Y0312200D03*
X0317200Y0302200D03*
X0317200Y0292200D03*
X0317200Y0282200D03*
X0317200Y0272200D03*
X0317200Y0262200D03*
X0317200Y0252200D03*
X0317200Y0242200D03*
X0317200Y0232200D03*
X0317200Y0222200D03*
X0317200Y0212200D03*
X0317200Y0202200D03*
D13*
X0094972Y0122200D02*
X0089428Y0122200D01*
X0089428Y0132200D02*
X0094972Y0132200D01*
X0094972Y0142200D02*
X0089428Y0142200D01*
X0144428Y0092200D02*
X0149972Y0092200D01*
X0149972Y0082200D02*
X0144428Y0082200D01*
X0144428Y0072200D02*
X0149972Y0072200D01*
X0227279Y0044972D02*
X0227279Y0039428D01*
X0237121Y0039428D02*
X0237121Y0044972D01*
X0409428Y0112279D02*
X0414972Y0112279D01*
X0414972Y0122121D02*
X0409428Y0122121D01*
X0459428Y0122121D02*
X0464972Y0122121D01*
X0464972Y0112279D02*
X0459428Y0112279D01*
X0484428Y0152279D02*
X0489972Y0152279D01*
X0489972Y0162121D02*
X0484428Y0162121D01*
X0504428Y0192279D02*
X0509972Y0192279D01*
X0509972Y0202121D02*
X0504428Y0202121D01*
X0519428Y0232279D02*
X0524972Y0232279D01*
X0524972Y0242121D02*
X0519428Y0242121D01*
X0519428Y0272279D02*
X0524972Y0272279D01*
X0524972Y0282121D02*
X0519428Y0282121D01*
X0519428Y0312279D02*
X0524972Y0312279D01*
X0524972Y0322121D02*
X0519428Y0322121D01*
X0509972Y0352279D02*
X0504428Y0352279D01*
X0504428Y0362121D02*
X0509972Y0362121D01*
X0489972Y0392279D02*
X0484428Y0392279D01*
X0484428Y0402121D02*
X0489972Y0402121D01*
X0464972Y0432279D02*
X0459428Y0432279D01*
X0459428Y0442121D02*
X0464972Y0442121D01*
X0414972Y0442121D02*
X0409428Y0442121D01*
X0409428Y0432279D02*
X0414972Y0432279D01*
X0369972Y0352200D02*
X0364428Y0352200D01*
X0364428Y0342200D02*
X0369972Y0342200D01*
X0369972Y0332200D02*
X0364428Y0332200D01*
X0149972Y0462200D02*
X0144428Y0462200D01*
X0144428Y0472200D02*
X0149972Y0472200D01*
X0149972Y0482200D02*
X0144428Y0482200D01*
X0094972Y0432200D02*
X0089428Y0432200D01*
X0089428Y0422200D02*
X0094972Y0422200D01*
X0094972Y0412200D02*
X0089428Y0412200D01*
D14*
X0062200Y0387200D03*
X0062200Y0377200D03*
X0062200Y0367200D03*
X0062200Y0357200D03*
X0062200Y0347200D03*
X0062200Y0337200D03*
X0062200Y0327200D03*
X0062200Y0317200D03*
X0052200Y0317200D03*
X0052200Y0327200D03*
X0052200Y0337200D03*
X0052200Y0347200D03*
X0052200Y0357200D03*
X0052200Y0367200D03*
X0052200Y0377200D03*
X0052200Y0387200D03*
X0052200Y0237200D03*
X0052200Y0227200D03*
X0052200Y0217200D03*
X0052200Y0207200D03*
X0052200Y0197200D03*
X0052200Y0187200D03*
X0052200Y0177200D03*
X0052200Y0167200D03*
X0062200Y0167200D03*
X0062200Y0177200D03*
X0062200Y0187200D03*
X0062200Y0197200D03*
X0062200Y0207200D03*
X0062200Y0217200D03*
X0062200Y0227200D03*
X0062200Y0237200D03*
X0147200Y0167200D03*
X0192200Y0057200D03*
X0192200Y0047200D03*
X0342200Y0182200D03*
X0342200Y0192200D03*
D15*
X0147200Y0177200D03*
D16*
X0239200Y0112200D03*
D17*
X0225200Y0112200D03*
D18*
X0395310Y0072627D03*
X0395310Y0277200D03*
X0395310Y0481773D03*
X0040980Y0277200D03*
D19*
X0147200Y0132200D03*
X0167200Y0132200D03*
D20*
X0182200Y0187200D03*
X0167200Y0247200D03*
X0162200Y0247200D03*
X0157200Y0247200D03*
X0192200Y0292200D03*
X0172200Y0437200D03*
X0197200Y0439700D03*
X0354700Y0334700D03*
D21*
X0202200Y0407200D03*
X0172200Y0252200D03*
X0177200Y0247200D03*
X0194700Y0224700D03*
X0122200Y0137200D03*
M02*
